%TF.GenerationSoftware,KiCad,Pcbnew,10.0.3*%
%TF.CreationDate,2026-06-23T01:27:28-06:00*%
%TF.ProjectId,mk9-badge,6d6b392d-6261-4646-9765-2e6b69636164,1.0*%
%TF.SameCoordinates,PX6012ba0PY6de6c40*%
%TF.FileFunction,Soldermask,Top*%
%TF.FilePolarity,Negative*%
%FSLAX46Y46*%
G04 Gerber Fmt 4.6, Leading zero omitted, Abs format (unit mm)*
G04 Created by KiCad (PCBNEW 10.0.3) date 2026-06-23 01:27:28*
%MOMM*%
%LPD*%
G01*
G04 APERTURE LIST*
G04 Aperture macros list*
%AMRoundRect*
0 Rectangle with rounded corners*
0 $1 Rounding radius*
0 $2 $3 $4 $5 $6 $7 $8 $9 X,Y pos of 4 corners*
0 Add a 4 corners polygon primitive as box body*
4,1,4,$2,$3,$4,$5,$6,$7,$8,$9,$2,$3,0*
0 Add four circle primitives for the rounded corners*
1,1,$1+$1,$2,$3*
1,1,$1+$1,$4,$5*
1,1,$1+$1,$6,$7*
1,1,$1+$1,$8,$9*
0 Add four rect primitives between the rounded corners*
20,1,$1+$1,$2,$3,$4,$5,0*
20,1,$1+$1,$4,$5,$6,$7,0*
20,1,$1+$1,$6,$7,$8,$9,0*
20,1,$1+$1,$8,$9,$2,$3,0*%
G04 Aperture macros list end*
%ADD10C,0.000000*%
%ADD11C,0.650000*%
%ADD12O,1.000000X1.600000*%
%ADD13O,1.000000X2.100000*%
%ADD14C,2.286000*%
%ADD15RoundRect,0.090000X-0.660000X-0.360000X0.660000X-0.360000X0.660000X0.360000X-0.660000X0.360000X0*%
%ADD16RoundRect,0.250000X-0.300000X0.300000X-0.300000X-0.300000X0.300000X-0.300000X0.300000X0.300000X0*%
%ADD17RoundRect,0.225000X-0.250000X0.225000X-0.250000X-0.225000X0.250000X-0.225000X0.250000X0.225000X0*%
%ADD18O,1.700000X1.700000*%
%ADD19C,1.700000*%
%ADD20C,0.700000*%
%ADD21C,0.900000*%
G04 APERTURE END LIST*
D10*
%TO.C,G\u002A\u002A\u002A*%
G36*
X41857456Y3653312D02*
G01*
X41857456Y1047640D01*
X41529099Y1047640D01*
X41200742Y1047640D01*
X41200742Y3653312D01*
X41200742Y6258983D01*
X41529099Y6258983D01*
X41857456Y6258983D01*
X41857456Y3653312D01*
G37*
G36*
X54335021Y69653061D02*
G01*
X54335021Y68773912D01*
X50860792Y68773912D01*
X47386564Y68773912D01*
X47386564Y69653061D01*
X47386564Y70532211D01*
X50860792Y70532211D01*
X54335021Y70532211D01*
X54335021Y69653061D01*
G37*
G36*
X27946317Y72465280D02*
G01*
X27896702Y72258389D01*
X27860345Y72050772D01*
X27835353Y71829013D01*
X27819834Y71579701D01*
X27819218Y71564946D01*
X27805614Y71231293D01*
X24302928Y71231293D01*
X20800242Y71231293D01*
X20800242Y71940968D01*
X20800242Y72650643D01*
X24398263Y72650643D01*
X27996284Y72650643D01*
X27946317Y72465280D01*
G37*
G36*
X27812252Y69783275D02*
G01*
X27812637Y69602899D01*
X27813731Y69430594D01*
X27815442Y69272300D01*
X27817678Y69133958D01*
X27820347Y69021508D01*
X27823357Y68940890D01*
X27825862Y68904126D01*
X27839472Y68773912D01*
X24319857Y68773912D01*
X20800242Y68773912D01*
X20800242Y69653061D01*
X20800242Y70532211D01*
X24306247Y70532211D01*
X27812252Y70532211D01*
X27812252Y69783275D01*
G37*
G36*
X41158374Y3653312D02*
G01*
X41158374Y1047640D01*
X40874732Y1047640D01*
X40756839Y1048329D01*
X40673396Y1051035D01*
X40616498Y1056719D01*
X40578240Y1066338D01*
X40550718Y1080853D01*
X40541079Y1088135D01*
X40491068Y1128629D01*
X40484789Y3593181D01*
X40483870Y4011275D01*
X40483354Y4388138D01*
X40483250Y4724907D01*
X40483565Y5022717D01*
X40484307Y5282704D01*
X40485483Y5506003D01*
X40487100Y5693752D01*
X40489167Y5847086D01*
X40491691Y5967141D01*
X40494680Y6055052D01*
X40498141Y6111957D01*
X40501814Y6138130D01*
X40518819Y6182863D01*
X40544211Y6215102D01*
X40584462Y6236837D01*
X40646046Y6250059D01*
X40735434Y6256756D01*
X40859100Y6258918D01*
X40894949Y6258983D01*
X41158374Y6258983D01*
X41158374Y3653312D01*
G37*
G36*
X54335021Y71940968D02*
G01*
X54335021Y71231293D01*
X50860792Y71231293D01*
X47386564Y71231293D01*
X47386439Y71533170D01*
X47374708Y71846050D01*
X47338059Y72142871D01*
X47273906Y72440990D01*
X47225426Y72613570D01*
X47225495Y72618313D01*
X47229941Y72622633D01*
X47240639Y72626552D01*
X47259459Y72630088D01*
X47288274Y72633262D01*
X47328955Y72636092D01*
X47383374Y72638599D01*
X47453403Y72640801D01*
X47540915Y72642718D01*
X47647780Y72644371D01*
X47775871Y72645777D01*
X47927060Y72646958D01*
X48103219Y72647933D01*
X48306219Y72648720D01*
X48537933Y72649340D01*
X48800232Y72649813D01*
X49094988Y72650157D01*
X49424073Y72650392D01*
X49789359Y72650538D01*
X50192719Y72650615D01*
X50636023Y72650642D01*
X50774627Y72650643D01*
X54335021Y72650643D01*
X54335021Y71940968D01*
G37*
G36*
X42187734Y6255328D02*
G01*
X42303845Y6252129D01*
X42385214Y6248206D01*
X42439465Y6242236D01*
X42474219Y6232898D01*
X42497099Y6218869D01*
X42515728Y6198827D01*
X42516091Y6198379D01*
X42522209Y6189799D01*
X42527678Y6178490D01*
X42532534Y6162158D01*
X42536812Y6138504D01*
X42540550Y6105233D01*
X42543784Y6060048D01*
X42546550Y6000652D01*
X42548885Y5924749D01*
X42550825Y5830043D01*
X42552407Y5714236D01*
X42553667Y5575032D01*
X42554642Y5410134D01*
X42555367Y5217246D01*
X42555881Y4994072D01*
X42556218Y4738314D01*
X42556416Y4447677D01*
X42556510Y4119863D01*
X42556538Y3752576D01*
X42556539Y3650002D01*
X42556539Y1151636D01*
X42504541Y1099638D01*
X42481204Y1078382D01*
X42455899Y1063877D01*
X42420501Y1054836D01*
X42366887Y1049975D01*
X42286931Y1048005D01*
X42176184Y1047640D01*
X41899825Y1047640D01*
X41899825Y3654953D01*
X41899825Y6262266D01*
X42187734Y6255328D01*
G37*
G36*
X39529344Y5490880D02*
G01*
X39598224Y5424833D01*
X39654805Y5333873D01*
X39689828Y5235348D01*
X39696656Y5177426D01*
X39685998Y5109765D01*
X39659400Y5034818D01*
X39648991Y5014083D01*
X39624201Y4982781D01*
X39569341Y4923682D01*
X39485423Y4837778D01*
X39373463Y4726062D01*
X39234472Y4589526D01*
X39069466Y4429164D01*
X38879459Y4245967D01*
X38665463Y4040928D01*
X38428494Y3815040D01*
X38282270Y3676139D01*
X36963214Y2424621D01*
X38637107Y2424621D01*
X40311001Y2424621D01*
X40311001Y2085672D01*
X40311001Y1746723D01*
X38240234Y1747653D01*
X37889067Y1747892D01*
X37577861Y1748299D01*
X37304208Y1748909D01*
X37065700Y1749755D01*
X36859930Y1750873D01*
X36684489Y1752296D01*
X36536971Y1754060D01*
X36414967Y1756199D01*
X36316070Y1758747D01*
X36237873Y1761739D01*
X36177966Y1765209D01*
X36133943Y1769192D01*
X36103396Y1773722D01*
X36084729Y1778542D01*
X35985017Y1834440D01*
X35910373Y1917480D01*
X35863638Y2018739D01*
X35847649Y2129290D01*
X35865246Y2240209D01*
X35909548Y2329292D01*
X35931399Y2353300D01*
X35981706Y2404149D01*
X36058128Y2479582D01*
X36158327Y2577341D01*
X36279960Y2695170D01*
X36420689Y2830811D01*
X36578173Y2982007D01*
X36750072Y3146500D01*
X36934046Y3322035D01*
X37127755Y3506352D01*
X37260232Y3632127D01*
X38566697Y4871410D01*
X36917915Y4876835D01*
X35269133Y4882260D01*
X35269133Y5210488D01*
X35269133Y5538716D01*
X37363247Y5538716D01*
X39457362Y5538716D01*
X39529344Y5490880D01*
G37*
G36*
X34140451Y4852775D02*
G01*
X34263886Y4830759D01*
X34390295Y4797938D01*
X34509818Y4757479D01*
X34612595Y4712550D01*
X34688765Y4666320D01*
X34716941Y4640068D01*
X34717434Y4612199D01*
X34704637Y4554597D01*
X34681824Y4476527D01*
X34652268Y4387253D01*
X34619242Y4296040D01*
X34586021Y4212151D01*
X34555876Y4144852D01*
X34532083Y4103407D01*
X34524660Y4095867D01*
X34459200Y4078170D01*
X34371730Y4090591D01*
X34274516Y4129429D01*
X34137379Y4183017D01*
X34009400Y4197553D01*
X33883779Y4172574D01*
X33753713Y4107620D01*
X33730715Y4092598D01*
X33624842Y3996905D01*
X33552222Y3877008D01*
X33515454Y3737952D01*
X33511299Y3666781D01*
X33526546Y3527687D01*
X33574122Y3410749D01*
X33658428Y3306261D01*
X33686607Y3280199D01*
X33808197Y3195699D01*
X33935789Y3152157D01*
X34071710Y3149299D01*
X34218287Y3186854D01*
X34276429Y3211279D01*
X34353335Y3245139D01*
X34404651Y3261895D01*
X34442423Y3263903D01*
X34478695Y3253519D01*
X34483144Y3251708D01*
X34531837Y3222897D01*
X34560226Y3190613D01*
X34579694Y3139237D01*
X34605664Y3065545D01*
X34634849Y2979540D01*
X34663960Y2891229D01*
X34689711Y2810617D01*
X34708815Y2747708D01*
X34717983Y2712508D01*
X34718340Y2709399D01*
X34699900Y2684750D01*
X34650802Y2650849D01*
X34580379Y2612439D01*
X34497964Y2574260D01*
X34412890Y2541054D01*
X34346734Y2520611D01*
X34237702Y2501514D01*
X34104029Y2491807D01*
X33961718Y2491463D01*
X33826773Y2500458D01*
X33715197Y2518764D01*
X33703872Y2521657D01*
X33511270Y2594783D01*
X33333410Y2704201D01*
X33175184Y2844997D01*
X33041481Y3012256D01*
X32937191Y3201064D01*
X32883493Y3346139D01*
X32858166Y3468080D01*
X32847212Y3619406D01*
X32846632Y3685088D01*
X32858909Y3873298D01*
X32896466Y4039918D01*
X32963512Y4200114D01*
X33015001Y4291835D01*
X33091640Y4397074D01*
X33193371Y4507344D01*
X33307088Y4610152D01*
X33419683Y4693006D01*
X33462441Y4718287D01*
X33584723Y4771767D01*
X33730461Y4816464D01*
X33880937Y4847674D01*
X34017435Y4860697D01*
X34029850Y4860818D01*
X34140451Y4852775D01*
G37*
G36*
X34241916Y5550923D02*
G01*
X34500361Y5505144D01*
X34580642Y5482486D01*
X34670062Y5451693D01*
X34760495Y5415439D01*
X34843621Y5377726D01*
X34911122Y5342558D01*
X34954679Y5313936D01*
X34966457Y5296840D01*
X34957085Y5269602D01*
X34936566Y5209945D01*
X34907530Y5125518D01*
X34872609Y5023967D01*
X34855239Y4973456D01*
X34751923Y4672999D01*
X34621770Y4745785D01*
X34484230Y4808913D01*
X34326423Y4859338D01*
X34166462Y4892235D01*
X34031757Y4902873D01*
X33818087Y4881781D01*
X33609612Y4821930D01*
X33413048Y4726907D01*
X33235111Y4600294D01*
X33082518Y4445676D01*
X33020787Y4363358D01*
X32908549Y4163305D01*
X32836140Y3954519D01*
X32803080Y3741316D01*
X32808889Y3528014D01*
X32853089Y3318930D01*
X32935199Y3118382D01*
X33054740Y2930688D01*
X33197454Y2772987D01*
X33376033Y2631571D01*
X33570232Y2529537D01*
X33779989Y2466912D01*
X34005242Y2443719D01*
X34022722Y2443570D01*
X34206292Y2453736D01*
X34370648Y2487953D01*
X34534040Y2550484D01*
X34584364Y2574781D01*
X34662082Y2612678D01*
X34710823Y2632345D01*
X34738802Y2635840D01*
X34754236Y2625220D01*
X34758302Y2618342D01*
X34778414Y2571263D01*
X34804934Y2498321D01*
X34835112Y2408467D01*
X34866199Y2310653D01*
X34895445Y2213832D01*
X34920102Y2126957D01*
X34937419Y2058978D01*
X34944648Y2018849D01*
X34944242Y2012921D01*
X34918997Y1991135D01*
X34861841Y1961178D01*
X34781600Y1926528D01*
X34687099Y1890661D01*
X34587163Y1857055D01*
X34490617Y1829186D01*
X34456688Y1820831D01*
X34334198Y1799709D01*
X34186840Y1785316D01*
X34031298Y1778408D01*
X33884254Y1779743D01*
X33766329Y1789515D01*
X33496167Y1847631D01*
X33243597Y1942030D01*
X33010966Y2069467D01*
X32800626Y2226691D01*
X32614925Y2410456D01*
X32456212Y2617513D01*
X32326838Y2844615D01*
X32229151Y3088514D01*
X32165501Y3345961D01*
X32138237Y3613709D01*
X32149709Y3888510D01*
X32166045Y4001839D01*
X32233515Y4273014D01*
X32338210Y4524284D01*
X32480898Y4757183D01*
X32640613Y4950413D01*
X32842419Y5141160D01*
X33055714Y5293629D01*
X33286225Y5411517D01*
X33447281Y5471120D01*
X33706082Y5533818D01*
X33974058Y5560451D01*
X34241916Y5550923D01*
G37*
G36*
X37136155Y4839528D02*
G01*
X37380500Y4839221D01*
X37608924Y4838729D01*
X37818172Y4838071D01*
X38004992Y4837261D01*
X38166130Y4836317D01*
X38298332Y4835256D01*
X38398347Y4834095D01*
X38462919Y4832849D01*
X38488797Y4831536D01*
X38489149Y4831362D01*
X38474169Y4815522D01*
X38431705Y4774507D01*
X38365475Y4711811D01*
X38279196Y4630924D01*
X38176584Y4535338D01*
X38061357Y4428542D01*
X37996614Y4368748D01*
X37739353Y4130983D01*
X37490937Y3900509D01*
X37253214Y3679081D01*
X37028031Y3468456D01*
X36817237Y3270391D01*
X36622679Y3086641D01*
X36446204Y2918963D01*
X36289660Y2769113D01*
X36154895Y2638847D01*
X36043756Y2529922D01*
X35958091Y2444094D01*
X35899747Y2383119D01*
X35870572Y2348754D01*
X35868996Y2346295D01*
X35821219Y2230909D01*
X35805721Y2109543D01*
X35820347Y1990674D01*
X35862943Y1882780D01*
X35931354Y1794339D01*
X36023425Y1733830D01*
X36024802Y1733250D01*
X36042759Y1728376D01*
X36073459Y1724057D01*
X36119218Y1720262D01*
X36182350Y1716961D01*
X36265169Y1714123D01*
X36369990Y1711718D01*
X36499126Y1709714D01*
X36654891Y1708082D01*
X36839601Y1706789D01*
X37055568Y1705807D01*
X37305107Y1705103D01*
X37590533Y1704647D01*
X37914160Y1704409D01*
X38202481Y1704354D01*
X40311001Y1704354D01*
X40311001Y1422059D01*
X40310591Y1307155D01*
X40308577Y1226751D01*
X40303785Y1172979D01*
X40295041Y1137973D01*
X40281169Y1113864D01*
X40261971Y1093702D01*
X40212941Y1047640D01*
X38106466Y1049442D01*
X37737135Y1049886D01*
X37408180Y1050569D01*
X37117608Y1051515D01*
X36863427Y1052749D01*
X36643645Y1054298D01*
X36456269Y1056186D01*
X36299307Y1058438D01*
X36170767Y1061081D01*
X36068656Y1064139D01*
X35990982Y1067637D01*
X35935752Y1071601D01*
X35900975Y1076056D01*
X35894070Y1077532D01*
X35712357Y1143119D01*
X35552421Y1241554D01*
X35416117Y1368294D01*
X35305297Y1518795D01*
X35221816Y1688513D01*
X35167527Y1872906D01*
X35144284Y2067430D01*
X35153940Y2267541D01*
X35198349Y2468696D01*
X35261030Y2629195D01*
X35280130Y2667900D01*
X35300912Y2704895D01*
X35326092Y2743019D01*
X35358381Y2785111D01*
X35400493Y2834008D01*
X35455143Y2892551D01*
X35525043Y2963576D01*
X35612907Y3049923D01*
X35721447Y3154431D01*
X35853379Y3279938D01*
X36011415Y3429283D01*
X36156624Y3566098D01*
X36800495Y4172328D01*
X36069814Y4182920D01*
X35864688Y4186226D01*
X35698194Y4189729D01*
X35566594Y4193625D01*
X35466152Y4198105D01*
X35393129Y4203363D01*
X35343790Y4209594D01*
X35314398Y4216991D01*
X35304133Y4222586D01*
X35289830Y4240532D01*
X35279935Y4271155D01*
X35273697Y4321397D01*
X35270363Y4398199D01*
X35269180Y4508502D01*
X35269133Y4545647D01*
X35269133Y4839634D01*
X36879141Y4839634D01*
X37136155Y4839528D01*
G37*
G36*
X34194121Y6254426D02*
G01*
X34350483Y6245377D01*
X34479959Y6230061D01*
X34491428Y6228091D01*
X34615211Y6202095D01*
X34744424Y6168268D01*
X34868489Y6129995D01*
X34976828Y6090657D01*
X35058864Y6053636D01*
X35084840Y6038327D01*
X35137518Y5988243D01*
X35158995Y5938626D01*
X35154981Y5900198D01*
X35139721Y5834927D01*
X35116172Y5751692D01*
X35087291Y5659371D01*
X35056037Y5566844D01*
X35025366Y5482987D01*
X34998235Y5416680D01*
X34977602Y5376801D01*
X34969343Y5369242D01*
X34940925Y5378185D01*
X34888501Y5401184D01*
X34845959Y5421942D01*
X34776204Y5452955D01*
X34682786Y5488774D01*
X34582878Y5522923D01*
X34555379Y5531517D01*
X34479409Y5553523D01*
X34412718Y5569056D01*
X34345021Y5579240D01*
X34266035Y5585198D01*
X34165474Y5588054D01*
X34033054Y5588932D01*
X34029850Y5588938D01*
X33897390Y5588558D01*
X33797090Y5586196D01*
X33718754Y5580749D01*
X33652181Y5571115D01*
X33587174Y5556193D01*
X33513535Y5534881D01*
X33504863Y5532221D01*
X33225180Y5425543D01*
X32972158Y5286581D01*
X32747235Y5116817D01*
X32551849Y4917729D01*
X32387436Y4690798D01*
X32255435Y4437503D01*
X32157283Y4159325D01*
X32151764Y4139135D01*
X32121540Y3983597D01*
X32105010Y3803071D01*
X32102170Y3612280D01*
X32113018Y3425952D01*
X32137552Y3258810D01*
X32151943Y3197849D01*
X32247692Y2923052D01*
X32379449Y2669157D01*
X32545007Y2438769D01*
X32742159Y2234497D01*
X32968698Y2058945D01*
X33222418Y1914720D01*
X33249037Y1902196D01*
X33498133Y1809870D01*
X33760960Y1754661D01*
X34030846Y1736555D01*
X34301117Y1755538D01*
X34565099Y1811597D01*
X34816117Y1904717D01*
X34817741Y1905466D01*
X34891375Y1939340D01*
X34948016Y1965117D01*
X34978556Y1978664D01*
X34981399Y1979750D01*
X34988943Y1960927D01*
X35007616Y1909329D01*
X35034819Y1832265D01*
X35067953Y1737046D01*
X35077415Y1709650D01*
X35120606Y1579973D01*
X35147444Y1483139D01*
X35157208Y1412616D01*
X35149179Y1361868D01*
X35122638Y1324361D01*
X35076865Y1293561D01*
X35029091Y1270759D01*
X34793176Y1184754D01*
X34532187Y1121989D01*
X34257418Y1083967D01*
X33980163Y1072194D01*
X33711717Y1088174D01*
X33684043Y1091582D01*
X33373663Y1152842D01*
X33072401Y1253363D01*
X32784556Y1390312D01*
X32514429Y1560856D01*
X32266320Y1762162D01*
X32044531Y1991397D01*
X31853362Y2245728D01*
X31798234Y2333835D01*
X31653889Y2616279D01*
X31545454Y2916130D01*
X31473524Y3227931D01*
X31438693Y3546226D01*
X31441559Y3865557D01*
X31482714Y4180468D01*
X31562757Y4485501D01*
X31563312Y4487160D01*
X31685927Y4788765D01*
X31843377Y5069879D01*
X32032619Y5327865D01*
X32250613Y5560088D01*
X32494318Y5763911D01*
X32760693Y5936700D01*
X33046696Y6075817D01*
X33349287Y6178627D01*
X33571662Y6227986D01*
X33699645Y6243989D01*
X33855111Y6253730D01*
X34024467Y6257210D01*
X34194121Y6254426D01*
G37*
G36*
X37785149Y6258758D02*
G01*
X38120283Y6258091D01*
X38425102Y6256998D01*
X38698141Y6255492D01*
X38937937Y6253587D01*
X39143027Y6251300D01*
X39311948Y6248642D01*
X39443235Y6245630D01*
X39535425Y6242276D01*
X39587055Y6238597D01*
X39593139Y6237687D01*
X39768051Y6184524D01*
X39933770Y6095072D01*
X40082160Y5975394D01*
X40205087Y5831556D01*
X40261553Y5739373D01*
X40333236Y5579459D01*
X40375758Y5419548D01*
X40392047Y5245683D01*
X40390296Y5125622D01*
X40385094Y5036892D01*
X40376805Y4957705D01*
X40363072Y4884799D01*
X40341536Y4814911D01*
X40309840Y4744777D01*
X40265627Y4671137D01*
X40206537Y4590726D01*
X40130213Y4500282D01*
X40034299Y4396544D01*
X39916435Y4276247D01*
X39774263Y4136131D01*
X39605428Y3972931D01*
X39448768Y3822786D01*
X38729045Y3134296D01*
X39471286Y3128724D01*
X39682529Y3127599D01*
X39855282Y3126548D01*
X39993388Y3123834D01*
X40100688Y3117722D01*
X40181023Y3106477D01*
X40238235Y3088361D01*
X40276164Y3061640D01*
X40298652Y3024578D01*
X40309541Y2975438D01*
X40312671Y2912486D01*
X40311884Y2833986D01*
X40311001Y2749285D01*
X40311001Y2466990D01*
X38981685Y2466912D01*
X38737700Y2466671D01*
X38498160Y2466003D01*
X38267826Y2464949D01*
X38051458Y2463550D01*
X37853817Y2461846D01*
X37679663Y2459879D01*
X37533755Y2457690D01*
X37420856Y2455319D01*
X37347584Y2452893D01*
X37216747Y2448268D01*
X37122471Y2447948D01*
X37066642Y2451892D01*
X37051004Y2459739D01*
X37068393Y2479860D01*
X37112192Y2524011D01*
X37177613Y2587555D01*
X37259869Y2665855D01*
X37354172Y2754274D01*
X37376972Y2775470D01*
X37449484Y2843272D01*
X37548816Y2936904D01*
X37671251Y3052828D01*
X37813071Y3187507D01*
X37970560Y3337401D01*
X38140000Y3498973D01*
X38317673Y3668684D01*
X38499862Y3842995D01*
X38682850Y4018369D01*
X38694029Y4029093D01*
X38904564Y4231415D01*
X39086062Y4406628D01*
X39240384Y4556613D01*
X39369391Y4683251D01*
X39474944Y4788423D01*
X39558905Y4874010D01*
X39623134Y4941892D01*
X39669493Y4993951D01*
X39699844Y5032066D01*
X39716047Y5058120D01*
X39718644Y5064506D01*
X39736441Y5181280D01*
X39719909Y5303344D01*
X39672973Y5417992D01*
X39599553Y5512517D01*
X39573520Y5534616D01*
X39498716Y5591677D01*
X37383925Y5597372D01*
X35269133Y5603066D01*
X35269133Y5898047D01*
X35269489Y6015584D01*
X35271257Y6098078D01*
X35275490Y6152851D01*
X35283239Y6187226D01*
X35295554Y6208526D01*
X35313488Y6224075D01*
X35316215Y6226005D01*
X35327548Y6231522D01*
X35346494Y6236397D01*
X35375530Y6240668D01*
X35417137Y6244375D01*
X35473791Y6247556D01*
X35547973Y6250249D01*
X35642161Y6252495D01*
X35758834Y6254331D01*
X35900471Y6255796D01*
X36069550Y6256930D01*
X36268550Y6257771D01*
X36499951Y6258358D01*
X36766230Y6258730D01*
X37069867Y6258925D01*
X37413341Y6258983D01*
X37421163Y6258983D01*
X37785149Y6258758D01*
G37*
G36*
X66955580Y72452283D02*
G01*
X66991240Y72442487D01*
X67056950Y72424740D01*
X67141813Y72401977D01*
X67197148Y72387198D01*
X67698905Y72231768D01*
X68190113Y72036752D01*
X68667815Y71804249D01*
X69129052Y71536356D01*
X69570869Y71235172D01*
X69990309Y70902793D01*
X70384413Y70541317D01*
X70750226Y70152843D01*
X71084789Y69739468D01*
X71245434Y69515363D01*
X71545698Y69041995D01*
X71805890Y68554998D01*
X72026138Y68054007D01*
X72206570Y67538657D01*
X72347314Y67008583D01*
X72448498Y66463419D01*
X72510203Y65903437D01*
X72511225Y65868460D01*
X72512224Y65792072D01*
X72513199Y65675231D01*
X72514151Y65518893D01*
X72515080Y65324016D01*
X72515986Y65091557D01*
X72516868Y64822474D01*
X72517726Y64517724D01*
X72518562Y64178265D01*
X72519374Y63805053D01*
X72520163Y63399047D01*
X72520928Y62961204D01*
X72521670Y62492481D01*
X72522389Y61993835D01*
X72523084Y61466224D01*
X72523756Y60910606D01*
X72524404Y60327937D01*
X72525030Y59719175D01*
X72525632Y59085278D01*
X72526210Y58427203D01*
X72526765Y57745907D01*
X72527297Y57042348D01*
X72527806Y56317483D01*
X72528291Y55572269D01*
X72528753Y54807665D01*
X72529191Y54024626D01*
X72529606Y53224111D01*
X72529998Y52407078D01*
X72530366Y51574483D01*
X72530711Y50727283D01*
X72531033Y49866437D01*
X72531331Y48992902D01*
X72531606Y48107635D01*
X72531857Y47211593D01*
X72532086Y46305734D01*
X72532290Y45391015D01*
X72532472Y44468394D01*
X72532630Y43538828D01*
X72532765Y42603275D01*
X72532876Y41662691D01*
X72532964Y40718035D01*
X72533029Y39770263D01*
X72533070Y38820333D01*
X72533088Y37869203D01*
X72533082Y36917830D01*
X72533054Y35967170D01*
X72533001Y35018183D01*
X72532926Y34071824D01*
X72532827Y33129052D01*
X72532705Y32190824D01*
X72532559Y31258096D01*
X72532390Y30331828D01*
X72532198Y29412975D01*
X72531982Y28502496D01*
X72531743Y27601348D01*
X72531480Y26710488D01*
X72531194Y25830873D01*
X72530885Y24963462D01*
X72530552Y24109211D01*
X72530196Y23269077D01*
X72529817Y22444019D01*
X72529414Y21634994D01*
X72528988Y20842958D01*
X72528539Y20068870D01*
X72528066Y19313686D01*
X72527570Y18578365D01*
X72527050Y17863863D01*
X72526507Y17171138D01*
X72525941Y16501148D01*
X72525351Y15854849D01*
X72524738Y15233200D01*
X72524101Y14637157D01*
X72523441Y14067678D01*
X72522758Y13525720D01*
X72522052Y13012241D01*
X72521322Y12528199D01*
X72520568Y12074549D01*
X72519791Y11652251D01*
X72518991Y11262261D01*
X72518168Y10905537D01*
X72517321Y10583036D01*
X72516450Y10295715D01*
X72515557Y10044532D01*
X72514640Y9830445D01*
X72513699Y9654410D01*
X72512735Y9517386D01*
X72511748Y9420329D01*
X72510737Y9364197D01*
X72510232Y9351894D01*
X72454356Y8816360D01*
X72363030Y8299979D01*
X72234798Y7797539D01*
X72068210Y7303828D01*
X71861811Y6813632D01*
X71723374Y6529048D01*
X71622319Y6341353D01*
X71502969Y6136829D01*
X71372155Y5926110D01*
X71236708Y5719830D01*
X71103461Y5528623D01*
X70979244Y5363122D01*
X70954083Y5331560D01*
X70585537Y4907628D01*
X70191288Y4516146D01*
X69772923Y4158081D01*
X69332032Y3834402D01*
X68870204Y3546075D01*
X68389027Y3294067D01*
X67890090Y3079346D01*
X67374980Y2902879D01*
X66845288Y2765634D01*
X66685459Y2732581D01*
X66622926Y2720171D01*
X66566025Y2708607D01*
X66513180Y2697858D01*
X66462812Y2687891D01*
X66413344Y2678674D01*
X66363200Y2670174D01*
X66310801Y2662358D01*
X66254571Y2655195D01*
X66192933Y2648651D01*
X66124308Y2642695D01*
X66047121Y2637294D01*
X65959793Y2632415D01*
X65860747Y2628026D01*
X65748406Y2624094D01*
X65621193Y2620587D01*
X65477530Y2617473D01*
X65315841Y2614720D01*
X65134547Y2612293D01*
X64932072Y2610162D01*
X64706839Y2608294D01*
X64457270Y2606657D01*
X64181787Y2605217D01*
X63878814Y2603942D01*
X63546773Y2602801D01*
X63184088Y2601760D01*
X62789180Y2600787D01*
X62360473Y2599849D01*
X61896389Y2598915D01*
X61395351Y2597952D01*
X60855781Y2596927D01*
X60276103Y2595808D01*
X60012419Y2595286D01*
X54112585Y2583504D01*
X53974887Y2536608D01*
X53757583Y2440951D01*
X53564228Y2311331D01*
X53397533Y2150449D01*
X53260209Y1961006D01*
X53154970Y1745701D01*
X53139956Y1705290D01*
X53075714Y1524288D01*
X53067924Y809317D01*
X53060134Y94346D01*
X52405334Y94346D01*
X51750534Y94346D01*
X51750534Y854206D01*
X51750999Y1077924D01*
X51752497Y1263881D01*
X51755184Y1416674D01*
X51759217Y1540904D01*
X51764750Y1641167D01*
X51771938Y1722063D01*
X51780939Y1788189D01*
X51782451Y1797096D01*
X51860218Y2124502D01*
X51974991Y2433281D01*
X52124774Y2721356D01*
X52307570Y2986651D01*
X52521385Y3227089D01*
X52764221Y3440594D01*
X53034082Y3625090D01*
X53328973Y3778499D01*
X53646897Y3898746D01*
X53858374Y3956599D01*
X54049033Y4001430D01*
X59970050Y4013587D01*
X60568239Y4014791D01*
X61125618Y4015881D01*
X61643746Y4016890D01*
X62124183Y4017851D01*
X62568486Y4018797D01*
X62978214Y4019761D01*
X63354927Y4020776D01*
X63700184Y4021874D01*
X64015542Y4023089D01*
X64302561Y4024453D01*
X64562799Y4025999D01*
X64797816Y4027760D01*
X65009170Y4029769D01*
X65198420Y4032058D01*
X65367125Y4034661D01*
X65516843Y4037610D01*
X65649133Y4040939D01*
X65765555Y4044679D01*
X65867666Y4048865D01*
X65957026Y4053528D01*
X66035194Y4058702D01*
X66103728Y4064419D01*
X66164187Y4070713D01*
X66218129Y4077615D01*
X66267115Y4085160D01*
X66312702Y4093380D01*
X66356449Y4102308D01*
X66399915Y4111976D01*
X66444659Y4122417D01*
X66492240Y4133665D01*
X66544216Y4145752D01*
X66575396Y4152805D01*
X67041890Y4278461D01*
X67494801Y4443113D01*
X67931725Y4644887D01*
X68350259Y4881911D01*
X68747998Y5152314D01*
X69122539Y5454223D01*
X69471479Y5785766D01*
X69792414Y6145070D01*
X70082939Y6530264D01*
X70340652Y6939475D01*
X70476175Y7191093D01*
X70658028Y7580254D01*
X70806631Y7966277D01*
X70925507Y8360265D01*
X71018177Y8773326D01*
X71064145Y9044721D01*
X71065931Y9057606D01*
X71067660Y9072604D01*
X71069334Y9090389D01*
X71070953Y9111635D01*
X71072519Y9137015D01*
X71074032Y9167203D01*
X71075493Y9202871D01*
X71076903Y9244694D01*
X71078264Y9293344D01*
X71079575Y9349496D01*
X71080837Y9413822D01*
X71082053Y9486997D01*
X71083222Y9569693D01*
X71084346Y9662584D01*
X71085425Y9766343D01*
X71086460Y9881645D01*
X71087452Y10009161D01*
X71088403Y10149566D01*
X71089312Y10303534D01*
X71090181Y10471737D01*
X71091012Y10654849D01*
X71091803Y10853543D01*
X71092558Y11068494D01*
X71093276Y11300373D01*
X71093958Y11549856D01*
X71094606Y11817614D01*
X71095219Y12104323D01*
X71095800Y12410654D01*
X71096349Y12737282D01*
X71096867Y13084880D01*
X71097355Y13454121D01*
X71097813Y13845679D01*
X71098243Y14260227D01*
X71098645Y14698439D01*
X71099021Y15160988D01*
X71099371Y15648548D01*
X71099696Y16161792D01*
X71099998Y16701393D01*
X71100276Y17268025D01*
X71100533Y17862361D01*
X71100768Y18485075D01*
X71100983Y19136841D01*
X71101178Y19818330D01*
X71101355Y20530218D01*
X71101515Y21273178D01*
X71101657Y22047882D01*
X71101784Y22855005D01*
X71101896Y23695219D01*
X71101995Y24569199D01*
X71102080Y25477618D01*
X71102153Y26421148D01*
X71102214Y27400464D01*
X71102265Y28416239D01*
X71102307Y29469147D01*
X71102340Y30559860D01*
X71102366Y31689053D01*
X71102385Y32857398D01*
X71102398Y34065570D01*
X71102406Y35314241D01*
X71102410Y36604085D01*
X71102410Y37632961D01*
X71102410Y65966990D01*
X71053939Y66271103D01*
X70953727Y66772341D01*
X70816073Y67253971D01*
X70641146Y67715658D01*
X70429115Y68157072D01*
X70180146Y68577879D01*
X69894409Y68977747D01*
X69572070Y69356344D01*
X69408257Y69526560D01*
X69236312Y69693507D01*
X69073708Y69839653D01*
X68908708Y69974567D01*
X68729575Y70107816D01*
X68524571Y70248970D01*
X68510901Y70258093D01*
X68256957Y70416214D01*
X67979484Y70569314D01*
X67690675Y70711505D01*
X67402724Y70836900D01*
X67127826Y70939612D01*
X67040317Y70968067D01*
X66918507Y71006003D01*
X66918507Y71734421D01*
X66918618Y71929428D01*
X66919090Y72086142D01*
X66920134Y72208639D01*
X66921960Y72300996D01*
X66924780Y72367288D01*
X66928803Y72411591D01*
X66934240Y72437981D01*
X66941302Y72450534D01*
X66950198Y72453325D01*
X66955580Y72452283D01*
G37*
G36*
X30914292Y8183089D02*
G01*
X31032631Y8179434D01*
X31116290Y8174491D01*
X31172959Y8167151D01*
X31210326Y8156305D01*
X31236080Y8140842D01*
X31241956Y8135808D01*
X31286480Y8095452D01*
X31286395Y5794941D01*
X31286366Y5418004D01*
X31286238Y5080842D01*
X31285902Y4780863D01*
X31285254Y4515473D01*
X31284185Y4282079D01*
X31282588Y4078087D01*
X31280357Y3900905D01*
X31277385Y3747939D01*
X31273565Y3616597D01*
X31268790Y3504284D01*
X31262953Y3408409D01*
X31255947Y3326377D01*
X31247665Y3255595D01*
X31238000Y3193471D01*
X31226846Y3137410D01*
X31214095Y3084821D01*
X31199641Y3033109D01*
X31183376Y2979682D01*
X31168350Y2931939D01*
X31048632Y2619616D01*
X30893906Y2330845D01*
X30703091Y2063799D01*
X30556383Y1898066D01*
X30338503Y1692405D01*
X30110448Y1521296D01*
X29861584Y1376925D01*
X29816893Y1354698D01*
X29509319Y1228025D01*
X29192899Y1142641D01*
X28869360Y1098808D01*
X28540429Y1096789D01*
X28288899Y1123226D01*
X27968537Y1193197D01*
X27662937Y1302581D01*
X27373935Y1450441D01*
X27103368Y1635842D01*
X26858276Y1852644D01*
X26638233Y2101004D01*
X26454083Y2370370D01*
X26306776Y2657788D01*
X26197264Y2960302D01*
X26126497Y3274957D01*
X26095427Y3598798D01*
X26105004Y3928869D01*
X26129036Y4118785D01*
X26200112Y4427206D01*
X26309818Y4723659D01*
X26455243Y5004529D01*
X26633481Y5266201D01*
X26841622Y5505058D01*
X27076758Y5717484D01*
X27335980Y5899866D01*
X27616380Y6048586D01*
X27715120Y6090480D01*
X27871658Y6149560D01*
X28013056Y6194517D01*
X28150128Y6227360D01*
X28293686Y6250098D01*
X28454544Y6264739D01*
X28643514Y6273293D01*
X28708453Y6274998D01*
X28853444Y6278009D01*
X28962108Y6279219D01*
X29040460Y6278267D01*
X29094517Y6274791D01*
X29130296Y6268431D01*
X29153813Y6258825D01*
X29169212Y6247338D01*
X29179142Y6239206D01*
X29187334Y6236837D01*
X29193954Y6243798D01*
X29199169Y6263656D01*
X29203148Y6299977D01*
X29206057Y6356328D01*
X29208063Y6436277D01*
X29209335Y6543389D01*
X29210039Y6681233D01*
X29210344Y6853373D01*
X29210416Y7063378D01*
X29210417Y7125309D01*
X29210558Y7359380D01*
X29211234Y7554713D01*
X29212829Y7714937D01*
X29215725Y7843683D01*
X29220304Y7944580D01*
X29226948Y8021258D01*
X29236040Y8077347D01*
X29247961Y8116478D01*
X29263096Y8142279D01*
X29281824Y8158381D01*
X29304530Y8168414D01*
X29320786Y8173182D01*
X29360341Y8178266D01*
X29432034Y8182469D01*
X29525633Y8185350D01*
X29629510Y8186467D01*
X29889721Y8186756D01*
X29883399Y5840593D01*
X29882381Y5473815D01*
X29881385Y5146970D01*
X29880368Y4857621D01*
X29879284Y4603332D01*
X29878090Y4381667D01*
X29876739Y4190190D01*
X29875189Y4026464D01*
X29873393Y3888053D01*
X29871308Y3772521D01*
X29868889Y3677432D01*
X29866091Y3600350D01*
X29862870Y3538838D01*
X29859181Y3490461D01*
X29854980Y3452782D01*
X29850221Y3423364D01*
X29844860Y3399773D01*
X29838854Y3379571D01*
X29838307Y3377916D01*
X29751117Y3171342D01*
X29632953Y2988328D01*
X29517037Y2857212D01*
X29350465Y2717085D01*
X29169671Y2613883D01*
X28979051Y2546467D01*
X28782998Y2513702D01*
X28585905Y2514452D01*
X28392168Y2547580D01*
X28206178Y2611948D01*
X28032332Y2706422D01*
X27875022Y2829864D01*
X27738642Y2981138D01*
X27627586Y3159108D01*
X27546249Y3362636D01*
X27544847Y3367323D01*
X27518943Y3495228D01*
X27508264Y3655617D01*
X27507993Y3694767D01*
X28168148Y3694767D01*
X28188248Y3555832D01*
X28244770Y3427908D01*
X28332051Y3318707D01*
X28444428Y3235941D01*
X28532519Y3198624D01*
X28630445Y3174105D01*
X28714049Y3170306D01*
X28805379Y3187129D01*
X28841142Y3197240D01*
X28972750Y3257788D01*
X29080586Y3352684D01*
X29155545Y3466779D01*
X29175399Y3508510D01*
X29189781Y3546999D01*
X29199572Y3589957D01*
X29205651Y3645093D01*
X29208898Y3720116D01*
X29210193Y3822736D01*
X29210417Y3947508D01*
X29210068Y4080754D01*
X29208724Y4176511D01*
X29205942Y4239656D01*
X29201276Y4275068D01*
X29194283Y4287622D01*
X29184519Y4282195D01*
X29180402Y4277002D01*
X29164225Y4260509D01*
X29138898Y4248521D01*
X29097384Y4239946D01*
X29032642Y4233691D01*
X28937632Y4228662D01*
X28846749Y4225194D01*
X28725300Y4220406D01*
X28637394Y4214977D01*
X28574213Y4207407D01*
X28526940Y4196194D01*
X28486758Y4179838D01*
X28444849Y4156837D01*
X28444718Y4156761D01*
X28318808Y4062441D01*
X28230930Y3949499D01*
X28180949Y3817711D01*
X28168148Y3694767D01*
X27507993Y3694767D01*
X27507914Y3706272D01*
X27525459Y3923544D01*
X27577729Y4119805D01*
X27666804Y4299749D01*
X27794762Y4468071D01*
X27886663Y4561332D01*
X28012666Y4667221D01*
X28141653Y4748977D01*
X28280893Y4808957D01*
X28437654Y4849517D01*
X28619205Y4873013D01*
X28832816Y4881801D01*
X28875919Y4882002D01*
X29018084Y4883233D01*
X29119806Y4887013D01*
X29182939Y4893472D01*
X29209339Y4902741D01*
X29210417Y4905509D01*
X29195434Y4914312D01*
X29148650Y4919940D01*
X29067315Y4922493D01*
X28948675Y4922072D01*
X28823803Y4919632D01*
X28682069Y4915700D01*
X28574513Y4911103D01*
X28492948Y4904872D01*
X28429185Y4896042D01*
X28375036Y4883644D01*
X28322311Y4866711D01*
X28296958Y4857388D01*
X28131772Y4785713D01*
X27993298Y4702593D01*
X27865909Y4598091D01*
X27821634Y4555211D01*
X27674159Y4381556D01*
X27566769Y4195473D01*
X27498289Y3994159D01*
X27467544Y3774815D01*
X27465510Y3706272D01*
X27482863Y3475951D01*
X27538356Y3263940D01*
X27632441Y3069193D01*
X27765570Y2890661D01*
X27858047Y2796725D01*
X28037053Y2657678D01*
X28230714Y2555951D01*
X28434361Y2491489D01*
X28643328Y2464235D01*
X28852946Y2474137D01*
X29058550Y2521138D01*
X29255470Y2605185D01*
X29439040Y2726222D01*
X29540724Y2816471D01*
X29652342Y2935694D01*
X29737246Y3050431D01*
X29805633Y3176563D01*
X29864118Y3320120D01*
X29920092Y3473245D01*
X29926005Y5830001D01*
X29931918Y8186756D01*
X30260264Y8186756D01*
X30588611Y8186756D01*
X30582471Y5787632D01*
X30576332Y3388508D01*
X30529183Y3219033D01*
X30468067Y3040758D01*
X30384175Y2854841D01*
X30285199Y2676047D01*
X30178829Y2519141D01*
X30138192Y2468470D01*
X29944014Y2270910D01*
X29726815Y2106683D01*
X29490821Y1976676D01*
X29240258Y1881777D01*
X28979351Y1822874D01*
X28712326Y1800852D01*
X28443409Y1816601D01*
X28176825Y1871007D01*
X27916800Y1964958D01*
X27861962Y1990503D01*
X27620064Y2130593D01*
X27405119Y2301221D01*
X27219261Y2498762D01*
X27064621Y2719592D01*
X26943334Y2960086D01*
X26857532Y3216619D01*
X26809349Y3485568D01*
X26800918Y3763307D01*
X26802319Y3791010D01*
X26838990Y4074297D01*
X26913905Y4342576D01*
X27024757Y4592936D01*
X27169238Y4822466D01*
X27345039Y5028254D01*
X27549852Y5207388D01*
X27781369Y5356958D01*
X28037281Y5474051D01*
X28172385Y5519133D01*
X28234370Y5535786D01*
X28297521Y5548488D01*
X28369587Y5557972D01*
X28458318Y5564970D01*
X28571461Y5570214D01*
X28716766Y5574436D01*
X28770842Y5575681D01*
X28928766Y5580176D01*
X29054198Y5585902D01*
X29144538Y5592674D01*
X29197185Y5600307D01*
X29210417Y5606883D01*
X29189391Y5614809D01*
X29126729Y5619664D01*
X29023053Y5621430D01*
X28878983Y5620092D01*
X28792027Y5618254D01*
X28642404Y5614131D01*
X28526642Y5609355D01*
X28436232Y5602996D01*
X28362667Y5594123D01*
X28297439Y5581804D01*
X28232042Y5565108D01*
X28187462Y5552085D01*
X27910005Y5447599D01*
X27656468Y5309389D01*
X27429034Y5139716D01*
X27229886Y4940842D01*
X27061207Y4715027D01*
X26925180Y4464533D01*
X26823988Y4191620D01*
X26804188Y4119367D01*
X26778955Y3978976D01*
X26765686Y3812308D01*
X26764229Y3633686D01*
X26774430Y3457431D01*
X26796136Y3297864D01*
X26813821Y3219033D01*
X26907721Y2948453D01*
X27037080Y2697745D01*
X27198852Y2469903D01*
X27389988Y2267925D01*
X27607439Y2094805D01*
X27848158Y1953540D01*
X28109095Y1847125D01*
X28250739Y1806807D01*
X28403886Y1779165D01*
X28577620Y1763762D01*
X28757127Y1760788D01*
X28927589Y1770430D01*
X29074190Y1792877D01*
X29088338Y1796164D01*
X29368926Y1885038D01*
X29628018Y2009470D01*
X29863372Y2167276D01*
X30072746Y2356273D01*
X30253899Y2574278D01*
X30404590Y2819107D01*
X30522577Y3088578D01*
X30570965Y3240217D01*
X30618516Y3409692D01*
X30624834Y5799853D01*
X30631153Y8190013D01*
X30914292Y8183089D01*
G37*
G36*
X45674549Y6238499D02*
G01*
X45990577Y6177489D01*
X46293538Y6076613D01*
X46581862Y5936533D01*
X46853982Y5757911D01*
X47108330Y5541407D01*
X47153536Y5497029D01*
X47368231Y5256910D01*
X47547458Y5001488D01*
X47694002Y4725714D01*
X47810652Y4424543D01*
X47879227Y4182920D01*
X47887978Y4145728D01*
X47895526Y4108339D01*
X47901983Y4067371D01*
X47907460Y4019442D01*
X47912065Y3961170D01*
X47915910Y3889174D01*
X47919106Y3800071D01*
X47921763Y3690480D01*
X47923991Y3557020D01*
X47925901Y3396309D01*
X47927604Y3204964D01*
X47929209Y2979604D01*
X47930828Y2716848D01*
X47931626Y2579425D01*
X47933213Y2299290D01*
X47934474Y2058446D01*
X47935334Y1853818D01*
X47935720Y1682329D01*
X47935557Y1540904D01*
X47934770Y1426465D01*
X47933286Y1335936D01*
X47931030Y1266242D01*
X47927928Y1214307D01*
X47923905Y1177053D01*
X47918888Y1151405D01*
X47912802Y1134286D01*
X47905572Y1122621D01*
X47897125Y1113333D01*
X47896205Y1112411D01*
X47875033Y1094704D01*
X47847999Y1082540D01*
X47807367Y1074895D01*
X47745403Y1070747D01*
X47654372Y1069073D01*
X47566630Y1068825D01*
X47280642Y1068825D01*
X47280582Y2366364D01*
X47280153Y2663250D01*
X47278917Y2933133D01*
X47276910Y3173777D01*
X47274166Y3382945D01*
X47270720Y3558402D01*
X47266609Y3697911D01*
X47261865Y3799236D01*
X47257255Y3854563D01*
X47201740Y4141792D01*
X47108700Y4411789D01*
X46980414Y4661841D01*
X46819161Y4889233D01*
X46627220Y5091253D01*
X46406870Y5265187D01*
X46160390Y5408321D01*
X45890058Y5517941D01*
X45849655Y5530698D01*
X45771463Y5553382D01*
X45703501Y5569257D01*
X45635095Y5579516D01*
X45555569Y5585350D01*
X45454247Y5587950D01*
X45331685Y5588510D01*
X45200709Y5587845D01*
X45101397Y5585053D01*
X45023056Y5578937D01*
X44954990Y5568301D01*
X44886507Y5551947D01*
X44812669Y5530437D01*
X44543588Y5427396D01*
X44295380Y5289928D01*
X44071140Y5121044D01*
X43873964Y4923755D01*
X43706948Y4701071D01*
X43573187Y4456002D01*
X43492400Y4246473D01*
X43426237Y3971616D01*
X43401669Y3695039D01*
X43418226Y3420085D01*
X43475438Y3150101D01*
X43572834Y2888430D01*
X43709946Y2638418D01*
X43720614Y2622054D01*
X43889185Y2403530D01*
X44088551Y2209738D01*
X44313242Y2044131D01*
X44557787Y1910160D01*
X44816718Y1811279D01*
X45084564Y1750939D01*
X45105486Y1747979D01*
X45185166Y1739773D01*
X45284156Y1733443D01*
X45394638Y1729028D01*
X45508793Y1726571D01*
X45618801Y1726112D01*
X45716843Y1727693D01*
X45795102Y1731353D01*
X45845758Y1737134D01*
X45861293Y1744019D01*
X45841175Y1750195D01*
X45785074Y1756614D01*
X45699372Y1762828D01*
X45590449Y1768387D01*
X45464685Y1772843D01*
X45442902Y1773438D01*
X45252454Y1780344D01*
X45095365Y1791214D01*
X44962685Y1807756D01*
X44845465Y1831675D01*
X44734756Y1864679D01*
X44621606Y1908476D01*
X44536452Y1946333D01*
X44312868Y2069533D01*
X44107990Y2225243D01*
X43974589Y2353410D01*
X43857764Y2483018D01*
X43765122Y2605242D01*
X43685590Y2736202D01*
X43615343Y2876413D01*
X43558841Y3003729D01*
X43517411Y3115728D01*
X43488826Y3223546D01*
X43470857Y3338317D01*
X43461273Y3471180D01*
X43457847Y3633270D01*
X43457718Y3663904D01*
X43458175Y3800427D01*
X43460966Y3904721D01*
X43467047Y3986904D01*
X43477379Y4057095D01*
X43492921Y4125410D01*
X43505901Y4172328D01*
X43605088Y4441943D01*
X43738972Y4688449D01*
X43905444Y4909731D01*
X44102400Y5103674D01*
X44327733Y5268162D01*
X44579336Y5401079D01*
X44816978Y5489092D01*
X44896493Y5511911D01*
X44966730Y5527771D01*
X45038809Y5537949D01*
X45123849Y5543723D01*
X45232972Y5546371D01*
X45321093Y5547016D01*
X45467020Y5546070D01*
X45580673Y5541395D01*
X45672046Y5532173D01*
X45751132Y5517589D01*
X45785358Y5509063D01*
X46063386Y5414041D01*
X46317135Y5285171D01*
X46544690Y5124365D01*
X46744139Y4933536D01*
X46913567Y4714597D01*
X47051061Y4469459D01*
X47154706Y4200035D01*
X47178296Y4117111D01*
X47187483Y4081134D01*
X47195406Y4045949D01*
X47202177Y4008202D01*
X47207909Y3964541D01*
X47212717Y3911612D01*
X47216713Y3846062D01*
X47220011Y3764539D01*
X47222725Y3663689D01*
X47224968Y3540160D01*
X47226853Y3390599D01*
X47228494Y3211651D01*
X47230005Y2999966D01*
X47231498Y2752188D01*
X47232875Y2504062D01*
X47240699Y1068825D01*
X46900537Y1068825D01*
X46560375Y1068825D01*
X46560375Y2465896D01*
X46560375Y3862968D01*
X46507641Y4029901D01*
X46422959Y4232262D01*
X46306393Y4412318D01*
X46162583Y4567648D01*
X45996168Y4695832D01*
X45811786Y4794448D01*
X45614077Y4861077D01*
X45407679Y4893296D01*
X45197232Y4888686D01*
X44987375Y4844826D01*
X44961754Y4836577D01*
X44757496Y4748627D01*
X44576749Y4627908D01*
X44472154Y4533671D01*
X44327504Y4362109D01*
X44220051Y4176564D01*
X44148769Y3981322D01*
X44112630Y3780671D01*
X44110604Y3578898D01*
X44141665Y3380291D01*
X44204784Y3189136D01*
X44298932Y3009723D01*
X44423083Y2846336D01*
X44576207Y2703265D01*
X44757277Y2584796D01*
X44960588Y2496786D01*
X45028593Y2475154D01*
X45091169Y2459284D01*
X45157602Y2448005D01*
X45237178Y2440150D01*
X45339180Y2434548D01*
X45472896Y2430031D01*
X45495863Y2429385D01*
X45646620Y2426451D01*
X45758231Y2427025D01*
X45829742Y2431079D01*
X45860196Y2438583D01*
X45861293Y2440775D01*
X45840667Y2449420D01*
X45781022Y2457295D01*
X45685703Y2464124D01*
X45558055Y2469632D01*
X45485271Y2471751D01*
X45345179Y2475820D01*
X45239054Y2480638D01*
X45158496Y2487218D01*
X45095103Y2496573D01*
X45040475Y2509717D01*
X44986211Y2527664D01*
X44969018Y2534034D01*
X44751626Y2635929D01*
X44564321Y2765965D01*
X44408636Y2922630D01*
X44286102Y3104412D01*
X44205674Y3287538D01*
X44170580Y3433034D01*
X44154238Y3600248D01*
X44155408Y3683756D01*
X44809000Y3683756D01*
X44821418Y3559647D01*
X44831027Y3522957D01*
X44889969Y3389164D01*
X44981618Y3281418D01*
X45107693Y3197730D01*
X45114757Y3194226D01*
X45168940Y3169502D01*
X45219713Y3152151D01*
X45277195Y3140417D01*
X45351508Y3132548D01*
X45452772Y3126789D01*
X45519856Y3124031D01*
X45637643Y3118757D01*
X45720025Y3112807D01*
X45773962Y3105088D01*
X45806415Y3094508D01*
X45824346Y3079975D01*
X45827249Y3075797D01*
X45836204Y3080483D01*
X45843814Y3120075D01*
X45849949Y3187128D01*
X45854476Y3274196D01*
X45857265Y3373833D01*
X45858184Y3478594D01*
X45857102Y3581034D01*
X45853886Y3673708D01*
X45848407Y3749169D01*
X45840532Y3799973D01*
X45840062Y3801776D01*
X45788855Y3917632D01*
X45704543Y4023463D01*
X45596379Y4108371D01*
X45564567Y4126151D01*
X45490806Y4160208D01*
X45427677Y4176834D01*
X45354100Y4180338D01*
X45307972Y4178576D01*
X45161925Y4153272D01*
X45039506Y4093059D01*
X44938565Y3996649D01*
X44892970Y3930324D01*
X44832323Y3803849D01*
X44809000Y3683756D01*
X44155408Y3683756D01*
X44156660Y3773173D01*
X44177857Y3935800D01*
X44205140Y4038664D01*
X44296286Y4240173D01*
X44421758Y4419912D01*
X44577477Y4574007D01*
X44759366Y4698587D01*
X44963347Y4789777D01*
X45012469Y4805475D01*
X45138632Y4830338D01*
X45287929Y4840365D01*
X45443937Y4835903D01*
X45590234Y4817296D01*
X45693043Y4791179D01*
X45898416Y4699743D01*
X46081500Y4574941D01*
X46238383Y4420923D01*
X46365154Y4241838D01*
X46457902Y4041837D01*
X46486752Y3948932D01*
X46493106Y3918753D01*
X46498562Y3877455D01*
X46503183Y3821958D01*
X46507033Y3749186D01*
X46510175Y3656060D01*
X46512674Y3539503D01*
X46514593Y3396437D01*
X46515996Y3223785D01*
X46516946Y3018468D01*
X46517507Y2777410D01*
X46517744Y2497533D01*
X46517755Y2451102D01*
X46518007Y1068825D01*
X46232018Y1068825D01*
X46115042Y1069383D01*
X46032737Y1071721D01*
X45977413Y1076830D01*
X45941380Y1085703D01*
X45916947Y1099332D01*
X45903661Y1111193D01*
X45861293Y1153562D01*
X45818924Y1111193D01*
X45799467Y1094906D01*
X45774321Y1083501D01*
X45736361Y1076199D01*
X45678463Y1072221D01*
X45593502Y1070791D01*
X45474356Y1071130D01*
X45453495Y1071282D01*
X45338766Y1072533D01*
X45237648Y1074343D01*
X45158387Y1076512D01*
X45109228Y1078836D01*
X45098657Y1079965D01*
X45063166Y1086235D01*
X44998893Y1097022D01*
X44918894Y1110140D01*
X44907998Y1111906D01*
X44623788Y1177942D01*
X44340478Y1282259D01*
X44065210Y1421233D01*
X43805124Y1591236D01*
X43567361Y1788645D01*
X43558251Y1797216D01*
X43326867Y2043178D01*
X43133540Y2307674D01*
X42977987Y2591210D01*
X42859922Y2894294D01*
X42788868Y3167479D01*
X42762548Y3344817D01*
X42749393Y3546832D01*
X42749081Y3760057D01*
X42761290Y3971026D01*
X42785701Y4166272D01*
X42816143Y4311097D01*
X42921877Y4630712D01*
X43063611Y4929180D01*
X43239922Y5204500D01*
X43449386Y5454670D01*
X43690580Y5677689D01*
X43895165Y5828415D01*
X44171296Y5990681D01*
X44454608Y6113470D01*
X44749721Y6198150D01*
X45061254Y6246092D01*
X45347020Y6258983D01*
X45674549Y6238499D01*
G37*
G36*
X8188001Y70278705D02*
G01*
X8189834Y70220098D01*
X8191487Y70127599D01*
X8192918Y70005449D01*
X8194083Y69857885D01*
X8194940Y69689146D01*
X8195447Y69503472D01*
X8195571Y69350779D01*
X8195571Y68402374D01*
X8069439Y68333033D01*
X7776633Y68148718D01*
X7500932Y67928619D01*
X7246602Y67677326D01*
X7017907Y67399430D01*
X6819111Y67099521D01*
X6679787Y66836989D01*
X6563978Y66566125D01*
X6476574Y66298746D01*
X6413409Y66020072D01*
X6374626Y65754288D01*
X6373642Y65724584D01*
X6372681Y65653468D01*
X6371742Y65541895D01*
X6370824Y65390821D01*
X6369929Y65201203D01*
X6369055Y64973996D01*
X6368204Y64710156D01*
X6367374Y64410639D01*
X6366567Y64076402D01*
X6365781Y63708400D01*
X6365018Y63307589D01*
X6364276Y62874926D01*
X6363557Y62411366D01*
X6362859Y61917865D01*
X6362184Y61395379D01*
X6361531Y60844865D01*
X6360900Y60267278D01*
X6360291Y59663574D01*
X6359704Y59034709D01*
X6359139Y58381639D01*
X6358596Y57705321D01*
X6358076Y57006709D01*
X6357578Y56286761D01*
X6357102Y55546432D01*
X6356648Y54786678D01*
X6356216Y54008456D01*
X6355807Y53212720D01*
X6355419Y52400427D01*
X6355054Y51572534D01*
X6354712Y50729996D01*
X6354391Y49873768D01*
X6354093Y49004808D01*
X6353817Y48124071D01*
X6353563Y47232513D01*
X6353332Y46331090D01*
X6353123Y45420758D01*
X6352936Y44502473D01*
X6352772Y43577191D01*
X6352630Y42645868D01*
X6352510Y41709460D01*
X6352413Y40768924D01*
X6352339Y39825214D01*
X6352286Y38879287D01*
X6352256Y37932099D01*
X6352249Y36984605D01*
X6352264Y36037763D01*
X6352301Y35092528D01*
X6352361Y34149856D01*
X6352443Y33210702D01*
X6352548Y32276024D01*
X6352675Y31346776D01*
X6352825Y30423916D01*
X6352997Y29508398D01*
X6353192Y28601179D01*
X6353410Y27703215D01*
X6353650Y26815462D01*
X6353912Y25938875D01*
X6354197Y25074412D01*
X6354505Y24223027D01*
X6354835Y23385677D01*
X6355188Y22563318D01*
X6355564Y21756905D01*
X6355962Y20967396D01*
X6356383Y20195745D01*
X6356827Y19442909D01*
X6357293Y18709844D01*
X6357782Y17997505D01*
X6358294Y17306849D01*
X6358828Y16638832D01*
X6359385Y15994410D01*
X6359965Y15374538D01*
X6360568Y14780173D01*
X6361193Y14212271D01*
X6361841Y13671787D01*
X6362512Y13159678D01*
X6363206Y12676900D01*
X6363922Y12224408D01*
X6364662Y11803159D01*
X6365424Y11414109D01*
X6366209Y11058213D01*
X6367017Y10736428D01*
X6367848Y10449709D01*
X6368701Y10199013D01*
X6369578Y9985296D01*
X6370477Y9809513D01*
X6371400Y9672621D01*
X6372345Y9575575D01*
X6373313Y9519332D01*
X6373926Y9505368D01*
X6433636Y9133192D01*
X6531647Y8775723D01*
X6665987Y8435288D01*
X6834683Y8114214D01*
X7035762Y7814826D01*
X7267253Y7539452D01*
X7527183Y7290418D01*
X7813580Y7070050D01*
X8124470Y6880676D01*
X8457883Y6724621D01*
X8811844Y6604213D01*
X8840082Y6596436D01*
X8881054Y6585077D01*
X8918123Y6574518D01*
X8952868Y6564724D01*
X8986870Y6555664D01*
X9021710Y6547306D01*
X9058967Y6539617D01*
X9100223Y6532565D01*
X9147058Y6526117D01*
X9201052Y6520241D01*
X9263786Y6514904D01*
X9336840Y6510075D01*
X9421794Y6505721D01*
X9520230Y6501810D01*
X9633727Y6498309D01*
X9763866Y6495186D01*
X9912227Y6492408D01*
X10080391Y6489944D01*
X10269938Y6487760D01*
X10482449Y6485825D01*
X10719505Y6484106D01*
X10982684Y6482571D01*
X11273569Y6481188D01*
X11593739Y6479923D01*
X11944775Y6478746D01*
X12328258Y6477622D01*
X12745767Y6476521D01*
X13198883Y6475409D01*
X13689188Y6474255D01*
X14218260Y6473026D01*
X14787681Y6471689D01*
X14953369Y6471294D01*
X20556622Y6457877D01*
X20795708Y6411648D01*
X21242955Y6309407D01*
X21660987Y6180426D01*
X22055236Y6022352D01*
X22431134Y5832831D01*
X22794111Y5609509D01*
X23024595Y5445928D01*
X23148485Y5347086D01*
X23290059Y5223727D01*
X23440497Y5084383D01*
X23590974Y4937589D01*
X23732669Y4791879D01*
X23856757Y4655785D01*
X23925020Y4575013D01*
X24189307Y4216924D01*
X24422985Y3833734D01*
X24623510Y3430913D01*
X24788337Y3013930D01*
X24914922Y2588257D01*
X24973228Y2321605D01*
X24994155Y2205402D01*
X25011407Y2096088D01*
X25025326Y1987929D01*
X25036253Y1875189D01*
X25044529Y1752132D01*
X25050495Y1613023D01*
X25054492Y1452127D01*
X25056861Y1263707D01*
X25057944Y1042028D01*
X25058116Y894054D01*
X25058290Y73162D01*
X24180971Y73162D01*
X23303653Y73162D01*
X23294291Y936423D01*
X23291784Y1154188D01*
X23289259Y1334469D01*
X23286460Y1482149D01*
X23283133Y1602112D01*
X23279024Y1699241D01*
X23273877Y1778419D01*
X23267437Y1844531D01*
X23259451Y1902459D01*
X23249663Y1957087D01*
X23238210Y2011527D01*
X23163870Y2299562D01*
X23070553Y2567369D01*
X22951038Y2835426D01*
X22939430Y2858900D01*
X22769492Y3161341D01*
X22572310Y3438068D01*
X22340858Y3698820D01*
X22313707Y3726243D01*
X22040473Y3972422D01*
X21747267Y4183690D01*
X21431581Y4361399D01*
X21090905Y4506903D01*
X20722731Y4621553D01*
X20594498Y4652910D01*
X20387148Y4700413D01*
X14794487Y4712482D01*
X14216709Y4713741D01*
X13679741Y4714944D01*
X13182024Y4716105D01*
X12721999Y4717236D01*
X12298107Y4718350D01*
X11908789Y4719462D01*
X11552486Y4720583D01*
X11227639Y4721728D01*
X10932690Y4722910D01*
X10666080Y4724141D01*
X10426249Y4725436D01*
X10211639Y4726807D01*
X10020691Y4728268D01*
X9851846Y4729832D01*
X9703545Y4731512D01*
X9574229Y4733322D01*
X9462340Y4735274D01*
X9366318Y4737382D01*
X9284604Y4739660D01*
X9215640Y4742120D01*
X9157867Y4744776D01*
X9109726Y4747641D01*
X9069658Y4750729D01*
X9036104Y4754051D01*
X9007505Y4757623D01*
X8982302Y4761457D01*
X8979391Y4761942D01*
X8628073Y4829804D01*
X8305366Y4911702D01*
X7998729Y5011603D01*
X7695619Y5133472D01*
X7464712Y5240864D01*
X7109868Y5429698D01*
X6786114Y5635017D01*
X6483173Y5864148D01*
X6190770Y6124418D01*
X6097467Y6215758D01*
X5780335Y6561138D01*
X5500424Y6926027D01*
X5257370Y7311142D01*
X5050812Y7717196D01*
X4880389Y8144905D01*
X4745738Y8594983D01*
X4646496Y9068146D01*
X4643336Y9087090D01*
X4641539Y9098925D01*
X4639798Y9112776D01*
X4638113Y9129316D01*
X4636482Y9149218D01*
X4634906Y9173155D01*
X4633383Y9201802D01*
X4631912Y9235832D01*
X4630493Y9275918D01*
X4629124Y9322734D01*
X4627804Y9376954D01*
X4626533Y9439250D01*
X4625310Y9510297D01*
X4624133Y9590767D01*
X4623002Y9681335D01*
X4621917Y9782674D01*
X4620875Y9895457D01*
X4619876Y10020358D01*
X4618920Y10158051D01*
X4618004Y10309208D01*
X4617130Y10474505D01*
X4616294Y10654613D01*
X4615498Y10850206D01*
X4614739Y11061959D01*
X4614016Y11290544D01*
X4613330Y11536635D01*
X4612679Y11800905D01*
X4612061Y12084029D01*
X4611477Y12386679D01*
X4610925Y12709529D01*
X4610404Y13053253D01*
X4609914Y13418524D01*
X4609453Y13806015D01*
X4609020Y14216401D01*
X4608616Y14650354D01*
X4608238Y15108548D01*
X4607886Y15591657D01*
X4607559Y16100354D01*
X4607256Y16635313D01*
X4606976Y17197207D01*
X4606718Y17786709D01*
X4606482Y18404494D01*
X4606266Y19051234D01*
X4606069Y19727604D01*
X4605891Y20434276D01*
X4605731Y21171925D01*
X4605587Y21941223D01*
X4605460Y22742845D01*
X4605347Y23577463D01*
X4605249Y24445752D01*
X4605163Y25348384D01*
X4605090Y26286034D01*
X4605028Y27259374D01*
X4604976Y28269079D01*
X4604934Y29315822D01*
X4604901Y30400275D01*
X4604875Y31523114D01*
X4604856Y32685011D01*
X4604843Y33886640D01*
X4604834Y35128675D01*
X4604830Y36411788D01*
X4604829Y37622369D01*
X4604830Y38943518D01*
X4604835Y40222972D01*
X4604843Y41461404D01*
X4604856Y42659489D01*
X4604875Y43817900D01*
X4604901Y44937311D01*
X4604934Y46018395D01*
X4604976Y47061826D01*
X4605028Y48068279D01*
X4605089Y49038426D01*
X4605162Y49972941D01*
X4605248Y50872498D01*
X4605346Y51737771D01*
X4605459Y52569434D01*
X4605586Y53368159D01*
X4605730Y54134621D01*
X4605890Y54869494D01*
X4606068Y55573450D01*
X4606264Y56247165D01*
X4606480Y56891311D01*
X4606717Y57506562D01*
X4606975Y58093592D01*
X4607255Y58653075D01*
X4607558Y59185684D01*
X4607886Y59692093D01*
X4608238Y60172976D01*
X4608617Y60629006D01*
X4609022Y61060857D01*
X4609455Y61469203D01*
X4609917Y61854717D01*
X4610408Y62218074D01*
X4610930Y62559946D01*
X4611483Y62881008D01*
X4612069Y63181933D01*
X4612688Y63463394D01*
X4613341Y63726067D01*
X4614029Y63970624D01*
X4614754Y64197738D01*
X4615515Y64408085D01*
X4616314Y64602337D01*
X4617152Y64781168D01*
X4618029Y64945251D01*
X4618947Y65095261D01*
X4619907Y65231871D01*
X4620908Y65355755D01*
X4621954Y65467587D01*
X4623043Y65568040D01*
X4624178Y65657787D01*
X4625359Y65737504D01*
X4626586Y65807862D01*
X4627862Y65869537D01*
X4629186Y65923201D01*
X4630560Y65969529D01*
X4631985Y66009193D01*
X4633462Y66042869D01*
X4634991Y66071229D01*
X4636573Y66094947D01*
X4638209Y66114696D01*
X4639901Y66131152D01*
X4641649Y66144986D01*
X4643454Y66156874D01*
X4643582Y66157649D01*
X4738744Y66621803D01*
X4866225Y67060320D01*
X5027565Y67476679D01*
X5224305Y67874357D01*
X5457983Y68256834D01*
X5730141Y68627587D01*
X5745532Y68646806D01*
X5925792Y68853851D01*
X6136143Y69066531D01*
X6366757Y69276292D01*
X6607805Y69474579D01*
X6849456Y69652837D01*
X7055099Y69786522D01*
X7213091Y69876422D01*
X7394988Y69970964D01*
X7586638Y70063368D01*
X7773889Y70146856D01*
X7942591Y70214647D01*
X7968891Y70224297D01*
X8055640Y70255280D01*
X8126535Y70280015D01*
X8172814Y70295482D01*
X8186030Y70299183D01*
X8188001Y70278705D01*
G37*
G36*
X8176781Y72472808D02*
G01*
X8182606Y72445765D01*
X8186946Y72396370D01*
X8189905Y72321110D01*
X8191586Y72216475D01*
X8192092Y72078951D01*
X8191526Y71905027D01*
X8190553Y71760384D01*
X8184979Y71039600D01*
X7877806Y70936603D01*
X7413056Y70758834D01*
X6969370Y70544819D01*
X6548312Y70295926D01*
X6151444Y70013522D01*
X5780329Y69698976D01*
X5436531Y69353655D01*
X5121612Y68978927D01*
X4837135Y68576160D01*
X4584663Y68146721D01*
X4498762Y67979500D01*
X4328408Y67609472D01*
X4189684Y67249479D01*
X4078563Y66886674D01*
X3991016Y66508208D01*
X3934242Y66178833D01*
X3932886Y66164379D01*
X3931572Y66139034D01*
X3930300Y66102177D01*
X3929068Y66053189D01*
X3927876Y65991450D01*
X3926724Y65916339D01*
X3925610Y65827236D01*
X3924535Y65723521D01*
X3923498Y65604574D01*
X3922497Y65469775D01*
X3921533Y65318503D01*
X3920605Y65150139D01*
X3919712Y64964062D01*
X3918854Y64759653D01*
X3918030Y64536291D01*
X3917239Y64293355D01*
X3916480Y64030227D01*
X3915754Y63746285D01*
X3915059Y63440910D01*
X3914395Y63113482D01*
X3913762Y62763380D01*
X3913158Y62389984D01*
X3912583Y61992674D01*
X3912036Y61570830D01*
X3911517Y61123832D01*
X3911026Y60651059D01*
X3910561Y60151893D01*
X3910121Y59625711D01*
X3909707Y59071895D01*
X3909318Y58489825D01*
X3908953Y57878879D01*
X3908611Y57238438D01*
X3908292Y56567882D01*
X3907996Y55866591D01*
X3907721Y55133944D01*
X3907466Y54369321D01*
X3907233Y53572103D01*
X3907018Y52741669D01*
X3906824Y51877399D01*
X3906647Y50978673D01*
X3906488Y50044871D01*
X3906347Y49075372D01*
X3906222Y48069557D01*
X3906114Y47026805D01*
X3906020Y45946496D01*
X3905942Y44828011D01*
X3905878Y43670728D01*
X3905827Y42474029D01*
X3905789Y41237292D01*
X3905763Y39959897D01*
X3905750Y38641226D01*
X3905746Y37611777D01*
X3905748Y36289070D01*
X3905751Y35008058D01*
X3905759Y33768067D01*
X3905772Y32568424D01*
X3905790Y31408455D01*
X3905814Y30287487D01*
X3905846Y29204847D01*
X3905886Y28159859D01*
X3905936Y27151852D01*
X3905996Y26180151D01*
X3906067Y25244083D01*
X3906150Y24342974D01*
X3906246Y23476150D01*
X3906356Y22642939D01*
X3906481Y21842666D01*
X3906621Y21074658D01*
X3906778Y20338241D01*
X3906953Y19632741D01*
X3907146Y18957486D01*
X3907359Y18311801D01*
X3907592Y17695013D01*
X3907846Y17106449D01*
X3908123Y16545434D01*
X3908422Y16011295D01*
X3908746Y15503359D01*
X3909095Y15020951D01*
X3909469Y14563399D01*
X3909871Y14130029D01*
X3910300Y13720167D01*
X3910758Y13333139D01*
X3911245Y12968273D01*
X3911763Y12624894D01*
X3912312Y12302329D01*
X3912894Y11999904D01*
X3913509Y11716945D01*
X3914158Y11452780D01*
X3914842Y11206734D01*
X3915562Y10978134D01*
X3916320Y10766307D01*
X3917115Y10570578D01*
X3917949Y10390274D01*
X3918822Y10224722D01*
X3919736Y10073248D01*
X3920692Y9935178D01*
X3921691Y9809839D01*
X3922732Y9696557D01*
X3923818Y9594658D01*
X3924950Y9503470D01*
X3926127Y9422318D01*
X3927352Y9350529D01*
X3928624Y9287429D01*
X3929946Y9232345D01*
X3931317Y9184602D01*
X3932740Y9143529D01*
X3934214Y9108450D01*
X3935740Y9078692D01*
X3937320Y9053583D01*
X3938955Y9032447D01*
X3940645Y9014612D01*
X3942391Y8999404D01*
X3944195Y8986149D01*
X3944944Y8981168D01*
X3982164Y8774215D01*
X4032348Y8545391D01*
X4091595Y8310025D01*
X4156002Y8083441D01*
X4221667Y7880968D01*
X4233486Y7847807D01*
X4356753Y7543110D01*
X4508741Y7225919D01*
X4683084Y6907494D01*
X4873418Y6599093D01*
X5073379Y6311976D01*
X5179513Y6174246D01*
X5272437Y6064607D01*
X5389546Y5936245D01*
X5522460Y5797541D01*
X5662800Y5656874D01*
X5802184Y5522625D01*
X5932234Y5403176D01*
X6044569Y5306908D01*
X6055955Y5297716D01*
X6423723Y5027524D01*
X6818521Y4782989D01*
X7233389Y4567454D01*
X7661367Y4384262D01*
X8095497Y4236756D01*
X8460375Y4142756D01*
X8513770Y4130821D01*
X8562076Y4119724D01*
X8606897Y4109433D01*
X8649843Y4099914D01*
X8692518Y4091134D01*
X8736530Y4083059D01*
X8783485Y4075656D01*
X8834990Y4068891D01*
X8892653Y4062732D01*
X8958078Y4057144D01*
X9032874Y4052094D01*
X9118647Y4047550D01*
X9217003Y4043477D01*
X9329549Y4039842D01*
X9457893Y4036613D01*
X9603640Y4033754D01*
X9768397Y4031234D01*
X9953771Y4029019D01*
X10161369Y4027075D01*
X10392797Y4025369D01*
X10649662Y4023867D01*
X10933571Y4022537D01*
X11246131Y4021345D01*
X11588948Y4020257D01*
X11963628Y4019240D01*
X12371779Y4018261D01*
X12815007Y4017287D01*
X13294919Y4016283D01*
X13813121Y4015217D01*
X14371221Y4014055D01*
X14688565Y4013379D01*
X15263830Y4012138D01*
X15798283Y4010972D01*
X16293482Y4009866D01*
X16750983Y4008806D01*
X17172342Y4007776D01*
X17559118Y4006761D01*
X17912866Y4005746D01*
X18235145Y4004714D01*
X18527510Y4003652D01*
X18791518Y4002544D01*
X19028727Y4001374D01*
X19240693Y4000128D01*
X19428974Y3998790D01*
X19595126Y3997345D01*
X19740706Y3995778D01*
X19867271Y3994073D01*
X19976377Y3992215D01*
X20069583Y3990190D01*
X20148444Y3987981D01*
X20214518Y3985574D01*
X20269361Y3982954D01*
X20314531Y3980104D01*
X20351584Y3977011D01*
X20382077Y3973658D01*
X20407567Y3970030D01*
X20429611Y3966113D01*
X20449767Y3961891D01*
X20469590Y3957349D01*
X20471885Y3956813D01*
X20700645Y3896404D01*
X20903586Y3826870D01*
X21084647Y3748598D01*
X21366339Y3591797D01*
X21626579Y3400952D01*
X21862196Y3179939D01*
X22070019Y2932637D01*
X22246880Y2662922D01*
X22389609Y2374671D01*
X22495034Y2071762D01*
X22513547Y2000935D01*
X22536834Y1898195D01*
X22555770Y1794780D01*
X22570760Y1684973D01*
X22582208Y1563057D01*
X22590518Y1423314D01*
X22596093Y1260028D01*
X22599337Y1067481D01*
X22600656Y839957D01*
X22600735Y766948D01*
X22600909Y94346D01*
X21892949Y94346D01*
X21184989Y94346D01*
X21175978Y809317D01*
X21173046Y1014131D01*
X21169766Y1181210D01*
X21165897Y1315188D01*
X21161197Y1420699D01*
X21155424Y1502375D01*
X21148337Y1564850D01*
X21139694Y1612759D01*
X21132668Y1639841D01*
X21046635Y1857047D01*
X20925114Y2054894D01*
X20772207Y2229116D01*
X20592014Y2375447D01*
X20388637Y2489622D01*
X20270634Y2536400D01*
X20132936Y2583504D01*
X14614420Y2595549D01*
X13998636Y2596945D01*
X13424137Y2598359D01*
X12889837Y2599798D01*
X12394652Y2601268D01*
X11937499Y2602776D01*
X11517293Y2604331D01*
X11132949Y2605939D01*
X10783382Y2607606D01*
X10467510Y2609341D01*
X10184246Y2611150D01*
X9932508Y2613041D01*
X9711210Y2615019D01*
X9519268Y2617094D01*
X9355597Y2619271D01*
X9219114Y2621558D01*
X9108734Y2623961D01*
X9023372Y2626489D01*
X8961945Y2629147D01*
X8923367Y2631944D01*
X8915838Y2632846D01*
X8559004Y2687703D01*
X8241012Y2746856D01*
X7958495Y2810936D01*
X7937625Y2816218D01*
X7411570Y2971893D01*
X6902557Y3165384D01*
X6412302Y3395097D01*
X5942521Y3659439D01*
X5494930Y3956815D01*
X5071244Y4285634D01*
X4673180Y4644301D01*
X4302453Y5031223D01*
X3960779Y5444807D01*
X3649874Y5883459D01*
X3371454Y6345586D01*
X3127234Y6829595D01*
X2918931Y7333892D01*
X2844353Y7546008D01*
X2715319Y7978398D01*
X2611639Y8429068D01*
X2531511Y8906150D01*
X2514489Y9034129D01*
X2513132Y9066013D01*
X2511804Y9139302D01*
X2510507Y9253047D01*
X2509240Y9406299D01*
X2508002Y9598108D01*
X2506795Y9827524D01*
X2505618Y10093600D01*
X2504471Y10395384D01*
X2503353Y10731928D01*
X2502266Y11102283D01*
X2501209Y11505500D01*
X2500183Y11940628D01*
X2499186Y12406719D01*
X2498219Y12902824D01*
X2497283Y13427992D01*
X2496377Y13981276D01*
X2495501Y14561724D01*
X2494655Y15168389D01*
X2493840Y15800321D01*
X2493055Y16456571D01*
X2492300Y17136188D01*
X2491575Y17838225D01*
X2490881Y18561731D01*
X2490217Y19305757D01*
X2489583Y20069354D01*
X2488980Y20851574D01*
X2488408Y21651465D01*
X2487865Y22468079D01*
X2487353Y23300468D01*
X2486872Y24147680D01*
X2486421Y25008768D01*
X2486000Y25882782D01*
X2485611Y26768772D01*
X2485251Y27665789D01*
X2484922Y28572884D01*
X2484624Y29489108D01*
X2484356Y30413511D01*
X2484119Y31345144D01*
X2483913Y32283057D01*
X2483737Y33226302D01*
X2483592Y34173929D01*
X2483477Y35124989D01*
X2483393Y36078532D01*
X2483340Y37033609D01*
X2483318Y37989271D01*
X2483326Y38944568D01*
X2483366Y39898551D01*
X2483436Y40850272D01*
X2483536Y41798780D01*
X2483668Y42743126D01*
X2483830Y43682361D01*
X2484024Y44615535D01*
X2484248Y45541700D01*
X2484503Y46459906D01*
X2484789Y47369204D01*
X2485106Y48268644D01*
X2485454Y49157277D01*
X2485833Y50034154D01*
X2486243Y50898325D01*
X2486684Y51748841D01*
X2487155Y52584753D01*
X2487658Y53405112D01*
X2488192Y54208968D01*
X2488758Y54995371D01*
X2489354Y55763374D01*
X2489981Y56512025D01*
X2490640Y57240377D01*
X2491329Y57947479D01*
X2492050Y58632382D01*
X2492802Y59294138D01*
X2493585Y59931796D01*
X2494400Y60544407D01*
X2495245Y61131023D01*
X2496122Y61690694D01*
X2497031Y62222470D01*
X2497970Y62725402D01*
X2498941Y63198541D01*
X2499943Y63640937D01*
X2500977Y64051642D01*
X2502042Y64429705D01*
X2503138Y64774179D01*
X2504266Y65084112D01*
X2505425Y65358557D01*
X2506616Y65596563D01*
X2507838Y65797181D01*
X2509092Y65959463D01*
X2510377Y66082458D01*
X2511693Y66165218D01*
X2513042Y66206793D01*
X2513379Y66210609D01*
X2589531Y66692869D01*
X2685263Y67143816D01*
X2802747Y67570761D01*
X2944152Y67981018D01*
X3111648Y68381898D01*
X3233188Y68636214D01*
X3433884Y69012653D01*
X3646525Y69361841D01*
X3877311Y69692287D01*
X4132440Y70012503D01*
X4418113Y70330999D01*
X4614363Y70532409D01*
X5014418Y70905700D01*
X5427947Y71239934D01*
X5858272Y71537186D01*
X6308713Y71799535D01*
X6782591Y72029055D01*
X7283227Y72227825D01*
X7379975Y72261712D01*
X7487445Y72297168D01*
X7608319Y72334704D01*
X7734705Y72372128D01*
X7858711Y72407245D01*
X7972443Y72437865D01*
X8068009Y72461794D01*
X8137516Y72476839D01*
X8169369Y72481009D01*
X8176781Y72472808D01*
G37*
G36*
X66966172Y70245251D02*
G01*
X67020866Y70226115D01*
X67103720Y70194077D01*
X67204211Y70153513D01*
X67311816Y70108804D01*
X67416011Y70064326D01*
X67506273Y70024459D01*
X67572077Y69993581D01*
X67576975Y69991122D01*
X67944829Y69783597D01*
X68302957Y69539996D01*
X68642613Y69266600D01*
X68843571Y69081504D01*
X69170103Y68736056D01*
X69459318Y68370671D01*
X69710905Y67986001D01*
X69924555Y67582698D01*
X70099958Y67161415D01*
X70236805Y66722805D01*
X70334786Y66267519D01*
X70391711Y65818700D01*
X70392730Y65785648D01*
X70393725Y65711186D01*
X70394697Y65596269D01*
X70395645Y65441856D01*
X70396570Y65248903D01*
X70397472Y65018368D01*
X70398351Y64751208D01*
X70399207Y64448381D01*
X70400039Y64110843D01*
X70400848Y63739553D01*
X70401633Y63335467D01*
X70402396Y62899542D01*
X70403135Y62432737D01*
X70403850Y61936008D01*
X70404543Y61410312D01*
X70405212Y60856607D01*
X70405858Y60275851D01*
X70406481Y59668999D01*
X70407080Y59037011D01*
X70407657Y58380843D01*
X70408210Y57701452D01*
X70408739Y56999796D01*
X70409246Y56276831D01*
X70409729Y55533516D01*
X70410188Y54770808D01*
X70410625Y53989663D01*
X70411038Y53191040D01*
X70411428Y52375895D01*
X70411795Y51545186D01*
X70412138Y50699870D01*
X70412459Y49840904D01*
X70412756Y48969246D01*
X70413029Y48085853D01*
X70413280Y47191682D01*
X70413507Y46287691D01*
X70413711Y45374837D01*
X70413891Y44454076D01*
X70414048Y43526368D01*
X70414182Y42592668D01*
X70414293Y41653934D01*
X70414381Y40711123D01*
X70414445Y39765194D01*
X70414486Y38817102D01*
X70414503Y37867805D01*
X70414498Y36918261D01*
X70414469Y35969427D01*
X70414417Y35022260D01*
X70414341Y34077718D01*
X70414243Y33136757D01*
X70414121Y32200335D01*
X70413975Y31269410D01*
X70413807Y30344939D01*
X70413615Y29427878D01*
X70413400Y28519186D01*
X70413162Y27619819D01*
X70412900Y26730735D01*
X70412615Y25852891D01*
X70412307Y24987245D01*
X70411975Y24134754D01*
X70411621Y23296374D01*
X70411243Y22473064D01*
X70410842Y21665781D01*
X70410417Y20875482D01*
X70409969Y20103124D01*
X70409498Y19349664D01*
X70409004Y18616061D01*
X70408486Y17903270D01*
X70407945Y17212250D01*
X70407381Y16543958D01*
X70406794Y15899351D01*
X70406183Y15279386D01*
X70405549Y14685021D01*
X70404892Y14117213D01*
X70404211Y13576920D01*
X70403508Y13065097D01*
X70402781Y12582704D01*
X70402030Y12130697D01*
X70401257Y11710033D01*
X70400460Y11321670D01*
X70399640Y10966566D01*
X70398796Y10645676D01*
X70397930Y10359960D01*
X70397040Y10110373D01*
X70396126Y9897873D01*
X70395190Y9723419D01*
X70394230Y9587966D01*
X70393247Y9492472D01*
X70392241Y9437894D01*
X70391711Y9426039D01*
X70330991Y8955276D01*
X70231023Y8500160D01*
X70092209Y8061549D01*
X69914951Y7640300D01*
X69699651Y7237269D01*
X69446709Y6853312D01*
X69156528Y6489287D01*
X68875451Y6190807D01*
X68715876Y6037701D01*
X68569553Y5907396D01*
X68423577Y5789364D01*
X68265040Y5673077D01*
X68115421Y5570841D01*
X67716881Y5330167D01*
X67301362Y5128129D01*
X66870516Y4965314D01*
X66425996Y4842304D01*
X65969453Y4759684D01*
X65753369Y4735173D01*
X65703872Y4732486D01*
X65615274Y4729970D01*
X65487364Y4727624D01*
X65319930Y4725448D01*
X65112761Y4723440D01*
X64865646Y4721599D01*
X64578372Y4719925D01*
X64250729Y4718417D01*
X63882504Y4717075D01*
X63473486Y4715896D01*
X63023464Y4714881D01*
X62532225Y4714029D01*
X61999560Y4713338D01*
X61425255Y4712809D01*
X60809099Y4712439D01*
X60150881Y4712229D01*
X59842944Y4712187D01*
X59251827Y4712147D01*
X58701519Y4712114D01*
X58190459Y4712059D01*
X57717087Y4711954D01*
X57279843Y4711770D01*
X56877167Y4711480D01*
X56507498Y4711054D01*
X56169277Y4710464D01*
X55860943Y4709682D01*
X55580936Y4708679D01*
X55327696Y4707428D01*
X55099662Y4705899D01*
X54895275Y4704064D01*
X54712975Y4701895D01*
X54551201Y4699364D01*
X54408392Y4696441D01*
X54282990Y4693100D01*
X54173433Y4689310D01*
X54078162Y4685044D01*
X53995616Y4680274D01*
X53924235Y4674970D01*
X53862460Y4669106D01*
X53808729Y4662651D01*
X53761482Y4655578D01*
X53719161Y4647859D01*
X53680203Y4639464D01*
X53643049Y4630367D01*
X53606140Y4620537D01*
X53567914Y4609947D01*
X53526812Y4598569D01*
X53521480Y4597113D01*
X53169094Y4479666D01*
X52835518Y4325689D01*
X52523029Y4137663D01*
X52233899Y3918067D01*
X51970406Y3669381D01*
X51734823Y3394084D01*
X51529427Y3094655D01*
X51356491Y2773575D01*
X51218291Y2433323D01*
X51117102Y2076378D01*
X51090853Y1947974D01*
X51079420Y1880971D01*
X51069945Y1812189D01*
X51062159Y1736417D01*
X51055794Y1648447D01*
X51050581Y1543069D01*
X51046252Y1415074D01*
X51042540Y1259252D01*
X51039175Y1070395D01*
X51036581Y894054D01*
X51025243Y73162D01*
X50146513Y73162D01*
X49267782Y73162D01*
X49277642Y968199D01*
X49280669Y1213456D01*
X49284224Y1421944D01*
X49288791Y1599261D01*
X49294853Y1751006D01*
X49302894Y1882778D01*
X49313399Y2000176D01*
X49326851Y2108800D01*
X49343734Y2214247D01*
X49364532Y2322117D01*
X49389729Y2438009D01*
X49413584Y2541135D01*
X49537802Y2978360D01*
X49699961Y3399523D01*
X49898010Y3802556D01*
X50129901Y4185390D01*
X50393583Y4545960D01*
X50687006Y4882196D01*
X51008120Y5192032D01*
X51354876Y5473400D01*
X51725225Y5724232D01*
X52117115Y5942461D01*
X52528497Y6126019D01*
X52957321Y6272839D01*
X53169883Y6329934D01*
X53220781Y6342719D01*
X53266480Y6354632D01*
X53308528Y6365706D01*
X53348474Y6375973D01*
X53387865Y6385467D01*
X53428251Y6394222D01*
X53471178Y6402271D01*
X53518196Y6409648D01*
X53570853Y6416386D01*
X53630697Y6422518D01*
X53699276Y6428079D01*
X53778138Y6433100D01*
X53868832Y6437617D01*
X53972906Y6441661D01*
X54091908Y6445268D01*
X54227386Y6448469D01*
X54380889Y6451299D01*
X54553964Y6453791D01*
X54748161Y6455979D01*
X54965027Y6457895D01*
X55206110Y6459574D01*
X55472960Y6461048D01*
X55767123Y6462352D01*
X56090148Y6463518D01*
X56443584Y6464581D01*
X56828979Y6465573D01*
X57247880Y6466527D01*
X57701837Y6467479D01*
X58192397Y6468460D01*
X58721109Y6469504D01*
X59289521Y6470646D01*
X59726430Y6471551D01*
X60325108Y6472786D01*
X60882948Y6473905D01*
X61401484Y6474939D01*
X61882247Y6475922D01*
X62326767Y6476886D01*
X62736578Y6477863D01*
X63113211Y6478887D01*
X63458197Y6479989D01*
X63773068Y6481203D01*
X64059356Y6482561D01*
X64318593Y6484095D01*
X64552310Y6485839D01*
X64762039Y6487825D01*
X64949311Y6490085D01*
X65115659Y6492652D01*
X65262613Y6495559D01*
X65391707Y6498839D01*
X65504471Y6502523D01*
X65602436Y6506646D01*
X65687136Y6511238D01*
X65760101Y6516333D01*
X65822863Y6521964D01*
X65876954Y6528163D01*
X65923906Y6534963D01*
X65965249Y6542396D01*
X66002517Y6550495D01*
X66037240Y6559292D01*
X66070951Y6568821D01*
X66105180Y6579114D01*
X66141461Y6590203D01*
X66181323Y6602121D01*
X66207184Y6609566D01*
X66555084Y6729521D01*
X66884478Y6886004D01*
X67192994Y7076379D01*
X67478264Y7298010D01*
X67737915Y7548260D01*
X67969579Y7824492D01*
X68170884Y8124070D01*
X68339460Y8444358D01*
X68472936Y8782719D01*
X68568943Y9136517D01*
X68593255Y9263508D01*
X68595183Y9275177D01*
X68597049Y9287728D01*
X68598855Y9301838D01*
X68600602Y9318184D01*
X68602291Y9337443D01*
X68603923Y9360292D01*
X68605498Y9387409D01*
X68607018Y9419470D01*
X68608485Y9457153D01*
X68609898Y9501135D01*
X68611258Y9552093D01*
X68612568Y9610703D01*
X68613827Y9677644D01*
X68615037Y9753592D01*
X68616199Y9839224D01*
X68617313Y9935218D01*
X68618381Y10042251D01*
X68619404Y10160999D01*
X68620382Y10292139D01*
X68621317Y10436350D01*
X68622210Y10594308D01*
X68623061Y10766690D01*
X68623871Y10954173D01*
X68624643Y11157435D01*
X68625376Y11377152D01*
X68626071Y11614001D01*
X68626730Y11868661D01*
X68627353Y12141807D01*
X68627942Y12434117D01*
X68628497Y12746269D01*
X68629020Y13078938D01*
X68629511Y13432803D01*
X68629971Y13808540D01*
X68630402Y14206827D01*
X68630804Y14628340D01*
X68631179Y15073757D01*
X68631527Y15543755D01*
X68631849Y16039011D01*
X68632147Y16560202D01*
X68632421Y17108006D01*
X68632672Y17683098D01*
X68632901Y18286158D01*
X68633110Y18917860D01*
X68633299Y19578884D01*
X68633469Y20269905D01*
X68633621Y20991601D01*
X68633757Y21744649D01*
X68633876Y22529727D01*
X68633981Y23347510D01*
X68634072Y24198677D01*
X68634150Y25083905D01*
X68634216Y26003870D01*
X68634271Y26959250D01*
X68634316Y27950721D01*
X68634352Y28978962D01*
X68634380Y30044649D01*
X68634401Y31148459D01*
X68634417Y32291069D01*
X68634427Y33473157D01*
X68634433Y34695399D01*
X68634436Y35958473D01*
X68634437Y37263055D01*
X68634437Y37622369D01*
X68634436Y38938271D01*
X68634434Y40212482D01*
X68634429Y41445678D01*
X68634420Y42638537D01*
X68634406Y43791735D01*
X68634387Y44905951D01*
X68634360Y45981861D01*
X68634326Y47020141D01*
X68634284Y48021470D01*
X68634232Y48986525D01*
X68634169Y49915982D01*
X68634094Y50810518D01*
X68634007Y51670812D01*
X68633906Y52497539D01*
X68633790Y53291377D01*
X68633659Y54053004D01*
X68633512Y54783095D01*
X68633347Y55482329D01*
X68633163Y56151382D01*
X68632960Y56790932D01*
X68632736Y57401655D01*
X68632491Y57984230D01*
X68632223Y58539332D01*
X68631932Y59067639D01*
X68631617Y59569828D01*
X68631276Y60046577D01*
X68630908Y60498562D01*
X68630514Y60926460D01*
X68630090Y61330949D01*
X68629638Y61712706D01*
X68629155Y62072407D01*
X68628641Y62410731D01*
X68628095Y62728353D01*
X68627515Y63025952D01*
X68626901Y63304204D01*
X68626252Y63563786D01*
X68625567Y63805376D01*
X68624844Y64029651D01*
X68624083Y64237287D01*
X68623283Y64428962D01*
X68622443Y64605353D01*
X68621562Y64767137D01*
X68620639Y64914992D01*
X68619672Y65049594D01*
X68618662Y65171620D01*
X68617606Y65281748D01*
X68616504Y65380654D01*
X68615355Y65469016D01*
X68614158Y65547511D01*
X68612913Y65616816D01*
X68611617Y65677609D01*
X68610270Y65730565D01*
X68608871Y65776363D01*
X68607419Y65815679D01*
X68605914Y65849191D01*
X68604353Y65877576D01*
X68602737Y65901510D01*
X68601063Y65921672D01*
X68599332Y65938737D01*
X68597542Y65953384D01*
X68595692Y65966289D01*
X68593782Y65978129D01*
X68593255Y65981230D01*
X68509993Y66344486D01*
X68387631Y66693400D01*
X68227750Y67025464D01*
X68031933Y67338172D01*
X67801762Y67629016D01*
X67538820Y67895488D01*
X67244687Y68135080D01*
X67225680Y68148835D01*
X67144245Y68205688D01*
X67067622Y68256278D01*
X67007504Y68293003D01*
X66987356Y68303759D01*
X66918507Y68336889D01*
X66918507Y69298279D01*
X66918507Y70259670D01*
X66966172Y70245251D01*
G37*
%TD*%
D11*
%TO.C,J1*%
X34610000Y69995000D03*
X40390000Y69995000D03*
D12*
X33180000Y73675000D03*
D13*
X33180000Y69495000D03*
D12*
X41820000Y73675000D03*
D13*
X41820000Y69495000D03*
%TD*%
D14*
%TO.C,SW10*%
X20990000Y23530000D03*
X14640000Y20990000D03*
%TD*%
D15*
%TO.C,D17*%
X35050000Y32309500D03*
X35050000Y29009500D03*
X39950000Y29009500D03*
X39950000Y32309500D03*
%TD*%
D14*
%TO.C,SW8*%
X40040000Y42580000D03*
X33690000Y40040000D03*
%TD*%
%TO.C,SW4*%
X20990000Y61630000D03*
X14640000Y59090000D03*
%TD*%
D16*
%TO.C,D7*%
X10007600Y42779600D03*
X10007600Y39979600D03*
%TD*%
D15*
%TO.C,D16*%
X16000000Y32309500D03*
X16000000Y29009500D03*
X20900000Y29009500D03*
X20900000Y32309500D03*
%TD*%
%TO.C,D13*%
X16000000Y51359500D03*
X16000000Y48059500D03*
X20900000Y48059500D03*
X20900000Y51359500D03*
%TD*%
D17*
%TO.C,C17*%
X12979400Y10312400D03*
X12979400Y8762400D03*
%TD*%
D15*
%TO.C,D19*%
X16000000Y13259500D03*
X16000000Y9959500D03*
X20900000Y9959500D03*
X20900000Y13259500D03*
%TD*%
D18*
%TO.C,X2*%
X58064400Y71780400D03*
X58064400Y69240400D03*
D19*
X60604400Y71780400D03*
D18*
X60604400Y69240400D03*
D19*
X63144400Y71780400D03*
D18*
X63144400Y69240400D03*
%TD*%
D14*
%TO.C,SW6*%
X59090000Y61630000D03*
X52740000Y59090000D03*
%TD*%
%TO.C,SW11*%
X40040000Y23530000D03*
X33690000Y20990000D03*
%TD*%
D15*
%TO.C,D15*%
X54100000Y51359500D03*
X54100000Y48059500D03*
X59000000Y48059500D03*
X59000000Y51359500D03*
%TD*%
D18*
%TO.C,X1*%
X11980000Y71760000D03*
X11980000Y69220000D03*
D19*
X14520000Y71760000D03*
D18*
X14520000Y69220000D03*
D19*
X17060000Y71760000D03*
D18*
X17060000Y69220000D03*
%TD*%
D15*
%TO.C,D21*%
X54100000Y13259500D03*
X54100000Y9959500D03*
X59000000Y9959500D03*
X59000000Y13259500D03*
%TD*%
D16*
%TO.C,D12*%
X48133000Y23729600D03*
X48133000Y20929600D03*
%TD*%
D17*
%TO.C,C15*%
X12979400Y48400000D03*
X12979400Y46850000D03*
%TD*%
D14*
%TO.C,SW12*%
X59090000Y23530000D03*
X52740000Y20990000D03*
%TD*%
%TO.C,SW7*%
X20990000Y42580000D03*
X14640000Y40040000D03*
%TD*%
D16*
%TO.C,D8*%
X29083000Y42830400D03*
X29083000Y40030400D03*
%TD*%
%TO.C,D4*%
X10007600Y61953600D03*
X10007600Y59153600D03*
%TD*%
%TO.C,D6*%
X48107600Y61956600D03*
X48107600Y59156600D03*
%TD*%
D15*
%TO.C,D14*%
X35050000Y51359500D03*
X35050000Y48059500D03*
X39950000Y48059500D03*
X39950000Y51359500D03*
%TD*%
%TO.C,D20*%
X35050000Y13259500D03*
X35050000Y9959500D03*
X39950000Y9959500D03*
X39950000Y13259500D03*
%TD*%
D16*
%TO.C,D11*%
X29108400Y23729600D03*
X29108400Y20929600D03*
%TD*%
%TO.C,D9*%
X48107600Y42852800D03*
X48107600Y40052800D03*
%TD*%
D15*
%TO.C,D18*%
X54100000Y32309500D03*
X54100000Y29009500D03*
X59000000Y29009500D03*
X59000000Y32309500D03*
%TD*%
D17*
%TO.C,C16*%
X12979400Y29356200D03*
X12979400Y27806200D03*
%TD*%
D16*
%TO.C,D5*%
X29057600Y61953600D03*
X29057600Y59153600D03*
%TD*%
%TO.C,D10*%
X10007600Y23780400D03*
X10007600Y20980400D03*
%TD*%
D14*
%TO.C,SW9*%
X59090000Y42580000D03*
X52740000Y40040000D03*
%TD*%
%TO.C,SW5*%
X40040000Y61630000D03*
X33690000Y59090000D03*
%TD*%
D20*
%TO.C,SW3*%
X51630000Y73540000D03*
X51630000Y71740000D03*
%TD*%
%TO.C,SW1*%
X45970000Y73550000D03*
X45970000Y71750000D03*
%TD*%
D21*
%TO.C,SW2*%
X22920000Y72420000D03*
X29720000Y72420000D03*
%TD*%
M02*
