%TF.GenerationSoftware,KiCad,Pcbnew,10.0.3*%
%TF.CreationDate,2026-06-23T01:27:28-06:00*%
%TF.ProjectId,mk9-badge,6d6b392d-6261-4646-9765-2e6b69636164,1.0*%
%TF.SameCoordinates,PX6012ba0PY6de6c40*%
%TF.FileFunction,AssemblyDrawing,Top*%
%FSLAX46Y46*%
G04 Gerber Fmt 4.6, Leading zero omitted, Abs format (unit mm)*
G04 Created by KiCad (PCBNEW 10.0.3) date 2026-06-23 01:27:28*
%MOMM*%
%LPD*%
G01*
G04 APERTURE LIST*
%ADD10C,0.150000*%
%ADD11C,0.060000*%
%ADD12C,0.100000*%
G04 APERTURE END LIST*
D10*
X34190476Y27204681D02*
X34428571Y26204681D01*
X34428571Y26204681D02*
X34619047Y26918967D01*
X34619047Y26918967D02*
X34809523Y26204681D01*
X34809523Y26204681D02*
X35047619Y27204681D01*
X35380952Y26252300D02*
X35523809Y26204681D01*
X35523809Y26204681D02*
X35761904Y26204681D01*
X35761904Y26204681D02*
X35857142Y26252300D01*
X35857142Y26252300D02*
X35904761Y26299920D01*
X35904761Y26299920D02*
X35952380Y26395158D01*
X35952380Y26395158D02*
X35952380Y26490396D01*
X35952380Y26490396D02*
X35904761Y26585634D01*
X35904761Y26585634D02*
X35857142Y26633253D01*
X35857142Y26633253D02*
X35761904Y26680872D01*
X35761904Y26680872D02*
X35571428Y26728491D01*
X35571428Y26728491D02*
X35476190Y26776110D01*
X35476190Y26776110D02*
X35428571Y26823729D01*
X35428571Y26823729D02*
X35380952Y26918967D01*
X35380952Y26918967D02*
X35380952Y27014205D01*
X35380952Y27014205D02*
X35428571Y27109443D01*
X35428571Y27109443D02*
X35476190Y27157062D01*
X35476190Y27157062D02*
X35571428Y27204681D01*
X35571428Y27204681D02*
X35809523Y27204681D01*
X35809523Y27204681D02*
X35952380Y27157062D01*
X36333333Y27109443D02*
X36380952Y27157062D01*
X36380952Y27157062D02*
X36476190Y27204681D01*
X36476190Y27204681D02*
X36714285Y27204681D01*
X36714285Y27204681D02*
X36809523Y27157062D01*
X36809523Y27157062D02*
X36857142Y27109443D01*
X36857142Y27109443D02*
X36904761Y27014205D01*
X36904761Y27014205D02*
X36904761Y26918967D01*
X36904761Y26918967D02*
X36857142Y26776110D01*
X36857142Y26776110D02*
X36285714Y26204681D01*
X36285714Y26204681D02*
X36904761Y26204681D01*
X37476190Y26776110D02*
X37380952Y26823729D01*
X37380952Y26823729D02*
X37333333Y26871348D01*
X37333333Y26871348D02*
X37285714Y26966586D01*
X37285714Y26966586D02*
X37285714Y27014205D01*
X37285714Y27014205D02*
X37333333Y27109443D01*
X37333333Y27109443D02*
X37380952Y27157062D01*
X37380952Y27157062D02*
X37476190Y27204681D01*
X37476190Y27204681D02*
X37666666Y27204681D01*
X37666666Y27204681D02*
X37761904Y27157062D01*
X37761904Y27157062D02*
X37809523Y27109443D01*
X37809523Y27109443D02*
X37857142Y27014205D01*
X37857142Y27014205D02*
X37857142Y26966586D01*
X37857142Y26966586D02*
X37809523Y26871348D01*
X37809523Y26871348D02*
X37761904Y26823729D01*
X37761904Y26823729D02*
X37666666Y26776110D01*
X37666666Y26776110D02*
X37476190Y26776110D01*
X37476190Y26776110D02*
X37380952Y26728491D01*
X37380952Y26728491D02*
X37333333Y26680872D01*
X37333333Y26680872D02*
X37285714Y26585634D01*
X37285714Y26585634D02*
X37285714Y26395158D01*
X37285714Y26395158D02*
X37333333Y26299920D01*
X37333333Y26299920D02*
X37380952Y26252300D01*
X37380952Y26252300D02*
X37476190Y26204681D01*
X37476190Y26204681D02*
X37666666Y26204681D01*
X37666666Y26204681D02*
X37761904Y26252300D01*
X37761904Y26252300D02*
X37809523Y26299920D01*
X37809523Y26299920D02*
X37857142Y26395158D01*
X37857142Y26395158D02*
X37857142Y26585634D01*
X37857142Y26585634D02*
X37809523Y26680872D01*
X37809523Y26680872D02*
X37761904Y26728491D01*
X37761904Y26728491D02*
X37666666Y26776110D01*
X38809523Y26204681D02*
X38238095Y26204681D01*
X38523809Y26204681D02*
X38523809Y27204681D01*
X38523809Y27204681D02*
X38428571Y27061824D01*
X38428571Y27061824D02*
X38333333Y26966586D01*
X38333333Y26966586D02*
X38238095Y26918967D01*
X39190476Y27109443D02*
X39238095Y27157062D01*
X39238095Y27157062D02*
X39333333Y27204681D01*
X39333333Y27204681D02*
X39571428Y27204681D01*
X39571428Y27204681D02*
X39666666Y27157062D01*
X39666666Y27157062D02*
X39714285Y27109443D01*
X39714285Y27109443D02*
X39761904Y27014205D01*
X39761904Y27014205D02*
X39761904Y26918967D01*
X39761904Y26918967D02*
X39714285Y26776110D01*
X39714285Y26776110D02*
X39142857Y26204681D01*
X39142857Y26204681D02*
X39761904Y26204681D01*
X40523809Y26728491D02*
X40666666Y26680872D01*
X40666666Y26680872D02*
X40714285Y26633253D01*
X40714285Y26633253D02*
X40761904Y26538015D01*
X40761904Y26538015D02*
X40761904Y26395158D01*
X40761904Y26395158D02*
X40714285Y26299920D01*
X40714285Y26299920D02*
X40666666Y26252300D01*
X40666666Y26252300D02*
X40571428Y26204681D01*
X40571428Y26204681D02*
X40190476Y26204681D01*
X40190476Y26204681D02*
X40190476Y27204681D01*
X40190476Y27204681D02*
X40523809Y27204681D01*
X40523809Y27204681D02*
X40619047Y27157062D01*
X40619047Y27157062D02*
X40666666Y27109443D01*
X40666666Y27109443D02*
X40714285Y27014205D01*
X40714285Y27014205D02*
X40714285Y26918967D01*
X40714285Y26918967D02*
X40666666Y26823729D01*
X40666666Y26823729D02*
X40619047Y26776110D01*
X40619047Y26776110D02*
X40523809Y26728491D01*
X40523809Y26728491D02*
X40190476Y26728491D01*
X36528571Y30297205D02*
X36528571Y31097205D01*
X36528571Y31097205D02*
X36719047Y31097205D01*
X36719047Y31097205D02*
X36833333Y31059110D01*
X36833333Y31059110D02*
X36909523Y30982920D01*
X36909523Y30982920D02*
X36947618Y30906729D01*
X36947618Y30906729D02*
X36985714Y30754348D01*
X36985714Y30754348D02*
X36985714Y30640062D01*
X36985714Y30640062D02*
X36947618Y30487681D01*
X36947618Y30487681D02*
X36909523Y30411491D01*
X36909523Y30411491D02*
X36833333Y30335300D01*
X36833333Y30335300D02*
X36719047Y30297205D01*
X36719047Y30297205D02*
X36528571Y30297205D01*
X37747618Y30297205D02*
X37290475Y30297205D01*
X37519047Y30297205D02*
X37519047Y31097205D01*
X37519047Y31097205D02*
X37442856Y30982920D01*
X37442856Y30982920D02*
X37366666Y30906729D01*
X37366666Y30906729D02*
X37290475Y30868634D01*
X38014285Y31097205D02*
X38547619Y31097205D01*
X38547619Y31097205D02*
X38204761Y30297205D01*
X8362419Y37570076D02*
X7362419Y37570076D01*
X7362419Y37570076D02*
X7362419Y37808171D01*
X7362419Y37808171D02*
X7410038Y37951028D01*
X7410038Y37951028D02*
X7505276Y38046266D01*
X7505276Y38046266D02*
X7600514Y38093885D01*
X7600514Y38093885D02*
X7790990Y38141504D01*
X7790990Y38141504D02*
X7933847Y38141504D01*
X7933847Y38141504D02*
X8124323Y38093885D01*
X8124323Y38093885D02*
X8219561Y38046266D01*
X8219561Y38046266D02*
X8314800Y37951028D01*
X8314800Y37951028D02*
X8362419Y37808171D01*
X8362419Y37808171D02*
X8362419Y37570076D01*
X8457657Y38331980D02*
X8457657Y39093885D01*
X8314800Y39284362D02*
X8362419Y39427219D01*
X8362419Y39427219D02*
X8362419Y39665314D01*
X8362419Y39665314D02*
X8314800Y39760552D01*
X8314800Y39760552D02*
X8267180Y39808171D01*
X8267180Y39808171D02*
X8171942Y39855790D01*
X8171942Y39855790D02*
X8076704Y39855790D01*
X8076704Y39855790D02*
X7981466Y39808171D01*
X7981466Y39808171D02*
X7933847Y39760552D01*
X7933847Y39760552D02*
X7886228Y39665314D01*
X7886228Y39665314D02*
X7838609Y39474838D01*
X7838609Y39474838D02*
X7790990Y39379600D01*
X7790990Y39379600D02*
X7743371Y39331981D01*
X7743371Y39331981D02*
X7648133Y39284362D01*
X7648133Y39284362D02*
X7552895Y39284362D01*
X7552895Y39284362D02*
X7457657Y39331981D01*
X7457657Y39331981D02*
X7410038Y39379600D01*
X7410038Y39379600D02*
X7362419Y39474838D01*
X7362419Y39474838D02*
X7362419Y39712933D01*
X7362419Y39712933D02*
X7410038Y39855790D01*
X8314800Y40712933D02*
X8362419Y40617695D01*
X8362419Y40617695D02*
X8362419Y40427219D01*
X8362419Y40427219D02*
X8314800Y40331981D01*
X8314800Y40331981D02*
X8267180Y40284362D01*
X8267180Y40284362D02*
X8171942Y40236743D01*
X8171942Y40236743D02*
X7886228Y40236743D01*
X7886228Y40236743D02*
X7790990Y40284362D01*
X7790990Y40284362D02*
X7743371Y40331981D01*
X7743371Y40331981D02*
X7695752Y40427219D01*
X7695752Y40427219D02*
X7695752Y40617695D01*
X7695752Y40617695D02*
X7743371Y40712933D01*
X8362419Y41141505D02*
X7362419Y41141505D01*
X8362419Y41570076D02*
X7838609Y41570076D01*
X7838609Y41570076D02*
X7743371Y41522457D01*
X7743371Y41522457D02*
X7695752Y41427219D01*
X7695752Y41427219D02*
X7695752Y41284362D01*
X7695752Y41284362D02*
X7743371Y41189124D01*
X7743371Y41189124D02*
X7790990Y41141505D01*
X8362419Y42189124D02*
X8314800Y42093886D01*
X8314800Y42093886D02*
X8267180Y42046267D01*
X8267180Y42046267D02*
X8171942Y41998648D01*
X8171942Y41998648D02*
X7886228Y41998648D01*
X7886228Y41998648D02*
X7790990Y42046267D01*
X7790990Y42046267D02*
X7743371Y42093886D01*
X7743371Y42093886D02*
X7695752Y42189124D01*
X7695752Y42189124D02*
X7695752Y42331981D01*
X7695752Y42331981D02*
X7743371Y42427219D01*
X7743371Y42427219D02*
X7790990Y42474838D01*
X7790990Y42474838D02*
X7886228Y42522457D01*
X7886228Y42522457D02*
X8171942Y42522457D01*
X8171942Y42522457D02*
X8267180Y42474838D01*
X8267180Y42474838D02*
X8314800Y42427219D01*
X8314800Y42427219D02*
X8362419Y42331981D01*
X8362419Y42331981D02*
X8362419Y42189124D01*
X7695752Y42808172D02*
X7695752Y43189124D01*
X7362419Y42951029D02*
X8219561Y42951029D01*
X8219561Y42951029D02*
X8314800Y42998648D01*
X8314800Y42998648D02*
X8362419Y43093886D01*
X8362419Y43093886D02*
X8362419Y43189124D01*
X7695752Y43379601D02*
X7695752Y43760553D01*
X7362419Y43522458D02*
X8219561Y43522458D01*
X8219561Y43522458D02*
X8314800Y43570077D01*
X8314800Y43570077D02*
X8362419Y43665315D01*
X8362419Y43665315D02*
X8362419Y43760553D01*
X8362419Y44093887D02*
X7362419Y44093887D01*
X7981466Y44189125D02*
X8362419Y44474839D01*
X7695752Y44474839D02*
X8076704Y44093887D01*
X7695752Y44808173D02*
X8362419Y45046268D01*
X7695752Y45284363D02*
X8362419Y45046268D01*
X8362419Y45046268D02*
X8600514Y44951030D01*
X8600514Y44951030D02*
X8648133Y44903411D01*
X8648133Y44903411D02*
X8695752Y44808173D01*
X12367419Y40768506D02*
X11367419Y40768506D01*
X11367419Y40768506D02*
X11367419Y41006601D01*
X11367419Y41006601D02*
X11415038Y41149458D01*
X11415038Y41149458D02*
X11510276Y41244696D01*
X11510276Y41244696D02*
X11605514Y41292315D01*
X11605514Y41292315D02*
X11795990Y41339934D01*
X11795990Y41339934D02*
X11938847Y41339934D01*
X11938847Y41339934D02*
X12129323Y41292315D01*
X12129323Y41292315D02*
X12224561Y41244696D01*
X12224561Y41244696D02*
X12319800Y41149458D01*
X12319800Y41149458D02*
X12367419Y41006601D01*
X12367419Y41006601D02*
X12367419Y40768506D01*
X11367419Y41673268D02*
X11367419Y42339934D01*
X11367419Y42339934D02*
X12367419Y41911363D01*
X15140476Y27204681D02*
X15378571Y26204681D01*
X15378571Y26204681D02*
X15569047Y26918967D01*
X15569047Y26918967D02*
X15759523Y26204681D01*
X15759523Y26204681D02*
X15997619Y27204681D01*
X16330952Y26252300D02*
X16473809Y26204681D01*
X16473809Y26204681D02*
X16711904Y26204681D01*
X16711904Y26204681D02*
X16807142Y26252300D01*
X16807142Y26252300D02*
X16854761Y26299920D01*
X16854761Y26299920D02*
X16902380Y26395158D01*
X16902380Y26395158D02*
X16902380Y26490396D01*
X16902380Y26490396D02*
X16854761Y26585634D01*
X16854761Y26585634D02*
X16807142Y26633253D01*
X16807142Y26633253D02*
X16711904Y26680872D01*
X16711904Y26680872D02*
X16521428Y26728491D01*
X16521428Y26728491D02*
X16426190Y26776110D01*
X16426190Y26776110D02*
X16378571Y26823729D01*
X16378571Y26823729D02*
X16330952Y26918967D01*
X16330952Y26918967D02*
X16330952Y27014205D01*
X16330952Y27014205D02*
X16378571Y27109443D01*
X16378571Y27109443D02*
X16426190Y27157062D01*
X16426190Y27157062D02*
X16521428Y27204681D01*
X16521428Y27204681D02*
X16759523Y27204681D01*
X16759523Y27204681D02*
X16902380Y27157062D01*
X17283333Y27109443D02*
X17330952Y27157062D01*
X17330952Y27157062D02*
X17426190Y27204681D01*
X17426190Y27204681D02*
X17664285Y27204681D01*
X17664285Y27204681D02*
X17759523Y27157062D01*
X17759523Y27157062D02*
X17807142Y27109443D01*
X17807142Y27109443D02*
X17854761Y27014205D01*
X17854761Y27014205D02*
X17854761Y26918967D01*
X17854761Y26918967D02*
X17807142Y26776110D01*
X17807142Y26776110D02*
X17235714Y26204681D01*
X17235714Y26204681D02*
X17854761Y26204681D01*
X18426190Y26776110D02*
X18330952Y26823729D01*
X18330952Y26823729D02*
X18283333Y26871348D01*
X18283333Y26871348D02*
X18235714Y26966586D01*
X18235714Y26966586D02*
X18235714Y27014205D01*
X18235714Y27014205D02*
X18283333Y27109443D01*
X18283333Y27109443D02*
X18330952Y27157062D01*
X18330952Y27157062D02*
X18426190Y27204681D01*
X18426190Y27204681D02*
X18616666Y27204681D01*
X18616666Y27204681D02*
X18711904Y27157062D01*
X18711904Y27157062D02*
X18759523Y27109443D01*
X18759523Y27109443D02*
X18807142Y27014205D01*
X18807142Y27014205D02*
X18807142Y26966586D01*
X18807142Y26966586D02*
X18759523Y26871348D01*
X18759523Y26871348D02*
X18711904Y26823729D01*
X18711904Y26823729D02*
X18616666Y26776110D01*
X18616666Y26776110D02*
X18426190Y26776110D01*
X18426190Y26776110D02*
X18330952Y26728491D01*
X18330952Y26728491D02*
X18283333Y26680872D01*
X18283333Y26680872D02*
X18235714Y26585634D01*
X18235714Y26585634D02*
X18235714Y26395158D01*
X18235714Y26395158D02*
X18283333Y26299920D01*
X18283333Y26299920D02*
X18330952Y26252300D01*
X18330952Y26252300D02*
X18426190Y26204681D01*
X18426190Y26204681D02*
X18616666Y26204681D01*
X18616666Y26204681D02*
X18711904Y26252300D01*
X18711904Y26252300D02*
X18759523Y26299920D01*
X18759523Y26299920D02*
X18807142Y26395158D01*
X18807142Y26395158D02*
X18807142Y26585634D01*
X18807142Y26585634D02*
X18759523Y26680872D01*
X18759523Y26680872D02*
X18711904Y26728491D01*
X18711904Y26728491D02*
X18616666Y26776110D01*
X19759523Y26204681D02*
X19188095Y26204681D01*
X19473809Y26204681D02*
X19473809Y27204681D01*
X19473809Y27204681D02*
X19378571Y27061824D01*
X19378571Y27061824D02*
X19283333Y26966586D01*
X19283333Y26966586D02*
X19188095Y26918967D01*
X20140476Y27109443D02*
X20188095Y27157062D01*
X20188095Y27157062D02*
X20283333Y27204681D01*
X20283333Y27204681D02*
X20521428Y27204681D01*
X20521428Y27204681D02*
X20616666Y27157062D01*
X20616666Y27157062D02*
X20664285Y27109443D01*
X20664285Y27109443D02*
X20711904Y27014205D01*
X20711904Y27014205D02*
X20711904Y26918967D01*
X20711904Y26918967D02*
X20664285Y26776110D01*
X20664285Y26776110D02*
X20092857Y26204681D01*
X20092857Y26204681D02*
X20711904Y26204681D01*
X21473809Y26728491D02*
X21616666Y26680872D01*
X21616666Y26680872D02*
X21664285Y26633253D01*
X21664285Y26633253D02*
X21711904Y26538015D01*
X21711904Y26538015D02*
X21711904Y26395158D01*
X21711904Y26395158D02*
X21664285Y26299920D01*
X21664285Y26299920D02*
X21616666Y26252300D01*
X21616666Y26252300D02*
X21521428Y26204681D01*
X21521428Y26204681D02*
X21140476Y26204681D01*
X21140476Y26204681D02*
X21140476Y27204681D01*
X21140476Y27204681D02*
X21473809Y27204681D01*
X21473809Y27204681D02*
X21569047Y27157062D01*
X21569047Y27157062D02*
X21616666Y27109443D01*
X21616666Y27109443D02*
X21664285Y27014205D01*
X21664285Y27014205D02*
X21664285Y26918967D01*
X21664285Y26918967D02*
X21616666Y26823729D01*
X21616666Y26823729D02*
X21569047Y26776110D01*
X21569047Y26776110D02*
X21473809Y26728491D01*
X21473809Y26728491D02*
X21140476Y26728491D01*
X17478571Y30297205D02*
X17478571Y31097205D01*
X17478571Y31097205D02*
X17669047Y31097205D01*
X17669047Y31097205D02*
X17783333Y31059110D01*
X17783333Y31059110D02*
X17859523Y30982920D01*
X17859523Y30982920D02*
X17897618Y30906729D01*
X17897618Y30906729D02*
X17935714Y30754348D01*
X17935714Y30754348D02*
X17935714Y30640062D01*
X17935714Y30640062D02*
X17897618Y30487681D01*
X17897618Y30487681D02*
X17859523Y30411491D01*
X17859523Y30411491D02*
X17783333Y30335300D01*
X17783333Y30335300D02*
X17669047Y30297205D01*
X17669047Y30297205D02*
X17478571Y30297205D01*
X18697618Y30297205D02*
X18240475Y30297205D01*
X18469047Y30297205D02*
X18469047Y31097205D01*
X18469047Y31097205D02*
X18392856Y30982920D01*
X18392856Y30982920D02*
X18316666Y30906729D01*
X18316666Y30906729D02*
X18240475Y30868634D01*
X19383333Y31097205D02*
X19230952Y31097205D01*
X19230952Y31097205D02*
X19154761Y31059110D01*
X19154761Y31059110D02*
X19116666Y31021015D01*
X19116666Y31021015D02*
X19040476Y30906729D01*
X19040476Y30906729D02*
X19002380Y30754348D01*
X19002380Y30754348D02*
X19002380Y30449586D01*
X19002380Y30449586D02*
X19040476Y30373396D01*
X19040476Y30373396D02*
X19078571Y30335300D01*
X19078571Y30335300D02*
X19154761Y30297205D01*
X19154761Y30297205D02*
X19307142Y30297205D01*
X19307142Y30297205D02*
X19383333Y30335300D01*
X19383333Y30335300D02*
X19421428Y30373396D01*
X19421428Y30373396D02*
X19459523Y30449586D01*
X19459523Y30449586D02*
X19459523Y30640062D01*
X19459523Y30640062D02*
X19421428Y30716253D01*
X19421428Y30716253D02*
X19383333Y30754348D01*
X19383333Y30754348D02*
X19307142Y30792443D01*
X19307142Y30792443D02*
X19154761Y30792443D01*
X19154761Y30792443D02*
X19078571Y30754348D01*
X19078571Y30754348D02*
X19040476Y30716253D01*
X19040476Y30716253D02*
X19002380Y30640062D01*
X15140476Y46254681D02*
X15378571Y45254681D01*
X15378571Y45254681D02*
X15569047Y45968967D01*
X15569047Y45968967D02*
X15759523Y45254681D01*
X15759523Y45254681D02*
X15997619Y46254681D01*
X16330952Y45302300D02*
X16473809Y45254681D01*
X16473809Y45254681D02*
X16711904Y45254681D01*
X16711904Y45254681D02*
X16807142Y45302300D01*
X16807142Y45302300D02*
X16854761Y45349920D01*
X16854761Y45349920D02*
X16902380Y45445158D01*
X16902380Y45445158D02*
X16902380Y45540396D01*
X16902380Y45540396D02*
X16854761Y45635634D01*
X16854761Y45635634D02*
X16807142Y45683253D01*
X16807142Y45683253D02*
X16711904Y45730872D01*
X16711904Y45730872D02*
X16521428Y45778491D01*
X16521428Y45778491D02*
X16426190Y45826110D01*
X16426190Y45826110D02*
X16378571Y45873729D01*
X16378571Y45873729D02*
X16330952Y45968967D01*
X16330952Y45968967D02*
X16330952Y46064205D01*
X16330952Y46064205D02*
X16378571Y46159443D01*
X16378571Y46159443D02*
X16426190Y46207062D01*
X16426190Y46207062D02*
X16521428Y46254681D01*
X16521428Y46254681D02*
X16759523Y46254681D01*
X16759523Y46254681D02*
X16902380Y46207062D01*
X17283333Y46159443D02*
X17330952Y46207062D01*
X17330952Y46207062D02*
X17426190Y46254681D01*
X17426190Y46254681D02*
X17664285Y46254681D01*
X17664285Y46254681D02*
X17759523Y46207062D01*
X17759523Y46207062D02*
X17807142Y46159443D01*
X17807142Y46159443D02*
X17854761Y46064205D01*
X17854761Y46064205D02*
X17854761Y45968967D01*
X17854761Y45968967D02*
X17807142Y45826110D01*
X17807142Y45826110D02*
X17235714Y45254681D01*
X17235714Y45254681D02*
X17854761Y45254681D01*
X18426190Y45826110D02*
X18330952Y45873729D01*
X18330952Y45873729D02*
X18283333Y45921348D01*
X18283333Y45921348D02*
X18235714Y46016586D01*
X18235714Y46016586D02*
X18235714Y46064205D01*
X18235714Y46064205D02*
X18283333Y46159443D01*
X18283333Y46159443D02*
X18330952Y46207062D01*
X18330952Y46207062D02*
X18426190Y46254681D01*
X18426190Y46254681D02*
X18616666Y46254681D01*
X18616666Y46254681D02*
X18711904Y46207062D01*
X18711904Y46207062D02*
X18759523Y46159443D01*
X18759523Y46159443D02*
X18807142Y46064205D01*
X18807142Y46064205D02*
X18807142Y46016586D01*
X18807142Y46016586D02*
X18759523Y45921348D01*
X18759523Y45921348D02*
X18711904Y45873729D01*
X18711904Y45873729D02*
X18616666Y45826110D01*
X18616666Y45826110D02*
X18426190Y45826110D01*
X18426190Y45826110D02*
X18330952Y45778491D01*
X18330952Y45778491D02*
X18283333Y45730872D01*
X18283333Y45730872D02*
X18235714Y45635634D01*
X18235714Y45635634D02*
X18235714Y45445158D01*
X18235714Y45445158D02*
X18283333Y45349920D01*
X18283333Y45349920D02*
X18330952Y45302300D01*
X18330952Y45302300D02*
X18426190Y45254681D01*
X18426190Y45254681D02*
X18616666Y45254681D01*
X18616666Y45254681D02*
X18711904Y45302300D01*
X18711904Y45302300D02*
X18759523Y45349920D01*
X18759523Y45349920D02*
X18807142Y45445158D01*
X18807142Y45445158D02*
X18807142Y45635634D01*
X18807142Y45635634D02*
X18759523Y45730872D01*
X18759523Y45730872D02*
X18711904Y45778491D01*
X18711904Y45778491D02*
X18616666Y45826110D01*
X19759523Y45254681D02*
X19188095Y45254681D01*
X19473809Y45254681D02*
X19473809Y46254681D01*
X19473809Y46254681D02*
X19378571Y46111824D01*
X19378571Y46111824D02*
X19283333Y46016586D01*
X19283333Y46016586D02*
X19188095Y45968967D01*
X20140476Y46159443D02*
X20188095Y46207062D01*
X20188095Y46207062D02*
X20283333Y46254681D01*
X20283333Y46254681D02*
X20521428Y46254681D01*
X20521428Y46254681D02*
X20616666Y46207062D01*
X20616666Y46207062D02*
X20664285Y46159443D01*
X20664285Y46159443D02*
X20711904Y46064205D01*
X20711904Y46064205D02*
X20711904Y45968967D01*
X20711904Y45968967D02*
X20664285Y45826110D01*
X20664285Y45826110D02*
X20092857Y45254681D01*
X20092857Y45254681D02*
X20711904Y45254681D01*
X21473809Y45778491D02*
X21616666Y45730872D01*
X21616666Y45730872D02*
X21664285Y45683253D01*
X21664285Y45683253D02*
X21711904Y45588015D01*
X21711904Y45588015D02*
X21711904Y45445158D01*
X21711904Y45445158D02*
X21664285Y45349920D01*
X21664285Y45349920D02*
X21616666Y45302300D01*
X21616666Y45302300D02*
X21521428Y45254681D01*
X21521428Y45254681D02*
X21140476Y45254681D01*
X21140476Y45254681D02*
X21140476Y46254681D01*
X21140476Y46254681D02*
X21473809Y46254681D01*
X21473809Y46254681D02*
X21569047Y46207062D01*
X21569047Y46207062D02*
X21616666Y46159443D01*
X21616666Y46159443D02*
X21664285Y46064205D01*
X21664285Y46064205D02*
X21664285Y45968967D01*
X21664285Y45968967D02*
X21616666Y45873729D01*
X21616666Y45873729D02*
X21569047Y45826110D01*
X21569047Y45826110D02*
X21473809Y45778491D01*
X21473809Y45778491D02*
X21140476Y45778491D01*
X17478571Y49347205D02*
X17478571Y50147205D01*
X17478571Y50147205D02*
X17669047Y50147205D01*
X17669047Y50147205D02*
X17783333Y50109110D01*
X17783333Y50109110D02*
X17859523Y50032920D01*
X17859523Y50032920D02*
X17897618Y49956729D01*
X17897618Y49956729D02*
X17935714Y49804348D01*
X17935714Y49804348D02*
X17935714Y49690062D01*
X17935714Y49690062D02*
X17897618Y49537681D01*
X17897618Y49537681D02*
X17859523Y49461491D01*
X17859523Y49461491D02*
X17783333Y49385300D01*
X17783333Y49385300D02*
X17669047Y49347205D01*
X17669047Y49347205D02*
X17478571Y49347205D01*
X18697618Y49347205D02*
X18240475Y49347205D01*
X18469047Y49347205D02*
X18469047Y50147205D01*
X18469047Y50147205D02*
X18392856Y50032920D01*
X18392856Y50032920D02*
X18316666Y49956729D01*
X18316666Y49956729D02*
X18240475Y49918634D01*
X18964285Y50147205D02*
X19459523Y50147205D01*
X19459523Y50147205D02*
X19192857Y49842443D01*
X19192857Y49842443D02*
X19307142Y49842443D01*
X19307142Y49842443D02*
X19383333Y49804348D01*
X19383333Y49804348D02*
X19421428Y49766253D01*
X19421428Y49766253D02*
X19459523Y49690062D01*
X19459523Y49690062D02*
X19459523Y49499586D01*
X19459523Y49499586D02*
X19421428Y49423396D01*
X19421428Y49423396D02*
X19383333Y49385300D01*
X19383333Y49385300D02*
X19307142Y49347205D01*
X19307142Y49347205D02*
X19078571Y49347205D01*
X19078571Y49347205D02*
X19002380Y49385300D01*
X19002380Y49385300D02*
X18964285Y49423396D01*
X11004219Y7894544D02*
X11004219Y7989782D01*
X11004219Y7989782D02*
X11051838Y8085020D01*
X11051838Y8085020D02*
X11099457Y8132639D01*
X11099457Y8132639D02*
X11194695Y8180258D01*
X11194695Y8180258D02*
X11385171Y8227877D01*
X11385171Y8227877D02*
X11623266Y8227877D01*
X11623266Y8227877D02*
X11813742Y8180258D01*
X11813742Y8180258D02*
X11908980Y8132639D01*
X11908980Y8132639D02*
X11956600Y8085020D01*
X11956600Y8085020D02*
X12004219Y7989782D01*
X12004219Y7989782D02*
X12004219Y7894544D01*
X12004219Y7894544D02*
X11956600Y7799306D01*
X11956600Y7799306D02*
X11908980Y7751687D01*
X11908980Y7751687D02*
X11813742Y7704068D01*
X11813742Y7704068D02*
X11623266Y7656449D01*
X11623266Y7656449D02*
X11385171Y7656449D01*
X11385171Y7656449D02*
X11194695Y7704068D01*
X11194695Y7704068D02*
X11099457Y7751687D01*
X11099457Y7751687D02*
X11051838Y7799306D01*
X11051838Y7799306D02*
X11004219Y7894544D01*
X11908980Y8656449D02*
X11956600Y8704068D01*
X11956600Y8704068D02*
X12004219Y8656449D01*
X12004219Y8656449D02*
X11956600Y8608830D01*
X11956600Y8608830D02*
X11908980Y8656449D01*
X11908980Y8656449D02*
X12004219Y8656449D01*
X12004219Y9656448D02*
X12004219Y9085020D01*
X12004219Y9370734D02*
X11004219Y9370734D01*
X11004219Y9370734D02*
X11147076Y9275496D01*
X11147076Y9275496D02*
X11242314Y9180258D01*
X11242314Y9180258D02*
X11289933Y9085020D01*
X11337552Y10513591D02*
X12004219Y10513591D01*
X11337552Y10085020D02*
X11861361Y10085020D01*
X11861361Y10085020D02*
X11956600Y10132639D01*
X11956600Y10132639D02*
X12004219Y10227877D01*
X12004219Y10227877D02*
X12004219Y10370734D01*
X12004219Y10370734D02*
X11956600Y10465972D01*
X11956600Y10465972D02*
X11908980Y10513591D01*
X11480409Y11323115D02*
X11480409Y10989782D01*
X12004219Y10989782D02*
X11004219Y10989782D01*
X11004219Y10989782D02*
X11004219Y11465972D01*
D11*
X13123232Y9280258D02*
X13142280Y9261210D01*
X13142280Y9261210D02*
X13161327Y9204068D01*
X13161327Y9204068D02*
X13161327Y9165972D01*
X13161327Y9165972D02*
X13142280Y9108829D01*
X13142280Y9108829D02*
X13104184Y9070734D01*
X13104184Y9070734D02*
X13066089Y9051687D01*
X13066089Y9051687D02*
X12989899Y9032639D01*
X12989899Y9032639D02*
X12932756Y9032639D01*
X12932756Y9032639D02*
X12856565Y9051687D01*
X12856565Y9051687D02*
X12818470Y9070734D01*
X12818470Y9070734D02*
X12780375Y9108829D01*
X12780375Y9108829D02*
X12761327Y9165972D01*
X12761327Y9165972D02*
X12761327Y9204068D01*
X12761327Y9204068D02*
X12780375Y9261210D01*
X12780375Y9261210D02*
X12799422Y9280258D01*
X13161327Y9661210D02*
X13161327Y9432639D01*
X13161327Y9546925D02*
X12761327Y9546925D01*
X12761327Y9546925D02*
X12818470Y9508829D01*
X12818470Y9508829D02*
X12856565Y9470734D01*
X12856565Y9470734D02*
X12875613Y9432639D01*
X12761327Y9794543D02*
X12761327Y10061210D01*
X12761327Y10061210D02*
X13161327Y9889781D01*
D10*
X15140476Y8154681D02*
X15378571Y7154681D01*
X15378571Y7154681D02*
X15569047Y7868967D01*
X15569047Y7868967D02*
X15759523Y7154681D01*
X15759523Y7154681D02*
X15997619Y8154681D01*
X16330952Y7202300D02*
X16473809Y7154681D01*
X16473809Y7154681D02*
X16711904Y7154681D01*
X16711904Y7154681D02*
X16807142Y7202300D01*
X16807142Y7202300D02*
X16854761Y7249920D01*
X16854761Y7249920D02*
X16902380Y7345158D01*
X16902380Y7345158D02*
X16902380Y7440396D01*
X16902380Y7440396D02*
X16854761Y7535634D01*
X16854761Y7535634D02*
X16807142Y7583253D01*
X16807142Y7583253D02*
X16711904Y7630872D01*
X16711904Y7630872D02*
X16521428Y7678491D01*
X16521428Y7678491D02*
X16426190Y7726110D01*
X16426190Y7726110D02*
X16378571Y7773729D01*
X16378571Y7773729D02*
X16330952Y7868967D01*
X16330952Y7868967D02*
X16330952Y7964205D01*
X16330952Y7964205D02*
X16378571Y8059443D01*
X16378571Y8059443D02*
X16426190Y8107062D01*
X16426190Y8107062D02*
X16521428Y8154681D01*
X16521428Y8154681D02*
X16759523Y8154681D01*
X16759523Y8154681D02*
X16902380Y8107062D01*
X17283333Y8059443D02*
X17330952Y8107062D01*
X17330952Y8107062D02*
X17426190Y8154681D01*
X17426190Y8154681D02*
X17664285Y8154681D01*
X17664285Y8154681D02*
X17759523Y8107062D01*
X17759523Y8107062D02*
X17807142Y8059443D01*
X17807142Y8059443D02*
X17854761Y7964205D01*
X17854761Y7964205D02*
X17854761Y7868967D01*
X17854761Y7868967D02*
X17807142Y7726110D01*
X17807142Y7726110D02*
X17235714Y7154681D01*
X17235714Y7154681D02*
X17854761Y7154681D01*
X18426190Y7726110D02*
X18330952Y7773729D01*
X18330952Y7773729D02*
X18283333Y7821348D01*
X18283333Y7821348D02*
X18235714Y7916586D01*
X18235714Y7916586D02*
X18235714Y7964205D01*
X18235714Y7964205D02*
X18283333Y8059443D01*
X18283333Y8059443D02*
X18330952Y8107062D01*
X18330952Y8107062D02*
X18426190Y8154681D01*
X18426190Y8154681D02*
X18616666Y8154681D01*
X18616666Y8154681D02*
X18711904Y8107062D01*
X18711904Y8107062D02*
X18759523Y8059443D01*
X18759523Y8059443D02*
X18807142Y7964205D01*
X18807142Y7964205D02*
X18807142Y7916586D01*
X18807142Y7916586D02*
X18759523Y7821348D01*
X18759523Y7821348D02*
X18711904Y7773729D01*
X18711904Y7773729D02*
X18616666Y7726110D01*
X18616666Y7726110D02*
X18426190Y7726110D01*
X18426190Y7726110D02*
X18330952Y7678491D01*
X18330952Y7678491D02*
X18283333Y7630872D01*
X18283333Y7630872D02*
X18235714Y7535634D01*
X18235714Y7535634D02*
X18235714Y7345158D01*
X18235714Y7345158D02*
X18283333Y7249920D01*
X18283333Y7249920D02*
X18330952Y7202300D01*
X18330952Y7202300D02*
X18426190Y7154681D01*
X18426190Y7154681D02*
X18616666Y7154681D01*
X18616666Y7154681D02*
X18711904Y7202300D01*
X18711904Y7202300D02*
X18759523Y7249920D01*
X18759523Y7249920D02*
X18807142Y7345158D01*
X18807142Y7345158D02*
X18807142Y7535634D01*
X18807142Y7535634D02*
X18759523Y7630872D01*
X18759523Y7630872D02*
X18711904Y7678491D01*
X18711904Y7678491D02*
X18616666Y7726110D01*
X19759523Y7154681D02*
X19188095Y7154681D01*
X19473809Y7154681D02*
X19473809Y8154681D01*
X19473809Y8154681D02*
X19378571Y8011824D01*
X19378571Y8011824D02*
X19283333Y7916586D01*
X19283333Y7916586D02*
X19188095Y7868967D01*
X20140476Y8059443D02*
X20188095Y8107062D01*
X20188095Y8107062D02*
X20283333Y8154681D01*
X20283333Y8154681D02*
X20521428Y8154681D01*
X20521428Y8154681D02*
X20616666Y8107062D01*
X20616666Y8107062D02*
X20664285Y8059443D01*
X20664285Y8059443D02*
X20711904Y7964205D01*
X20711904Y7964205D02*
X20711904Y7868967D01*
X20711904Y7868967D02*
X20664285Y7726110D01*
X20664285Y7726110D02*
X20092857Y7154681D01*
X20092857Y7154681D02*
X20711904Y7154681D01*
X21473809Y7678491D02*
X21616666Y7630872D01*
X21616666Y7630872D02*
X21664285Y7583253D01*
X21664285Y7583253D02*
X21711904Y7488015D01*
X21711904Y7488015D02*
X21711904Y7345158D01*
X21711904Y7345158D02*
X21664285Y7249920D01*
X21664285Y7249920D02*
X21616666Y7202300D01*
X21616666Y7202300D02*
X21521428Y7154681D01*
X21521428Y7154681D02*
X21140476Y7154681D01*
X21140476Y7154681D02*
X21140476Y8154681D01*
X21140476Y8154681D02*
X21473809Y8154681D01*
X21473809Y8154681D02*
X21569047Y8107062D01*
X21569047Y8107062D02*
X21616666Y8059443D01*
X21616666Y8059443D02*
X21664285Y7964205D01*
X21664285Y7964205D02*
X21664285Y7868967D01*
X21664285Y7868967D02*
X21616666Y7773729D01*
X21616666Y7773729D02*
X21569047Y7726110D01*
X21569047Y7726110D02*
X21473809Y7678491D01*
X21473809Y7678491D02*
X21140476Y7678491D01*
X17478571Y11247205D02*
X17478571Y12047205D01*
X17478571Y12047205D02*
X17669047Y12047205D01*
X17669047Y12047205D02*
X17783333Y12009110D01*
X17783333Y12009110D02*
X17859523Y11932920D01*
X17859523Y11932920D02*
X17897618Y11856729D01*
X17897618Y11856729D02*
X17935714Y11704348D01*
X17935714Y11704348D02*
X17935714Y11590062D01*
X17935714Y11590062D02*
X17897618Y11437681D01*
X17897618Y11437681D02*
X17859523Y11361491D01*
X17859523Y11361491D02*
X17783333Y11285300D01*
X17783333Y11285300D02*
X17669047Y11247205D01*
X17669047Y11247205D02*
X17478571Y11247205D01*
X18697618Y11247205D02*
X18240475Y11247205D01*
X18469047Y11247205D02*
X18469047Y12047205D01*
X18469047Y12047205D02*
X18392856Y11932920D01*
X18392856Y11932920D02*
X18316666Y11856729D01*
X18316666Y11856729D02*
X18240475Y11818634D01*
X19078571Y11247205D02*
X19230952Y11247205D01*
X19230952Y11247205D02*
X19307142Y11285300D01*
X19307142Y11285300D02*
X19345238Y11323396D01*
X19345238Y11323396D02*
X19421428Y11437681D01*
X19421428Y11437681D02*
X19459523Y11590062D01*
X19459523Y11590062D02*
X19459523Y11894824D01*
X19459523Y11894824D02*
X19421428Y11971015D01*
X19421428Y11971015D02*
X19383333Y12009110D01*
X19383333Y12009110D02*
X19307142Y12047205D01*
X19307142Y12047205D02*
X19154761Y12047205D01*
X19154761Y12047205D02*
X19078571Y12009110D01*
X19078571Y12009110D02*
X19040476Y11971015D01*
X19040476Y11971015D02*
X19002380Y11894824D01*
X19002380Y11894824D02*
X19002380Y11704348D01*
X19002380Y11704348D02*
X19040476Y11628158D01*
X19040476Y11628158D02*
X19078571Y11590062D01*
X19078571Y11590062D02*
X19154761Y11551967D01*
X19154761Y11551967D02*
X19307142Y11551967D01*
X19307142Y11551967D02*
X19383333Y11590062D01*
X19383333Y11590062D02*
X19421428Y11628158D01*
X19421428Y11628158D02*
X19459523Y11704348D01*
X53240476Y46254681D02*
X53478571Y45254681D01*
X53478571Y45254681D02*
X53669047Y45968967D01*
X53669047Y45968967D02*
X53859523Y45254681D01*
X53859523Y45254681D02*
X54097619Y46254681D01*
X54430952Y45302300D02*
X54573809Y45254681D01*
X54573809Y45254681D02*
X54811904Y45254681D01*
X54811904Y45254681D02*
X54907142Y45302300D01*
X54907142Y45302300D02*
X54954761Y45349920D01*
X54954761Y45349920D02*
X55002380Y45445158D01*
X55002380Y45445158D02*
X55002380Y45540396D01*
X55002380Y45540396D02*
X54954761Y45635634D01*
X54954761Y45635634D02*
X54907142Y45683253D01*
X54907142Y45683253D02*
X54811904Y45730872D01*
X54811904Y45730872D02*
X54621428Y45778491D01*
X54621428Y45778491D02*
X54526190Y45826110D01*
X54526190Y45826110D02*
X54478571Y45873729D01*
X54478571Y45873729D02*
X54430952Y45968967D01*
X54430952Y45968967D02*
X54430952Y46064205D01*
X54430952Y46064205D02*
X54478571Y46159443D01*
X54478571Y46159443D02*
X54526190Y46207062D01*
X54526190Y46207062D02*
X54621428Y46254681D01*
X54621428Y46254681D02*
X54859523Y46254681D01*
X54859523Y46254681D02*
X55002380Y46207062D01*
X55383333Y46159443D02*
X55430952Y46207062D01*
X55430952Y46207062D02*
X55526190Y46254681D01*
X55526190Y46254681D02*
X55764285Y46254681D01*
X55764285Y46254681D02*
X55859523Y46207062D01*
X55859523Y46207062D02*
X55907142Y46159443D01*
X55907142Y46159443D02*
X55954761Y46064205D01*
X55954761Y46064205D02*
X55954761Y45968967D01*
X55954761Y45968967D02*
X55907142Y45826110D01*
X55907142Y45826110D02*
X55335714Y45254681D01*
X55335714Y45254681D02*
X55954761Y45254681D01*
X56526190Y45826110D02*
X56430952Y45873729D01*
X56430952Y45873729D02*
X56383333Y45921348D01*
X56383333Y45921348D02*
X56335714Y46016586D01*
X56335714Y46016586D02*
X56335714Y46064205D01*
X56335714Y46064205D02*
X56383333Y46159443D01*
X56383333Y46159443D02*
X56430952Y46207062D01*
X56430952Y46207062D02*
X56526190Y46254681D01*
X56526190Y46254681D02*
X56716666Y46254681D01*
X56716666Y46254681D02*
X56811904Y46207062D01*
X56811904Y46207062D02*
X56859523Y46159443D01*
X56859523Y46159443D02*
X56907142Y46064205D01*
X56907142Y46064205D02*
X56907142Y46016586D01*
X56907142Y46016586D02*
X56859523Y45921348D01*
X56859523Y45921348D02*
X56811904Y45873729D01*
X56811904Y45873729D02*
X56716666Y45826110D01*
X56716666Y45826110D02*
X56526190Y45826110D01*
X56526190Y45826110D02*
X56430952Y45778491D01*
X56430952Y45778491D02*
X56383333Y45730872D01*
X56383333Y45730872D02*
X56335714Y45635634D01*
X56335714Y45635634D02*
X56335714Y45445158D01*
X56335714Y45445158D02*
X56383333Y45349920D01*
X56383333Y45349920D02*
X56430952Y45302300D01*
X56430952Y45302300D02*
X56526190Y45254681D01*
X56526190Y45254681D02*
X56716666Y45254681D01*
X56716666Y45254681D02*
X56811904Y45302300D01*
X56811904Y45302300D02*
X56859523Y45349920D01*
X56859523Y45349920D02*
X56907142Y45445158D01*
X56907142Y45445158D02*
X56907142Y45635634D01*
X56907142Y45635634D02*
X56859523Y45730872D01*
X56859523Y45730872D02*
X56811904Y45778491D01*
X56811904Y45778491D02*
X56716666Y45826110D01*
X57859523Y45254681D02*
X57288095Y45254681D01*
X57573809Y45254681D02*
X57573809Y46254681D01*
X57573809Y46254681D02*
X57478571Y46111824D01*
X57478571Y46111824D02*
X57383333Y46016586D01*
X57383333Y46016586D02*
X57288095Y45968967D01*
X58240476Y46159443D02*
X58288095Y46207062D01*
X58288095Y46207062D02*
X58383333Y46254681D01*
X58383333Y46254681D02*
X58621428Y46254681D01*
X58621428Y46254681D02*
X58716666Y46207062D01*
X58716666Y46207062D02*
X58764285Y46159443D01*
X58764285Y46159443D02*
X58811904Y46064205D01*
X58811904Y46064205D02*
X58811904Y45968967D01*
X58811904Y45968967D02*
X58764285Y45826110D01*
X58764285Y45826110D02*
X58192857Y45254681D01*
X58192857Y45254681D02*
X58811904Y45254681D01*
X59573809Y45778491D02*
X59716666Y45730872D01*
X59716666Y45730872D02*
X59764285Y45683253D01*
X59764285Y45683253D02*
X59811904Y45588015D01*
X59811904Y45588015D02*
X59811904Y45445158D01*
X59811904Y45445158D02*
X59764285Y45349920D01*
X59764285Y45349920D02*
X59716666Y45302300D01*
X59716666Y45302300D02*
X59621428Y45254681D01*
X59621428Y45254681D02*
X59240476Y45254681D01*
X59240476Y45254681D02*
X59240476Y46254681D01*
X59240476Y46254681D02*
X59573809Y46254681D01*
X59573809Y46254681D02*
X59669047Y46207062D01*
X59669047Y46207062D02*
X59716666Y46159443D01*
X59716666Y46159443D02*
X59764285Y46064205D01*
X59764285Y46064205D02*
X59764285Y45968967D01*
X59764285Y45968967D02*
X59716666Y45873729D01*
X59716666Y45873729D02*
X59669047Y45826110D01*
X59669047Y45826110D02*
X59573809Y45778491D01*
X59573809Y45778491D02*
X59240476Y45778491D01*
X55578571Y49347205D02*
X55578571Y50147205D01*
X55578571Y50147205D02*
X55769047Y50147205D01*
X55769047Y50147205D02*
X55883333Y50109110D01*
X55883333Y50109110D02*
X55959523Y50032920D01*
X55959523Y50032920D02*
X55997618Y49956729D01*
X55997618Y49956729D02*
X56035714Y49804348D01*
X56035714Y49804348D02*
X56035714Y49690062D01*
X56035714Y49690062D02*
X55997618Y49537681D01*
X55997618Y49537681D02*
X55959523Y49461491D01*
X55959523Y49461491D02*
X55883333Y49385300D01*
X55883333Y49385300D02*
X55769047Y49347205D01*
X55769047Y49347205D02*
X55578571Y49347205D01*
X56797618Y49347205D02*
X56340475Y49347205D01*
X56569047Y49347205D02*
X56569047Y50147205D01*
X56569047Y50147205D02*
X56492856Y50032920D01*
X56492856Y50032920D02*
X56416666Y49956729D01*
X56416666Y49956729D02*
X56340475Y49918634D01*
X57521428Y50147205D02*
X57140476Y50147205D01*
X57140476Y50147205D02*
X57102380Y49766253D01*
X57102380Y49766253D02*
X57140476Y49804348D01*
X57140476Y49804348D02*
X57216666Y49842443D01*
X57216666Y49842443D02*
X57407142Y49842443D01*
X57407142Y49842443D02*
X57483333Y49804348D01*
X57483333Y49804348D02*
X57521428Y49766253D01*
X57521428Y49766253D02*
X57559523Y49690062D01*
X57559523Y49690062D02*
X57559523Y49499586D01*
X57559523Y49499586D02*
X57521428Y49423396D01*
X57521428Y49423396D02*
X57483333Y49385300D01*
X57483333Y49385300D02*
X57407142Y49347205D01*
X57407142Y49347205D02*
X57216666Y49347205D01*
X57216666Y49347205D02*
X57140476Y49385300D01*
X57140476Y49385300D02*
X57102380Y49423396D01*
X53240476Y8154681D02*
X53478571Y7154681D01*
X53478571Y7154681D02*
X53669047Y7868967D01*
X53669047Y7868967D02*
X53859523Y7154681D01*
X53859523Y7154681D02*
X54097619Y8154681D01*
X54430952Y7202300D02*
X54573809Y7154681D01*
X54573809Y7154681D02*
X54811904Y7154681D01*
X54811904Y7154681D02*
X54907142Y7202300D01*
X54907142Y7202300D02*
X54954761Y7249920D01*
X54954761Y7249920D02*
X55002380Y7345158D01*
X55002380Y7345158D02*
X55002380Y7440396D01*
X55002380Y7440396D02*
X54954761Y7535634D01*
X54954761Y7535634D02*
X54907142Y7583253D01*
X54907142Y7583253D02*
X54811904Y7630872D01*
X54811904Y7630872D02*
X54621428Y7678491D01*
X54621428Y7678491D02*
X54526190Y7726110D01*
X54526190Y7726110D02*
X54478571Y7773729D01*
X54478571Y7773729D02*
X54430952Y7868967D01*
X54430952Y7868967D02*
X54430952Y7964205D01*
X54430952Y7964205D02*
X54478571Y8059443D01*
X54478571Y8059443D02*
X54526190Y8107062D01*
X54526190Y8107062D02*
X54621428Y8154681D01*
X54621428Y8154681D02*
X54859523Y8154681D01*
X54859523Y8154681D02*
X55002380Y8107062D01*
X55383333Y8059443D02*
X55430952Y8107062D01*
X55430952Y8107062D02*
X55526190Y8154681D01*
X55526190Y8154681D02*
X55764285Y8154681D01*
X55764285Y8154681D02*
X55859523Y8107062D01*
X55859523Y8107062D02*
X55907142Y8059443D01*
X55907142Y8059443D02*
X55954761Y7964205D01*
X55954761Y7964205D02*
X55954761Y7868967D01*
X55954761Y7868967D02*
X55907142Y7726110D01*
X55907142Y7726110D02*
X55335714Y7154681D01*
X55335714Y7154681D02*
X55954761Y7154681D01*
X56526190Y7726110D02*
X56430952Y7773729D01*
X56430952Y7773729D02*
X56383333Y7821348D01*
X56383333Y7821348D02*
X56335714Y7916586D01*
X56335714Y7916586D02*
X56335714Y7964205D01*
X56335714Y7964205D02*
X56383333Y8059443D01*
X56383333Y8059443D02*
X56430952Y8107062D01*
X56430952Y8107062D02*
X56526190Y8154681D01*
X56526190Y8154681D02*
X56716666Y8154681D01*
X56716666Y8154681D02*
X56811904Y8107062D01*
X56811904Y8107062D02*
X56859523Y8059443D01*
X56859523Y8059443D02*
X56907142Y7964205D01*
X56907142Y7964205D02*
X56907142Y7916586D01*
X56907142Y7916586D02*
X56859523Y7821348D01*
X56859523Y7821348D02*
X56811904Y7773729D01*
X56811904Y7773729D02*
X56716666Y7726110D01*
X56716666Y7726110D02*
X56526190Y7726110D01*
X56526190Y7726110D02*
X56430952Y7678491D01*
X56430952Y7678491D02*
X56383333Y7630872D01*
X56383333Y7630872D02*
X56335714Y7535634D01*
X56335714Y7535634D02*
X56335714Y7345158D01*
X56335714Y7345158D02*
X56383333Y7249920D01*
X56383333Y7249920D02*
X56430952Y7202300D01*
X56430952Y7202300D02*
X56526190Y7154681D01*
X56526190Y7154681D02*
X56716666Y7154681D01*
X56716666Y7154681D02*
X56811904Y7202300D01*
X56811904Y7202300D02*
X56859523Y7249920D01*
X56859523Y7249920D02*
X56907142Y7345158D01*
X56907142Y7345158D02*
X56907142Y7535634D01*
X56907142Y7535634D02*
X56859523Y7630872D01*
X56859523Y7630872D02*
X56811904Y7678491D01*
X56811904Y7678491D02*
X56716666Y7726110D01*
X57859523Y7154681D02*
X57288095Y7154681D01*
X57573809Y7154681D02*
X57573809Y8154681D01*
X57573809Y8154681D02*
X57478571Y8011824D01*
X57478571Y8011824D02*
X57383333Y7916586D01*
X57383333Y7916586D02*
X57288095Y7868967D01*
X58240476Y8059443D02*
X58288095Y8107062D01*
X58288095Y8107062D02*
X58383333Y8154681D01*
X58383333Y8154681D02*
X58621428Y8154681D01*
X58621428Y8154681D02*
X58716666Y8107062D01*
X58716666Y8107062D02*
X58764285Y8059443D01*
X58764285Y8059443D02*
X58811904Y7964205D01*
X58811904Y7964205D02*
X58811904Y7868967D01*
X58811904Y7868967D02*
X58764285Y7726110D01*
X58764285Y7726110D02*
X58192857Y7154681D01*
X58192857Y7154681D02*
X58811904Y7154681D01*
X59573809Y7678491D02*
X59716666Y7630872D01*
X59716666Y7630872D02*
X59764285Y7583253D01*
X59764285Y7583253D02*
X59811904Y7488015D01*
X59811904Y7488015D02*
X59811904Y7345158D01*
X59811904Y7345158D02*
X59764285Y7249920D01*
X59764285Y7249920D02*
X59716666Y7202300D01*
X59716666Y7202300D02*
X59621428Y7154681D01*
X59621428Y7154681D02*
X59240476Y7154681D01*
X59240476Y7154681D02*
X59240476Y8154681D01*
X59240476Y8154681D02*
X59573809Y8154681D01*
X59573809Y8154681D02*
X59669047Y8107062D01*
X59669047Y8107062D02*
X59716666Y8059443D01*
X59716666Y8059443D02*
X59764285Y7964205D01*
X59764285Y7964205D02*
X59764285Y7868967D01*
X59764285Y7868967D02*
X59716666Y7773729D01*
X59716666Y7773729D02*
X59669047Y7726110D01*
X59669047Y7726110D02*
X59573809Y7678491D01*
X59573809Y7678491D02*
X59240476Y7678491D01*
X55578571Y11247205D02*
X55578571Y12047205D01*
X55578571Y12047205D02*
X55769047Y12047205D01*
X55769047Y12047205D02*
X55883333Y12009110D01*
X55883333Y12009110D02*
X55959523Y11932920D01*
X55959523Y11932920D02*
X55997618Y11856729D01*
X55997618Y11856729D02*
X56035714Y11704348D01*
X56035714Y11704348D02*
X56035714Y11590062D01*
X56035714Y11590062D02*
X55997618Y11437681D01*
X55997618Y11437681D02*
X55959523Y11361491D01*
X55959523Y11361491D02*
X55883333Y11285300D01*
X55883333Y11285300D02*
X55769047Y11247205D01*
X55769047Y11247205D02*
X55578571Y11247205D01*
X56340475Y11971015D02*
X56378571Y12009110D01*
X56378571Y12009110D02*
X56454761Y12047205D01*
X56454761Y12047205D02*
X56645237Y12047205D01*
X56645237Y12047205D02*
X56721428Y12009110D01*
X56721428Y12009110D02*
X56759523Y11971015D01*
X56759523Y11971015D02*
X56797618Y11894824D01*
X56797618Y11894824D02*
X56797618Y11818634D01*
X56797618Y11818634D02*
X56759523Y11704348D01*
X56759523Y11704348D02*
X56302380Y11247205D01*
X56302380Y11247205D02*
X56797618Y11247205D01*
X57559523Y11247205D02*
X57102380Y11247205D01*
X57330952Y11247205D02*
X57330952Y12047205D01*
X57330952Y12047205D02*
X57254761Y11932920D01*
X57254761Y11932920D02*
X57178571Y11856729D01*
X57178571Y11856729D02*
X57102380Y11818634D01*
X46487819Y18520076D02*
X45487819Y18520076D01*
X45487819Y18520076D02*
X45487819Y18758171D01*
X45487819Y18758171D02*
X45535438Y18901028D01*
X45535438Y18901028D02*
X45630676Y18996266D01*
X45630676Y18996266D02*
X45725914Y19043885D01*
X45725914Y19043885D02*
X45916390Y19091504D01*
X45916390Y19091504D02*
X46059247Y19091504D01*
X46059247Y19091504D02*
X46249723Y19043885D01*
X46249723Y19043885D02*
X46344961Y18996266D01*
X46344961Y18996266D02*
X46440200Y18901028D01*
X46440200Y18901028D02*
X46487819Y18758171D01*
X46487819Y18758171D02*
X46487819Y18520076D01*
X46583057Y19281980D02*
X46583057Y20043885D01*
X46440200Y20234362D02*
X46487819Y20377219D01*
X46487819Y20377219D02*
X46487819Y20615314D01*
X46487819Y20615314D02*
X46440200Y20710552D01*
X46440200Y20710552D02*
X46392580Y20758171D01*
X46392580Y20758171D02*
X46297342Y20805790D01*
X46297342Y20805790D02*
X46202104Y20805790D01*
X46202104Y20805790D02*
X46106866Y20758171D01*
X46106866Y20758171D02*
X46059247Y20710552D01*
X46059247Y20710552D02*
X46011628Y20615314D01*
X46011628Y20615314D02*
X45964009Y20424838D01*
X45964009Y20424838D02*
X45916390Y20329600D01*
X45916390Y20329600D02*
X45868771Y20281981D01*
X45868771Y20281981D02*
X45773533Y20234362D01*
X45773533Y20234362D02*
X45678295Y20234362D01*
X45678295Y20234362D02*
X45583057Y20281981D01*
X45583057Y20281981D02*
X45535438Y20329600D01*
X45535438Y20329600D02*
X45487819Y20424838D01*
X45487819Y20424838D02*
X45487819Y20662933D01*
X45487819Y20662933D02*
X45535438Y20805790D01*
X46440200Y21662933D02*
X46487819Y21567695D01*
X46487819Y21567695D02*
X46487819Y21377219D01*
X46487819Y21377219D02*
X46440200Y21281981D01*
X46440200Y21281981D02*
X46392580Y21234362D01*
X46392580Y21234362D02*
X46297342Y21186743D01*
X46297342Y21186743D02*
X46011628Y21186743D01*
X46011628Y21186743D02*
X45916390Y21234362D01*
X45916390Y21234362D02*
X45868771Y21281981D01*
X45868771Y21281981D02*
X45821152Y21377219D01*
X45821152Y21377219D02*
X45821152Y21567695D01*
X45821152Y21567695D02*
X45868771Y21662933D01*
X46487819Y22091505D02*
X45487819Y22091505D01*
X46487819Y22520076D02*
X45964009Y22520076D01*
X45964009Y22520076D02*
X45868771Y22472457D01*
X45868771Y22472457D02*
X45821152Y22377219D01*
X45821152Y22377219D02*
X45821152Y22234362D01*
X45821152Y22234362D02*
X45868771Y22139124D01*
X45868771Y22139124D02*
X45916390Y22091505D01*
X46487819Y23139124D02*
X46440200Y23043886D01*
X46440200Y23043886D02*
X46392580Y22996267D01*
X46392580Y22996267D02*
X46297342Y22948648D01*
X46297342Y22948648D02*
X46011628Y22948648D01*
X46011628Y22948648D02*
X45916390Y22996267D01*
X45916390Y22996267D02*
X45868771Y23043886D01*
X45868771Y23043886D02*
X45821152Y23139124D01*
X45821152Y23139124D02*
X45821152Y23281981D01*
X45821152Y23281981D02*
X45868771Y23377219D01*
X45868771Y23377219D02*
X45916390Y23424838D01*
X45916390Y23424838D02*
X46011628Y23472457D01*
X46011628Y23472457D02*
X46297342Y23472457D01*
X46297342Y23472457D02*
X46392580Y23424838D01*
X46392580Y23424838D02*
X46440200Y23377219D01*
X46440200Y23377219D02*
X46487819Y23281981D01*
X46487819Y23281981D02*
X46487819Y23139124D01*
X45821152Y23758172D02*
X45821152Y24139124D01*
X45487819Y23901029D02*
X46344961Y23901029D01*
X46344961Y23901029D02*
X46440200Y23948648D01*
X46440200Y23948648D02*
X46487819Y24043886D01*
X46487819Y24043886D02*
X46487819Y24139124D01*
X45821152Y24329601D02*
X45821152Y24710553D01*
X45487819Y24472458D02*
X46344961Y24472458D01*
X46344961Y24472458D02*
X46440200Y24520077D01*
X46440200Y24520077D02*
X46487819Y24615315D01*
X46487819Y24615315D02*
X46487819Y24710553D01*
X46487819Y25043887D02*
X45487819Y25043887D01*
X46106866Y25139125D02*
X46487819Y25424839D01*
X45821152Y25424839D02*
X46202104Y25043887D01*
X45821152Y25758173D02*
X46487819Y25996268D01*
X45821152Y26234363D02*
X46487819Y25996268D01*
X46487819Y25996268D02*
X46725914Y25901030D01*
X46725914Y25901030D02*
X46773533Y25853411D01*
X46773533Y25853411D02*
X46821152Y25758173D01*
X50492819Y21242315D02*
X49492819Y21242315D01*
X49492819Y21242315D02*
X49492819Y21480410D01*
X49492819Y21480410D02*
X49540438Y21623267D01*
X49540438Y21623267D02*
X49635676Y21718505D01*
X49635676Y21718505D02*
X49730914Y21766124D01*
X49730914Y21766124D02*
X49921390Y21813743D01*
X49921390Y21813743D02*
X50064247Y21813743D01*
X50064247Y21813743D02*
X50254723Y21766124D01*
X50254723Y21766124D02*
X50349961Y21718505D01*
X50349961Y21718505D02*
X50445200Y21623267D01*
X50445200Y21623267D02*
X50492819Y21480410D01*
X50492819Y21480410D02*
X50492819Y21242315D01*
X50492819Y22766124D02*
X50492819Y22194696D01*
X50492819Y22480410D02*
X49492819Y22480410D01*
X49492819Y22480410D02*
X49635676Y22385172D01*
X49635676Y22385172D02*
X49730914Y22289934D01*
X49730914Y22289934D02*
X49778533Y22194696D01*
X49588057Y23147077D02*
X49540438Y23194696D01*
X49540438Y23194696D02*
X49492819Y23289934D01*
X49492819Y23289934D02*
X49492819Y23528029D01*
X49492819Y23528029D02*
X49540438Y23623267D01*
X49540438Y23623267D02*
X49588057Y23670886D01*
X49588057Y23670886D02*
X49683295Y23718505D01*
X49683295Y23718505D02*
X49778533Y23718505D01*
X49778533Y23718505D02*
X49921390Y23670886D01*
X49921390Y23670886D02*
X50492819Y23099458D01*
X50492819Y23099458D02*
X50492819Y23718505D01*
X10749219Y45997144D02*
X10749219Y46092382D01*
X10749219Y46092382D02*
X10796838Y46187620D01*
X10796838Y46187620D02*
X10844457Y46235239D01*
X10844457Y46235239D02*
X10939695Y46282858D01*
X10939695Y46282858D02*
X11130171Y46330477D01*
X11130171Y46330477D02*
X11368266Y46330477D01*
X11368266Y46330477D02*
X11558742Y46282858D01*
X11558742Y46282858D02*
X11653980Y46235239D01*
X11653980Y46235239D02*
X11701600Y46187620D01*
X11701600Y46187620D02*
X11749219Y46092382D01*
X11749219Y46092382D02*
X11749219Y45997144D01*
X11749219Y45997144D02*
X11701600Y45901906D01*
X11701600Y45901906D02*
X11653980Y45854287D01*
X11653980Y45854287D02*
X11558742Y45806668D01*
X11558742Y45806668D02*
X11368266Y45759049D01*
X11368266Y45759049D02*
X11130171Y45759049D01*
X11130171Y45759049D02*
X10939695Y45806668D01*
X10939695Y45806668D02*
X10844457Y45854287D01*
X10844457Y45854287D02*
X10796838Y45901906D01*
X10796838Y45901906D02*
X10749219Y45997144D01*
X11653980Y46759049D02*
X11701600Y46806668D01*
X11701600Y46806668D02*
X11749219Y46759049D01*
X11749219Y46759049D02*
X11701600Y46711430D01*
X11701600Y46711430D02*
X11653980Y46759049D01*
X11653980Y46759049D02*
X11749219Y46759049D01*
X11749219Y47759048D02*
X11749219Y47187620D01*
X11749219Y47473334D02*
X10749219Y47473334D01*
X10749219Y47473334D02*
X10892076Y47378096D01*
X10892076Y47378096D02*
X10987314Y47282858D01*
X10987314Y47282858D02*
X11034933Y47187620D01*
X11082552Y48616191D02*
X11749219Y48616191D01*
X11082552Y48187620D02*
X11606361Y48187620D01*
X11606361Y48187620D02*
X11701600Y48235239D01*
X11701600Y48235239D02*
X11749219Y48330477D01*
X11749219Y48330477D02*
X11749219Y48473334D01*
X11749219Y48473334D02*
X11701600Y48568572D01*
X11701600Y48568572D02*
X11653980Y48616191D01*
X11225409Y49425715D02*
X11225409Y49092382D01*
X11749219Y49092382D02*
X10749219Y49092382D01*
X10749219Y49092382D02*
X10749219Y49568572D01*
D11*
X13123232Y47367858D02*
X13142280Y47348810D01*
X13142280Y47348810D02*
X13161327Y47291668D01*
X13161327Y47291668D02*
X13161327Y47253572D01*
X13161327Y47253572D02*
X13142280Y47196429D01*
X13142280Y47196429D02*
X13104184Y47158334D01*
X13104184Y47158334D02*
X13066089Y47139287D01*
X13066089Y47139287D02*
X12989899Y47120239D01*
X12989899Y47120239D02*
X12932756Y47120239D01*
X12932756Y47120239D02*
X12856565Y47139287D01*
X12856565Y47139287D02*
X12818470Y47158334D01*
X12818470Y47158334D02*
X12780375Y47196429D01*
X12780375Y47196429D02*
X12761327Y47253572D01*
X12761327Y47253572D02*
X12761327Y47291668D01*
X12761327Y47291668D02*
X12780375Y47348810D01*
X12780375Y47348810D02*
X12799422Y47367858D01*
X13161327Y47748810D02*
X13161327Y47520239D01*
X13161327Y47634525D02*
X12761327Y47634525D01*
X12761327Y47634525D02*
X12818470Y47596429D01*
X12818470Y47596429D02*
X12856565Y47558334D01*
X12856565Y47558334D02*
X12875613Y47520239D01*
X12761327Y48110715D02*
X12761327Y47920239D01*
X12761327Y47920239D02*
X12951803Y47901191D01*
X12951803Y47901191D02*
X12932756Y47920239D01*
X12932756Y47920239D02*
X12913708Y47958334D01*
X12913708Y47958334D02*
X12913708Y48053572D01*
X12913708Y48053572D02*
X12932756Y48091667D01*
X12932756Y48091667D02*
X12951803Y48110715D01*
X12951803Y48110715D02*
X12989899Y48129762D01*
X12989899Y48129762D02*
X13085137Y48129762D01*
X13085137Y48129762D02*
X13123232Y48110715D01*
X13123232Y48110715D02*
X13142280Y48091667D01*
X13142280Y48091667D02*
X13161327Y48053572D01*
X13161327Y48053572D02*
X13161327Y47958334D01*
X13161327Y47958334D02*
X13142280Y47920239D01*
X13142280Y47920239D02*
X13123232Y47901191D01*
D10*
X27437819Y37620876D02*
X26437819Y37620876D01*
X26437819Y37620876D02*
X26437819Y37858971D01*
X26437819Y37858971D02*
X26485438Y38001828D01*
X26485438Y38001828D02*
X26580676Y38097066D01*
X26580676Y38097066D02*
X26675914Y38144685D01*
X26675914Y38144685D02*
X26866390Y38192304D01*
X26866390Y38192304D02*
X27009247Y38192304D01*
X27009247Y38192304D02*
X27199723Y38144685D01*
X27199723Y38144685D02*
X27294961Y38097066D01*
X27294961Y38097066D02*
X27390200Y38001828D01*
X27390200Y38001828D02*
X27437819Y37858971D01*
X27437819Y37858971D02*
X27437819Y37620876D01*
X27533057Y38382780D02*
X27533057Y39144685D01*
X27390200Y39335162D02*
X27437819Y39478019D01*
X27437819Y39478019D02*
X27437819Y39716114D01*
X27437819Y39716114D02*
X27390200Y39811352D01*
X27390200Y39811352D02*
X27342580Y39858971D01*
X27342580Y39858971D02*
X27247342Y39906590D01*
X27247342Y39906590D02*
X27152104Y39906590D01*
X27152104Y39906590D02*
X27056866Y39858971D01*
X27056866Y39858971D02*
X27009247Y39811352D01*
X27009247Y39811352D02*
X26961628Y39716114D01*
X26961628Y39716114D02*
X26914009Y39525638D01*
X26914009Y39525638D02*
X26866390Y39430400D01*
X26866390Y39430400D02*
X26818771Y39382781D01*
X26818771Y39382781D02*
X26723533Y39335162D01*
X26723533Y39335162D02*
X26628295Y39335162D01*
X26628295Y39335162D02*
X26533057Y39382781D01*
X26533057Y39382781D02*
X26485438Y39430400D01*
X26485438Y39430400D02*
X26437819Y39525638D01*
X26437819Y39525638D02*
X26437819Y39763733D01*
X26437819Y39763733D02*
X26485438Y39906590D01*
X27390200Y40763733D02*
X27437819Y40668495D01*
X27437819Y40668495D02*
X27437819Y40478019D01*
X27437819Y40478019D02*
X27390200Y40382781D01*
X27390200Y40382781D02*
X27342580Y40335162D01*
X27342580Y40335162D02*
X27247342Y40287543D01*
X27247342Y40287543D02*
X26961628Y40287543D01*
X26961628Y40287543D02*
X26866390Y40335162D01*
X26866390Y40335162D02*
X26818771Y40382781D01*
X26818771Y40382781D02*
X26771152Y40478019D01*
X26771152Y40478019D02*
X26771152Y40668495D01*
X26771152Y40668495D02*
X26818771Y40763733D01*
X27437819Y41192305D02*
X26437819Y41192305D01*
X27437819Y41620876D02*
X26914009Y41620876D01*
X26914009Y41620876D02*
X26818771Y41573257D01*
X26818771Y41573257D02*
X26771152Y41478019D01*
X26771152Y41478019D02*
X26771152Y41335162D01*
X26771152Y41335162D02*
X26818771Y41239924D01*
X26818771Y41239924D02*
X26866390Y41192305D01*
X27437819Y42239924D02*
X27390200Y42144686D01*
X27390200Y42144686D02*
X27342580Y42097067D01*
X27342580Y42097067D02*
X27247342Y42049448D01*
X27247342Y42049448D02*
X26961628Y42049448D01*
X26961628Y42049448D02*
X26866390Y42097067D01*
X26866390Y42097067D02*
X26818771Y42144686D01*
X26818771Y42144686D02*
X26771152Y42239924D01*
X26771152Y42239924D02*
X26771152Y42382781D01*
X26771152Y42382781D02*
X26818771Y42478019D01*
X26818771Y42478019D02*
X26866390Y42525638D01*
X26866390Y42525638D02*
X26961628Y42573257D01*
X26961628Y42573257D02*
X27247342Y42573257D01*
X27247342Y42573257D02*
X27342580Y42525638D01*
X27342580Y42525638D02*
X27390200Y42478019D01*
X27390200Y42478019D02*
X27437819Y42382781D01*
X27437819Y42382781D02*
X27437819Y42239924D01*
X26771152Y42858972D02*
X26771152Y43239924D01*
X26437819Y43001829D02*
X27294961Y43001829D01*
X27294961Y43001829D02*
X27390200Y43049448D01*
X27390200Y43049448D02*
X27437819Y43144686D01*
X27437819Y43144686D02*
X27437819Y43239924D01*
X26771152Y43430401D02*
X26771152Y43811353D01*
X26437819Y43573258D02*
X27294961Y43573258D01*
X27294961Y43573258D02*
X27390200Y43620877D01*
X27390200Y43620877D02*
X27437819Y43716115D01*
X27437819Y43716115D02*
X27437819Y43811353D01*
X27437819Y44144687D02*
X26437819Y44144687D01*
X27056866Y44239925D02*
X27437819Y44525639D01*
X26771152Y44525639D02*
X27152104Y44144687D01*
X26771152Y44858973D02*
X27437819Y45097068D01*
X26771152Y45335163D02*
X27437819Y45097068D01*
X27437819Y45097068D02*
X27675914Y45001830D01*
X27675914Y45001830D02*
X27723533Y44954211D01*
X27723533Y44954211D02*
X27771152Y44858973D01*
X31442819Y40819306D02*
X30442819Y40819306D01*
X30442819Y40819306D02*
X30442819Y41057401D01*
X30442819Y41057401D02*
X30490438Y41200258D01*
X30490438Y41200258D02*
X30585676Y41295496D01*
X30585676Y41295496D02*
X30680914Y41343115D01*
X30680914Y41343115D02*
X30871390Y41390734D01*
X30871390Y41390734D02*
X31014247Y41390734D01*
X31014247Y41390734D02*
X31204723Y41343115D01*
X31204723Y41343115D02*
X31299961Y41295496D01*
X31299961Y41295496D02*
X31395200Y41200258D01*
X31395200Y41200258D02*
X31442819Y41057401D01*
X31442819Y41057401D02*
X31442819Y40819306D01*
X30871390Y41962163D02*
X30823771Y41866925D01*
X30823771Y41866925D02*
X30776152Y41819306D01*
X30776152Y41819306D02*
X30680914Y41771687D01*
X30680914Y41771687D02*
X30633295Y41771687D01*
X30633295Y41771687D02*
X30538057Y41819306D01*
X30538057Y41819306D02*
X30490438Y41866925D01*
X30490438Y41866925D02*
X30442819Y41962163D01*
X30442819Y41962163D02*
X30442819Y42152639D01*
X30442819Y42152639D02*
X30490438Y42247877D01*
X30490438Y42247877D02*
X30538057Y42295496D01*
X30538057Y42295496D02*
X30633295Y42343115D01*
X30633295Y42343115D02*
X30680914Y42343115D01*
X30680914Y42343115D02*
X30776152Y42295496D01*
X30776152Y42295496D02*
X30823771Y42247877D01*
X30823771Y42247877D02*
X30871390Y42152639D01*
X30871390Y42152639D02*
X30871390Y41962163D01*
X30871390Y41962163D02*
X30919009Y41866925D01*
X30919009Y41866925D02*
X30966628Y41819306D01*
X30966628Y41819306D02*
X31061866Y41771687D01*
X31061866Y41771687D02*
X31252342Y41771687D01*
X31252342Y41771687D02*
X31347580Y41819306D01*
X31347580Y41819306D02*
X31395200Y41866925D01*
X31395200Y41866925D02*
X31442819Y41962163D01*
X31442819Y41962163D02*
X31442819Y42152639D01*
X31442819Y42152639D02*
X31395200Y42247877D01*
X31395200Y42247877D02*
X31347580Y42295496D01*
X31347580Y42295496D02*
X31252342Y42343115D01*
X31252342Y42343115D02*
X31061866Y42343115D01*
X31061866Y42343115D02*
X30966628Y42295496D01*
X30966628Y42295496D02*
X30919009Y42247877D01*
X30919009Y42247877D02*
X30871390Y42152639D01*
X8362419Y56744076D02*
X7362419Y56744076D01*
X7362419Y56744076D02*
X7362419Y56982171D01*
X7362419Y56982171D02*
X7410038Y57125028D01*
X7410038Y57125028D02*
X7505276Y57220266D01*
X7505276Y57220266D02*
X7600514Y57267885D01*
X7600514Y57267885D02*
X7790990Y57315504D01*
X7790990Y57315504D02*
X7933847Y57315504D01*
X7933847Y57315504D02*
X8124323Y57267885D01*
X8124323Y57267885D02*
X8219561Y57220266D01*
X8219561Y57220266D02*
X8314800Y57125028D01*
X8314800Y57125028D02*
X8362419Y56982171D01*
X8362419Y56982171D02*
X8362419Y56744076D01*
X8457657Y57505980D02*
X8457657Y58267885D01*
X8314800Y58458362D02*
X8362419Y58601219D01*
X8362419Y58601219D02*
X8362419Y58839314D01*
X8362419Y58839314D02*
X8314800Y58934552D01*
X8314800Y58934552D02*
X8267180Y58982171D01*
X8267180Y58982171D02*
X8171942Y59029790D01*
X8171942Y59029790D02*
X8076704Y59029790D01*
X8076704Y59029790D02*
X7981466Y58982171D01*
X7981466Y58982171D02*
X7933847Y58934552D01*
X7933847Y58934552D02*
X7886228Y58839314D01*
X7886228Y58839314D02*
X7838609Y58648838D01*
X7838609Y58648838D02*
X7790990Y58553600D01*
X7790990Y58553600D02*
X7743371Y58505981D01*
X7743371Y58505981D02*
X7648133Y58458362D01*
X7648133Y58458362D02*
X7552895Y58458362D01*
X7552895Y58458362D02*
X7457657Y58505981D01*
X7457657Y58505981D02*
X7410038Y58553600D01*
X7410038Y58553600D02*
X7362419Y58648838D01*
X7362419Y58648838D02*
X7362419Y58886933D01*
X7362419Y58886933D02*
X7410038Y59029790D01*
X8314800Y59886933D02*
X8362419Y59791695D01*
X8362419Y59791695D02*
X8362419Y59601219D01*
X8362419Y59601219D02*
X8314800Y59505981D01*
X8314800Y59505981D02*
X8267180Y59458362D01*
X8267180Y59458362D02*
X8171942Y59410743D01*
X8171942Y59410743D02*
X7886228Y59410743D01*
X7886228Y59410743D02*
X7790990Y59458362D01*
X7790990Y59458362D02*
X7743371Y59505981D01*
X7743371Y59505981D02*
X7695752Y59601219D01*
X7695752Y59601219D02*
X7695752Y59791695D01*
X7695752Y59791695D02*
X7743371Y59886933D01*
X8362419Y60315505D02*
X7362419Y60315505D01*
X8362419Y60744076D02*
X7838609Y60744076D01*
X7838609Y60744076D02*
X7743371Y60696457D01*
X7743371Y60696457D02*
X7695752Y60601219D01*
X7695752Y60601219D02*
X7695752Y60458362D01*
X7695752Y60458362D02*
X7743371Y60363124D01*
X7743371Y60363124D02*
X7790990Y60315505D01*
X8362419Y61363124D02*
X8314800Y61267886D01*
X8314800Y61267886D02*
X8267180Y61220267D01*
X8267180Y61220267D02*
X8171942Y61172648D01*
X8171942Y61172648D02*
X7886228Y61172648D01*
X7886228Y61172648D02*
X7790990Y61220267D01*
X7790990Y61220267D02*
X7743371Y61267886D01*
X7743371Y61267886D02*
X7695752Y61363124D01*
X7695752Y61363124D02*
X7695752Y61505981D01*
X7695752Y61505981D02*
X7743371Y61601219D01*
X7743371Y61601219D02*
X7790990Y61648838D01*
X7790990Y61648838D02*
X7886228Y61696457D01*
X7886228Y61696457D02*
X8171942Y61696457D01*
X8171942Y61696457D02*
X8267180Y61648838D01*
X8267180Y61648838D02*
X8314800Y61601219D01*
X8314800Y61601219D02*
X8362419Y61505981D01*
X8362419Y61505981D02*
X8362419Y61363124D01*
X7695752Y61982172D02*
X7695752Y62363124D01*
X7362419Y62125029D02*
X8219561Y62125029D01*
X8219561Y62125029D02*
X8314800Y62172648D01*
X8314800Y62172648D02*
X8362419Y62267886D01*
X8362419Y62267886D02*
X8362419Y62363124D01*
X7695752Y62553601D02*
X7695752Y62934553D01*
X7362419Y62696458D02*
X8219561Y62696458D01*
X8219561Y62696458D02*
X8314800Y62744077D01*
X8314800Y62744077D02*
X8362419Y62839315D01*
X8362419Y62839315D02*
X8362419Y62934553D01*
X8362419Y63267887D02*
X7362419Y63267887D01*
X7981466Y63363125D02*
X8362419Y63648839D01*
X7695752Y63648839D02*
X8076704Y63267887D01*
X7695752Y63982173D02*
X8362419Y64220268D01*
X7695752Y64458363D02*
X8362419Y64220268D01*
X8362419Y64220268D02*
X8600514Y64125030D01*
X8600514Y64125030D02*
X8648133Y64077411D01*
X8648133Y64077411D02*
X8695752Y63982173D01*
X12367419Y59942506D02*
X11367419Y59942506D01*
X11367419Y59942506D02*
X11367419Y60180601D01*
X11367419Y60180601D02*
X11415038Y60323458D01*
X11415038Y60323458D02*
X11510276Y60418696D01*
X11510276Y60418696D02*
X11605514Y60466315D01*
X11605514Y60466315D02*
X11795990Y60513934D01*
X11795990Y60513934D02*
X11938847Y60513934D01*
X11938847Y60513934D02*
X12129323Y60466315D01*
X12129323Y60466315D02*
X12224561Y60418696D01*
X12224561Y60418696D02*
X12319800Y60323458D01*
X12319800Y60323458D02*
X12367419Y60180601D01*
X12367419Y60180601D02*
X12367419Y59942506D01*
X11700752Y61371077D02*
X12367419Y61371077D01*
X11319800Y61132982D02*
X12034085Y60894887D01*
X12034085Y60894887D02*
X12034085Y61513934D01*
X46412419Y56667076D02*
X45412419Y56667076D01*
X45412419Y56667076D02*
X45412419Y56905171D01*
X45412419Y56905171D02*
X45460038Y57048028D01*
X45460038Y57048028D02*
X45555276Y57143266D01*
X45555276Y57143266D02*
X45650514Y57190885D01*
X45650514Y57190885D02*
X45840990Y57238504D01*
X45840990Y57238504D02*
X45983847Y57238504D01*
X45983847Y57238504D02*
X46174323Y57190885D01*
X46174323Y57190885D02*
X46269561Y57143266D01*
X46269561Y57143266D02*
X46364800Y57048028D01*
X46364800Y57048028D02*
X46412419Y56905171D01*
X46412419Y56905171D02*
X46412419Y56667076D01*
X46507657Y57428980D02*
X46507657Y58190885D01*
X46364800Y58381362D02*
X46412419Y58524219D01*
X46412419Y58524219D02*
X46412419Y58762314D01*
X46412419Y58762314D02*
X46364800Y58857552D01*
X46364800Y58857552D02*
X46317180Y58905171D01*
X46317180Y58905171D02*
X46221942Y58952790D01*
X46221942Y58952790D02*
X46126704Y58952790D01*
X46126704Y58952790D02*
X46031466Y58905171D01*
X46031466Y58905171D02*
X45983847Y58857552D01*
X45983847Y58857552D02*
X45936228Y58762314D01*
X45936228Y58762314D02*
X45888609Y58571838D01*
X45888609Y58571838D02*
X45840990Y58476600D01*
X45840990Y58476600D02*
X45793371Y58428981D01*
X45793371Y58428981D02*
X45698133Y58381362D01*
X45698133Y58381362D02*
X45602895Y58381362D01*
X45602895Y58381362D02*
X45507657Y58428981D01*
X45507657Y58428981D02*
X45460038Y58476600D01*
X45460038Y58476600D02*
X45412419Y58571838D01*
X45412419Y58571838D02*
X45412419Y58809933D01*
X45412419Y58809933D02*
X45460038Y58952790D01*
X46364800Y59809933D02*
X46412419Y59714695D01*
X46412419Y59714695D02*
X46412419Y59524219D01*
X46412419Y59524219D02*
X46364800Y59428981D01*
X46364800Y59428981D02*
X46317180Y59381362D01*
X46317180Y59381362D02*
X46221942Y59333743D01*
X46221942Y59333743D02*
X45936228Y59333743D01*
X45936228Y59333743D02*
X45840990Y59381362D01*
X45840990Y59381362D02*
X45793371Y59428981D01*
X45793371Y59428981D02*
X45745752Y59524219D01*
X45745752Y59524219D02*
X45745752Y59714695D01*
X45745752Y59714695D02*
X45793371Y59809933D01*
X46412419Y60238505D02*
X45412419Y60238505D01*
X46412419Y60667076D02*
X45888609Y60667076D01*
X45888609Y60667076D02*
X45793371Y60619457D01*
X45793371Y60619457D02*
X45745752Y60524219D01*
X45745752Y60524219D02*
X45745752Y60381362D01*
X45745752Y60381362D02*
X45793371Y60286124D01*
X45793371Y60286124D02*
X45840990Y60238505D01*
X46412419Y61286124D02*
X46364800Y61190886D01*
X46364800Y61190886D02*
X46317180Y61143267D01*
X46317180Y61143267D02*
X46221942Y61095648D01*
X46221942Y61095648D02*
X45936228Y61095648D01*
X45936228Y61095648D02*
X45840990Y61143267D01*
X45840990Y61143267D02*
X45793371Y61190886D01*
X45793371Y61190886D02*
X45745752Y61286124D01*
X45745752Y61286124D02*
X45745752Y61428981D01*
X45745752Y61428981D02*
X45793371Y61524219D01*
X45793371Y61524219D02*
X45840990Y61571838D01*
X45840990Y61571838D02*
X45936228Y61619457D01*
X45936228Y61619457D02*
X46221942Y61619457D01*
X46221942Y61619457D02*
X46317180Y61571838D01*
X46317180Y61571838D02*
X46364800Y61524219D01*
X46364800Y61524219D02*
X46412419Y61428981D01*
X46412419Y61428981D02*
X46412419Y61286124D01*
X45745752Y61905172D02*
X45745752Y62286124D01*
X45412419Y62048029D02*
X46269561Y62048029D01*
X46269561Y62048029D02*
X46364800Y62095648D01*
X46364800Y62095648D02*
X46412419Y62190886D01*
X46412419Y62190886D02*
X46412419Y62286124D01*
X45745752Y62476601D02*
X45745752Y62857553D01*
X45412419Y62619458D02*
X46269561Y62619458D01*
X46269561Y62619458D02*
X46364800Y62667077D01*
X46364800Y62667077D02*
X46412419Y62762315D01*
X46412419Y62762315D02*
X46412419Y62857553D01*
X46412419Y63190887D02*
X45412419Y63190887D01*
X46031466Y63286125D02*
X46412419Y63571839D01*
X45745752Y63571839D02*
X46126704Y63190887D01*
X45745752Y63905173D02*
X46412419Y64143268D01*
X45745752Y64381363D02*
X46412419Y64143268D01*
X46412419Y64143268D02*
X46650514Y64048030D01*
X46650514Y64048030D02*
X46698133Y64000411D01*
X46698133Y64000411D02*
X46745752Y63905173D01*
X50467419Y59945506D02*
X49467419Y59945506D01*
X49467419Y59945506D02*
X49467419Y60183601D01*
X49467419Y60183601D02*
X49515038Y60326458D01*
X49515038Y60326458D02*
X49610276Y60421696D01*
X49610276Y60421696D02*
X49705514Y60469315D01*
X49705514Y60469315D02*
X49895990Y60516934D01*
X49895990Y60516934D02*
X50038847Y60516934D01*
X50038847Y60516934D02*
X50229323Y60469315D01*
X50229323Y60469315D02*
X50324561Y60421696D01*
X50324561Y60421696D02*
X50419800Y60326458D01*
X50419800Y60326458D02*
X50467419Y60183601D01*
X50467419Y60183601D02*
X50467419Y59945506D01*
X49467419Y61374077D02*
X49467419Y61183601D01*
X49467419Y61183601D02*
X49515038Y61088363D01*
X49515038Y61088363D02*
X49562657Y61040744D01*
X49562657Y61040744D02*
X49705514Y60945506D01*
X49705514Y60945506D02*
X49895990Y60897887D01*
X49895990Y60897887D02*
X50276942Y60897887D01*
X50276942Y60897887D02*
X50372180Y60945506D01*
X50372180Y60945506D02*
X50419800Y60993125D01*
X50419800Y60993125D02*
X50467419Y61088363D01*
X50467419Y61088363D02*
X50467419Y61278839D01*
X50467419Y61278839D02*
X50419800Y61374077D01*
X50419800Y61374077D02*
X50372180Y61421696D01*
X50372180Y61421696D02*
X50276942Y61469315D01*
X50276942Y61469315D02*
X50038847Y61469315D01*
X50038847Y61469315D02*
X49943609Y61421696D01*
X49943609Y61421696D02*
X49895990Y61374077D01*
X49895990Y61374077D02*
X49848371Y61278839D01*
X49848371Y61278839D02*
X49848371Y61088363D01*
X49848371Y61088363D02*
X49895990Y60993125D01*
X49895990Y60993125D02*
X49943609Y60945506D01*
X49943609Y60945506D02*
X50038847Y60897887D01*
X34190476Y46254681D02*
X34428571Y45254681D01*
X34428571Y45254681D02*
X34619047Y45968967D01*
X34619047Y45968967D02*
X34809523Y45254681D01*
X34809523Y45254681D02*
X35047619Y46254681D01*
X35380952Y45302300D02*
X35523809Y45254681D01*
X35523809Y45254681D02*
X35761904Y45254681D01*
X35761904Y45254681D02*
X35857142Y45302300D01*
X35857142Y45302300D02*
X35904761Y45349920D01*
X35904761Y45349920D02*
X35952380Y45445158D01*
X35952380Y45445158D02*
X35952380Y45540396D01*
X35952380Y45540396D02*
X35904761Y45635634D01*
X35904761Y45635634D02*
X35857142Y45683253D01*
X35857142Y45683253D02*
X35761904Y45730872D01*
X35761904Y45730872D02*
X35571428Y45778491D01*
X35571428Y45778491D02*
X35476190Y45826110D01*
X35476190Y45826110D02*
X35428571Y45873729D01*
X35428571Y45873729D02*
X35380952Y45968967D01*
X35380952Y45968967D02*
X35380952Y46064205D01*
X35380952Y46064205D02*
X35428571Y46159443D01*
X35428571Y46159443D02*
X35476190Y46207062D01*
X35476190Y46207062D02*
X35571428Y46254681D01*
X35571428Y46254681D02*
X35809523Y46254681D01*
X35809523Y46254681D02*
X35952380Y46207062D01*
X36333333Y46159443D02*
X36380952Y46207062D01*
X36380952Y46207062D02*
X36476190Y46254681D01*
X36476190Y46254681D02*
X36714285Y46254681D01*
X36714285Y46254681D02*
X36809523Y46207062D01*
X36809523Y46207062D02*
X36857142Y46159443D01*
X36857142Y46159443D02*
X36904761Y46064205D01*
X36904761Y46064205D02*
X36904761Y45968967D01*
X36904761Y45968967D02*
X36857142Y45826110D01*
X36857142Y45826110D02*
X36285714Y45254681D01*
X36285714Y45254681D02*
X36904761Y45254681D01*
X37476190Y45826110D02*
X37380952Y45873729D01*
X37380952Y45873729D02*
X37333333Y45921348D01*
X37333333Y45921348D02*
X37285714Y46016586D01*
X37285714Y46016586D02*
X37285714Y46064205D01*
X37285714Y46064205D02*
X37333333Y46159443D01*
X37333333Y46159443D02*
X37380952Y46207062D01*
X37380952Y46207062D02*
X37476190Y46254681D01*
X37476190Y46254681D02*
X37666666Y46254681D01*
X37666666Y46254681D02*
X37761904Y46207062D01*
X37761904Y46207062D02*
X37809523Y46159443D01*
X37809523Y46159443D02*
X37857142Y46064205D01*
X37857142Y46064205D02*
X37857142Y46016586D01*
X37857142Y46016586D02*
X37809523Y45921348D01*
X37809523Y45921348D02*
X37761904Y45873729D01*
X37761904Y45873729D02*
X37666666Y45826110D01*
X37666666Y45826110D02*
X37476190Y45826110D01*
X37476190Y45826110D02*
X37380952Y45778491D01*
X37380952Y45778491D02*
X37333333Y45730872D01*
X37333333Y45730872D02*
X37285714Y45635634D01*
X37285714Y45635634D02*
X37285714Y45445158D01*
X37285714Y45445158D02*
X37333333Y45349920D01*
X37333333Y45349920D02*
X37380952Y45302300D01*
X37380952Y45302300D02*
X37476190Y45254681D01*
X37476190Y45254681D02*
X37666666Y45254681D01*
X37666666Y45254681D02*
X37761904Y45302300D01*
X37761904Y45302300D02*
X37809523Y45349920D01*
X37809523Y45349920D02*
X37857142Y45445158D01*
X37857142Y45445158D02*
X37857142Y45635634D01*
X37857142Y45635634D02*
X37809523Y45730872D01*
X37809523Y45730872D02*
X37761904Y45778491D01*
X37761904Y45778491D02*
X37666666Y45826110D01*
X38809523Y45254681D02*
X38238095Y45254681D01*
X38523809Y45254681D02*
X38523809Y46254681D01*
X38523809Y46254681D02*
X38428571Y46111824D01*
X38428571Y46111824D02*
X38333333Y46016586D01*
X38333333Y46016586D02*
X38238095Y45968967D01*
X39190476Y46159443D02*
X39238095Y46207062D01*
X39238095Y46207062D02*
X39333333Y46254681D01*
X39333333Y46254681D02*
X39571428Y46254681D01*
X39571428Y46254681D02*
X39666666Y46207062D01*
X39666666Y46207062D02*
X39714285Y46159443D01*
X39714285Y46159443D02*
X39761904Y46064205D01*
X39761904Y46064205D02*
X39761904Y45968967D01*
X39761904Y45968967D02*
X39714285Y45826110D01*
X39714285Y45826110D02*
X39142857Y45254681D01*
X39142857Y45254681D02*
X39761904Y45254681D01*
X40523809Y45778491D02*
X40666666Y45730872D01*
X40666666Y45730872D02*
X40714285Y45683253D01*
X40714285Y45683253D02*
X40761904Y45588015D01*
X40761904Y45588015D02*
X40761904Y45445158D01*
X40761904Y45445158D02*
X40714285Y45349920D01*
X40714285Y45349920D02*
X40666666Y45302300D01*
X40666666Y45302300D02*
X40571428Y45254681D01*
X40571428Y45254681D02*
X40190476Y45254681D01*
X40190476Y45254681D02*
X40190476Y46254681D01*
X40190476Y46254681D02*
X40523809Y46254681D01*
X40523809Y46254681D02*
X40619047Y46207062D01*
X40619047Y46207062D02*
X40666666Y46159443D01*
X40666666Y46159443D02*
X40714285Y46064205D01*
X40714285Y46064205D02*
X40714285Y45968967D01*
X40714285Y45968967D02*
X40666666Y45873729D01*
X40666666Y45873729D02*
X40619047Y45826110D01*
X40619047Y45826110D02*
X40523809Y45778491D01*
X40523809Y45778491D02*
X40190476Y45778491D01*
X36528571Y49347205D02*
X36528571Y50147205D01*
X36528571Y50147205D02*
X36719047Y50147205D01*
X36719047Y50147205D02*
X36833333Y50109110D01*
X36833333Y50109110D02*
X36909523Y50032920D01*
X36909523Y50032920D02*
X36947618Y49956729D01*
X36947618Y49956729D02*
X36985714Y49804348D01*
X36985714Y49804348D02*
X36985714Y49690062D01*
X36985714Y49690062D02*
X36947618Y49537681D01*
X36947618Y49537681D02*
X36909523Y49461491D01*
X36909523Y49461491D02*
X36833333Y49385300D01*
X36833333Y49385300D02*
X36719047Y49347205D01*
X36719047Y49347205D02*
X36528571Y49347205D01*
X37747618Y49347205D02*
X37290475Y49347205D01*
X37519047Y49347205D02*
X37519047Y50147205D01*
X37519047Y50147205D02*
X37442856Y50032920D01*
X37442856Y50032920D02*
X37366666Y49956729D01*
X37366666Y49956729D02*
X37290475Y49918634D01*
X38433333Y49880539D02*
X38433333Y49347205D01*
X38242857Y50185300D02*
X38052380Y49613872D01*
X38052380Y49613872D02*
X38547619Y49613872D01*
X34190476Y8154681D02*
X34428571Y7154681D01*
X34428571Y7154681D02*
X34619047Y7868967D01*
X34619047Y7868967D02*
X34809523Y7154681D01*
X34809523Y7154681D02*
X35047619Y8154681D01*
X35380952Y7202300D02*
X35523809Y7154681D01*
X35523809Y7154681D02*
X35761904Y7154681D01*
X35761904Y7154681D02*
X35857142Y7202300D01*
X35857142Y7202300D02*
X35904761Y7249920D01*
X35904761Y7249920D02*
X35952380Y7345158D01*
X35952380Y7345158D02*
X35952380Y7440396D01*
X35952380Y7440396D02*
X35904761Y7535634D01*
X35904761Y7535634D02*
X35857142Y7583253D01*
X35857142Y7583253D02*
X35761904Y7630872D01*
X35761904Y7630872D02*
X35571428Y7678491D01*
X35571428Y7678491D02*
X35476190Y7726110D01*
X35476190Y7726110D02*
X35428571Y7773729D01*
X35428571Y7773729D02*
X35380952Y7868967D01*
X35380952Y7868967D02*
X35380952Y7964205D01*
X35380952Y7964205D02*
X35428571Y8059443D01*
X35428571Y8059443D02*
X35476190Y8107062D01*
X35476190Y8107062D02*
X35571428Y8154681D01*
X35571428Y8154681D02*
X35809523Y8154681D01*
X35809523Y8154681D02*
X35952380Y8107062D01*
X36333333Y8059443D02*
X36380952Y8107062D01*
X36380952Y8107062D02*
X36476190Y8154681D01*
X36476190Y8154681D02*
X36714285Y8154681D01*
X36714285Y8154681D02*
X36809523Y8107062D01*
X36809523Y8107062D02*
X36857142Y8059443D01*
X36857142Y8059443D02*
X36904761Y7964205D01*
X36904761Y7964205D02*
X36904761Y7868967D01*
X36904761Y7868967D02*
X36857142Y7726110D01*
X36857142Y7726110D02*
X36285714Y7154681D01*
X36285714Y7154681D02*
X36904761Y7154681D01*
X37476190Y7726110D02*
X37380952Y7773729D01*
X37380952Y7773729D02*
X37333333Y7821348D01*
X37333333Y7821348D02*
X37285714Y7916586D01*
X37285714Y7916586D02*
X37285714Y7964205D01*
X37285714Y7964205D02*
X37333333Y8059443D01*
X37333333Y8059443D02*
X37380952Y8107062D01*
X37380952Y8107062D02*
X37476190Y8154681D01*
X37476190Y8154681D02*
X37666666Y8154681D01*
X37666666Y8154681D02*
X37761904Y8107062D01*
X37761904Y8107062D02*
X37809523Y8059443D01*
X37809523Y8059443D02*
X37857142Y7964205D01*
X37857142Y7964205D02*
X37857142Y7916586D01*
X37857142Y7916586D02*
X37809523Y7821348D01*
X37809523Y7821348D02*
X37761904Y7773729D01*
X37761904Y7773729D02*
X37666666Y7726110D01*
X37666666Y7726110D02*
X37476190Y7726110D01*
X37476190Y7726110D02*
X37380952Y7678491D01*
X37380952Y7678491D02*
X37333333Y7630872D01*
X37333333Y7630872D02*
X37285714Y7535634D01*
X37285714Y7535634D02*
X37285714Y7345158D01*
X37285714Y7345158D02*
X37333333Y7249920D01*
X37333333Y7249920D02*
X37380952Y7202300D01*
X37380952Y7202300D02*
X37476190Y7154681D01*
X37476190Y7154681D02*
X37666666Y7154681D01*
X37666666Y7154681D02*
X37761904Y7202300D01*
X37761904Y7202300D02*
X37809523Y7249920D01*
X37809523Y7249920D02*
X37857142Y7345158D01*
X37857142Y7345158D02*
X37857142Y7535634D01*
X37857142Y7535634D02*
X37809523Y7630872D01*
X37809523Y7630872D02*
X37761904Y7678491D01*
X37761904Y7678491D02*
X37666666Y7726110D01*
X38809523Y7154681D02*
X38238095Y7154681D01*
X38523809Y7154681D02*
X38523809Y8154681D01*
X38523809Y8154681D02*
X38428571Y8011824D01*
X38428571Y8011824D02*
X38333333Y7916586D01*
X38333333Y7916586D02*
X38238095Y7868967D01*
X39190476Y8059443D02*
X39238095Y8107062D01*
X39238095Y8107062D02*
X39333333Y8154681D01*
X39333333Y8154681D02*
X39571428Y8154681D01*
X39571428Y8154681D02*
X39666666Y8107062D01*
X39666666Y8107062D02*
X39714285Y8059443D01*
X39714285Y8059443D02*
X39761904Y7964205D01*
X39761904Y7964205D02*
X39761904Y7868967D01*
X39761904Y7868967D02*
X39714285Y7726110D01*
X39714285Y7726110D02*
X39142857Y7154681D01*
X39142857Y7154681D02*
X39761904Y7154681D01*
X40523809Y7678491D02*
X40666666Y7630872D01*
X40666666Y7630872D02*
X40714285Y7583253D01*
X40714285Y7583253D02*
X40761904Y7488015D01*
X40761904Y7488015D02*
X40761904Y7345158D01*
X40761904Y7345158D02*
X40714285Y7249920D01*
X40714285Y7249920D02*
X40666666Y7202300D01*
X40666666Y7202300D02*
X40571428Y7154681D01*
X40571428Y7154681D02*
X40190476Y7154681D01*
X40190476Y7154681D02*
X40190476Y8154681D01*
X40190476Y8154681D02*
X40523809Y8154681D01*
X40523809Y8154681D02*
X40619047Y8107062D01*
X40619047Y8107062D02*
X40666666Y8059443D01*
X40666666Y8059443D02*
X40714285Y7964205D01*
X40714285Y7964205D02*
X40714285Y7868967D01*
X40714285Y7868967D02*
X40666666Y7773729D01*
X40666666Y7773729D02*
X40619047Y7726110D01*
X40619047Y7726110D02*
X40523809Y7678491D01*
X40523809Y7678491D02*
X40190476Y7678491D01*
X36528571Y11247205D02*
X36528571Y12047205D01*
X36528571Y12047205D02*
X36719047Y12047205D01*
X36719047Y12047205D02*
X36833333Y12009110D01*
X36833333Y12009110D02*
X36909523Y11932920D01*
X36909523Y11932920D02*
X36947618Y11856729D01*
X36947618Y11856729D02*
X36985714Y11704348D01*
X36985714Y11704348D02*
X36985714Y11590062D01*
X36985714Y11590062D02*
X36947618Y11437681D01*
X36947618Y11437681D02*
X36909523Y11361491D01*
X36909523Y11361491D02*
X36833333Y11285300D01*
X36833333Y11285300D02*
X36719047Y11247205D01*
X36719047Y11247205D02*
X36528571Y11247205D01*
X37290475Y11971015D02*
X37328571Y12009110D01*
X37328571Y12009110D02*
X37404761Y12047205D01*
X37404761Y12047205D02*
X37595237Y12047205D01*
X37595237Y12047205D02*
X37671428Y12009110D01*
X37671428Y12009110D02*
X37709523Y11971015D01*
X37709523Y11971015D02*
X37747618Y11894824D01*
X37747618Y11894824D02*
X37747618Y11818634D01*
X37747618Y11818634D02*
X37709523Y11704348D01*
X37709523Y11704348D02*
X37252380Y11247205D01*
X37252380Y11247205D02*
X37747618Y11247205D01*
X38242857Y12047205D02*
X38319047Y12047205D01*
X38319047Y12047205D02*
X38395238Y12009110D01*
X38395238Y12009110D02*
X38433333Y11971015D01*
X38433333Y11971015D02*
X38471428Y11894824D01*
X38471428Y11894824D02*
X38509523Y11742443D01*
X38509523Y11742443D02*
X38509523Y11551967D01*
X38509523Y11551967D02*
X38471428Y11399586D01*
X38471428Y11399586D02*
X38433333Y11323396D01*
X38433333Y11323396D02*
X38395238Y11285300D01*
X38395238Y11285300D02*
X38319047Y11247205D01*
X38319047Y11247205D02*
X38242857Y11247205D01*
X38242857Y11247205D02*
X38166666Y11285300D01*
X38166666Y11285300D02*
X38128571Y11323396D01*
X38128571Y11323396D02*
X38090476Y11399586D01*
X38090476Y11399586D02*
X38052380Y11551967D01*
X38052380Y11551967D02*
X38052380Y11742443D01*
X38052380Y11742443D02*
X38090476Y11894824D01*
X38090476Y11894824D02*
X38128571Y11971015D01*
X38128571Y11971015D02*
X38166666Y12009110D01*
X38166666Y12009110D02*
X38242857Y12047205D01*
X27463219Y18520076D02*
X26463219Y18520076D01*
X26463219Y18520076D02*
X26463219Y18758171D01*
X26463219Y18758171D02*
X26510838Y18901028D01*
X26510838Y18901028D02*
X26606076Y18996266D01*
X26606076Y18996266D02*
X26701314Y19043885D01*
X26701314Y19043885D02*
X26891790Y19091504D01*
X26891790Y19091504D02*
X27034647Y19091504D01*
X27034647Y19091504D02*
X27225123Y19043885D01*
X27225123Y19043885D02*
X27320361Y18996266D01*
X27320361Y18996266D02*
X27415600Y18901028D01*
X27415600Y18901028D02*
X27463219Y18758171D01*
X27463219Y18758171D02*
X27463219Y18520076D01*
X27558457Y19281980D02*
X27558457Y20043885D01*
X27415600Y20234362D02*
X27463219Y20377219D01*
X27463219Y20377219D02*
X27463219Y20615314D01*
X27463219Y20615314D02*
X27415600Y20710552D01*
X27415600Y20710552D02*
X27367980Y20758171D01*
X27367980Y20758171D02*
X27272742Y20805790D01*
X27272742Y20805790D02*
X27177504Y20805790D01*
X27177504Y20805790D02*
X27082266Y20758171D01*
X27082266Y20758171D02*
X27034647Y20710552D01*
X27034647Y20710552D02*
X26987028Y20615314D01*
X26987028Y20615314D02*
X26939409Y20424838D01*
X26939409Y20424838D02*
X26891790Y20329600D01*
X26891790Y20329600D02*
X26844171Y20281981D01*
X26844171Y20281981D02*
X26748933Y20234362D01*
X26748933Y20234362D02*
X26653695Y20234362D01*
X26653695Y20234362D02*
X26558457Y20281981D01*
X26558457Y20281981D02*
X26510838Y20329600D01*
X26510838Y20329600D02*
X26463219Y20424838D01*
X26463219Y20424838D02*
X26463219Y20662933D01*
X26463219Y20662933D02*
X26510838Y20805790D01*
X27415600Y21662933D02*
X27463219Y21567695D01*
X27463219Y21567695D02*
X27463219Y21377219D01*
X27463219Y21377219D02*
X27415600Y21281981D01*
X27415600Y21281981D02*
X27367980Y21234362D01*
X27367980Y21234362D02*
X27272742Y21186743D01*
X27272742Y21186743D02*
X26987028Y21186743D01*
X26987028Y21186743D02*
X26891790Y21234362D01*
X26891790Y21234362D02*
X26844171Y21281981D01*
X26844171Y21281981D02*
X26796552Y21377219D01*
X26796552Y21377219D02*
X26796552Y21567695D01*
X26796552Y21567695D02*
X26844171Y21662933D01*
X27463219Y22091505D02*
X26463219Y22091505D01*
X27463219Y22520076D02*
X26939409Y22520076D01*
X26939409Y22520076D02*
X26844171Y22472457D01*
X26844171Y22472457D02*
X26796552Y22377219D01*
X26796552Y22377219D02*
X26796552Y22234362D01*
X26796552Y22234362D02*
X26844171Y22139124D01*
X26844171Y22139124D02*
X26891790Y22091505D01*
X27463219Y23139124D02*
X27415600Y23043886D01*
X27415600Y23043886D02*
X27367980Y22996267D01*
X27367980Y22996267D02*
X27272742Y22948648D01*
X27272742Y22948648D02*
X26987028Y22948648D01*
X26987028Y22948648D02*
X26891790Y22996267D01*
X26891790Y22996267D02*
X26844171Y23043886D01*
X26844171Y23043886D02*
X26796552Y23139124D01*
X26796552Y23139124D02*
X26796552Y23281981D01*
X26796552Y23281981D02*
X26844171Y23377219D01*
X26844171Y23377219D02*
X26891790Y23424838D01*
X26891790Y23424838D02*
X26987028Y23472457D01*
X26987028Y23472457D02*
X27272742Y23472457D01*
X27272742Y23472457D02*
X27367980Y23424838D01*
X27367980Y23424838D02*
X27415600Y23377219D01*
X27415600Y23377219D02*
X27463219Y23281981D01*
X27463219Y23281981D02*
X27463219Y23139124D01*
X26796552Y23758172D02*
X26796552Y24139124D01*
X26463219Y23901029D02*
X27320361Y23901029D01*
X27320361Y23901029D02*
X27415600Y23948648D01*
X27415600Y23948648D02*
X27463219Y24043886D01*
X27463219Y24043886D02*
X27463219Y24139124D01*
X26796552Y24329601D02*
X26796552Y24710553D01*
X26463219Y24472458D02*
X27320361Y24472458D01*
X27320361Y24472458D02*
X27415600Y24520077D01*
X27415600Y24520077D02*
X27463219Y24615315D01*
X27463219Y24615315D02*
X27463219Y24710553D01*
X27463219Y25043887D02*
X26463219Y25043887D01*
X27082266Y25139125D02*
X27463219Y25424839D01*
X26796552Y25424839D02*
X27177504Y25043887D01*
X26796552Y25758173D02*
X27463219Y25996268D01*
X26796552Y26234363D02*
X27463219Y25996268D01*
X27463219Y25996268D02*
X27701314Y25901030D01*
X27701314Y25901030D02*
X27748933Y25853411D01*
X27748933Y25853411D02*
X27796552Y25758173D01*
X31468219Y21242315D02*
X30468219Y21242315D01*
X30468219Y21242315D02*
X30468219Y21480410D01*
X30468219Y21480410D02*
X30515838Y21623267D01*
X30515838Y21623267D02*
X30611076Y21718505D01*
X30611076Y21718505D02*
X30706314Y21766124D01*
X30706314Y21766124D02*
X30896790Y21813743D01*
X30896790Y21813743D02*
X31039647Y21813743D01*
X31039647Y21813743D02*
X31230123Y21766124D01*
X31230123Y21766124D02*
X31325361Y21718505D01*
X31325361Y21718505D02*
X31420600Y21623267D01*
X31420600Y21623267D02*
X31468219Y21480410D01*
X31468219Y21480410D02*
X31468219Y21242315D01*
X31468219Y22766124D02*
X31468219Y22194696D01*
X31468219Y22480410D02*
X30468219Y22480410D01*
X30468219Y22480410D02*
X30611076Y22385172D01*
X30611076Y22385172D02*
X30706314Y22289934D01*
X30706314Y22289934D02*
X30753933Y22194696D01*
X31468219Y23718505D02*
X31468219Y23147077D01*
X31468219Y23432791D02*
X30468219Y23432791D01*
X30468219Y23432791D02*
X30611076Y23337553D01*
X30611076Y23337553D02*
X30706314Y23242315D01*
X30706314Y23242315D02*
X30753933Y23147077D01*
X46462419Y37643276D02*
X45462419Y37643276D01*
X45462419Y37643276D02*
X45462419Y37881371D01*
X45462419Y37881371D02*
X45510038Y38024228D01*
X45510038Y38024228D02*
X45605276Y38119466D01*
X45605276Y38119466D02*
X45700514Y38167085D01*
X45700514Y38167085D02*
X45890990Y38214704D01*
X45890990Y38214704D02*
X46033847Y38214704D01*
X46033847Y38214704D02*
X46224323Y38167085D01*
X46224323Y38167085D02*
X46319561Y38119466D01*
X46319561Y38119466D02*
X46414800Y38024228D01*
X46414800Y38024228D02*
X46462419Y37881371D01*
X46462419Y37881371D02*
X46462419Y37643276D01*
X46557657Y38405180D02*
X46557657Y39167085D01*
X46414800Y39357562D02*
X46462419Y39500419D01*
X46462419Y39500419D02*
X46462419Y39738514D01*
X46462419Y39738514D02*
X46414800Y39833752D01*
X46414800Y39833752D02*
X46367180Y39881371D01*
X46367180Y39881371D02*
X46271942Y39928990D01*
X46271942Y39928990D02*
X46176704Y39928990D01*
X46176704Y39928990D02*
X46081466Y39881371D01*
X46081466Y39881371D02*
X46033847Y39833752D01*
X46033847Y39833752D02*
X45986228Y39738514D01*
X45986228Y39738514D02*
X45938609Y39548038D01*
X45938609Y39548038D02*
X45890990Y39452800D01*
X45890990Y39452800D02*
X45843371Y39405181D01*
X45843371Y39405181D02*
X45748133Y39357562D01*
X45748133Y39357562D02*
X45652895Y39357562D01*
X45652895Y39357562D02*
X45557657Y39405181D01*
X45557657Y39405181D02*
X45510038Y39452800D01*
X45510038Y39452800D02*
X45462419Y39548038D01*
X45462419Y39548038D02*
X45462419Y39786133D01*
X45462419Y39786133D02*
X45510038Y39928990D01*
X46414800Y40786133D02*
X46462419Y40690895D01*
X46462419Y40690895D02*
X46462419Y40500419D01*
X46462419Y40500419D02*
X46414800Y40405181D01*
X46414800Y40405181D02*
X46367180Y40357562D01*
X46367180Y40357562D02*
X46271942Y40309943D01*
X46271942Y40309943D02*
X45986228Y40309943D01*
X45986228Y40309943D02*
X45890990Y40357562D01*
X45890990Y40357562D02*
X45843371Y40405181D01*
X45843371Y40405181D02*
X45795752Y40500419D01*
X45795752Y40500419D02*
X45795752Y40690895D01*
X45795752Y40690895D02*
X45843371Y40786133D01*
X46462419Y41214705D02*
X45462419Y41214705D01*
X46462419Y41643276D02*
X45938609Y41643276D01*
X45938609Y41643276D02*
X45843371Y41595657D01*
X45843371Y41595657D02*
X45795752Y41500419D01*
X45795752Y41500419D02*
X45795752Y41357562D01*
X45795752Y41357562D02*
X45843371Y41262324D01*
X45843371Y41262324D02*
X45890990Y41214705D01*
X46462419Y42262324D02*
X46414800Y42167086D01*
X46414800Y42167086D02*
X46367180Y42119467D01*
X46367180Y42119467D02*
X46271942Y42071848D01*
X46271942Y42071848D02*
X45986228Y42071848D01*
X45986228Y42071848D02*
X45890990Y42119467D01*
X45890990Y42119467D02*
X45843371Y42167086D01*
X45843371Y42167086D02*
X45795752Y42262324D01*
X45795752Y42262324D02*
X45795752Y42405181D01*
X45795752Y42405181D02*
X45843371Y42500419D01*
X45843371Y42500419D02*
X45890990Y42548038D01*
X45890990Y42548038D02*
X45986228Y42595657D01*
X45986228Y42595657D02*
X46271942Y42595657D01*
X46271942Y42595657D02*
X46367180Y42548038D01*
X46367180Y42548038D02*
X46414800Y42500419D01*
X46414800Y42500419D02*
X46462419Y42405181D01*
X46462419Y42405181D02*
X46462419Y42262324D01*
X45795752Y42881372D02*
X45795752Y43262324D01*
X45462419Y43024229D02*
X46319561Y43024229D01*
X46319561Y43024229D02*
X46414800Y43071848D01*
X46414800Y43071848D02*
X46462419Y43167086D01*
X46462419Y43167086D02*
X46462419Y43262324D01*
X45795752Y43452801D02*
X45795752Y43833753D01*
X45462419Y43595658D02*
X46319561Y43595658D01*
X46319561Y43595658D02*
X46414800Y43643277D01*
X46414800Y43643277D02*
X46462419Y43738515D01*
X46462419Y43738515D02*
X46462419Y43833753D01*
X46462419Y44167087D02*
X45462419Y44167087D01*
X46081466Y44262325D02*
X46462419Y44548039D01*
X45795752Y44548039D02*
X46176704Y44167087D01*
X45795752Y44881373D02*
X46462419Y45119468D01*
X45795752Y45357563D02*
X46462419Y45119468D01*
X46462419Y45119468D02*
X46700514Y45024230D01*
X46700514Y45024230D02*
X46748133Y44976611D01*
X46748133Y44976611D02*
X46795752Y44881373D01*
X50467419Y40841706D02*
X49467419Y40841706D01*
X49467419Y40841706D02*
X49467419Y41079801D01*
X49467419Y41079801D02*
X49515038Y41222658D01*
X49515038Y41222658D02*
X49610276Y41317896D01*
X49610276Y41317896D02*
X49705514Y41365515D01*
X49705514Y41365515D02*
X49895990Y41413134D01*
X49895990Y41413134D02*
X50038847Y41413134D01*
X50038847Y41413134D02*
X50229323Y41365515D01*
X50229323Y41365515D02*
X50324561Y41317896D01*
X50324561Y41317896D02*
X50419800Y41222658D01*
X50419800Y41222658D02*
X50467419Y41079801D01*
X50467419Y41079801D02*
X50467419Y40841706D01*
X50467419Y41889325D02*
X50467419Y42079801D01*
X50467419Y42079801D02*
X50419800Y42175039D01*
X50419800Y42175039D02*
X50372180Y42222658D01*
X50372180Y42222658D02*
X50229323Y42317896D01*
X50229323Y42317896D02*
X50038847Y42365515D01*
X50038847Y42365515D02*
X49657895Y42365515D01*
X49657895Y42365515D02*
X49562657Y42317896D01*
X49562657Y42317896D02*
X49515038Y42270277D01*
X49515038Y42270277D02*
X49467419Y42175039D01*
X49467419Y42175039D02*
X49467419Y41984563D01*
X49467419Y41984563D02*
X49515038Y41889325D01*
X49515038Y41889325D02*
X49562657Y41841706D01*
X49562657Y41841706D02*
X49657895Y41794087D01*
X49657895Y41794087D02*
X49895990Y41794087D01*
X49895990Y41794087D02*
X49991228Y41841706D01*
X49991228Y41841706D02*
X50038847Y41889325D01*
X50038847Y41889325D02*
X50086466Y41984563D01*
X50086466Y41984563D02*
X50086466Y42175039D01*
X50086466Y42175039D02*
X50038847Y42270277D01*
X50038847Y42270277D02*
X49991228Y42317896D01*
X49991228Y42317896D02*
X49895990Y42365515D01*
X53240476Y27204681D02*
X53478571Y26204681D01*
X53478571Y26204681D02*
X53669047Y26918967D01*
X53669047Y26918967D02*
X53859523Y26204681D01*
X53859523Y26204681D02*
X54097619Y27204681D01*
X54430952Y26252300D02*
X54573809Y26204681D01*
X54573809Y26204681D02*
X54811904Y26204681D01*
X54811904Y26204681D02*
X54907142Y26252300D01*
X54907142Y26252300D02*
X54954761Y26299920D01*
X54954761Y26299920D02*
X55002380Y26395158D01*
X55002380Y26395158D02*
X55002380Y26490396D01*
X55002380Y26490396D02*
X54954761Y26585634D01*
X54954761Y26585634D02*
X54907142Y26633253D01*
X54907142Y26633253D02*
X54811904Y26680872D01*
X54811904Y26680872D02*
X54621428Y26728491D01*
X54621428Y26728491D02*
X54526190Y26776110D01*
X54526190Y26776110D02*
X54478571Y26823729D01*
X54478571Y26823729D02*
X54430952Y26918967D01*
X54430952Y26918967D02*
X54430952Y27014205D01*
X54430952Y27014205D02*
X54478571Y27109443D01*
X54478571Y27109443D02*
X54526190Y27157062D01*
X54526190Y27157062D02*
X54621428Y27204681D01*
X54621428Y27204681D02*
X54859523Y27204681D01*
X54859523Y27204681D02*
X55002380Y27157062D01*
X55383333Y27109443D02*
X55430952Y27157062D01*
X55430952Y27157062D02*
X55526190Y27204681D01*
X55526190Y27204681D02*
X55764285Y27204681D01*
X55764285Y27204681D02*
X55859523Y27157062D01*
X55859523Y27157062D02*
X55907142Y27109443D01*
X55907142Y27109443D02*
X55954761Y27014205D01*
X55954761Y27014205D02*
X55954761Y26918967D01*
X55954761Y26918967D02*
X55907142Y26776110D01*
X55907142Y26776110D02*
X55335714Y26204681D01*
X55335714Y26204681D02*
X55954761Y26204681D01*
X56526190Y26776110D02*
X56430952Y26823729D01*
X56430952Y26823729D02*
X56383333Y26871348D01*
X56383333Y26871348D02*
X56335714Y26966586D01*
X56335714Y26966586D02*
X56335714Y27014205D01*
X56335714Y27014205D02*
X56383333Y27109443D01*
X56383333Y27109443D02*
X56430952Y27157062D01*
X56430952Y27157062D02*
X56526190Y27204681D01*
X56526190Y27204681D02*
X56716666Y27204681D01*
X56716666Y27204681D02*
X56811904Y27157062D01*
X56811904Y27157062D02*
X56859523Y27109443D01*
X56859523Y27109443D02*
X56907142Y27014205D01*
X56907142Y27014205D02*
X56907142Y26966586D01*
X56907142Y26966586D02*
X56859523Y26871348D01*
X56859523Y26871348D02*
X56811904Y26823729D01*
X56811904Y26823729D02*
X56716666Y26776110D01*
X56716666Y26776110D02*
X56526190Y26776110D01*
X56526190Y26776110D02*
X56430952Y26728491D01*
X56430952Y26728491D02*
X56383333Y26680872D01*
X56383333Y26680872D02*
X56335714Y26585634D01*
X56335714Y26585634D02*
X56335714Y26395158D01*
X56335714Y26395158D02*
X56383333Y26299920D01*
X56383333Y26299920D02*
X56430952Y26252300D01*
X56430952Y26252300D02*
X56526190Y26204681D01*
X56526190Y26204681D02*
X56716666Y26204681D01*
X56716666Y26204681D02*
X56811904Y26252300D01*
X56811904Y26252300D02*
X56859523Y26299920D01*
X56859523Y26299920D02*
X56907142Y26395158D01*
X56907142Y26395158D02*
X56907142Y26585634D01*
X56907142Y26585634D02*
X56859523Y26680872D01*
X56859523Y26680872D02*
X56811904Y26728491D01*
X56811904Y26728491D02*
X56716666Y26776110D01*
X57859523Y26204681D02*
X57288095Y26204681D01*
X57573809Y26204681D02*
X57573809Y27204681D01*
X57573809Y27204681D02*
X57478571Y27061824D01*
X57478571Y27061824D02*
X57383333Y26966586D01*
X57383333Y26966586D02*
X57288095Y26918967D01*
X58240476Y27109443D02*
X58288095Y27157062D01*
X58288095Y27157062D02*
X58383333Y27204681D01*
X58383333Y27204681D02*
X58621428Y27204681D01*
X58621428Y27204681D02*
X58716666Y27157062D01*
X58716666Y27157062D02*
X58764285Y27109443D01*
X58764285Y27109443D02*
X58811904Y27014205D01*
X58811904Y27014205D02*
X58811904Y26918967D01*
X58811904Y26918967D02*
X58764285Y26776110D01*
X58764285Y26776110D02*
X58192857Y26204681D01*
X58192857Y26204681D02*
X58811904Y26204681D01*
X59573809Y26728491D02*
X59716666Y26680872D01*
X59716666Y26680872D02*
X59764285Y26633253D01*
X59764285Y26633253D02*
X59811904Y26538015D01*
X59811904Y26538015D02*
X59811904Y26395158D01*
X59811904Y26395158D02*
X59764285Y26299920D01*
X59764285Y26299920D02*
X59716666Y26252300D01*
X59716666Y26252300D02*
X59621428Y26204681D01*
X59621428Y26204681D02*
X59240476Y26204681D01*
X59240476Y26204681D02*
X59240476Y27204681D01*
X59240476Y27204681D02*
X59573809Y27204681D01*
X59573809Y27204681D02*
X59669047Y27157062D01*
X59669047Y27157062D02*
X59716666Y27109443D01*
X59716666Y27109443D02*
X59764285Y27014205D01*
X59764285Y27014205D02*
X59764285Y26918967D01*
X59764285Y26918967D02*
X59716666Y26823729D01*
X59716666Y26823729D02*
X59669047Y26776110D01*
X59669047Y26776110D02*
X59573809Y26728491D01*
X59573809Y26728491D02*
X59240476Y26728491D01*
X55578571Y30297205D02*
X55578571Y31097205D01*
X55578571Y31097205D02*
X55769047Y31097205D01*
X55769047Y31097205D02*
X55883333Y31059110D01*
X55883333Y31059110D02*
X55959523Y30982920D01*
X55959523Y30982920D02*
X55997618Y30906729D01*
X55997618Y30906729D02*
X56035714Y30754348D01*
X56035714Y30754348D02*
X56035714Y30640062D01*
X56035714Y30640062D02*
X55997618Y30487681D01*
X55997618Y30487681D02*
X55959523Y30411491D01*
X55959523Y30411491D02*
X55883333Y30335300D01*
X55883333Y30335300D02*
X55769047Y30297205D01*
X55769047Y30297205D02*
X55578571Y30297205D01*
X56797618Y30297205D02*
X56340475Y30297205D01*
X56569047Y30297205D02*
X56569047Y31097205D01*
X56569047Y31097205D02*
X56492856Y30982920D01*
X56492856Y30982920D02*
X56416666Y30906729D01*
X56416666Y30906729D02*
X56340475Y30868634D01*
X57254761Y30754348D02*
X57178571Y30792443D01*
X57178571Y30792443D02*
X57140476Y30830539D01*
X57140476Y30830539D02*
X57102380Y30906729D01*
X57102380Y30906729D02*
X57102380Y30944824D01*
X57102380Y30944824D02*
X57140476Y31021015D01*
X57140476Y31021015D02*
X57178571Y31059110D01*
X57178571Y31059110D02*
X57254761Y31097205D01*
X57254761Y31097205D02*
X57407142Y31097205D01*
X57407142Y31097205D02*
X57483333Y31059110D01*
X57483333Y31059110D02*
X57521428Y31021015D01*
X57521428Y31021015D02*
X57559523Y30944824D01*
X57559523Y30944824D02*
X57559523Y30906729D01*
X57559523Y30906729D02*
X57521428Y30830539D01*
X57521428Y30830539D02*
X57483333Y30792443D01*
X57483333Y30792443D02*
X57407142Y30754348D01*
X57407142Y30754348D02*
X57254761Y30754348D01*
X57254761Y30754348D02*
X57178571Y30716253D01*
X57178571Y30716253D02*
X57140476Y30678158D01*
X57140476Y30678158D02*
X57102380Y30601967D01*
X57102380Y30601967D02*
X57102380Y30449586D01*
X57102380Y30449586D02*
X57140476Y30373396D01*
X57140476Y30373396D02*
X57178571Y30335300D01*
X57178571Y30335300D02*
X57254761Y30297205D01*
X57254761Y30297205D02*
X57407142Y30297205D01*
X57407142Y30297205D02*
X57483333Y30335300D01*
X57483333Y30335300D02*
X57521428Y30373396D01*
X57521428Y30373396D02*
X57559523Y30449586D01*
X57559523Y30449586D02*
X57559523Y30601967D01*
X57559523Y30601967D02*
X57521428Y30678158D01*
X57521428Y30678158D02*
X57483333Y30716253D01*
X57483333Y30716253D02*
X57407142Y30754348D01*
X11004219Y26938344D02*
X11004219Y27033582D01*
X11004219Y27033582D02*
X11051838Y27128820D01*
X11051838Y27128820D02*
X11099457Y27176439D01*
X11099457Y27176439D02*
X11194695Y27224058D01*
X11194695Y27224058D02*
X11385171Y27271677D01*
X11385171Y27271677D02*
X11623266Y27271677D01*
X11623266Y27271677D02*
X11813742Y27224058D01*
X11813742Y27224058D02*
X11908980Y27176439D01*
X11908980Y27176439D02*
X11956600Y27128820D01*
X11956600Y27128820D02*
X12004219Y27033582D01*
X12004219Y27033582D02*
X12004219Y26938344D01*
X12004219Y26938344D02*
X11956600Y26843106D01*
X11956600Y26843106D02*
X11908980Y26795487D01*
X11908980Y26795487D02*
X11813742Y26747868D01*
X11813742Y26747868D02*
X11623266Y26700249D01*
X11623266Y26700249D02*
X11385171Y26700249D01*
X11385171Y26700249D02*
X11194695Y26747868D01*
X11194695Y26747868D02*
X11099457Y26795487D01*
X11099457Y26795487D02*
X11051838Y26843106D01*
X11051838Y26843106D02*
X11004219Y26938344D01*
X11908980Y27700249D02*
X11956600Y27747868D01*
X11956600Y27747868D02*
X12004219Y27700249D01*
X12004219Y27700249D02*
X11956600Y27652630D01*
X11956600Y27652630D02*
X11908980Y27700249D01*
X11908980Y27700249D02*
X12004219Y27700249D01*
X12004219Y28700248D02*
X12004219Y28128820D01*
X12004219Y28414534D02*
X11004219Y28414534D01*
X11004219Y28414534D02*
X11147076Y28319296D01*
X11147076Y28319296D02*
X11242314Y28224058D01*
X11242314Y28224058D02*
X11289933Y28128820D01*
X11337552Y29557391D02*
X12004219Y29557391D01*
X11337552Y29128820D02*
X11861361Y29128820D01*
X11861361Y29128820D02*
X11956600Y29176439D01*
X11956600Y29176439D02*
X12004219Y29271677D01*
X12004219Y29271677D02*
X12004219Y29414534D01*
X12004219Y29414534D02*
X11956600Y29509772D01*
X11956600Y29509772D02*
X11908980Y29557391D01*
X11480409Y30366915D02*
X11480409Y30033582D01*
X12004219Y30033582D02*
X11004219Y30033582D01*
X11004219Y30033582D02*
X11004219Y30509772D01*
D11*
X13123232Y28324058D02*
X13142280Y28305010D01*
X13142280Y28305010D02*
X13161327Y28247868D01*
X13161327Y28247868D02*
X13161327Y28209772D01*
X13161327Y28209772D02*
X13142280Y28152629D01*
X13142280Y28152629D02*
X13104184Y28114534D01*
X13104184Y28114534D02*
X13066089Y28095487D01*
X13066089Y28095487D02*
X12989899Y28076439D01*
X12989899Y28076439D02*
X12932756Y28076439D01*
X12932756Y28076439D02*
X12856565Y28095487D01*
X12856565Y28095487D02*
X12818470Y28114534D01*
X12818470Y28114534D02*
X12780375Y28152629D01*
X12780375Y28152629D02*
X12761327Y28209772D01*
X12761327Y28209772D02*
X12761327Y28247868D01*
X12761327Y28247868D02*
X12780375Y28305010D01*
X12780375Y28305010D02*
X12799422Y28324058D01*
X13161327Y28705010D02*
X13161327Y28476439D01*
X13161327Y28590725D02*
X12761327Y28590725D01*
X12761327Y28590725D02*
X12818470Y28552629D01*
X12818470Y28552629D02*
X12856565Y28514534D01*
X12856565Y28514534D02*
X12875613Y28476439D01*
X12761327Y29047867D02*
X12761327Y28971677D01*
X12761327Y28971677D02*
X12780375Y28933581D01*
X12780375Y28933581D02*
X12799422Y28914534D01*
X12799422Y28914534D02*
X12856565Y28876439D01*
X12856565Y28876439D02*
X12932756Y28857391D01*
X12932756Y28857391D02*
X13085137Y28857391D01*
X13085137Y28857391D02*
X13123232Y28876439D01*
X13123232Y28876439D02*
X13142280Y28895486D01*
X13142280Y28895486D02*
X13161327Y28933581D01*
X13161327Y28933581D02*
X13161327Y29009772D01*
X13161327Y29009772D02*
X13142280Y29047867D01*
X13142280Y29047867D02*
X13123232Y29066915D01*
X13123232Y29066915D02*
X13085137Y29085962D01*
X13085137Y29085962D02*
X12989899Y29085962D01*
X12989899Y29085962D02*
X12951803Y29066915D01*
X12951803Y29066915D02*
X12932756Y29047867D01*
X12932756Y29047867D02*
X12913708Y29009772D01*
X12913708Y29009772D02*
X12913708Y28933581D01*
X12913708Y28933581D02*
X12932756Y28895486D01*
X12932756Y28895486D02*
X12951803Y28876439D01*
X12951803Y28876439D02*
X12989899Y28857391D01*
D10*
X27412419Y56744076D02*
X26412419Y56744076D01*
X26412419Y56744076D02*
X26412419Y56982171D01*
X26412419Y56982171D02*
X26460038Y57125028D01*
X26460038Y57125028D02*
X26555276Y57220266D01*
X26555276Y57220266D02*
X26650514Y57267885D01*
X26650514Y57267885D02*
X26840990Y57315504D01*
X26840990Y57315504D02*
X26983847Y57315504D01*
X26983847Y57315504D02*
X27174323Y57267885D01*
X27174323Y57267885D02*
X27269561Y57220266D01*
X27269561Y57220266D02*
X27364800Y57125028D01*
X27364800Y57125028D02*
X27412419Y56982171D01*
X27412419Y56982171D02*
X27412419Y56744076D01*
X27507657Y57505980D02*
X27507657Y58267885D01*
X27364800Y58458362D02*
X27412419Y58601219D01*
X27412419Y58601219D02*
X27412419Y58839314D01*
X27412419Y58839314D02*
X27364800Y58934552D01*
X27364800Y58934552D02*
X27317180Y58982171D01*
X27317180Y58982171D02*
X27221942Y59029790D01*
X27221942Y59029790D02*
X27126704Y59029790D01*
X27126704Y59029790D02*
X27031466Y58982171D01*
X27031466Y58982171D02*
X26983847Y58934552D01*
X26983847Y58934552D02*
X26936228Y58839314D01*
X26936228Y58839314D02*
X26888609Y58648838D01*
X26888609Y58648838D02*
X26840990Y58553600D01*
X26840990Y58553600D02*
X26793371Y58505981D01*
X26793371Y58505981D02*
X26698133Y58458362D01*
X26698133Y58458362D02*
X26602895Y58458362D01*
X26602895Y58458362D02*
X26507657Y58505981D01*
X26507657Y58505981D02*
X26460038Y58553600D01*
X26460038Y58553600D02*
X26412419Y58648838D01*
X26412419Y58648838D02*
X26412419Y58886933D01*
X26412419Y58886933D02*
X26460038Y59029790D01*
X27364800Y59886933D02*
X27412419Y59791695D01*
X27412419Y59791695D02*
X27412419Y59601219D01*
X27412419Y59601219D02*
X27364800Y59505981D01*
X27364800Y59505981D02*
X27317180Y59458362D01*
X27317180Y59458362D02*
X27221942Y59410743D01*
X27221942Y59410743D02*
X26936228Y59410743D01*
X26936228Y59410743D02*
X26840990Y59458362D01*
X26840990Y59458362D02*
X26793371Y59505981D01*
X26793371Y59505981D02*
X26745752Y59601219D01*
X26745752Y59601219D02*
X26745752Y59791695D01*
X26745752Y59791695D02*
X26793371Y59886933D01*
X27412419Y60315505D02*
X26412419Y60315505D01*
X27412419Y60744076D02*
X26888609Y60744076D01*
X26888609Y60744076D02*
X26793371Y60696457D01*
X26793371Y60696457D02*
X26745752Y60601219D01*
X26745752Y60601219D02*
X26745752Y60458362D01*
X26745752Y60458362D02*
X26793371Y60363124D01*
X26793371Y60363124D02*
X26840990Y60315505D01*
X27412419Y61363124D02*
X27364800Y61267886D01*
X27364800Y61267886D02*
X27317180Y61220267D01*
X27317180Y61220267D02*
X27221942Y61172648D01*
X27221942Y61172648D02*
X26936228Y61172648D01*
X26936228Y61172648D02*
X26840990Y61220267D01*
X26840990Y61220267D02*
X26793371Y61267886D01*
X26793371Y61267886D02*
X26745752Y61363124D01*
X26745752Y61363124D02*
X26745752Y61505981D01*
X26745752Y61505981D02*
X26793371Y61601219D01*
X26793371Y61601219D02*
X26840990Y61648838D01*
X26840990Y61648838D02*
X26936228Y61696457D01*
X26936228Y61696457D02*
X27221942Y61696457D01*
X27221942Y61696457D02*
X27317180Y61648838D01*
X27317180Y61648838D02*
X27364800Y61601219D01*
X27364800Y61601219D02*
X27412419Y61505981D01*
X27412419Y61505981D02*
X27412419Y61363124D01*
X26745752Y61982172D02*
X26745752Y62363124D01*
X26412419Y62125029D02*
X27269561Y62125029D01*
X27269561Y62125029D02*
X27364800Y62172648D01*
X27364800Y62172648D02*
X27412419Y62267886D01*
X27412419Y62267886D02*
X27412419Y62363124D01*
X26745752Y62553601D02*
X26745752Y62934553D01*
X26412419Y62696458D02*
X27269561Y62696458D01*
X27269561Y62696458D02*
X27364800Y62744077D01*
X27364800Y62744077D02*
X27412419Y62839315D01*
X27412419Y62839315D02*
X27412419Y62934553D01*
X27412419Y63267887D02*
X26412419Y63267887D01*
X27031466Y63363125D02*
X27412419Y63648839D01*
X26745752Y63648839D02*
X27126704Y63267887D01*
X26745752Y63982173D02*
X27412419Y64220268D01*
X26745752Y64458363D02*
X27412419Y64220268D01*
X27412419Y64220268D02*
X27650514Y64125030D01*
X27650514Y64125030D02*
X27698133Y64077411D01*
X27698133Y64077411D02*
X27745752Y63982173D01*
X31417419Y59942506D02*
X30417419Y59942506D01*
X30417419Y59942506D02*
X30417419Y60180601D01*
X30417419Y60180601D02*
X30465038Y60323458D01*
X30465038Y60323458D02*
X30560276Y60418696D01*
X30560276Y60418696D02*
X30655514Y60466315D01*
X30655514Y60466315D02*
X30845990Y60513934D01*
X30845990Y60513934D02*
X30988847Y60513934D01*
X30988847Y60513934D02*
X31179323Y60466315D01*
X31179323Y60466315D02*
X31274561Y60418696D01*
X31274561Y60418696D02*
X31369800Y60323458D01*
X31369800Y60323458D02*
X31417419Y60180601D01*
X31417419Y60180601D02*
X31417419Y59942506D01*
X30417419Y61418696D02*
X30417419Y60942506D01*
X30417419Y60942506D02*
X30893609Y60894887D01*
X30893609Y60894887D02*
X30845990Y60942506D01*
X30845990Y60942506D02*
X30798371Y61037744D01*
X30798371Y61037744D02*
X30798371Y61275839D01*
X30798371Y61275839D02*
X30845990Y61371077D01*
X30845990Y61371077D02*
X30893609Y61418696D01*
X30893609Y61418696D02*
X30988847Y61466315D01*
X30988847Y61466315D02*
X31226942Y61466315D01*
X31226942Y61466315D02*
X31322180Y61418696D01*
X31322180Y61418696D02*
X31369800Y61371077D01*
X31369800Y61371077D02*
X31417419Y61275839D01*
X31417419Y61275839D02*
X31417419Y61037744D01*
X31417419Y61037744D02*
X31369800Y60942506D01*
X31369800Y60942506D02*
X31322180Y60894887D01*
X8362419Y18570876D02*
X7362419Y18570876D01*
X7362419Y18570876D02*
X7362419Y18808971D01*
X7362419Y18808971D02*
X7410038Y18951828D01*
X7410038Y18951828D02*
X7505276Y19047066D01*
X7505276Y19047066D02*
X7600514Y19094685D01*
X7600514Y19094685D02*
X7790990Y19142304D01*
X7790990Y19142304D02*
X7933847Y19142304D01*
X7933847Y19142304D02*
X8124323Y19094685D01*
X8124323Y19094685D02*
X8219561Y19047066D01*
X8219561Y19047066D02*
X8314800Y18951828D01*
X8314800Y18951828D02*
X8362419Y18808971D01*
X8362419Y18808971D02*
X8362419Y18570876D01*
X8457657Y19332780D02*
X8457657Y20094685D01*
X8314800Y20285162D02*
X8362419Y20428019D01*
X8362419Y20428019D02*
X8362419Y20666114D01*
X8362419Y20666114D02*
X8314800Y20761352D01*
X8314800Y20761352D02*
X8267180Y20808971D01*
X8267180Y20808971D02*
X8171942Y20856590D01*
X8171942Y20856590D02*
X8076704Y20856590D01*
X8076704Y20856590D02*
X7981466Y20808971D01*
X7981466Y20808971D02*
X7933847Y20761352D01*
X7933847Y20761352D02*
X7886228Y20666114D01*
X7886228Y20666114D02*
X7838609Y20475638D01*
X7838609Y20475638D02*
X7790990Y20380400D01*
X7790990Y20380400D02*
X7743371Y20332781D01*
X7743371Y20332781D02*
X7648133Y20285162D01*
X7648133Y20285162D02*
X7552895Y20285162D01*
X7552895Y20285162D02*
X7457657Y20332781D01*
X7457657Y20332781D02*
X7410038Y20380400D01*
X7410038Y20380400D02*
X7362419Y20475638D01*
X7362419Y20475638D02*
X7362419Y20713733D01*
X7362419Y20713733D02*
X7410038Y20856590D01*
X8314800Y21713733D02*
X8362419Y21618495D01*
X8362419Y21618495D02*
X8362419Y21428019D01*
X8362419Y21428019D02*
X8314800Y21332781D01*
X8314800Y21332781D02*
X8267180Y21285162D01*
X8267180Y21285162D02*
X8171942Y21237543D01*
X8171942Y21237543D02*
X7886228Y21237543D01*
X7886228Y21237543D02*
X7790990Y21285162D01*
X7790990Y21285162D02*
X7743371Y21332781D01*
X7743371Y21332781D02*
X7695752Y21428019D01*
X7695752Y21428019D02*
X7695752Y21618495D01*
X7695752Y21618495D02*
X7743371Y21713733D01*
X8362419Y22142305D02*
X7362419Y22142305D01*
X8362419Y22570876D02*
X7838609Y22570876D01*
X7838609Y22570876D02*
X7743371Y22523257D01*
X7743371Y22523257D02*
X7695752Y22428019D01*
X7695752Y22428019D02*
X7695752Y22285162D01*
X7695752Y22285162D02*
X7743371Y22189924D01*
X7743371Y22189924D02*
X7790990Y22142305D01*
X8362419Y23189924D02*
X8314800Y23094686D01*
X8314800Y23094686D02*
X8267180Y23047067D01*
X8267180Y23047067D02*
X8171942Y22999448D01*
X8171942Y22999448D02*
X7886228Y22999448D01*
X7886228Y22999448D02*
X7790990Y23047067D01*
X7790990Y23047067D02*
X7743371Y23094686D01*
X7743371Y23094686D02*
X7695752Y23189924D01*
X7695752Y23189924D02*
X7695752Y23332781D01*
X7695752Y23332781D02*
X7743371Y23428019D01*
X7743371Y23428019D02*
X7790990Y23475638D01*
X7790990Y23475638D02*
X7886228Y23523257D01*
X7886228Y23523257D02*
X8171942Y23523257D01*
X8171942Y23523257D02*
X8267180Y23475638D01*
X8267180Y23475638D02*
X8314800Y23428019D01*
X8314800Y23428019D02*
X8362419Y23332781D01*
X8362419Y23332781D02*
X8362419Y23189924D01*
X7695752Y23808972D02*
X7695752Y24189924D01*
X7362419Y23951829D02*
X8219561Y23951829D01*
X8219561Y23951829D02*
X8314800Y23999448D01*
X8314800Y23999448D02*
X8362419Y24094686D01*
X8362419Y24094686D02*
X8362419Y24189924D01*
X7695752Y24380401D02*
X7695752Y24761353D01*
X7362419Y24523258D02*
X8219561Y24523258D01*
X8219561Y24523258D02*
X8314800Y24570877D01*
X8314800Y24570877D02*
X8362419Y24666115D01*
X8362419Y24666115D02*
X8362419Y24761353D01*
X8362419Y25094687D02*
X7362419Y25094687D01*
X7981466Y25189925D02*
X8362419Y25475639D01*
X7695752Y25475639D02*
X8076704Y25094687D01*
X7695752Y25808973D02*
X8362419Y26047068D01*
X7695752Y26285163D02*
X8362419Y26047068D01*
X8362419Y26047068D02*
X8600514Y25951830D01*
X8600514Y25951830D02*
X8648133Y25904211D01*
X8648133Y25904211D02*
X8695752Y25808973D01*
X12367419Y21293115D02*
X11367419Y21293115D01*
X11367419Y21293115D02*
X11367419Y21531210D01*
X11367419Y21531210D02*
X11415038Y21674067D01*
X11415038Y21674067D02*
X11510276Y21769305D01*
X11510276Y21769305D02*
X11605514Y21816924D01*
X11605514Y21816924D02*
X11795990Y21864543D01*
X11795990Y21864543D02*
X11938847Y21864543D01*
X11938847Y21864543D02*
X12129323Y21816924D01*
X12129323Y21816924D02*
X12224561Y21769305D01*
X12224561Y21769305D02*
X12319800Y21674067D01*
X12319800Y21674067D02*
X12367419Y21531210D01*
X12367419Y21531210D02*
X12367419Y21293115D01*
X12367419Y22816924D02*
X12367419Y22245496D01*
X12367419Y22531210D02*
X11367419Y22531210D01*
X11367419Y22531210D02*
X11510276Y22435972D01*
X11510276Y22435972D02*
X11605514Y22340734D01*
X11605514Y22340734D02*
X11653133Y22245496D01*
X11367419Y23435972D02*
X11367419Y23531210D01*
X11367419Y23531210D02*
X11415038Y23626448D01*
X11415038Y23626448D02*
X11462657Y23674067D01*
X11462657Y23674067D02*
X11557895Y23721686D01*
X11557895Y23721686D02*
X11748371Y23769305D01*
X11748371Y23769305D02*
X11986466Y23769305D01*
X11986466Y23769305D02*
X12176942Y23721686D01*
X12176942Y23721686D02*
X12272180Y23674067D01*
X12272180Y23674067D02*
X12319800Y23626448D01*
X12319800Y23626448D02*
X12367419Y23531210D01*
X12367419Y23531210D02*
X12367419Y23435972D01*
X12367419Y23435972D02*
X12319800Y23340734D01*
X12319800Y23340734D02*
X12272180Y23293115D01*
X12272180Y23293115D02*
X12176942Y23245496D01*
X12176942Y23245496D02*
X11986466Y23197877D01*
X11986466Y23197877D02*
X11748371Y23197877D01*
X11748371Y23197877D02*
X11557895Y23245496D01*
X11557895Y23245496D02*
X11462657Y23293115D01*
X11462657Y23293115D02*
X11415038Y23340734D01*
X11415038Y23340734D02*
X11367419Y23435972D01*
%TO.C,D17*%
D12*
X35000000Y33159500D02*
X35000000Y28159500D01*
X35000000Y28159500D02*
X40000000Y28159500D01*
X40000000Y33159500D02*
X35000000Y33159500D01*
X40000000Y29159500D02*
X39000000Y28159500D01*
X40000000Y28159500D02*
X40000000Y33159500D01*
X39500000Y30659500D02*
G75*
G02*
X35500000Y30659500I-2000000J0D01*
G01*
X35500000Y30659500D02*
G75*
G02*
X39500000Y30659500I2000000J0D01*
G01*
%TO.C,D7*%
X9107600Y42779600D02*
X10907600Y42779600D01*
X9107600Y39979600D02*
X9107600Y42779600D01*
X9607600Y41129600D02*
X10007600Y41729600D01*
X10007600Y42129600D02*
X10007600Y41729600D01*
X10007600Y41729600D02*
X9457600Y41729600D01*
X10007600Y41729600D02*
X10407600Y41129600D01*
X10007600Y41729600D02*
X10557600Y41729600D01*
X10007600Y41129600D02*
X10007600Y40629600D01*
X10407600Y41129600D02*
X9607600Y41129600D01*
X10907600Y42779600D02*
X10907600Y39979600D01*
X10907600Y39979600D02*
X9107600Y39979600D01*
%TO.C,D16*%
X15950000Y33159500D02*
X15950000Y28159500D01*
X15950000Y28159500D02*
X20950000Y28159500D01*
X20950000Y33159500D02*
X15950000Y33159500D01*
X20950000Y29159500D02*
X19950000Y28159500D01*
X20950000Y28159500D02*
X20950000Y33159500D01*
X20450000Y30659500D02*
G75*
G02*
X16450000Y30659500I-2000000J0D01*
G01*
X16450000Y30659500D02*
G75*
G02*
X20450000Y30659500I2000000J0D01*
G01*
%TO.C,D13*%
X15950000Y52209500D02*
X15950000Y47209500D01*
X15950000Y47209500D02*
X20950000Y47209500D01*
X20950000Y52209500D02*
X15950000Y52209500D01*
X20950000Y48209500D02*
X19950000Y47209500D01*
X20950000Y47209500D02*
X20950000Y52209500D01*
X20450000Y49709500D02*
G75*
G02*
X16450000Y49709500I-2000000J0D01*
G01*
X16450000Y49709500D02*
G75*
G02*
X20450000Y49709500I2000000J0D01*
G01*
%TO.C,C17*%
X12579400Y10337400D02*
X13379400Y10337400D01*
X13379400Y8737400D01*
X12579400Y8737400D01*
X12579400Y10337400D01*
%TO.C,D19*%
X15950000Y14109500D02*
X15950000Y9109500D01*
X15950000Y9109500D02*
X20950000Y9109500D01*
X20950000Y14109500D02*
X15950000Y14109500D01*
X20950000Y10109500D02*
X19950000Y9109500D01*
X20950000Y9109500D02*
X20950000Y14109500D01*
X20450000Y11609500D02*
G75*
G02*
X16450000Y11609500I-2000000J0D01*
G01*
X16450000Y11609500D02*
G75*
G02*
X20450000Y11609500I2000000J0D01*
G01*
%TO.C,D15*%
X54050000Y52209500D02*
X54050000Y47209500D01*
X54050000Y47209500D02*
X59050000Y47209500D01*
X59050000Y52209500D02*
X54050000Y52209500D01*
X59050000Y48209500D02*
X58050000Y47209500D01*
X59050000Y47209500D02*
X59050000Y52209500D01*
X58550000Y49709500D02*
G75*
G02*
X54550000Y49709500I-2000000J0D01*
G01*
X54550000Y49709500D02*
G75*
G02*
X58550000Y49709500I2000000J0D01*
G01*
%TO.C,D21*%
X54050000Y14109500D02*
X54050000Y9109500D01*
X54050000Y9109500D02*
X59050000Y9109500D01*
X59050000Y14109500D02*
X54050000Y14109500D01*
X59050000Y10109500D02*
X58050000Y9109500D01*
X59050000Y9109500D02*
X59050000Y14109500D01*
X58550000Y11609500D02*
G75*
G02*
X54550000Y11609500I-2000000J0D01*
G01*
X54550000Y11609500D02*
G75*
G02*
X58550000Y11609500I2000000J0D01*
G01*
%TO.C,D12*%
X47233000Y23729600D02*
X49033000Y23729600D01*
X47233000Y20929600D02*
X47233000Y23729600D01*
X47733000Y22079600D02*
X48133000Y22679600D01*
X48133000Y23079600D02*
X48133000Y22679600D01*
X48133000Y22679600D02*
X47583000Y22679600D01*
X48133000Y22679600D02*
X48533000Y22079600D01*
X48133000Y22679600D02*
X48683000Y22679600D01*
X48133000Y22079600D02*
X48133000Y21579600D01*
X48533000Y22079600D02*
X47733000Y22079600D01*
X49033000Y23729600D02*
X49033000Y20929600D01*
X49033000Y20929600D02*
X47233000Y20929600D01*
%TO.C,C15*%
X12579400Y48425000D02*
X13379400Y48425000D01*
X13379400Y46825000D01*
X12579400Y46825000D01*
X12579400Y48425000D01*
%TO.C,D8*%
X28183000Y42830400D02*
X29983000Y42830400D01*
X28183000Y40030400D02*
X28183000Y42830400D01*
X28683000Y41180400D02*
X29083000Y41780400D01*
X29083000Y42180400D02*
X29083000Y41780400D01*
X29083000Y41780400D02*
X28533000Y41780400D01*
X29083000Y41780400D02*
X29483000Y41180400D01*
X29083000Y41780400D02*
X29633000Y41780400D01*
X29083000Y41180400D02*
X29083000Y40680400D01*
X29483000Y41180400D02*
X28683000Y41180400D01*
X29983000Y42830400D02*
X29983000Y40030400D01*
X29983000Y40030400D02*
X28183000Y40030400D01*
%TO.C,D4*%
X9107600Y61953600D02*
X10907600Y61953600D01*
X9107600Y59153600D02*
X9107600Y61953600D01*
X9607600Y60303600D02*
X10007600Y60903600D01*
X10007600Y61303600D02*
X10007600Y60903600D01*
X10007600Y60903600D02*
X9457600Y60903600D01*
X10007600Y60903600D02*
X10407600Y60303600D01*
X10007600Y60903600D02*
X10557600Y60903600D01*
X10007600Y60303600D02*
X10007600Y59803600D01*
X10407600Y60303600D02*
X9607600Y60303600D01*
X10907600Y61953600D02*
X10907600Y59153600D01*
X10907600Y59153600D02*
X9107600Y59153600D01*
%TO.C,D6*%
X47207600Y61956600D02*
X49007600Y61956600D01*
X47207600Y59156600D02*
X47207600Y61956600D01*
X47707600Y60306600D02*
X48107600Y60906600D01*
X48107600Y61306600D02*
X48107600Y60906600D01*
X48107600Y60906600D02*
X47557600Y60906600D01*
X48107600Y60906600D02*
X48507600Y60306600D01*
X48107600Y60906600D02*
X48657600Y60906600D01*
X48107600Y60306600D02*
X48107600Y59806600D01*
X48507600Y60306600D02*
X47707600Y60306600D01*
X49007600Y61956600D02*
X49007600Y59156600D01*
X49007600Y59156600D02*
X47207600Y59156600D01*
%TO.C,D14*%
X35000000Y52209500D02*
X35000000Y47209500D01*
X35000000Y47209500D02*
X40000000Y47209500D01*
X40000000Y52209500D02*
X35000000Y52209500D01*
X40000000Y48209500D02*
X39000000Y47209500D01*
X40000000Y47209500D02*
X40000000Y52209500D01*
X39500000Y49709500D02*
G75*
G02*
X35500000Y49709500I-2000000J0D01*
G01*
X35500000Y49709500D02*
G75*
G02*
X39500000Y49709500I2000000J0D01*
G01*
%TO.C,D20*%
X35000000Y14109500D02*
X35000000Y9109500D01*
X35000000Y9109500D02*
X40000000Y9109500D01*
X40000000Y14109500D02*
X35000000Y14109500D01*
X40000000Y10109500D02*
X39000000Y9109500D01*
X40000000Y9109500D02*
X40000000Y14109500D01*
X39500000Y11609500D02*
G75*
G02*
X35500000Y11609500I-2000000J0D01*
G01*
X35500000Y11609500D02*
G75*
G02*
X39500000Y11609500I2000000J0D01*
G01*
%TO.C,D11*%
X28208400Y23729600D02*
X30008400Y23729600D01*
X28208400Y20929600D02*
X28208400Y23729600D01*
X28708400Y22079600D02*
X29108400Y22679600D01*
X29108400Y23079600D02*
X29108400Y22679600D01*
X29108400Y22679600D02*
X28558400Y22679600D01*
X29108400Y22679600D02*
X29508400Y22079600D01*
X29108400Y22679600D02*
X29658400Y22679600D01*
X29108400Y22079600D02*
X29108400Y21579600D01*
X29508400Y22079600D02*
X28708400Y22079600D01*
X30008400Y23729600D02*
X30008400Y20929600D01*
X30008400Y20929600D02*
X28208400Y20929600D01*
%TO.C,D9*%
X47207600Y42852800D02*
X49007600Y42852800D01*
X47207600Y40052800D02*
X47207600Y42852800D01*
X47707600Y41202800D02*
X48107600Y41802800D01*
X48107600Y42202800D02*
X48107600Y41802800D01*
X48107600Y41802800D02*
X47557600Y41802800D01*
X48107600Y41802800D02*
X48507600Y41202800D01*
X48107600Y41802800D02*
X48657600Y41802800D01*
X48107600Y41202800D02*
X48107600Y40702800D01*
X48507600Y41202800D02*
X47707600Y41202800D01*
X49007600Y42852800D02*
X49007600Y40052800D01*
X49007600Y40052800D02*
X47207600Y40052800D01*
%TO.C,D18*%
X54050000Y33159500D02*
X54050000Y28159500D01*
X54050000Y28159500D02*
X59050000Y28159500D01*
X59050000Y33159500D02*
X54050000Y33159500D01*
X59050000Y29159500D02*
X58050000Y28159500D01*
X59050000Y28159500D02*
X59050000Y33159500D01*
X58550000Y30659500D02*
G75*
G02*
X54550000Y30659500I-2000000J0D01*
G01*
X54550000Y30659500D02*
G75*
G02*
X58550000Y30659500I2000000J0D01*
G01*
%TO.C,C16*%
X12579400Y29381200D02*
X13379400Y29381200D01*
X13379400Y27781200D01*
X12579400Y27781200D01*
X12579400Y29381200D01*
%TO.C,D5*%
X28157600Y61953600D02*
X29957600Y61953600D01*
X28157600Y59153600D02*
X28157600Y61953600D01*
X28657600Y60303600D02*
X29057600Y60903600D01*
X29057600Y61303600D02*
X29057600Y60903600D01*
X29057600Y60903600D02*
X28507600Y60903600D01*
X29057600Y60903600D02*
X29457600Y60303600D01*
X29057600Y60903600D02*
X29607600Y60903600D01*
X29057600Y60303600D02*
X29057600Y59803600D01*
X29457600Y60303600D02*
X28657600Y60303600D01*
X29957600Y61953600D02*
X29957600Y59153600D01*
X29957600Y59153600D02*
X28157600Y59153600D01*
%TO.C,D10*%
X9107600Y23780400D02*
X10907600Y23780400D01*
X9107600Y20980400D02*
X9107600Y23780400D01*
X9607600Y22130400D02*
X10007600Y22730400D01*
X10007600Y23130400D02*
X10007600Y22730400D01*
X10007600Y22730400D02*
X9457600Y22730400D01*
X10007600Y22730400D02*
X10407600Y22130400D01*
X10007600Y22730400D02*
X10557600Y22730400D01*
X10007600Y22130400D02*
X10007600Y21630400D01*
X10407600Y22130400D02*
X9607600Y22130400D01*
X10907600Y23780400D02*
X10907600Y20980400D01*
X10907600Y20980400D02*
X9107600Y20980400D01*
%TD*%
M02*
