M48
; DRILL file KiCad 10.0.3 date 2026-06-23T01:21:53
; FORMAT={-:-/ absolute / metric / decimal}
; #@! TF.CreationDate,2026-06-23T01:21:53-06:00
; #@! TF.GenerationSoftware,Kicad,Pcbnew,10.0.3
; #@! TF.FileFunction,MixedPlating,1,2
FMAT,2
METRIC
; #@! TA.AperFunction,Plated,PTH,ViaDrill
T1C0.300
; #@! TA.AperFunction,Plated,PTH,ViaDrill
T2C0.400
; #@! TA.AperFunction,Plated,PTH,ComponentDrill
T3C0.600
; #@! TA.AperFunction,Plated,PTH,ComponentDrill
T4C1.000
; #@! TA.AperFunction,Plated,PTH,ComponentDrill
T5C1.499
; #@! TA.AperFunction,NonPlated,NPTH,ComponentDrill
T6C0.650
; #@! TA.AperFunction,NonPlated,NPTH,ComponentDrill
T7C0.700
; #@! TA.AperFunction,NonPlated,NPTH,ComponentDrill
T8C0.900
; #@! TA.AperFunction,NonPlated,NPTH,ComponentDrill
T9C1.702
; #@! TA.AperFunction,NonPlated,NPTH,ComponentDrill
T10C3.988
%
G90
G05
T1
X10.17Y45.13
X13.85Y46.09
X14.097Y27.788
X14.37Y29.35
X16.169Y44.937
X16.29Y7.02
X17.704Y50.724
X18.21Y66.924
X18.313Y46.152
X18.422Y63.602
X19.202Y8.763
X19.558Y51.587
X19.558Y50.724
X19.888Y48.059
X20.066Y63.627
X20.142Y44.32
X20.48Y66.47
X20.5Y65.47
X20.76Y59.55
X20.98Y15.469
X21.768Y44.32
X22.276Y63.602
X22.454Y48.235
X22.52Y51.664
X22.7Y65.024
X22.936Y29.007
X22.936Y9.957
X23.038Y66.065
X23.42Y59.55
X23.52Y53.416
X23.711Y51.218
X24.079Y26.737
X25.578Y63.246
X25.689Y39.751
X26.314Y48.412
X26.797Y64.262
X26.906Y43.12
X27.038Y45.001
X27.043Y50.032
X27.153Y40.157
X28.678Y50.032
X29.007Y48.362
X29.032Y46.634
X29.108Y25.044
X29.539Y45.018
X32.969Y43.663
X33.223Y48.209
X33.92Y66.81
X37.186Y45.568
X37.338Y51.257
X38.354Y48.057
X40.03Y35.306
X40.04Y39.345
X41.08Y66.8
X41.758Y9.957
X41.859Y29.007
X44.56Y65.13
X45.39Y47.91
X47.6Y65.126
X48.997Y51.509
X49.022Y47.727
X49.022Y45.415
X49.809Y65.126
X50.37Y13.23
X50.58Y64.26
X51.181Y45.593
X52.553Y51.384
X53.46Y62.83
X54.077Y54.229
X54.077Y33.731
X60.833Y29.007
X60.985Y9.957
X61.163Y48.057
X61.74Y60.23
X65.278Y51.51
X65.36Y60.23
T2
X21.26Y53.416
X34.519Y65.1
X39.319Y65.126
X39.548Y49.962
X40.284Y49.059
X42.672Y49.022
X43.586Y49.962
X45.542Y53.416
T4
X11.98Y71.76
X11.98Y69.22
X14.52Y71.76
X14.52Y69.22
X17.06Y71.76
X17.06Y69.22
X58.064Y71.78
X58.064Y69.24
X60.604Y71.78
X60.604Y69.24
X63.144Y71.78
X63.144Y69.24
T5
X14.64Y59.09
X14.64Y40.04
X14.64Y20.99
X20.99Y61.63
X20.99Y42.58
X20.99Y23.53
X33.69Y59.09
X33.69Y40.04
X33.69Y20.99
X40.04Y61.63
X40.04Y42.58
X40.04Y23.53
X52.74Y59.09
X52.74Y40.04
X52.74Y20.99
X59.09Y61.63
X59.09Y42.58
X59.09Y23.53
T6
X34.61Y69.995
X40.39Y69.995
T7
X45.97Y73.55
X45.97Y71.75
X51.63Y73.54
X51.63Y71.74
T8
X22.92Y72.42
X29.72Y72.42
T9
X13.37Y56.55
X13.37Y37.5
X13.37Y18.45
X23.53Y56.55
X23.53Y37.5
X23.53Y18.45
X32.42Y56.55
X32.42Y37.5
X32.42Y18.45
X42.58Y56.55
X42.58Y37.5
X42.58Y18.45
X51.47Y56.55
X51.47Y37.5
X51.47Y18.45
X61.63Y56.55
X61.63Y37.5
X61.63Y18.45
T10
X18.45Y56.55
X18.45Y37.5
X18.45Y18.45
X37.5Y56.55
X37.5Y37.5
X37.5Y18.45
X56.55Y56.55
X56.55Y37.5
X56.55Y18.45
T3
G00X33.18Y73.975
M15
G01X33.18Y73.375
M16
G05
G00X33.18Y70.045
M15
G01X33.18Y68.945
M16
G05
G00X41.82Y73.975
M15
G01X41.82Y73.375
M16
G05
G00X41.82Y70.045
M15
G01X41.82Y68.945
M16
G05
M30
