M48
; DRILL file KiCad 10.0.4 date 2026-06-26T11:06:08
; FORMAT={-:-/ absolute / metric / decimal}
; #@! TF.CreationDate,2026-06-26T11:06:08-06:00
; #@! TF.GenerationSoftware,Kicad,Pcbnew,10.0.4
; #@! TF.FileFunction,Plated,1,2,PTH
FMAT,2
METRIC
; #@! TA.AperFunction,Plated,PTH,ViaDrill
T1C0.300
; #@! TA.AperFunction,Plated,PTH,ViaDrill
T2C0.400
; #@! TA.AperFunction,Plated,PTH,ComponentDrill
T3C0.600
; #@! TA.AperFunction,Plated,PTH,ComponentDrill
T4C1.000
; #@! TA.AperFunction,Plated,PTH,ComponentDrill
T5C1.499
%
G90
G05
T1
X110.91Y-70.11
X114.775Y-67.604
X114.837Y-87.452
X115.11Y-85.89
X116.31Y-68.58
X116.31Y-70.18
X117.03Y-108.22
X118.444Y-64.516
X119.053Y-69.088
X119.162Y-51.638
X119.942Y-106.477
X120.298Y-63.653
X120.298Y-64.516
X120.628Y-67.18
X120.806Y-51.613
X120.882Y-70.92
X121.5Y-55.69
X121.72Y-99.771
X122.508Y-70.92
X123.016Y-51.638
X123.194Y-67.005
X123.26Y-63.576
X123.676Y-86.233
X123.676Y-105.283
X123.778Y-49.175
X124.16Y-55.69
X124.26Y-61.824
X124.451Y-64.022
X124.819Y-88.503
X126.318Y-51.994
X126.429Y-75.489
X127.054Y-66.828
X127.537Y-50.978
X127.646Y-72.12
X127.778Y-70.239
X127.782Y-65.208
X127.893Y-75.083
X129.418Y-65.208
X129.747Y-66.878
X129.772Y-68.606
X129.848Y-90.196
X130.279Y-70.222
X131.55Y-45.66
X132.82Y-47.625
X133.709Y-71.577
X133.963Y-67.031
X137.926Y-69.672
X138.078Y-63.983
X139.094Y-67.183
X140.77Y-79.934
X140.78Y-75.895
X142.498Y-105.283
X142.599Y-86.233
X146.13Y-67.331
X146.257Y-50.14
X148.34Y-50.114
X149.737Y-63.73
X149.762Y-67.513
X149.762Y-69.825
X150.549Y-50.114
X151.11Y-102.01
X151.32Y-50.98
X151.921Y-69.647
X153.293Y-63.856
X154.2Y-52.41
X154.817Y-61.011
X154.817Y-81.509
X161.573Y-86.233
X161.725Y-105.283
X161.903Y-67.183
X162.48Y-55.01
X166.018Y-63.73
X166.1Y-55.01
T2
X122.0Y-61.824
X135.259Y-50.14
X140.059Y-50.114
X140.288Y-65.278
X141.024Y-66.18
X143.412Y-66.218
X144.326Y-65.278
X146.282Y-61.824
T4
X112.72Y-43.48
X112.72Y-46.02
X115.26Y-43.48
X115.26Y-46.02
X117.8Y-43.48
X117.8Y-46.02
X158.804Y-43.46
X158.804Y-46.0
X161.344Y-43.46
X161.344Y-46.0
X163.884Y-43.46
X163.884Y-46.0
T5
X115.38Y-56.15
X115.38Y-75.2
X115.38Y-94.25
X121.73Y-53.61
X121.73Y-72.66
X121.73Y-91.71
X134.43Y-56.15
X134.43Y-75.2
X134.43Y-94.25
X140.78Y-53.61
X140.78Y-72.66
X140.78Y-91.71
X153.48Y-56.15
X153.48Y-75.2
X153.48Y-94.25
X159.83Y-53.61
X159.83Y-72.66
X159.83Y-91.71
T3
G00X133.92Y-43.045
M15
G01X133.92Y-43.645
M16
G05
G00X133.92Y-46.975
M15
G01X133.92Y-48.075
M16
G05
G00X142.56Y-43.045
M15
G01X142.56Y-43.645
M16
G05
G00X142.56Y-46.975
M15
G01X142.56Y-48.075
M16
G05
M30
