%TF.GenerationSoftware,KiCad,Pcbnew,10.0.3*%
%TF.CreationDate,2026-06-23T01:27:28-06:00*%
%TF.ProjectId,mk9-badge,6d6b392d-6261-4646-9765-2e6b69636164,1.0*%
%TF.SameCoordinates,PX6012ba0PY6de6c40*%
%TF.FileFunction,Paste,Top*%
%TF.FilePolarity,Positive*%
%FSLAX46Y46*%
G04 Gerber Fmt 4.6, Leading zero omitted, Abs format (unit mm)*
G04 Created by KiCad (PCBNEW 10.0.3) date 2026-06-23 01:27:28*
%MOMM*%
%LPD*%
G01*
G04 APERTURE LIST*
G04 Aperture macros list*
%AMRoundRect*
0 Rectangle with rounded corners*
0 $1 Rounding radius*
0 $2 $3 $4 $5 $6 $7 $8 $9 X,Y pos of 4 corners*
0 Add a 4 corners polygon primitive as box body*
4,1,4,$2,$3,$4,$5,$6,$7,$8,$9,$2,$3,0*
0 Add four circle primitives for the rounded corners*
1,1,$1+$1,$2,$3*
1,1,$1+$1,$4,$5*
1,1,$1+$1,$6,$7*
1,1,$1+$1,$8,$9*
0 Add four rect primitives between the rounded corners*
20,1,$1+$1,$2,$3,$4,$5,0*
20,1,$1+$1,$4,$5,$6,$7,0*
20,1,$1+$1,$6,$7,$8,$9,0*
20,1,$1+$1,$8,$9,$2,$3,0*%
G04 Aperture macros list end*
%ADD10RoundRect,0.090000X-0.660000X-0.360000X0.660000X-0.360000X0.660000X0.360000X-0.660000X0.360000X0*%
%ADD11RoundRect,0.250000X-0.300000X0.300000X-0.300000X-0.300000X0.300000X-0.300000X0.300000X0.300000X0*%
%ADD12RoundRect,0.225000X-0.250000X0.225000X-0.250000X-0.225000X0.250000X-0.225000X0.250000X0.225000X0*%
G04 APERTURE END LIST*
D10*
%TO.C,D17*%
X35050000Y32309500D03*
X35050000Y29009500D03*
X39950000Y29009500D03*
X39950000Y32309500D03*
%TD*%
D11*
%TO.C,D7*%
X10007600Y42779600D03*
X10007600Y39979600D03*
%TD*%
D10*
%TO.C,D16*%
X16000000Y32309500D03*
X16000000Y29009500D03*
X20900000Y29009500D03*
X20900000Y32309500D03*
%TD*%
%TO.C,D13*%
X16000000Y51359500D03*
X16000000Y48059500D03*
X20900000Y48059500D03*
X20900000Y51359500D03*
%TD*%
D12*
%TO.C,C17*%
X12979400Y10312400D03*
X12979400Y8762400D03*
%TD*%
D10*
%TO.C,D19*%
X16000000Y13259500D03*
X16000000Y9959500D03*
X20900000Y9959500D03*
X20900000Y13259500D03*
%TD*%
%TO.C,D15*%
X54100000Y51359500D03*
X54100000Y48059500D03*
X59000000Y48059500D03*
X59000000Y51359500D03*
%TD*%
%TO.C,D21*%
X54100000Y13259500D03*
X54100000Y9959500D03*
X59000000Y9959500D03*
X59000000Y13259500D03*
%TD*%
D11*
%TO.C,D12*%
X48133000Y23729600D03*
X48133000Y20929600D03*
%TD*%
D12*
%TO.C,C15*%
X12979400Y48400000D03*
X12979400Y46850000D03*
%TD*%
D11*
%TO.C,D8*%
X29083000Y42830400D03*
X29083000Y40030400D03*
%TD*%
%TO.C,D4*%
X10007600Y61953600D03*
X10007600Y59153600D03*
%TD*%
%TO.C,D6*%
X48107600Y61956600D03*
X48107600Y59156600D03*
%TD*%
D10*
%TO.C,D14*%
X35050000Y51359500D03*
X35050000Y48059500D03*
X39950000Y48059500D03*
X39950000Y51359500D03*
%TD*%
%TO.C,D20*%
X35050000Y13259500D03*
X35050000Y9959500D03*
X39950000Y9959500D03*
X39950000Y13259500D03*
%TD*%
D11*
%TO.C,D11*%
X29108400Y23729600D03*
X29108400Y20929600D03*
%TD*%
%TO.C,D9*%
X48107600Y42852800D03*
X48107600Y40052800D03*
%TD*%
D10*
%TO.C,D18*%
X54100000Y32309500D03*
X54100000Y29009500D03*
X59000000Y29009500D03*
X59000000Y32309500D03*
%TD*%
D12*
%TO.C,C16*%
X12979400Y29356200D03*
X12979400Y27806200D03*
%TD*%
D11*
%TO.C,D5*%
X29057600Y61953600D03*
X29057600Y59153600D03*
%TD*%
%TO.C,D10*%
X10007600Y23780400D03*
X10007600Y20980400D03*
%TD*%
M02*
