M48
; DRILL file KiCad 10.0.4 date 2026-06-26T11:06:08
; FORMAT={-:-/ absolute / metric / decimal}
; #@! TF.CreationDate,2026-06-26T11:06:08-06:00
; #@! TF.GenerationSoftware,Kicad,Pcbnew,10.0.4
; #@! TF.FileFunction,NonPlated,1,2,NPTH
FMAT,2
METRIC
; #@! TA.AperFunction,NonPlated,NPTH,ComponentDrill
T1C0.650
; #@! TA.AperFunction,NonPlated,NPTH,ComponentDrill
T2C0.700
; #@! TA.AperFunction,NonPlated,NPTH,ComponentDrill
T3C0.900
; #@! TA.AperFunction,NonPlated,NPTH,ComponentDrill
T4C1.702
; #@! TA.AperFunction,NonPlated,NPTH,ComponentDrill
T5C3.988
%
G90
G05
T1
X135.35Y-47.025
X141.13Y-47.025
T2
X146.71Y-41.69
X146.71Y-43.49
X152.37Y-41.7
X152.37Y-43.5
T3
X123.66Y-42.82
X130.46Y-42.82
T4
X114.11Y-58.69
X114.11Y-77.74
X114.11Y-96.79
X124.27Y-58.69
X124.27Y-77.74
X124.27Y-96.79
X133.16Y-58.69
X133.16Y-77.74
X133.16Y-96.79
X143.32Y-58.69
X143.32Y-77.74
X143.32Y-96.79
X152.21Y-58.69
X152.21Y-77.74
X152.21Y-96.79
X162.37Y-58.69
X162.37Y-77.74
X162.37Y-96.79
T5
X119.19Y-58.69
X119.19Y-77.74
X119.19Y-96.79
X138.24Y-58.69
X138.24Y-77.74
X138.24Y-96.79
X157.29Y-58.69
X157.29Y-77.74
X157.29Y-96.79
M30
