%TF.GenerationSoftware,KiCad,Pcbnew,10.0.3*%
%TF.CreationDate,2026-06-23T01:27:28-06:00*%
%TF.ProjectId,mk9-badge,6d6b392d-6261-4646-9765-2e6b69636164,1.0*%
%TF.SameCoordinates,PX6012ba0PY6de6c40*%
%TF.FileFunction,AssemblyDrawing,Bot*%
%FSLAX46Y46*%
G04 Gerber Fmt 4.6, Leading zero omitted, Abs format (unit mm)*
G04 Created by KiCad (PCBNEW 10.0.3) date 2026-06-23 01:27:28*
%MOMM*%
%LPD*%
G01*
G04 APERTURE LIST*
%ADD10C,2.000000*%
%ADD11C,0.150000*%
%ADD12C,0.060000*%
%ADD13C,0.110000*%
%ADD14C,0.080000*%
%ADD15C,0.120000*%
%ADD16C,0.100000*%
G04 APERTURE END LIST*
D10*
X10210000Y61940000D02*
X65210000Y61940000D01*
X65210000Y21940000D01*
X10210000Y21940000D01*
X10210000Y61940000D01*
D11*
X35119048Y77054820D02*
X35119048Y77864343D01*
X35119048Y77864343D02*
X35166667Y77959581D01*
X35166667Y77959581D02*
X35214286Y78007200D01*
X35214286Y78007200D02*
X35309524Y78054820D01*
X35309524Y78054820D02*
X35500000Y78054820D01*
X35500000Y78054820D02*
X35595238Y78007200D01*
X35595238Y78007200D02*
X35642857Y77959581D01*
X35642857Y77959581D02*
X35690476Y77864343D01*
X35690476Y77864343D02*
X35690476Y77054820D01*
X36119048Y78007200D02*
X36261905Y78054820D01*
X36261905Y78054820D02*
X36500000Y78054820D01*
X36500000Y78054820D02*
X36595238Y78007200D01*
X36595238Y78007200D02*
X36642857Y77959581D01*
X36642857Y77959581D02*
X36690476Y77864343D01*
X36690476Y77864343D02*
X36690476Y77769105D01*
X36690476Y77769105D02*
X36642857Y77673867D01*
X36642857Y77673867D02*
X36595238Y77626248D01*
X36595238Y77626248D02*
X36500000Y77578629D01*
X36500000Y77578629D02*
X36309524Y77531010D01*
X36309524Y77531010D02*
X36214286Y77483391D01*
X36214286Y77483391D02*
X36166667Y77435772D01*
X36166667Y77435772D02*
X36119048Y77340534D01*
X36119048Y77340534D02*
X36119048Y77245296D01*
X36119048Y77245296D02*
X36166667Y77150058D01*
X36166667Y77150058D02*
X36214286Y77102439D01*
X36214286Y77102439D02*
X36309524Y77054820D01*
X36309524Y77054820D02*
X36547619Y77054820D01*
X36547619Y77054820D02*
X36690476Y77102439D01*
X37452381Y77531010D02*
X37595238Y77578629D01*
X37595238Y77578629D02*
X37642857Y77626248D01*
X37642857Y77626248D02*
X37690476Y77721486D01*
X37690476Y77721486D02*
X37690476Y77864343D01*
X37690476Y77864343D02*
X37642857Y77959581D01*
X37642857Y77959581D02*
X37595238Y78007200D01*
X37595238Y78007200D02*
X37500000Y78054820D01*
X37500000Y78054820D02*
X37119048Y78054820D01*
X37119048Y78054820D02*
X37119048Y77054820D01*
X37119048Y77054820D02*
X37452381Y77054820D01*
X37452381Y77054820D02*
X37547619Y77102439D01*
X37547619Y77102439D02*
X37595238Y77150058D01*
X37595238Y77150058D02*
X37642857Y77245296D01*
X37642857Y77245296D02*
X37642857Y77340534D01*
X37642857Y77340534D02*
X37595238Y77435772D01*
X37595238Y77435772D02*
X37547619Y77483391D01*
X37547619Y77483391D02*
X37452381Y77531010D01*
X37452381Y77531010D02*
X37119048Y77531010D01*
X38119048Y77673867D02*
X38880953Y77673867D01*
X39928571Y77959581D02*
X39880952Y78007200D01*
X39880952Y78007200D02*
X39738095Y78054820D01*
X39738095Y78054820D02*
X39642857Y78054820D01*
X39642857Y78054820D02*
X39500000Y78007200D01*
X39500000Y78007200D02*
X39404762Y77911962D01*
X39404762Y77911962D02*
X39357143Y77816724D01*
X39357143Y77816724D02*
X39309524Y77626248D01*
X39309524Y77626248D02*
X39309524Y77483391D01*
X39309524Y77483391D02*
X39357143Y77292915D01*
X39357143Y77292915D02*
X39404762Y77197677D01*
X39404762Y77197677D02*
X39500000Y77102439D01*
X39500000Y77102439D02*
X39642857Y77054820D01*
X39642857Y77054820D02*
X39738095Y77054820D01*
X39738095Y77054820D02*
X39880952Y77102439D01*
X39880952Y77102439D02*
X39928571Y77150058D01*
X37166666Y71619820D02*
X37166666Y72334105D01*
X37166666Y72334105D02*
X37119047Y72476962D01*
X37119047Y72476962D02*
X37023809Y72572200D01*
X37023809Y72572200D02*
X36880952Y72619820D01*
X36880952Y72619820D02*
X36785714Y72619820D01*
X38166666Y72619820D02*
X37595238Y72619820D01*
X37880952Y72619820D02*
X37880952Y71619820D01*
X37880952Y71619820D02*
X37785714Y71762677D01*
X37785714Y71762677D02*
X37690476Y71857915D01*
X37690476Y71857915D02*
X37595238Y71905534D01*
X27694819Y54395239D02*
X27694819Y54966667D01*
X27694819Y54680953D02*
X26694819Y54680953D01*
X26694819Y54680953D02*
X26837676Y54776191D01*
X26837676Y54776191D02*
X26932914Y54871429D01*
X26932914Y54871429D02*
X26980533Y54966667D01*
X27028152Y53538096D02*
X27694819Y53538096D01*
X27028152Y53966667D02*
X27551961Y53966667D01*
X27551961Y53966667D02*
X27647200Y53919048D01*
X27647200Y53919048D02*
X27694819Y53823810D01*
X27694819Y53823810D02*
X27694819Y53680953D01*
X27694819Y53680953D02*
X27647200Y53585715D01*
X27647200Y53585715D02*
X27599580Y53538096D01*
X27171009Y52728572D02*
X27171009Y53061905D01*
X27694819Y53061905D02*
X26694819Y53061905D01*
X26694819Y53061905D02*
X26694819Y52585715D01*
D12*
X25953832Y53866667D02*
X25972880Y53885715D01*
X25972880Y53885715D02*
X25991927Y53942857D01*
X25991927Y53942857D02*
X25991927Y53980953D01*
X25991927Y53980953D02*
X25972880Y54038096D01*
X25972880Y54038096D02*
X25934784Y54076191D01*
X25934784Y54076191D02*
X25896689Y54095238D01*
X25896689Y54095238D02*
X25820499Y54114286D01*
X25820499Y54114286D02*
X25763356Y54114286D01*
X25763356Y54114286D02*
X25687165Y54095238D01*
X25687165Y54095238D02*
X25649070Y54076191D01*
X25649070Y54076191D02*
X25610975Y54038096D01*
X25610975Y54038096D02*
X25591927Y53980953D01*
X25591927Y53980953D02*
X25591927Y53942857D01*
X25591927Y53942857D02*
X25610975Y53885715D01*
X25610975Y53885715D02*
X25630022Y53866667D01*
X25591927Y53733334D02*
X25591927Y53466667D01*
X25591927Y53466667D02*
X25991927Y53638096D01*
D11*
X29870057Y61611905D02*
X29822438Y61564286D01*
X29822438Y61564286D02*
X29774819Y61469048D01*
X29774819Y61469048D02*
X29774819Y61230953D01*
X29774819Y61230953D02*
X29822438Y61135715D01*
X29822438Y61135715D02*
X29870057Y61088096D01*
X29870057Y61088096D02*
X29965295Y61040477D01*
X29965295Y61040477D02*
X30060533Y61040477D01*
X30060533Y61040477D02*
X30203390Y61088096D01*
X30203390Y61088096D02*
X30774819Y61659524D01*
X30774819Y61659524D02*
X30774819Y61040477D01*
X29774819Y60707143D02*
X29774819Y60040477D01*
X29774819Y60040477D02*
X30774819Y60469048D01*
X30774819Y59088096D02*
X30298628Y59421429D01*
X30774819Y59659524D02*
X29774819Y59659524D01*
X29774819Y59659524D02*
X29774819Y59278572D01*
X29774819Y59278572D02*
X29822438Y59183334D01*
X29822438Y59183334D02*
X29870057Y59135715D01*
X29870057Y59135715D02*
X29965295Y59088096D01*
X29965295Y59088096D02*
X30108152Y59088096D01*
X30108152Y59088096D02*
X30203390Y59135715D01*
X30203390Y59135715D02*
X30251009Y59183334D01*
X30251009Y59183334D02*
X30298628Y59278572D01*
X30298628Y59278572D02*
X30298628Y59659524D01*
D12*
X29071927Y60416667D02*
X28881451Y60550000D01*
X29071927Y60645238D02*
X28671927Y60645238D01*
X28671927Y60645238D02*
X28671927Y60492857D01*
X28671927Y60492857D02*
X28690975Y60454762D01*
X28690975Y60454762D02*
X28710022Y60435715D01*
X28710022Y60435715D02*
X28748118Y60416667D01*
X28748118Y60416667D02*
X28805260Y60416667D01*
X28805260Y60416667D02*
X28843356Y60435715D01*
X28843356Y60435715D02*
X28862403Y60454762D01*
X28862403Y60454762D02*
X28881451Y60492857D01*
X28881451Y60492857D02*
X28881451Y60645238D01*
X28671927Y60054762D02*
X28671927Y60245238D01*
X28671927Y60245238D02*
X28862403Y60264286D01*
X28862403Y60264286D02*
X28843356Y60245238D01*
X28843356Y60245238D02*
X28824308Y60207143D01*
X28824308Y60207143D02*
X28824308Y60111905D01*
X28824308Y60111905D02*
X28843356Y60073810D01*
X28843356Y60073810D02*
X28862403Y60054762D01*
X28862403Y60054762D02*
X28900499Y60035715D01*
X28900499Y60035715D02*
X28995737Y60035715D01*
X28995737Y60035715D02*
X29033832Y60054762D01*
X29033832Y60054762D02*
X29052880Y60073810D01*
X29052880Y60073810D02*
X29071927Y60111905D01*
X29071927Y60111905D02*
X29071927Y60207143D01*
X29071927Y60207143D02*
X29052880Y60245238D01*
X29052880Y60245238D02*
X29033832Y60264286D01*
D11*
X11541904Y55915181D02*
X10970476Y55915181D01*
X11256190Y54915181D02*
X11256190Y55915181D01*
X10637142Y54915181D02*
X10637142Y55915181D01*
X10637142Y55915181D02*
X10256190Y55915181D01*
X10256190Y55915181D02*
X10160952Y55867562D01*
X10160952Y55867562D02*
X10113333Y55819943D01*
X10113333Y55819943D02*
X10065714Y55724705D01*
X10065714Y55724705D02*
X10065714Y55581848D01*
X10065714Y55581848D02*
X10113333Y55486610D01*
X10113333Y55486610D02*
X10160952Y55438991D01*
X10160952Y55438991D02*
X10256190Y55391372D01*
X10256190Y55391372D02*
X10637142Y55391372D01*
X9160952Y55915181D02*
X9637142Y55915181D01*
X9637142Y55915181D02*
X9684761Y55438991D01*
X9684761Y55438991D02*
X9637142Y55486610D01*
X9637142Y55486610D02*
X9541904Y55534229D01*
X9541904Y55534229D02*
X9303809Y55534229D01*
X9303809Y55534229D02*
X9208571Y55486610D01*
X9208571Y55486610D02*
X9160952Y55438991D01*
X9160952Y55438991D02*
X9113333Y55343753D01*
X9113333Y55343753D02*
X9113333Y55105658D01*
X9113333Y55105658D02*
X9160952Y55010420D01*
X9160952Y55010420D02*
X9208571Y54962800D01*
X9208571Y54962800D02*
X9303809Y54915181D01*
X9303809Y54915181D02*
X9541904Y54915181D01*
X9541904Y54915181D02*
X9637142Y54962800D01*
X9637142Y54962800D02*
X9684761Y55010420D01*
X47164819Y50195239D02*
X47164819Y50766667D01*
X47164819Y50480953D02*
X46164819Y50480953D01*
X46164819Y50480953D02*
X46307676Y50576191D01*
X46307676Y50576191D02*
X46402914Y50671429D01*
X46402914Y50671429D02*
X46450533Y50766667D01*
X46164819Y49576191D02*
X46164819Y49480953D01*
X46164819Y49480953D02*
X46212438Y49385715D01*
X46212438Y49385715D02*
X46260057Y49338096D01*
X46260057Y49338096D02*
X46355295Y49290477D01*
X46355295Y49290477D02*
X46545771Y49242858D01*
X46545771Y49242858D02*
X46783866Y49242858D01*
X46783866Y49242858D02*
X46974342Y49290477D01*
X46974342Y49290477D02*
X47069580Y49338096D01*
X47069580Y49338096D02*
X47117200Y49385715D01*
X47117200Y49385715D02*
X47164819Y49480953D01*
X47164819Y49480953D02*
X47164819Y49576191D01*
X47164819Y49576191D02*
X47117200Y49671429D01*
X47117200Y49671429D02*
X47069580Y49719048D01*
X47069580Y49719048D02*
X46974342Y49766667D01*
X46974342Y49766667D02*
X46783866Y49814286D01*
X46783866Y49814286D02*
X46545771Y49814286D01*
X46545771Y49814286D02*
X46355295Y49766667D01*
X46355295Y49766667D02*
X46260057Y49719048D01*
X46260057Y49719048D02*
X46212438Y49671429D01*
X46212438Y49671429D02*
X46164819Y49576191D01*
X47164819Y48814286D02*
X46164819Y48814286D01*
X46783866Y48719048D02*
X47164819Y48433334D01*
X46498152Y48433334D02*
X46879104Y48814286D01*
D12*
X48321927Y49666667D02*
X48131451Y49800000D01*
X48321927Y49895238D02*
X47921927Y49895238D01*
X47921927Y49895238D02*
X47921927Y49742857D01*
X47921927Y49742857D02*
X47940975Y49704762D01*
X47940975Y49704762D02*
X47960022Y49685715D01*
X47960022Y49685715D02*
X47998118Y49666667D01*
X47998118Y49666667D02*
X48055260Y49666667D01*
X48055260Y49666667D02*
X48093356Y49685715D01*
X48093356Y49685715D02*
X48112403Y49704762D01*
X48112403Y49704762D02*
X48131451Y49742857D01*
X48131451Y49742857D02*
X48131451Y49895238D01*
X48093356Y49438096D02*
X48074308Y49476191D01*
X48074308Y49476191D02*
X48055260Y49495238D01*
X48055260Y49495238D02*
X48017165Y49514286D01*
X48017165Y49514286D02*
X47998118Y49514286D01*
X47998118Y49514286D02*
X47960022Y49495238D01*
X47960022Y49495238D02*
X47940975Y49476191D01*
X47940975Y49476191D02*
X47921927Y49438096D01*
X47921927Y49438096D02*
X47921927Y49361905D01*
X47921927Y49361905D02*
X47940975Y49323810D01*
X47940975Y49323810D02*
X47960022Y49304762D01*
X47960022Y49304762D02*
X47998118Y49285715D01*
X47998118Y49285715D02*
X48017165Y49285715D01*
X48017165Y49285715D02*
X48055260Y49304762D01*
X48055260Y49304762D02*
X48074308Y49323810D01*
X48074308Y49323810D02*
X48093356Y49361905D01*
X48093356Y49361905D02*
X48093356Y49438096D01*
X48093356Y49438096D02*
X48112403Y49476191D01*
X48112403Y49476191D02*
X48131451Y49495238D01*
X48131451Y49495238D02*
X48169546Y49514286D01*
X48169546Y49514286D02*
X48245737Y49514286D01*
X48245737Y49514286D02*
X48283832Y49495238D01*
X48283832Y49495238D02*
X48302880Y49476191D01*
X48302880Y49476191D02*
X48321927Y49438096D01*
X48321927Y49438096D02*
X48321927Y49361905D01*
X48321927Y49361905D02*
X48302880Y49323810D01*
X48302880Y49323810D02*
X48283832Y49304762D01*
X48283832Y49304762D02*
X48245737Y49285715D01*
X48245737Y49285715D02*
X48169546Y49285715D01*
X48169546Y49285715D02*
X48131451Y49304762D01*
X48131451Y49304762D02*
X48112403Y49323810D01*
X48112403Y49323810D02*
X48093356Y49361905D01*
D11*
X51614819Y49719048D02*
X51614819Y50290476D01*
X51614819Y50004762D02*
X50614819Y50004762D01*
X50614819Y50004762D02*
X50757676Y50100000D01*
X50757676Y50100000D02*
X50852914Y50195238D01*
X50852914Y50195238D02*
X50900533Y50290476D01*
X51614819Y49290476D02*
X50614819Y49290476D01*
X51233866Y49195238D02*
X51614819Y48909524D01*
X50948152Y48909524D02*
X51329104Y49290476D01*
D12*
X49911927Y49666667D02*
X49721451Y49800000D01*
X49911927Y49895238D02*
X49511927Y49895238D01*
X49511927Y49895238D02*
X49511927Y49742857D01*
X49511927Y49742857D02*
X49530975Y49704762D01*
X49530975Y49704762D02*
X49550022Y49685715D01*
X49550022Y49685715D02*
X49588118Y49666667D01*
X49588118Y49666667D02*
X49645260Y49666667D01*
X49645260Y49666667D02*
X49683356Y49685715D01*
X49683356Y49685715D02*
X49702403Y49704762D01*
X49702403Y49704762D02*
X49721451Y49742857D01*
X49721451Y49742857D02*
X49721451Y49895238D01*
X49511927Y49533334D02*
X49511927Y49266667D01*
X49511927Y49266667D02*
X49911927Y49438096D01*
D11*
X53833638Y70621981D02*
X54405066Y70621981D01*
X54119352Y70621981D02*
X54119352Y71621981D01*
X54119352Y71621981D02*
X54214590Y71479124D01*
X54214590Y71479124D02*
X54309828Y71383886D01*
X54309828Y71383886D02*
X54405066Y71336267D01*
X53214590Y71621981D02*
X53119352Y71621981D01*
X53119352Y71621981D02*
X53024114Y71574362D01*
X53024114Y71574362D02*
X52976495Y71526743D01*
X52976495Y71526743D02*
X52928876Y71431505D01*
X52928876Y71431505D02*
X52881257Y71241029D01*
X52881257Y71241029D02*
X52881257Y71002934D01*
X52881257Y71002934D02*
X52928876Y70812458D01*
X52928876Y70812458D02*
X52976495Y70717220D01*
X52976495Y70717220D02*
X53024114Y70669600D01*
X53024114Y70669600D02*
X53119352Y70621981D01*
X53119352Y70621981D02*
X53214590Y70621981D01*
X53214590Y70621981D02*
X53309828Y70669600D01*
X53309828Y70669600D02*
X53357447Y70717220D01*
X53357447Y70717220D02*
X53405066Y70812458D01*
X53405066Y70812458D02*
X53452685Y71002934D01*
X53452685Y71002934D02*
X53452685Y71241029D01*
X53452685Y71241029D02*
X53405066Y71431505D01*
X53405066Y71431505D02*
X53357447Y71526743D01*
X53357447Y71526743D02*
X53309828Y71574362D01*
X53309828Y71574362D02*
X53214590Y71621981D01*
X52452685Y70621981D02*
X52452685Y71621981D01*
X52357447Y71002934D02*
X52071733Y70621981D01*
X52071733Y71288648D02*
X52452685Y70907696D01*
D12*
X53305066Y69464873D02*
X53438399Y69655349D01*
X53533637Y69464873D02*
X53533637Y69864873D01*
X53533637Y69864873D02*
X53381256Y69864873D01*
X53381256Y69864873D02*
X53343161Y69845825D01*
X53343161Y69845825D02*
X53324114Y69826778D01*
X53324114Y69826778D02*
X53305066Y69788682D01*
X53305066Y69788682D02*
X53305066Y69731540D01*
X53305066Y69731540D02*
X53324114Y69693444D01*
X53324114Y69693444D02*
X53343161Y69674397D01*
X53343161Y69674397D02*
X53381256Y69655349D01*
X53381256Y69655349D02*
X53533637Y69655349D01*
X52962209Y69864873D02*
X53038399Y69864873D01*
X53038399Y69864873D02*
X53076495Y69845825D01*
X53076495Y69845825D02*
X53095542Y69826778D01*
X53095542Y69826778D02*
X53133637Y69769635D01*
X53133637Y69769635D02*
X53152685Y69693444D01*
X53152685Y69693444D02*
X53152685Y69541063D01*
X53152685Y69541063D02*
X53133637Y69502968D01*
X53133637Y69502968D02*
X53114590Y69483920D01*
X53114590Y69483920D02*
X53076495Y69464873D01*
X53076495Y69464873D02*
X53000304Y69464873D01*
X53000304Y69464873D02*
X52962209Y69483920D01*
X52962209Y69483920D02*
X52943161Y69502968D01*
X52943161Y69502968D02*
X52924114Y69541063D01*
X52924114Y69541063D02*
X52924114Y69636301D01*
X52924114Y69636301D02*
X52943161Y69674397D01*
X52943161Y69674397D02*
X52962209Y69693444D01*
X52962209Y69693444D02*
X53000304Y69712492D01*
X53000304Y69712492D02*
X53076495Y69712492D01*
X53076495Y69712492D02*
X53114590Y69693444D01*
X53114590Y69693444D02*
X53133637Y69674397D01*
X53133637Y69674397D02*
X53152685Y69636301D01*
D11*
X62066371Y66691248D02*
X62066371Y66024581D01*
X62304466Y67072200D02*
X62542561Y66357915D01*
X62542561Y66357915D02*
X61923514Y66357915D01*
X61542561Y66119820D02*
X61494942Y66072200D01*
X61494942Y66072200D02*
X61542561Y66024581D01*
X61542561Y66024581D02*
X61590180Y66072200D01*
X61590180Y66072200D02*
X61542561Y66119820D01*
X61542561Y66119820D02*
X61542561Y66024581D01*
X61161609Y67024581D02*
X60494943Y67024581D01*
X60494943Y67024581D02*
X60923514Y66024581D01*
X60113990Y66024581D02*
X60113990Y67024581D01*
X60018752Y66405534D02*
X59733038Y66024581D01*
X59733038Y66691248D02*
X60113990Y66310296D01*
D12*
X61394942Y64867473D02*
X61528275Y65057949D01*
X61623513Y64867473D02*
X61623513Y65267473D01*
X61623513Y65267473D02*
X61471132Y65267473D01*
X61471132Y65267473D02*
X61433037Y65248425D01*
X61433037Y65248425D02*
X61413990Y65229378D01*
X61413990Y65229378D02*
X61394942Y65191282D01*
X61394942Y65191282D02*
X61394942Y65134140D01*
X61394942Y65134140D02*
X61413990Y65096044D01*
X61413990Y65096044D02*
X61433037Y65076997D01*
X61433037Y65076997D02*
X61471132Y65057949D01*
X61471132Y65057949D02*
X61623513Y65057949D01*
X61013990Y64867473D02*
X61242561Y64867473D01*
X61128275Y64867473D02*
X61128275Y65267473D01*
X61128275Y65267473D02*
X61166371Y65210330D01*
X61166371Y65210330D02*
X61204466Y65172235D01*
X61204466Y65172235D02*
X61242561Y65153187D01*
X60633038Y64867473D02*
X60861609Y64867473D01*
X60747323Y64867473D02*
X60747323Y65267473D01*
X60747323Y65267473D02*
X60785419Y65210330D01*
X60785419Y65210330D02*
X60823514Y65172235D01*
X60823514Y65172235D02*
X60861609Y65153187D01*
D11*
X74985160Y51557814D02*
X75032779Y51414957D01*
X75032779Y51414957D02*
X75032779Y51176862D01*
X75032779Y51176862D02*
X74985160Y51081624D01*
X74985160Y51081624D02*
X74937540Y51034005D01*
X74937540Y51034005D02*
X74842302Y50986386D01*
X74842302Y50986386D02*
X74747064Y50986386D01*
X74747064Y50986386D02*
X74651826Y51034005D01*
X74651826Y51034005D02*
X74604207Y51081624D01*
X74604207Y51081624D02*
X74556588Y51176862D01*
X74556588Y51176862D02*
X74508969Y51367338D01*
X74508969Y51367338D02*
X74461350Y51462576D01*
X74461350Y51462576D02*
X74413731Y51510195D01*
X74413731Y51510195D02*
X74318493Y51557814D01*
X74318493Y51557814D02*
X74223255Y51557814D01*
X74223255Y51557814D02*
X74128017Y51510195D01*
X74128017Y51510195D02*
X74080398Y51462576D01*
X74080398Y51462576D02*
X74032779Y51367338D01*
X74032779Y51367338D02*
X74032779Y51129243D01*
X74032779Y51129243D02*
X74080398Y50986386D01*
X75032779Y50557814D02*
X74032779Y50557814D01*
X75032779Y49986386D02*
X74461350Y50414957D01*
X74032779Y49986386D02*
X74604207Y50557814D01*
X74032779Y49129243D02*
X74032779Y49319719D01*
X74032779Y49319719D02*
X74080398Y49414957D01*
X74080398Y49414957D02*
X74128017Y49462576D01*
X74128017Y49462576D02*
X74270874Y49557814D01*
X74270874Y49557814D02*
X74461350Y49605433D01*
X74461350Y49605433D02*
X74842302Y49605433D01*
X74842302Y49605433D02*
X74937540Y49557814D01*
X74937540Y49557814D02*
X74985160Y49510195D01*
X74985160Y49510195D02*
X75032779Y49414957D01*
X75032779Y49414957D02*
X75032779Y49224481D01*
X75032779Y49224481D02*
X74985160Y49129243D01*
X74985160Y49129243D02*
X74937540Y49081624D01*
X74937540Y49081624D02*
X74842302Y49034005D01*
X74842302Y49034005D02*
X74604207Y49034005D01*
X74604207Y49034005D02*
X74508969Y49081624D01*
X74508969Y49081624D02*
X74461350Y49129243D01*
X74461350Y49129243D02*
X74413731Y49224481D01*
X74413731Y49224481D02*
X74413731Y49414957D01*
X74413731Y49414957D02*
X74461350Y49510195D01*
X74461350Y49510195D02*
X74508969Y49557814D01*
X74508969Y49557814D02*
X74604207Y49605433D01*
X74461350Y48462576D02*
X74413731Y48557814D01*
X74413731Y48557814D02*
X74366112Y48605433D01*
X74366112Y48605433D02*
X74270874Y48653052D01*
X74270874Y48653052D02*
X74223255Y48653052D01*
X74223255Y48653052D02*
X74128017Y48605433D01*
X74128017Y48605433D02*
X74080398Y48557814D01*
X74080398Y48557814D02*
X74032779Y48462576D01*
X74032779Y48462576D02*
X74032779Y48272100D01*
X74032779Y48272100D02*
X74080398Y48176862D01*
X74080398Y48176862D02*
X74128017Y48129243D01*
X74128017Y48129243D02*
X74223255Y48081624D01*
X74223255Y48081624D02*
X74270874Y48081624D01*
X74270874Y48081624D02*
X74366112Y48129243D01*
X74366112Y48129243D02*
X74413731Y48176862D01*
X74413731Y48176862D02*
X74461350Y48272100D01*
X74461350Y48272100D02*
X74461350Y48462576D01*
X74461350Y48462576D02*
X74508969Y48557814D01*
X74508969Y48557814D02*
X74556588Y48605433D01*
X74556588Y48605433D02*
X74651826Y48653052D01*
X74651826Y48653052D02*
X74842302Y48653052D01*
X74842302Y48653052D02*
X74937540Y48605433D01*
X74937540Y48605433D02*
X74985160Y48557814D01*
X74985160Y48557814D02*
X75032779Y48462576D01*
X75032779Y48462576D02*
X75032779Y48272100D01*
X75032779Y48272100D02*
X74985160Y48176862D01*
X74985160Y48176862D02*
X74937540Y48129243D01*
X74937540Y48129243D02*
X74842302Y48081624D01*
X74842302Y48081624D02*
X74651826Y48081624D01*
X74651826Y48081624D02*
X74556588Y48129243D01*
X74556588Y48129243D02*
X74508969Y48176862D01*
X74508969Y48176862D02*
X74461350Y48272100D01*
X75032779Y47129243D02*
X75032779Y47700671D01*
X75032779Y47414957D02*
X74032779Y47414957D01*
X74032779Y47414957D02*
X74175636Y47510195D01*
X74175636Y47510195D02*
X74270874Y47605433D01*
X74270874Y47605433D02*
X74318493Y47700671D01*
X74128017Y46748290D02*
X74080398Y46700671D01*
X74080398Y46700671D02*
X74032779Y46605433D01*
X74032779Y46605433D02*
X74032779Y46367338D01*
X74032779Y46367338D02*
X74080398Y46272100D01*
X74080398Y46272100D02*
X74128017Y46224481D01*
X74128017Y46224481D02*
X74223255Y46176862D01*
X74223255Y46176862D02*
X74318493Y46176862D01*
X74318493Y46176862D02*
X74461350Y46224481D01*
X74461350Y46224481D02*
X75032779Y46795909D01*
X75032779Y46795909D02*
X75032779Y46176862D01*
X74985160Y26566433D02*
X75032779Y26423576D01*
X75032779Y26423576D02*
X75032779Y26185481D01*
X75032779Y26185481D02*
X74985160Y26090243D01*
X74985160Y26090243D02*
X74937540Y26042624D01*
X74937540Y26042624D02*
X74842302Y25995005D01*
X74842302Y25995005D02*
X74747064Y25995005D01*
X74747064Y25995005D02*
X74651826Y26042624D01*
X74651826Y26042624D02*
X74604207Y26090243D01*
X74604207Y26090243D02*
X74556588Y26185481D01*
X74556588Y26185481D02*
X74508969Y26375957D01*
X74508969Y26375957D02*
X74461350Y26471195D01*
X74461350Y26471195D02*
X74413731Y26518814D01*
X74413731Y26518814D02*
X74318493Y26566433D01*
X74318493Y26566433D02*
X74223255Y26566433D01*
X74223255Y26566433D02*
X74128017Y26518814D01*
X74128017Y26518814D02*
X74080398Y26471195D01*
X74080398Y26471195D02*
X74032779Y26375957D01*
X74032779Y26375957D02*
X74032779Y26137862D01*
X74032779Y26137862D02*
X74080398Y25995005D01*
X75032779Y25566433D02*
X74032779Y25566433D01*
X75032779Y24995005D02*
X74461350Y25423576D01*
X74032779Y24995005D02*
X74604207Y25566433D01*
X74032779Y24137862D02*
X74032779Y24328338D01*
X74032779Y24328338D02*
X74080398Y24423576D01*
X74080398Y24423576D02*
X74128017Y24471195D01*
X74128017Y24471195D02*
X74270874Y24566433D01*
X74270874Y24566433D02*
X74461350Y24614052D01*
X74461350Y24614052D02*
X74842302Y24614052D01*
X74842302Y24614052D02*
X74937540Y24566433D01*
X74937540Y24566433D02*
X74985160Y24518814D01*
X74985160Y24518814D02*
X75032779Y24423576D01*
X75032779Y24423576D02*
X75032779Y24233100D01*
X75032779Y24233100D02*
X74985160Y24137862D01*
X74985160Y24137862D02*
X74937540Y24090243D01*
X74937540Y24090243D02*
X74842302Y24042624D01*
X74842302Y24042624D02*
X74604207Y24042624D01*
X74604207Y24042624D02*
X74508969Y24090243D01*
X74508969Y24090243D02*
X74461350Y24137862D01*
X74461350Y24137862D02*
X74413731Y24233100D01*
X74413731Y24233100D02*
X74413731Y24423576D01*
X74413731Y24423576D02*
X74461350Y24518814D01*
X74461350Y24518814D02*
X74508969Y24566433D01*
X74508969Y24566433D02*
X74604207Y24614052D01*
X74461350Y23471195D02*
X74413731Y23566433D01*
X74413731Y23566433D02*
X74366112Y23614052D01*
X74366112Y23614052D02*
X74270874Y23661671D01*
X74270874Y23661671D02*
X74223255Y23661671D01*
X74223255Y23661671D02*
X74128017Y23614052D01*
X74128017Y23614052D02*
X74080398Y23566433D01*
X74080398Y23566433D02*
X74032779Y23471195D01*
X74032779Y23471195D02*
X74032779Y23280719D01*
X74032779Y23280719D02*
X74080398Y23185481D01*
X74080398Y23185481D02*
X74128017Y23137862D01*
X74128017Y23137862D02*
X74223255Y23090243D01*
X74223255Y23090243D02*
X74270874Y23090243D01*
X74270874Y23090243D02*
X74366112Y23137862D01*
X74366112Y23137862D02*
X74413731Y23185481D01*
X74413731Y23185481D02*
X74461350Y23280719D01*
X74461350Y23280719D02*
X74461350Y23471195D01*
X74461350Y23471195D02*
X74508969Y23566433D01*
X74508969Y23566433D02*
X74556588Y23614052D01*
X74556588Y23614052D02*
X74651826Y23661671D01*
X74651826Y23661671D02*
X74842302Y23661671D01*
X74842302Y23661671D02*
X74937540Y23614052D01*
X74937540Y23614052D02*
X74985160Y23566433D01*
X74985160Y23566433D02*
X75032779Y23471195D01*
X75032779Y23471195D02*
X75032779Y23280719D01*
X75032779Y23280719D02*
X74985160Y23185481D01*
X74985160Y23185481D02*
X74937540Y23137862D01*
X74937540Y23137862D02*
X74842302Y23090243D01*
X74842302Y23090243D02*
X74651826Y23090243D01*
X74651826Y23090243D02*
X74556588Y23137862D01*
X74556588Y23137862D02*
X74508969Y23185481D01*
X74508969Y23185481D02*
X74461350Y23280719D01*
X75032779Y22137862D02*
X75032779Y22709290D01*
X75032779Y22423576D02*
X74032779Y22423576D01*
X74032779Y22423576D02*
X74175636Y22518814D01*
X74175636Y22518814D02*
X74270874Y22614052D01*
X74270874Y22614052D02*
X74318493Y22709290D01*
X74128017Y21756909D02*
X74080398Y21709290D01*
X74080398Y21709290D02*
X74032779Y21614052D01*
X74032779Y21614052D02*
X74032779Y21375957D01*
X74032779Y21375957D02*
X74080398Y21280719D01*
X74080398Y21280719D02*
X74128017Y21233100D01*
X74128017Y21233100D02*
X74223255Y21185481D01*
X74223255Y21185481D02*
X74318493Y21185481D01*
X74318493Y21185481D02*
X74461350Y21233100D01*
X74461350Y21233100D02*
X75032779Y21804528D01*
X75032779Y21804528D02*
X75032779Y21185481D01*
X38927200Y67101310D02*
X38974819Y66958453D01*
X38974819Y66958453D02*
X38974819Y66720358D01*
X38974819Y66720358D02*
X38927200Y66625120D01*
X38927200Y66625120D02*
X38879580Y66577501D01*
X38879580Y66577501D02*
X38784342Y66529882D01*
X38784342Y66529882D02*
X38689104Y66529882D01*
X38689104Y66529882D02*
X38593866Y66577501D01*
X38593866Y66577501D02*
X38546247Y66625120D01*
X38546247Y66625120D02*
X38498628Y66720358D01*
X38498628Y66720358D02*
X38451009Y66910834D01*
X38451009Y66910834D02*
X38403390Y67006072D01*
X38403390Y67006072D02*
X38355771Y67053691D01*
X38355771Y67053691D02*
X38260533Y67101310D01*
X38260533Y67101310D02*
X38165295Y67101310D01*
X38165295Y67101310D02*
X38070057Y67053691D01*
X38070057Y67053691D02*
X38022438Y67006072D01*
X38022438Y67006072D02*
X37974819Y66910834D01*
X37974819Y66910834D02*
X37974819Y66672739D01*
X37974819Y66672739D02*
X38022438Y66529882D01*
X38974819Y66101310D02*
X37974819Y66101310D01*
X37974819Y66101310D02*
X37974819Y65720358D01*
X37974819Y65720358D02*
X38022438Y65625120D01*
X38022438Y65625120D02*
X38070057Y65577501D01*
X38070057Y65577501D02*
X38165295Y65529882D01*
X38165295Y65529882D02*
X38308152Y65529882D01*
X38308152Y65529882D02*
X38403390Y65577501D01*
X38403390Y65577501D02*
X38451009Y65625120D01*
X38451009Y65625120D02*
X38498628Y65720358D01*
X38498628Y65720358D02*
X38498628Y66101310D01*
X37974819Y64910834D02*
X37974819Y64815596D01*
X37974819Y64815596D02*
X38022438Y64720358D01*
X38022438Y64720358D02*
X38070057Y64672739D01*
X38070057Y64672739D02*
X38165295Y64625120D01*
X38165295Y64625120D02*
X38355771Y64577501D01*
X38355771Y64577501D02*
X38593866Y64577501D01*
X38593866Y64577501D02*
X38784342Y64625120D01*
X38784342Y64625120D02*
X38879580Y64672739D01*
X38879580Y64672739D02*
X38927200Y64720358D01*
X38927200Y64720358D02*
X38974819Y64815596D01*
X38974819Y64815596D02*
X38974819Y64910834D01*
X38974819Y64910834D02*
X38927200Y65006072D01*
X38927200Y65006072D02*
X38879580Y65053691D01*
X38879580Y65053691D02*
X38784342Y65101310D01*
X38784342Y65101310D02*
X38593866Y65148929D01*
X38593866Y65148929D02*
X38355771Y65148929D01*
X38355771Y65148929D02*
X38165295Y65101310D01*
X38165295Y65101310D02*
X38070057Y65053691D01*
X38070057Y65053691D02*
X38022438Y65006072D01*
X38022438Y65006072D02*
X37974819Y64910834D01*
X37974819Y63672739D02*
X37974819Y64148929D01*
X37974819Y64148929D02*
X38451009Y64196548D01*
X38451009Y64196548D02*
X38403390Y64148929D01*
X38403390Y64148929D02*
X38355771Y64053691D01*
X38355771Y64053691D02*
X38355771Y63815596D01*
X38355771Y63815596D02*
X38403390Y63720358D01*
X38403390Y63720358D02*
X38451009Y63672739D01*
X38451009Y63672739D02*
X38546247Y63625120D01*
X38546247Y63625120D02*
X38784342Y63625120D01*
X38784342Y63625120D02*
X38879580Y63672739D01*
X38879580Y63672739D02*
X38927200Y63720358D01*
X38927200Y63720358D02*
X38974819Y63815596D01*
X38974819Y63815596D02*
X38974819Y64053691D01*
X38974819Y64053691D02*
X38927200Y64148929D01*
X38927200Y64148929D02*
X38879580Y64196548D01*
X37974819Y63006072D02*
X37974819Y62910834D01*
X37974819Y62910834D02*
X38022438Y62815596D01*
X38022438Y62815596D02*
X38070057Y62767977D01*
X38070057Y62767977D02*
X38165295Y62720358D01*
X38165295Y62720358D02*
X38355771Y62672739D01*
X38355771Y62672739D02*
X38593866Y62672739D01*
X38593866Y62672739D02*
X38784342Y62720358D01*
X38784342Y62720358D02*
X38879580Y62767977D01*
X38879580Y62767977D02*
X38927200Y62815596D01*
X38927200Y62815596D02*
X38974819Y62910834D01*
X38974819Y62910834D02*
X38974819Y63006072D01*
X38974819Y63006072D02*
X38927200Y63101310D01*
X38927200Y63101310D02*
X38879580Y63148929D01*
X38879580Y63148929D02*
X38784342Y63196548D01*
X38784342Y63196548D02*
X38593866Y63244167D01*
X38593866Y63244167D02*
X38355771Y63244167D01*
X38355771Y63244167D02*
X38165295Y63196548D01*
X38165295Y63196548D02*
X38070057Y63148929D01*
X38070057Y63148929D02*
X38022438Y63101310D01*
X38022438Y63101310D02*
X37974819Y63006072D01*
X37974819Y62339405D02*
X37974819Y61720358D01*
X37974819Y61720358D02*
X38355771Y62053691D01*
X38355771Y62053691D02*
X38355771Y61910834D01*
X38355771Y61910834D02*
X38403390Y61815596D01*
X38403390Y61815596D02*
X38451009Y61767977D01*
X38451009Y61767977D02*
X38546247Y61720358D01*
X38546247Y61720358D02*
X38784342Y61720358D01*
X38784342Y61720358D02*
X38879580Y61767977D01*
X38879580Y61767977D02*
X38927200Y61815596D01*
X38927200Y61815596D02*
X38974819Y61910834D01*
X38974819Y61910834D02*
X38974819Y62196548D01*
X38974819Y62196548D02*
X38927200Y62291786D01*
X38927200Y62291786D02*
X38879580Y62339405D01*
X38451009Y60958453D02*
X38498628Y60815596D01*
X38498628Y60815596D02*
X38546247Y60767977D01*
X38546247Y60767977D02*
X38641485Y60720358D01*
X38641485Y60720358D02*
X38784342Y60720358D01*
X38784342Y60720358D02*
X38879580Y60767977D01*
X38879580Y60767977D02*
X38927200Y60815596D01*
X38927200Y60815596D02*
X38974819Y60910834D01*
X38974819Y60910834D02*
X38974819Y61291786D01*
X38974819Y61291786D02*
X37974819Y61291786D01*
X37974819Y61291786D02*
X37974819Y60958453D01*
X37974819Y60958453D02*
X38022438Y60863215D01*
X38022438Y60863215D02*
X38070057Y60815596D01*
X38070057Y60815596D02*
X38165295Y60767977D01*
X38165295Y60767977D02*
X38260533Y60767977D01*
X38260533Y60767977D02*
X38355771Y60815596D01*
X38355771Y60815596D02*
X38403390Y60863215D01*
X38403390Y60863215D02*
X38451009Y60958453D01*
X38451009Y60958453D02*
X38451009Y61291786D01*
X38689104Y60339405D02*
X38689104Y59863215D01*
X38974819Y60434643D02*
X37974819Y60101310D01*
X37974819Y60101310D02*
X38974819Y59767977D01*
X38974819Y59434643D02*
X37974819Y59434643D01*
X38451009Y59434643D02*
X38451009Y58863215D01*
X38974819Y58863215D02*
X37974819Y58863215D01*
X37974819Y58529881D02*
X37974819Y57958453D01*
X38974819Y58244167D02*
X37974819Y58244167D01*
D13*
X36651428Y62250135D02*
X36651428Y62970135D01*
X36651428Y62970135D02*
X36479999Y62970135D01*
X36479999Y62970135D02*
X36377142Y62935849D01*
X36377142Y62935849D02*
X36308571Y62867278D01*
X36308571Y62867278D02*
X36274285Y62798706D01*
X36274285Y62798706D02*
X36239999Y62661563D01*
X36239999Y62661563D02*
X36239999Y62558706D01*
X36239999Y62558706D02*
X36274285Y62421563D01*
X36274285Y62421563D02*
X36308571Y62352992D01*
X36308571Y62352992D02*
X36377142Y62284420D01*
X36377142Y62284420D02*
X36479999Y62250135D01*
X36479999Y62250135D02*
X36651428Y62250135D01*
X35554285Y62250135D02*
X35965714Y62250135D01*
X35759999Y62250135D02*
X35759999Y62970135D01*
X35759999Y62970135D02*
X35828571Y62867278D01*
X35828571Y62867278D02*
X35897142Y62798706D01*
X35897142Y62798706D02*
X35965714Y62764420D01*
X35393472Y62610135D02*
X36816428Y62610135D01*
D11*
X30682724Y66821581D02*
X30682724Y67821581D01*
X30682724Y67821581D02*
X30444629Y67821581D01*
X30444629Y67821581D02*
X30301772Y67773962D01*
X30301772Y67773962D02*
X30206534Y67678724D01*
X30206534Y67678724D02*
X30158915Y67583486D01*
X30158915Y67583486D02*
X30111296Y67393010D01*
X30111296Y67393010D02*
X30111296Y67250153D01*
X30111296Y67250153D02*
X30158915Y67059677D01*
X30158915Y67059677D02*
X30206534Y66964439D01*
X30206534Y66964439D02*
X30301772Y66869200D01*
X30301772Y66869200D02*
X30444629Y66821581D01*
X30444629Y66821581D02*
X30682724Y66821581D01*
X29920820Y66726343D02*
X29158915Y66726343D01*
X28968438Y66869200D02*
X28825581Y66821581D01*
X28825581Y66821581D02*
X28587486Y66821581D01*
X28587486Y66821581D02*
X28492248Y66869200D01*
X28492248Y66869200D02*
X28444629Y66916820D01*
X28444629Y66916820D02*
X28397010Y67012058D01*
X28397010Y67012058D02*
X28397010Y67107296D01*
X28397010Y67107296D02*
X28444629Y67202534D01*
X28444629Y67202534D02*
X28492248Y67250153D01*
X28492248Y67250153D02*
X28587486Y67297772D01*
X28587486Y67297772D02*
X28777962Y67345391D01*
X28777962Y67345391D02*
X28873200Y67393010D01*
X28873200Y67393010D02*
X28920819Y67440629D01*
X28920819Y67440629D02*
X28968438Y67535867D01*
X28968438Y67535867D02*
X28968438Y67631105D01*
X28968438Y67631105D02*
X28920819Y67726343D01*
X28920819Y67726343D02*
X28873200Y67773962D01*
X28873200Y67773962D02*
X28777962Y67821581D01*
X28777962Y67821581D02*
X28539867Y67821581D01*
X28539867Y67821581D02*
X28397010Y67773962D01*
X27539867Y66869200D02*
X27635105Y66821581D01*
X27635105Y66821581D02*
X27825581Y66821581D01*
X27825581Y66821581D02*
X27920819Y66869200D01*
X27920819Y66869200D02*
X27968438Y66916820D01*
X27968438Y66916820D02*
X28016057Y67012058D01*
X28016057Y67012058D02*
X28016057Y67297772D01*
X28016057Y67297772D02*
X27968438Y67393010D01*
X27968438Y67393010D02*
X27920819Y67440629D01*
X27920819Y67440629D02*
X27825581Y67488248D01*
X27825581Y67488248D02*
X27635105Y67488248D01*
X27635105Y67488248D02*
X27539867Y67440629D01*
X27111295Y66821581D02*
X27111295Y67821581D01*
X26682724Y66821581D02*
X26682724Y67345391D01*
X26682724Y67345391D02*
X26730343Y67440629D01*
X26730343Y67440629D02*
X26825581Y67488248D01*
X26825581Y67488248D02*
X26968438Y67488248D01*
X26968438Y67488248D02*
X27063676Y67440629D01*
X27063676Y67440629D02*
X27111295Y67393010D01*
X26063676Y66821581D02*
X26158914Y66869200D01*
X26158914Y66869200D02*
X26206533Y66916820D01*
X26206533Y66916820D02*
X26254152Y67012058D01*
X26254152Y67012058D02*
X26254152Y67297772D01*
X26254152Y67297772D02*
X26206533Y67393010D01*
X26206533Y67393010D02*
X26158914Y67440629D01*
X26158914Y67440629D02*
X26063676Y67488248D01*
X26063676Y67488248D02*
X25920819Y67488248D01*
X25920819Y67488248D02*
X25825581Y67440629D01*
X25825581Y67440629D02*
X25777962Y67393010D01*
X25777962Y67393010D02*
X25730343Y67297772D01*
X25730343Y67297772D02*
X25730343Y67012058D01*
X25730343Y67012058D02*
X25777962Y66916820D01*
X25777962Y66916820D02*
X25825581Y66869200D01*
X25825581Y66869200D02*
X25920819Y66821581D01*
X25920819Y66821581D02*
X26063676Y66821581D01*
X25444628Y67488248D02*
X25063676Y67488248D01*
X25301771Y67821581D02*
X25301771Y66964439D01*
X25301771Y66964439D02*
X25254152Y66869200D01*
X25254152Y66869200D02*
X25158914Y66821581D01*
X25158914Y66821581D02*
X25063676Y66821581D01*
X24873199Y67488248D02*
X24492247Y67488248D01*
X24730342Y67821581D02*
X24730342Y66964439D01*
X24730342Y66964439D02*
X24682723Y66869200D01*
X24682723Y66869200D02*
X24587485Y66821581D01*
X24587485Y66821581D02*
X24492247Y66821581D01*
X24158913Y66821581D02*
X24158913Y67821581D01*
X24063675Y67202534D02*
X23777961Y66821581D01*
X23777961Y67488248D02*
X24158913Y67107296D01*
X23444627Y67488248D02*
X23206532Y66821581D01*
X22968437Y67488248D02*
X23206532Y66821581D01*
X23206532Y66821581D02*
X23301770Y66583486D01*
X23301770Y66583486D02*
X23349389Y66535867D01*
X23349389Y66535867D02*
X23444627Y66488248D01*
X27484294Y62816581D02*
X27484294Y63816581D01*
X27484294Y63816581D02*
X27246199Y63816581D01*
X27246199Y63816581D02*
X27103342Y63768962D01*
X27103342Y63768962D02*
X27008104Y63673724D01*
X27008104Y63673724D02*
X26960485Y63578486D01*
X26960485Y63578486D02*
X26912866Y63388010D01*
X26912866Y63388010D02*
X26912866Y63245153D01*
X26912866Y63245153D02*
X26960485Y63054677D01*
X26960485Y63054677D02*
X27008104Y62959439D01*
X27008104Y62959439D02*
X27103342Y62864200D01*
X27103342Y62864200D02*
X27246199Y62816581D01*
X27246199Y62816581D02*
X27484294Y62816581D01*
X26531913Y63721343D02*
X26484294Y63768962D01*
X26484294Y63768962D02*
X26389056Y63816581D01*
X26389056Y63816581D02*
X26150961Y63816581D01*
X26150961Y63816581D02*
X26055723Y63768962D01*
X26055723Y63768962D02*
X26008104Y63721343D01*
X26008104Y63721343D02*
X25960485Y63626105D01*
X25960485Y63626105D02*
X25960485Y63530867D01*
X25960485Y63530867D02*
X26008104Y63388010D01*
X26008104Y63388010D02*
X26579532Y62816581D01*
X26579532Y62816581D02*
X25960485Y62816581D01*
X29964828Y33184781D02*
X30536256Y33184781D01*
X30250542Y33184781D02*
X30250542Y34184781D01*
X30250542Y34184781D02*
X30345780Y34041924D01*
X30345780Y34041924D02*
X30441018Y33946686D01*
X30441018Y33946686D02*
X30536256Y33899067D01*
X29060066Y34184781D02*
X29536256Y34184781D01*
X29536256Y34184781D02*
X29583875Y33708591D01*
X29583875Y33708591D02*
X29536256Y33756210D01*
X29536256Y33756210D02*
X29441018Y33803829D01*
X29441018Y33803829D02*
X29202923Y33803829D01*
X29202923Y33803829D02*
X29107685Y33756210D01*
X29107685Y33756210D02*
X29060066Y33708591D01*
X29060066Y33708591D02*
X29012447Y33613353D01*
X29012447Y33613353D02*
X29012447Y33375258D01*
X29012447Y33375258D02*
X29060066Y33280020D01*
X29060066Y33280020D02*
X29107685Y33232400D01*
X29107685Y33232400D02*
X29202923Y33184781D01*
X29202923Y33184781D02*
X29441018Y33184781D01*
X29441018Y33184781D02*
X29536256Y33232400D01*
X29536256Y33232400D02*
X29583875Y33280020D01*
X28583875Y33851448D02*
X28583875Y32851448D01*
X28583875Y33803829D02*
X28488637Y33851448D01*
X28488637Y33851448D02*
X28298161Y33851448D01*
X28298161Y33851448D02*
X28202923Y33803829D01*
X28202923Y33803829D02*
X28155304Y33756210D01*
X28155304Y33756210D02*
X28107685Y33660972D01*
X28107685Y33660972D02*
X28107685Y33375258D01*
X28107685Y33375258D02*
X28155304Y33280020D01*
X28155304Y33280020D02*
X28202923Y33232400D01*
X28202923Y33232400D02*
X28298161Y33184781D01*
X28298161Y33184781D02*
X28488637Y33184781D01*
X28488637Y33184781D02*
X28583875Y33232400D01*
X27345780Y33708591D02*
X27679113Y33708591D01*
X27679113Y33184781D02*
X27679113Y34184781D01*
X27679113Y34184781D02*
X27202923Y34184781D01*
D12*
X28960066Y34925768D02*
X28979114Y34906720D01*
X28979114Y34906720D02*
X29036256Y34887673D01*
X29036256Y34887673D02*
X29074352Y34887673D01*
X29074352Y34887673D02*
X29131495Y34906720D01*
X29131495Y34906720D02*
X29169590Y34944816D01*
X29169590Y34944816D02*
X29188637Y34982911D01*
X29188637Y34982911D02*
X29207685Y35059101D01*
X29207685Y35059101D02*
X29207685Y35116244D01*
X29207685Y35116244D02*
X29188637Y35192435D01*
X29188637Y35192435D02*
X29169590Y35230530D01*
X29169590Y35230530D02*
X29131495Y35268625D01*
X29131495Y35268625D02*
X29074352Y35287673D01*
X29074352Y35287673D02*
X29036256Y35287673D01*
X29036256Y35287673D02*
X28979114Y35268625D01*
X28979114Y35268625D02*
X28960066Y35249578D01*
X28579114Y34887673D02*
X28807685Y34887673D01*
X28693399Y34887673D02*
X28693399Y35287673D01*
X28693399Y35287673D02*
X28731495Y35230530D01*
X28731495Y35230530D02*
X28769590Y35192435D01*
X28769590Y35192435D02*
X28807685Y35173387D01*
D11*
X15376152Y47473572D02*
X16042819Y47473572D01*
X14995200Y47711667D02*
X15709485Y47949762D01*
X15709485Y47949762D02*
X15709485Y47330715D01*
X15947580Y46949762D02*
X15995200Y46902143D01*
X15995200Y46902143D02*
X16042819Y46949762D01*
X16042819Y46949762D02*
X15995200Y46997381D01*
X15995200Y46997381D02*
X15947580Y46949762D01*
X15947580Y46949762D02*
X16042819Y46949762D01*
X15042819Y46568810D02*
X15042819Y45902144D01*
X15042819Y45902144D02*
X16042819Y46330715D01*
X16042819Y45521191D02*
X15042819Y45521191D01*
X15661866Y45425953D02*
X16042819Y45140239D01*
X15376152Y45140239D02*
X15757104Y45521191D01*
D12*
X17199927Y46802143D02*
X17009451Y46935476D01*
X17199927Y47030714D02*
X16799927Y47030714D01*
X16799927Y47030714D02*
X16799927Y46878333D01*
X16799927Y46878333D02*
X16818975Y46840238D01*
X16818975Y46840238D02*
X16838022Y46821191D01*
X16838022Y46821191D02*
X16876118Y46802143D01*
X16876118Y46802143D02*
X16933260Y46802143D01*
X16933260Y46802143D02*
X16971356Y46821191D01*
X16971356Y46821191D02*
X16990403Y46840238D01*
X16990403Y46840238D02*
X17009451Y46878333D01*
X17009451Y46878333D02*
X17009451Y47030714D01*
X17199927Y46421191D02*
X17199927Y46649762D01*
X17199927Y46535476D02*
X16799927Y46535476D01*
X16799927Y46535476D02*
X16857070Y46573572D01*
X16857070Y46573572D02*
X16895165Y46611667D01*
X16895165Y46611667D02*
X16914213Y46649762D01*
X16799927Y46287858D02*
X16799927Y46040239D01*
X16799927Y46040239D02*
X16952308Y46173572D01*
X16952308Y46173572D02*
X16952308Y46116429D01*
X16952308Y46116429D02*
X16971356Y46078334D01*
X16971356Y46078334D02*
X16990403Y46059286D01*
X16990403Y46059286D02*
X17028499Y46040239D01*
X17028499Y46040239D02*
X17123737Y46040239D01*
X17123737Y46040239D02*
X17161832Y46059286D01*
X17161832Y46059286D02*
X17180880Y46078334D01*
X17180880Y46078334D02*
X17199927Y46116429D01*
X17199927Y46116429D02*
X17199927Y46230715D01*
X17199927Y46230715D02*
X17180880Y46268810D01*
X17180880Y46268810D02*
X17161832Y46287858D01*
D11*
X21215019Y42130457D02*
X21215019Y42035219D01*
X21215019Y42035219D02*
X21262638Y41939981D01*
X21262638Y41939981D02*
X21310257Y41892362D01*
X21310257Y41892362D02*
X21405495Y41844743D01*
X21405495Y41844743D02*
X21595971Y41797124D01*
X21595971Y41797124D02*
X21834066Y41797124D01*
X21834066Y41797124D02*
X22024542Y41844743D01*
X22024542Y41844743D02*
X22119780Y41892362D01*
X22119780Y41892362D02*
X22167400Y41939981D01*
X22167400Y41939981D02*
X22215019Y42035219D01*
X22215019Y42035219D02*
X22215019Y42130457D01*
X22215019Y42130457D02*
X22167400Y42225695D01*
X22167400Y42225695D02*
X22119780Y42273314D01*
X22119780Y42273314D02*
X22024542Y42320933D01*
X22024542Y42320933D02*
X21834066Y42368552D01*
X21834066Y42368552D02*
X21595971Y42368552D01*
X21595971Y42368552D02*
X21405495Y42320933D01*
X21405495Y42320933D02*
X21310257Y42273314D01*
X21310257Y42273314D02*
X21262638Y42225695D01*
X21262638Y42225695D02*
X21215019Y42130457D01*
X22119780Y41368552D02*
X22167400Y41320933D01*
X22167400Y41320933D02*
X22215019Y41368552D01*
X22215019Y41368552D02*
X22167400Y41416171D01*
X22167400Y41416171D02*
X22119780Y41368552D01*
X22119780Y41368552D02*
X22215019Y41368552D01*
X22215019Y40368553D02*
X22215019Y40939981D01*
X22215019Y40654267D02*
X21215019Y40654267D01*
X21215019Y40654267D02*
X21357876Y40749505D01*
X21357876Y40749505D02*
X21453114Y40844743D01*
X21453114Y40844743D02*
X21500733Y40939981D01*
X21548352Y39511410D02*
X22215019Y39511410D01*
X21548352Y39939981D02*
X22072161Y39939981D01*
X22072161Y39939981D02*
X22167400Y39892362D01*
X22167400Y39892362D02*
X22215019Y39797124D01*
X22215019Y39797124D02*
X22215019Y39654267D01*
X22215019Y39654267D02*
X22167400Y39559029D01*
X22167400Y39559029D02*
X22119780Y39511410D01*
X21691209Y38701886D02*
X21691209Y39035219D01*
X22215019Y39035219D02*
X21215019Y39035219D01*
X21215019Y39035219D02*
X21215019Y38559029D01*
D12*
X23334032Y40554267D02*
X23353080Y40573315D01*
X23353080Y40573315D02*
X23372127Y40630457D01*
X23372127Y40630457D02*
X23372127Y40668553D01*
X23372127Y40668553D02*
X23353080Y40725696D01*
X23353080Y40725696D02*
X23314984Y40763791D01*
X23314984Y40763791D02*
X23276889Y40782838D01*
X23276889Y40782838D02*
X23200699Y40801886D01*
X23200699Y40801886D02*
X23143556Y40801886D01*
X23143556Y40801886D02*
X23067365Y40782838D01*
X23067365Y40782838D02*
X23029270Y40763791D01*
X23029270Y40763791D02*
X22991175Y40725696D01*
X22991175Y40725696D02*
X22972127Y40668553D01*
X22972127Y40668553D02*
X22972127Y40630457D01*
X22972127Y40630457D02*
X22991175Y40573315D01*
X22991175Y40573315D02*
X23010222Y40554267D01*
X22972127Y40211410D02*
X22972127Y40287600D01*
X22972127Y40287600D02*
X22991175Y40325696D01*
X22991175Y40325696D02*
X23010222Y40344743D01*
X23010222Y40344743D02*
X23067365Y40382838D01*
X23067365Y40382838D02*
X23143556Y40401886D01*
X23143556Y40401886D02*
X23295937Y40401886D01*
X23295937Y40401886D02*
X23334032Y40382838D01*
X23334032Y40382838D02*
X23353080Y40363791D01*
X23353080Y40363791D02*
X23372127Y40325696D01*
X23372127Y40325696D02*
X23372127Y40249505D01*
X23372127Y40249505D02*
X23353080Y40211410D01*
X23353080Y40211410D02*
X23334032Y40192362D01*
X23334032Y40192362D02*
X23295937Y40173315D01*
X23295937Y40173315D02*
X23200699Y40173315D01*
X23200699Y40173315D02*
X23162603Y40192362D01*
X23162603Y40192362D02*
X23143556Y40211410D01*
X23143556Y40211410D02*
X23124508Y40249505D01*
X23124508Y40249505D02*
X23124508Y40325696D01*
X23124508Y40325696D02*
X23143556Y40363791D01*
X23143556Y40363791D02*
X23162603Y40382838D01*
X23162603Y40382838D02*
X23200699Y40401886D01*
D11*
X15890419Y66559039D02*
X15890419Y67130467D01*
X15890419Y66844753D02*
X14890419Y66844753D01*
X14890419Y66844753D02*
X15033276Y66939991D01*
X15033276Y66939991D02*
X15128514Y67035229D01*
X15128514Y67035229D02*
X15176133Y67130467D01*
X15223752Y65701896D02*
X15890419Y65701896D01*
X15223752Y66130467D02*
X15747561Y66130467D01*
X15747561Y66130467D02*
X15842800Y66082848D01*
X15842800Y66082848D02*
X15890419Y65987610D01*
X15890419Y65987610D02*
X15890419Y65844753D01*
X15890419Y65844753D02*
X15842800Y65749515D01*
X15842800Y65749515D02*
X15795180Y65701896D01*
X15366609Y64892372D02*
X15366609Y65225705D01*
X15890419Y65225705D02*
X14890419Y65225705D01*
X14890419Y65225705D02*
X14890419Y64749515D01*
D12*
X17009432Y66220943D02*
X17028480Y66239991D01*
X17028480Y66239991D02*
X17047527Y66297133D01*
X17047527Y66297133D02*
X17047527Y66335229D01*
X17047527Y66335229D02*
X17028480Y66392372D01*
X17028480Y66392372D02*
X16990384Y66430467D01*
X16990384Y66430467D02*
X16952289Y66449514D01*
X16952289Y66449514D02*
X16876099Y66468562D01*
X16876099Y66468562D02*
X16818956Y66468562D01*
X16818956Y66468562D02*
X16742765Y66449514D01*
X16742765Y66449514D02*
X16704670Y66430467D01*
X16704670Y66430467D02*
X16666575Y66392372D01*
X16666575Y66392372D02*
X16647527Y66335229D01*
X16647527Y66335229D02*
X16647527Y66297133D01*
X16647527Y66297133D02*
X16666575Y66239991D01*
X16666575Y66239991D02*
X16685622Y66220943D01*
X17047527Y65839991D02*
X17047527Y66068562D01*
X17047527Y65954276D02*
X16647527Y65954276D01*
X16647527Y65954276D02*
X16704670Y65992372D01*
X16704670Y65992372D02*
X16742765Y66030467D01*
X16742765Y66030467D02*
X16761813Y66068562D01*
X16780860Y65497134D02*
X17047527Y65497134D01*
X16628480Y65592372D02*
X16914194Y65687610D01*
X16914194Y65687610D02*
X16914194Y65439991D01*
D11*
X25340057Y61611905D02*
X25292438Y61564286D01*
X25292438Y61564286D02*
X25244819Y61469048D01*
X25244819Y61469048D02*
X25244819Y61230953D01*
X25244819Y61230953D02*
X25292438Y61135715D01*
X25292438Y61135715D02*
X25340057Y61088096D01*
X25340057Y61088096D02*
X25435295Y61040477D01*
X25435295Y61040477D02*
X25530533Y61040477D01*
X25530533Y61040477D02*
X25673390Y61088096D01*
X25673390Y61088096D02*
X26244819Y61659524D01*
X26244819Y61659524D02*
X26244819Y61040477D01*
X25244819Y60707143D02*
X25244819Y60040477D01*
X25244819Y60040477D02*
X26244819Y60469048D01*
X26244819Y59088096D02*
X25768628Y59421429D01*
X26244819Y59659524D02*
X25244819Y59659524D01*
X25244819Y59659524D02*
X25244819Y59278572D01*
X25244819Y59278572D02*
X25292438Y59183334D01*
X25292438Y59183334D02*
X25340057Y59135715D01*
X25340057Y59135715D02*
X25435295Y59088096D01*
X25435295Y59088096D02*
X25578152Y59088096D01*
X25578152Y59088096D02*
X25673390Y59135715D01*
X25673390Y59135715D02*
X25721009Y59183334D01*
X25721009Y59183334D02*
X25768628Y59278572D01*
X25768628Y59278572D02*
X25768628Y59659524D01*
D12*
X27401927Y60416667D02*
X27211451Y60550000D01*
X27401927Y60645238D02*
X27001927Y60645238D01*
X27001927Y60645238D02*
X27001927Y60492857D01*
X27001927Y60492857D02*
X27020975Y60454762D01*
X27020975Y60454762D02*
X27040022Y60435715D01*
X27040022Y60435715D02*
X27078118Y60416667D01*
X27078118Y60416667D02*
X27135260Y60416667D01*
X27135260Y60416667D02*
X27173356Y60435715D01*
X27173356Y60435715D02*
X27192403Y60454762D01*
X27192403Y60454762D02*
X27211451Y60492857D01*
X27211451Y60492857D02*
X27211451Y60645238D01*
X27135260Y60073810D02*
X27401927Y60073810D01*
X26982880Y60169048D02*
X27268594Y60264286D01*
X27268594Y60264286D02*
X27268594Y60016667D01*
D11*
X20781876Y47228581D02*
X21353304Y47228581D01*
X21067590Y47228581D02*
X21067590Y48228581D01*
X21067590Y48228581D02*
X21162828Y48085724D01*
X21162828Y48085724D02*
X21258066Y47990486D01*
X21258066Y47990486D02*
X21353304Y47942867D01*
X20162828Y48228581D02*
X20067590Y48228581D01*
X20067590Y48228581D02*
X19972352Y48180962D01*
X19972352Y48180962D02*
X19924733Y48133343D01*
X19924733Y48133343D02*
X19877114Y48038105D01*
X19877114Y48038105D02*
X19829495Y47847629D01*
X19829495Y47847629D02*
X19829495Y47609534D01*
X19829495Y47609534D02*
X19877114Y47419058D01*
X19877114Y47419058D02*
X19924733Y47323820D01*
X19924733Y47323820D02*
X19972352Y47276200D01*
X19972352Y47276200D02*
X20067590Y47228581D01*
X20067590Y47228581D02*
X20162828Y47228581D01*
X20162828Y47228581D02*
X20258066Y47276200D01*
X20258066Y47276200D02*
X20305685Y47323820D01*
X20305685Y47323820D02*
X20353304Y47419058D01*
X20353304Y47419058D02*
X20400923Y47609534D01*
X20400923Y47609534D02*
X20400923Y47847629D01*
X20400923Y47847629D02*
X20353304Y48038105D01*
X20353304Y48038105D02*
X20305685Y48133343D01*
X20305685Y48133343D02*
X20258066Y48180962D01*
X20258066Y48180962D02*
X20162828Y48228581D01*
X18829495Y47228581D02*
X19162828Y47704772D01*
X19400923Y47228581D02*
X19400923Y48228581D01*
X19400923Y48228581D02*
X19019971Y48228581D01*
X19019971Y48228581D02*
X18924733Y48180962D01*
X18924733Y48180962D02*
X18877114Y48133343D01*
X18877114Y48133343D02*
X18829495Y48038105D01*
X18829495Y48038105D02*
X18829495Y47895248D01*
X18829495Y47895248D02*
X18877114Y47800010D01*
X18877114Y47800010D02*
X18924733Y47752391D01*
X18924733Y47752391D02*
X19019971Y47704772D01*
X19019971Y47704772D02*
X19400923Y47704772D01*
D12*
X20158066Y46071473D02*
X20291399Y46261949D01*
X20386637Y46071473D02*
X20386637Y46471473D01*
X20386637Y46471473D02*
X20234256Y46471473D01*
X20234256Y46471473D02*
X20196161Y46452425D01*
X20196161Y46452425D02*
X20177114Y46433378D01*
X20177114Y46433378D02*
X20158066Y46395282D01*
X20158066Y46395282D02*
X20158066Y46338140D01*
X20158066Y46338140D02*
X20177114Y46300044D01*
X20177114Y46300044D02*
X20196161Y46280997D01*
X20196161Y46280997D02*
X20234256Y46261949D01*
X20234256Y46261949D02*
X20386637Y46261949D01*
X19967590Y46071473D02*
X19891399Y46071473D01*
X19891399Y46071473D02*
X19853304Y46090520D01*
X19853304Y46090520D02*
X19834256Y46109568D01*
X19834256Y46109568D02*
X19796161Y46166711D01*
X19796161Y46166711D02*
X19777114Y46242901D01*
X19777114Y46242901D02*
X19777114Y46395282D01*
X19777114Y46395282D02*
X19796161Y46433378D01*
X19796161Y46433378D02*
X19815209Y46452425D01*
X19815209Y46452425D02*
X19853304Y46471473D01*
X19853304Y46471473D02*
X19929495Y46471473D01*
X19929495Y46471473D02*
X19967590Y46452425D01*
X19967590Y46452425D02*
X19986637Y46433378D01*
X19986637Y46433378D02*
X20005685Y46395282D01*
X20005685Y46395282D02*
X20005685Y46300044D01*
X20005685Y46300044D02*
X19986637Y46261949D01*
X19986637Y46261949D02*
X19967590Y46242901D01*
X19967590Y46242901D02*
X19929495Y46223854D01*
X19929495Y46223854D02*
X19853304Y46223854D01*
X19853304Y46223854D02*
X19815209Y46242901D01*
X19815209Y46242901D02*
X19796161Y46261949D01*
X19796161Y46261949D02*
X19777114Y46300044D01*
D11*
X22621419Y64857239D02*
X22621419Y65428667D01*
X22621419Y65142953D02*
X21621419Y65142953D01*
X21621419Y65142953D02*
X21764276Y65238191D01*
X21764276Y65238191D02*
X21859514Y65333429D01*
X21859514Y65333429D02*
X21907133Y65428667D01*
X21954752Y64000096D02*
X22621419Y64000096D01*
X21954752Y64428667D02*
X22478561Y64428667D01*
X22478561Y64428667D02*
X22573800Y64381048D01*
X22573800Y64381048D02*
X22621419Y64285810D01*
X22621419Y64285810D02*
X22621419Y64142953D01*
X22621419Y64142953D02*
X22573800Y64047715D01*
X22573800Y64047715D02*
X22526180Y64000096D01*
X22097609Y63190572D02*
X22097609Y63523905D01*
X22621419Y63523905D02*
X21621419Y63523905D01*
X21621419Y63523905D02*
X21621419Y63047715D01*
D12*
X23740432Y64519143D02*
X23759480Y64538191D01*
X23759480Y64538191D02*
X23778527Y64595333D01*
X23778527Y64595333D02*
X23778527Y64633429D01*
X23778527Y64633429D02*
X23759480Y64690572D01*
X23759480Y64690572D02*
X23721384Y64728667D01*
X23721384Y64728667D02*
X23683289Y64747714D01*
X23683289Y64747714D02*
X23607099Y64766762D01*
X23607099Y64766762D02*
X23549956Y64766762D01*
X23549956Y64766762D02*
X23473765Y64747714D01*
X23473765Y64747714D02*
X23435670Y64728667D01*
X23435670Y64728667D02*
X23397575Y64690572D01*
X23397575Y64690572D02*
X23378527Y64633429D01*
X23378527Y64633429D02*
X23378527Y64595333D01*
X23378527Y64595333D02*
X23397575Y64538191D01*
X23397575Y64538191D02*
X23416622Y64519143D01*
X23778527Y64138191D02*
X23778527Y64366762D01*
X23778527Y64252476D02*
X23378527Y64252476D01*
X23378527Y64252476D02*
X23435670Y64290572D01*
X23435670Y64290572D02*
X23473765Y64328667D01*
X23473765Y64328667D02*
X23492813Y64366762D01*
X23378527Y64004858D02*
X23378527Y63757239D01*
X23378527Y63757239D02*
X23530908Y63890572D01*
X23530908Y63890572D02*
X23530908Y63833429D01*
X23530908Y63833429D02*
X23549956Y63795334D01*
X23549956Y63795334D02*
X23569003Y63776286D01*
X23569003Y63776286D02*
X23607099Y63757239D01*
X23607099Y63757239D02*
X23702337Y63757239D01*
X23702337Y63757239D02*
X23740432Y63776286D01*
X23740432Y63776286D02*
X23759480Y63795334D01*
X23759480Y63795334D02*
X23778527Y63833429D01*
X23778527Y63833429D02*
X23778527Y63947715D01*
X23778527Y63947715D02*
X23759480Y63985810D01*
X23759480Y63985810D02*
X23740432Y64004858D01*
D11*
X44534819Y51252857D02*
X44534819Y51157619D01*
X44534819Y51157619D02*
X44582438Y51062381D01*
X44582438Y51062381D02*
X44630057Y51014762D01*
X44630057Y51014762D02*
X44725295Y50967143D01*
X44725295Y50967143D02*
X44915771Y50919524D01*
X44915771Y50919524D02*
X45153866Y50919524D01*
X45153866Y50919524D02*
X45344342Y50967143D01*
X45344342Y50967143D02*
X45439580Y51014762D01*
X45439580Y51014762D02*
X45487200Y51062381D01*
X45487200Y51062381D02*
X45534819Y51157619D01*
X45534819Y51157619D02*
X45534819Y51252857D01*
X45534819Y51252857D02*
X45487200Y51348095D01*
X45487200Y51348095D02*
X45439580Y51395714D01*
X45439580Y51395714D02*
X45344342Y51443333D01*
X45344342Y51443333D02*
X45153866Y51490952D01*
X45153866Y51490952D02*
X44915771Y51490952D01*
X44915771Y51490952D02*
X44725295Y51443333D01*
X44725295Y51443333D02*
X44630057Y51395714D01*
X44630057Y51395714D02*
X44582438Y51348095D01*
X44582438Y51348095D02*
X44534819Y51252857D01*
X45439580Y50490952D02*
X45487200Y50443333D01*
X45487200Y50443333D02*
X45534819Y50490952D01*
X45534819Y50490952D02*
X45487200Y50538571D01*
X45487200Y50538571D02*
X45439580Y50490952D01*
X45439580Y50490952D02*
X45534819Y50490952D01*
X45534819Y49490953D02*
X45534819Y50062381D01*
X45534819Y49776667D02*
X44534819Y49776667D01*
X44534819Y49776667D02*
X44677676Y49871905D01*
X44677676Y49871905D02*
X44772914Y49967143D01*
X44772914Y49967143D02*
X44820533Y50062381D01*
X44868152Y48633810D02*
X45534819Y48633810D01*
X44868152Y49062381D02*
X45391961Y49062381D01*
X45391961Y49062381D02*
X45487200Y49014762D01*
X45487200Y49014762D02*
X45534819Y48919524D01*
X45534819Y48919524D02*
X45534819Y48776667D01*
X45534819Y48776667D02*
X45487200Y48681429D01*
X45487200Y48681429D02*
X45439580Y48633810D01*
X45011009Y47824286D02*
X45011009Y48157619D01*
X45534819Y48157619D02*
X44534819Y48157619D01*
X44534819Y48157619D02*
X44534819Y47681429D01*
D12*
X46653832Y49867143D02*
X46672880Y49886191D01*
X46672880Y49886191D02*
X46691927Y49943333D01*
X46691927Y49943333D02*
X46691927Y49981429D01*
X46691927Y49981429D02*
X46672880Y50038572D01*
X46672880Y50038572D02*
X46634784Y50076667D01*
X46634784Y50076667D02*
X46596689Y50095714D01*
X46596689Y50095714D02*
X46520499Y50114762D01*
X46520499Y50114762D02*
X46463356Y50114762D01*
X46463356Y50114762D02*
X46387165Y50095714D01*
X46387165Y50095714D02*
X46349070Y50076667D01*
X46349070Y50076667D02*
X46310975Y50038572D01*
X46310975Y50038572D02*
X46291927Y49981429D01*
X46291927Y49981429D02*
X46291927Y49943333D01*
X46291927Y49943333D02*
X46310975Y49886191D01*
X46310975Y49886191D02*
X46330022Y49867143D01*
X46691927Y49486191D02*
X46691927Y49714762D01*
X46691927Y49600476D02*
X46291927Y49600476D01*
X46291927Y49600476D02*
X46349070Y49638572D01*
X46349070Y49638572D02*
X46387165Y49676667D01*
X46387165Y49676667D02*
X46406213Y49714762D01*
X46330022Y49333810D02*
X46310975Y49314762D01*
X46310975Y49314762D02*
X46291927Y49276667D01*
X46291927Y49276667D02*
X46291927Y49181429D01*
X46291927Y49181429D02*
X46310975Y49143334D01*
X46310975Y49143334D02*
X46330022Y49124286D01*
X46330022Y49124286D02*
X46368118Y49105239D01*
X46368118Y49105239D02*
X46406213Y49105239D01*
X46406213Y49105239D02*
X46463356Y49124286D01*
X46463356Y49124286D02*
X46691927Y49352858D01*
X46691927Y49352858D02*
X46691927Y49105239D01*
D11*
X849560Y53713214D02*
X897179Y53570357D01*
X897179Y53570357D02*
X897179Y53332262D01*
X897179Y53332262D02*
X849560Y53237024D01*
X849560Y53237024D02*
X801940Y53189405D01*
X801940Y53189405D02*
X706702Y53141786D01*
X706702Y53141786D02*
X611464Y53141786D01*
X611464Y53141786D02*
X516226Y53189405D01*
X516226Y53189405D02*
X468607Y53237024D01*
X468607Y53237024D02*
X420988Y53332262D01*
X420988Y53332262D02*
X373369Y53522738D01*
X373369Y53522738D02*
X325750Y53617976D01*
X325750Y53617976D02*
X278131Y53665595D01*
X278131Y53665595D02*
X182893Y53713214D01*
X182893Y53713214D02*
X87655Y53713214D01*
X87655Y53713214D02*
X-7583Y53665595D01*
X-7583Y53665595D02*
X-55202Y53617976D01*
X-55202Y53617976D02*
X-102821Y53522738D01*
X-102821Y53522738D02*
X-102821Y53284643D01*
X-102821Y53284643D02*
X-55202Y53141786D01*
X897179Y52713214D02*
X-102821Y52713214D01*
X897179Y52141786D02*
X325750Y52570357D01*
X-102821Y52141786D02*
X468607Y52713214D01*
X-102821Y51284643D02*
X-102821Y51475119D01*
X-102821Y51475119D02*
X-55202Y51570357D01*
X-55202Y51570357D02*
X-7583Y51617976D01*
X-7583Y51617976D02*
X135274Y51713214D01*
X135274Y51713214D02*
X325750Y51760833D01*
X325750Y51760833D02*
X706702Y51760833D01*
X706702Y51760833D02*
X801940Y51713214D01*
X801940Y51713214D02*
X849560Y51665595D01*
X849560Y51665595D02*
X897179Y51570357D01*
X897179Y51570357D02*
X897179Y51379881D01*
X897179Y51379881D02*
X849560Y51284643D01*
X849560Y51284643D02*
X801940Y51237024D01*
X801940Y51237024D02*
X706702Y51189405D01*
X706702Y51189405D02*
X468607Y51189405D01*
X468607Y51189405D02*
X373369Y51237024D01*
X373369Y51237024D02*
X325750Y51284643D01*
X325750Y51284643D02*
X278131Y51379881D01*
X278131Y51379881D02*
X278131Y51570357D01*
X278131Y51570357D02*
X325750Y51665595D01*
X325750Y51665595D02*
X373369Y51713214D01*
X373369Y51713214D02*
X468607Y51760833D01*
X325750Y50617976D02*
X278131Y50713214D01*
X278131Y50713214D02*
X230512Y50760833D01*
X230512Y50760833D02*
X135274Y50808452D01*
X135274Y50808452D02*
X87655Y50808452D01*
X87655Y50808452D02*
X-7583Y50760833D01*
X-7583Y50760833D02*
X-55202Y50713214D01*
X-55202Y50713214D02*
X-102821Y50617976D01*
X-102821Y50617976D02*
X-102821Y50427500D01*
X-102821Y50427500D02*
X-55202Y50332262D01*
X-55202Y50332262D02*
X-7583Y50284643D01*
X-7583Y50284643D02*
X87655Y50237024D01*
X87655Y50237024D02*
X135274Y50237024D01*
X135274Y50237024D02*
X230512Y50284643D01*
X230512Y50284643D02*
X278131Y50332262D01*
X278131Y50332262D02*
X325750Y50427500D01*
X325750Y50427500D02*
X325750Y50617976D01*
X325750Y50617976D02*
X373369Y50713214D01*
X373369Y50713214D02*
X420988Y50760833D01*
X420988Y50760833D02*
X516226Y50808452D01*
X516226Y50808452D02*
X706702Y50808452D01*
X706702Y50808452D02*
X801940Y50760833D01*
X801940Y50760833D02*
X849560Y50713214D01*
X849560Y50713214D02*
X897179Y50617976D01*
X897179Y50617976D02*
X897179Y50427500D01*
X897179Y50427500D02*
X849560Y50332262D01*
X849560Y50332262D02*
X801940Y50284643D01*
X801940Y50284643D02*
X706702Y50237024D01*
X706702Y50237024D02*
X516226Y50237024D01*
X516226Y50237024D02*
X420988Y50284643D01*
X420988Y50284643D02*
X373369Y50332262D01*
X373369Y50332262D02*
X325750Y50427500D01*
X897179Y49284643D02*
X897179Y49856071D01*
X897179Y49570357D02*
X-102821Y49570357D01*
X-102821Y49570357D02*
X40036Y49665595D01*
X40036Y49665595D02*
X135274Y49760833D01*
X135274Y49760833D02*
X182893Y49856071D01*
X-7583Y48903690D02*
X-55202Y48856071D01*
X-55202Y48856071D02*
X-102821Y48760833D01*
X-102821Y48760833D02*
X-102821Y48522738D01*
X-102821Y48522738D02*
X-55202Y48427500D01*
X-55202Y48427500D02*
X-7583Y48379881D01*
X-7583Y48379881D02*
X87655Y48332262D01*
X87655Y48332262D02*
X182893Y48332262D01*
X182893Y48332262D02*
X325750Y48379881D01*
X325750Y48379881D02*
X897179Y48951309D01*
X897179Y48951309D02*
X897179Y48332262D01*
X23739019Y41082839D02*
X23739019Y41654267D01*
X23739019Y41368553D02*
X22739019Y41368553D01*
X22739019Y41368553D02*
X22881876Y41463791D01*
X22881876Y41463791D02*
X22977114Y41559029D01*
X22977114Y41559029D02*
X23024733Y41654267D01*
X23072352Y40225696D02*
X23739019Y40225696D01*
X23072352Y40654267D02*
X23596161Y40654267D01*
X23596161Y40654267D02*
X23691400Y40606648D01*
X23691400Y40606648D02*
X23739019Y40511410D01*
X23739019Y40511410D02*
X23739019Y40368553D01*
X23739019Y40368553D02*
X23691400Y40273315D01*
X23691400Y40273315D02*
X23643780Y40225696D01*
X23215209Y39416172D02*
X23215209Y39749505D01*
X23739019Y39749505D02*
X22739019Y39749505D01*
X22739019Y39749505D02*
X22739019Y39273315D01*
D12*
X24858032Y40554267D02*
X24877080Y40573315D01*
X24877080Y40573315D02*
X24896127Y40630457D01*
X24896127Y40630457D02*
X24896127Y40668553D01*
X24896127Y40668553D02*
X24877080Y40725696D01*
X24877080Y40725696D02*
X24838984Y40763791D01*
X24838984Y40763791D02*
X24800889Y40782838D01*
X24800889Y40782838D02*
X24724699Y40801886D01*
X24724699Y40801886D02*
X24667556Y40801886D01*
X24667556Y40801886D02*
X24591365Y40782838D01*
X24591365Y40782838D02*
X24553270Y40763791D01*
X24553270Y40763791D02*
X24515175Y40725696D01*
X24515175Y40725696D02*
X24496127Y40668553D01*
X24496127Y40668553D02*
X24496127Y40630457D01*
X24496127Y40630457D02*
X24515175Y40573315D01*
X24515175Y40573315D02*
X24534222Y40554267D01*
X24629460Y40211410D02*
X24896127Y40211410D01*
X24477080Y40306648D02*
X24762794Y40401886D01*
X24762794Y40401886D02*
X24762794Y40154267D01*
D11*
X849560Y28718176D02*
X897179Y28575319D01*
X897179Y28575319D02*
X897179Y28337224D01*
X897179Y28337224D02*
X849560Y28241986D01*
X849560Y28241986D02*
X801940Y28194367D01*
X801940Y28194367D02*
X706702Y28146748D01*
X706702Y28146748D02*
X611464Y28146748D01*
X611464Y28146748D02*
X516226Y28194367D01*
X516226Y28194367D02*
X468607Y28241986D01*
X468607Y28241986D02*
X420988Y28337224D01*
X420988Y28337224D02*
X373369Y28527700D01*
X373369Y28527700D02*
X325750Y28622938D01*
X325750Y28622938D02*
X278131Y28670557D01*
X278131Y28670557D02*
X182893Y28718176D01*
X182893Y28718176D02*
X87655Y28718176D01*
X87655Y28718176D02*
X-7583Y28670557D01*
X-7583Y28670557D02*
X-55202Y28622938D01*
X-55202Y28622938D02*
X-102821Y28527700D01*
X-102821Y28527700D02*
X-102821Y28289605D01*
X-102821Y28289605D02*
X-55202Y28146748D01*
X897179Y27718176D02*
X-102821Y27718176D01*
X897179Y27146748D02*
X325750Y27575319D01*
X-102821Y27146748D02*
X468607Y27718176D01*
X-102821Y26289605D02*
X-102821Y26480081D01*
X-102821Y26480081D02*
X-55202Y26575319D01*
X-55202Y26575319D02*
X-7583Y26622938D01*
X-7583Y26622938D02*
X135274Y26718176D01*
X135274Y26718176D02*
X325750Y26765795D01*
X325750Y26765795D02*
X706702Y26765795D01*
X706702Y26765795D02*
X801940Y26718176D01*
X801940Y26718176D02*
X849560Y26670557D01*
X849560Y26670557D02*
X897179Y26575319D01*
X897179Y26575319D02*
X897179Y26384843D01*
X897179Y26384843D02*
X849560Y26289605D01*
X849560Y26289605D02*
X801940Y26241986D01*
X801940Y26241986D02*
X706702Y26194367D01*
X706702Y26194367D02*
X468607Y26194367D01*
X468607Y26194367D02*
X373369Y26241986D01*
X373369Y26241986D02*
X325750Y26289605D01*
X325750Y26289605D02*
X278131Y26384843D01*
X278131Y26384843D02*
X278131Y26575319D01*
X278131Y26575319D02*
X325750Y26670557D01*
X325750Y26670557D02*
X373369Y26718176D01*
X373369Y26718176D02*
X468607Y26765795D01*
X325750Y25622938D02*
X278131Y25718176D01*
X278131Y25718176D02*
X230512Y25765795D01*
X230512Y25765795D02*
X135274Y25813414D01*
X135274Y25813414D02*
X87655Y25813414D01*
X87655Y25813414D02*
X-7583Y25765795D01*
X-7583Y25765795D02*
X-55202Y25718176D01*
X-55202Y25718176D02*
X-102821Y25622938D01*
X-102821Y25622938D02*
X-102821Y25432462D01*
X-102821Y25432462D02*
X-55202Y25337224D01*
X-55202Y25337224D02*
X-7583Y25289605D01*
X-7583Y25289605D02*
X87655Y25241986D01*
X87655Y25241986D02*
X135274Y25241986D01*
X135274Y25241986D02*
X230512Y25289605D01*
X230512Y25289605D02*
X278131Y25337224D01*
X278131Y25337224D02*
X325750Y25432462D01*
X325750Y25432462D02*
X325750Y25622938D01*
X325750Y25622938D02*
X373369Y25718176D01*
X373369Y25718176D02*
X420988Y25765795D01*
X420988Y25765795D02*
X516226Y25813414D01*
X516226Y25813414D02*
X706702Y25813414D01*
X706702Y25813414D02*
X801940Y25765795D01*
X801940Y25765795D02*
X849560Y25718176D01*
X849560Y25718176D02*
X897179Y25622938D01*
X897179Y25622938D02*
X897179Y25432462D01*
X897179Y25432462D02*
X849560Y25337224D01*
X849560Y25337224D02*
X801940Y25289605D01*
X801940Y25289605D02*
X706702Y25241986D01*
X706702Y25241986D02*
X516226Y25241986D01*
X516226Y25241986D02*
X420988Y25289605D01*
X420988Y25289605D02*
X373369Y25337224D01*
X373369Y25337224D02*
X325750Y25432462D01*
X897179Y24289605D02*
X897179Y24861033D01*
X897179Y24575319D02*
X-102821Y24575319D01*
X-102821Y24575319D02*
X40036Y24670557D01*
X40036Y24670557D02*
X135274Y24765795D01*
X135274Y24765795D02*
X182893Y24861033D01*
X-7583Y23908652D02*
X-55202Y23861033D01*
X-55202Y23861033D02*
X-102821Y23765795D01*
X-102821Y23765795D02*
X-102821Y23527700D01*
X-102821Y23527700D02*
X-55202Y23432462D01*
X-55202Y23432462D02*
X-7583Y23384843D01*
X-7583Y23384843D02*
X87655Y23337224D01*
X87655Y23337224D02*
X182893Y23337224D01*
X182893Y23337224D02*
X325750Y23384843D01*
X325750Y23384843D02*
X897179Y23956271D01*
X897179Y23956271D02*
X897179Y23337224D01*
X27420871Y63119181D02*
X27420871Y64119181D01*
X27420871Y64119181D02*
X26849443Y63119181D01*
X26849443Y63119181D02*
X26849443Y64119181D01*
X25801824Y63214420D02*
X25849443Y63166800D01*
X25849443Y63166800D02*
X25992300Y63119181D01*
X25992300Y63119181D02*
X26087538Y63119181D01*
X26087538Y63119181D02*
X26230395Y63166800D01*
X26230395Y63166800D02*
X26325633Y63262039D01*
X26325633Y63262039D02*
X26373252Y63357277D01*
X26373252Y63357277D02*
X26420871Y63547753D01*
X26420871Y63547753D02*
X26420871Y63690610D01*
X26420871Y63690610D02*
X26373252Y63881086D01*
X26373252Y63881086D02*
X26325633Y63976324D01*
X26325633Y63976324D02*
X26230395Y64071562D01*
X26230395Y64071562D02*
X26087538Y64119181D01*
X26087538Y64119181D02*
X25992300Y64119181D01*
X25992300Y64119181D02*
X25849443Y64071562D01*
X25849443Y64071562D02*
X25801824Y64023943D01*
X25373252Y63119181D02*
X25373252Y64119181D01*
X25373252Y64119181D02*
X24992300Y64119181D01*
X24992300Y64119181D02*
X24897062Y64071562D01*
X24897062Y64071562D02*
X24849443Y64023943D01*
X24849443Y64023943D02*
X24801824Y63928705D01*
X24801824Y63928705D02*
X24801824Y63785848D01*
X24801824Y63785848D02*
X24849443Y63690610D01*
X24849443Y63690610D02*
X24897062Y63642991D01*
X24897062Y63642991D02*
X24992300Y63595372D01*
X24992300Y63595372D02*
X25373252Y63595372D01*
X23849443Y63119181D02*
X24420871Y63119181D01*
X24135157Y63119181D02*
X24135157Y64119181D01*
X24135157Y64119181D02*
X24230395Y63976324D01*
X24230395Y63976324D02*
X24325633Y63881086D01*
X24325633Y63881086D02*
X24420871Y63833467D01*
X22897062Y63119181D02*
X23468490Y63119181D01*
X23182776Y63119181D02*
X23182776Y64119181D01*
X23182776Y64119181D02*
X23278014Y63976324D01*
X23278014Y63976324D02*
X23373252Y63881086D01*
X23373252Y63881086D02*
X23468490Y63833467D01*
X21992300Y64119181D02*
X22468490Y64119181D01*
X22468490Y64119181D02*
X22516109Y63642991D01*
X22516109Y63642991D02*
X22468490Y63690610D01*
X22468490Y63690610D02*
X22373252Y63738229D01*
X22373252Y63738229D02*
X22135157Y63738229D01*
X22135157Y63738229D02*
X22039919Y63690610D01*
X22039919Y63690610D02*
X21992300Y63642991D01*
X21992300Y63642991D02*
X21944681Y63547753D01*
X21944681Y63547753D02*
X21944681Y63309658D01*
X21944681Y63309658D02*
X21992300Y63214420D01*
X21992300Y63214420D02*
X22039919Y63166800D01*
X22039919Y63166800D02*
X22135157Y63119181D01*
X22135157Y63119181D02*
X22373252Y63119181D01*
X22373252Y63119181D02*
X22468490Y63166800D01*
X22468490Y63166800D02*
X22516109Y63214420D01*
X21563728Y63404896D02*
X21087538Y63404896D01*
X21658966Y63119181D02*
X21325633Y64119181D01*
X21325633Y64119181D02*
X20992300Y63119181D01*
X20706585Y63166800D02*
X20563728Y63119181D01*
X20563728Y63119181D02*
X20325633Y63119181D01*
X20325633Y63119181D02*
X20230395Y63166800D01*
X20230395Y63166800D02*
X20182776Y63214420D01*
X20182776Y63214420D02*
X20135157Y63309658D01*
X20135157Y63309658D02*
X20135157Y63404896D01*
X20135157Y63404896D02*
X20182776Y63500134D01*
X20182776Y63500134D02*
X20230395Y63547753D01*
X20230395Y63547753D02*
X20325633Y63595372D01*
X20325633Y63595372D02*
X20516109Y63642991D01*
X20516109Y63642991D02*
X20611347Y63690610D01*
X20611347Y63690610D02*
X20658966Y63738229D01*
X20658966Y63738229D02*
X20706585Y63833467D01*
X20706585Y63833467D02*
X20706585Y63928705D01*
X20706585Y63928705D02*
X20658966Y64023943D01*
X20658966Y64023943D02*
X20611347Y64071562D01*
X20611347Y64071562D02*
X20516109Y64119181D01*
X20516109Y64119181D02*
X20278014Y64119181D01*
X20278014Y64119181D02*
X20135157Y64071562D01*
X19706585Y63119181D02*
X19706585Y64119181D01*
X19706585Y64119181D02*
X19135157Y63119181D01*
X19135157Y63119181D02*
X19135157Y64119181D01*
X18754204Y64119181D02*
X18135157Y64119181D01*
X18135157Y64119181D02*
X18468490Y63738229D01*
X18468490Y63738229D02*
X18325633Y63738229D01*
X18325633Y63738229D02*
X18230395Y63690610D01*
X18230395Y63690610D02*
X18182776Y63642991D01*
X18182776Y63642991D02*
X18135157Y63547753D01*
X18135157Y63547753D02*
X18135157Y63309658D01*
X18135157Y63309658D02*
X18182776Y63214420D01*
X18182776Y63214420D02*
X18230395Y63166800D01*
X18230395Y63166800D02*
X18325633Y63119181D01*
X18325633Y63119181D02*
X18611347Y63119181D01*
X18611347Y63119181D02*
X18706585Y63166800D01*
X18706585Y63166800D02*
X18754204Y63214420D01*
X17801823Y64119181D02*
X17182776Y64119181D01*
X17182776Y64119181D02*
X17516109Y63738229D01*
X17516109Y63738229D02*
X17373252Y63738229D01*
X17373252Y63738229D02*
X17278014Y63690610D01*
X17278014Y63690610D02*
X17230395Y63642991D01*
X17230395Y63642991D02*
X17182776Y63547753D01*
X17182776Y63547753D02*
X17182776Y63309658D01*
X17182776Y63309658D02*
X17230395Y63214420D01*
X17230395Y63214420D02*
X17278014Y63166800D01*
X17278014Y63166800D02*
X17373252Y63119181D01*
X17373252Y63119181D02*
X17658966Y63119181D01*
X17658966Y63119181D02*
X17754204Y63166800D01*
X17754204Y63166800D02*
X17801823Y63214420D01*
X16563728Y64119181D02*
X16468490Y64119181D01*
X16468490Y64119181D02*
X16373252Y64071562D01*
X16373252Y64071562D02*
X16325633Y64023943D01*
X16325633Y64023943D02*
X16278014Y63928705D01*
X16278014Y63928705D02*
X16230395Y63738229D01*
X16230395Y63738229D02*
X16230395Y63500134D01*
X16230395Y63500134D02*
X16278014Y63309658D01*
X16278014Y63309658D02*
X16325633Y63214420D01*
X16325633Y63214420D02*
X16373252Y63166800D01*
X16373252Y63166800D02*
X16468490Y63119181D01*
X16468490Y63119181D02*
X16563728Y63119181D01*
X16563728Y63119181D02*
X16658966Y63166800D01*
X16658966Y63166800D02*
X16706585Y63214420D01*
X16706585Y63214420D02*
X16754204Y63309658D01*
X16754204Y63309658D02*
X16801823Y63500134D01*
X16801823Y63500134D02*
X16801823Y63738229D01*
X16801823Y63738229D02*
X16754204Y63928705D01*
X16754204Y63928705D02*
X16706585Y64023943D01*
X16706585Y64023943D02*
X16658966Y64071562D01*
X16658966Y64071562D02*
X16563728Y64119181D01*
X15944680Y64119181D02*
X15373252Y64119181D01*
X15658966Y63119181D02*
X15658966Y64119181D01*
X15087537Y64023943D02*
X15039918Y64071562D01*
X15039918Y64071562D02*
X14944680Y64119181D01*
X14944680Y64119181D02*
X14706585Y64119181D01*
X14706585Y64119181D02*
X14611347Y64071562D01*
X14611347Y64071562D02*
X14563728Y64023943D01*
X14563728Y64023943D02*
X14516109Y63928705D01*
X14516109Y63928705D02*
X14516109Y63833467D01*
X14516109Y63833467D02*
X14563728Y63690610D01*
X14563728Y63690610D02*
X15135156Y63119181D01*
X15135156Y63119181D02*
X14516109Y63119181D01*
X13563728Y64071562D02*
X13658966Y64119181D01*
X13658966Y64119181D02*
X13801823Y64119181D01*
X13801823Y64119181D02*
X13944680Y64071562D01*
X13944680Y64071562D02*
X14039918Y63976324D01*
X14039918Y63976324D02*
X14087537Y63881086D01*
X14087537Y63881086D02*
X14135156Y63690610D01*
X14135156Y63690610D02*
X14135156Y63547753D01*
X14135156Y63547753D02*
X14087537Y63357277D01*
X14087537Y63357277D02*
X14039918Y63262039D01*
X14039918Y63262039D02*
X13944680Y63166800D01*
X13944680Y63166800D02*
X13801823Y63119181D01*
X13801823Y63119181D02*
X13706585Y63119181D01*
X13706585Y63119181D02*
X13563728Y63166800D01*
X13563728Y63166800D02*
X13516109Y63214420D01*
X13516109Y63214420D02*
X13516109Y63547753D01*
X13516109Y63547753D02*
X13706585Y63547753D01*
D13*
X20099665Y66522572D02*
X20682522Y66522572D01*
X20682522Y66522572D02*
X20751094Y66488286D01*
X20751094Y66488286D02*
X20785380Y66454000D01*
X20785380Y66454000D02*
X20819665Y66385429D01*
X20819665Y66385429D02*
X20819665Y66248286D01*
X20819665Y66248286D02*
X20785380Y66179715D01*
X20785380Y66179715D02*
X20751094Y66145429D01*
X20751094Y66145429D02*
X20682522Y66111143D01*
X20682522Y66111143D02*
X20099665Y66111143D01*
X20099665Y65836857D02*
X20099665Y65391143D01*
X20099665Y65391143D02*
X20373951Y65631143D01*
X20373951Y65631143D02*
X20373951Y65528286D01*
X20373951Y65528286D02*
X20408237Y65459714D01*
X20408237Y65459714D02*
X20442522Y65425429D01*
X20442522Y65425429D02*
X20511094Y65391143D01*
X20511094Y65391143D02*
X20682522Y65391143D01*
X20682522Y65391143D02*
X20751094Y65425429D01*
X20751094Y65425429D02*
X20785380Y65459714D01*
X20785380Y65459714D02*
X20819665Y65528286D01*
X20819665Y65528286D02*
X20819665Y65734000D01*
X20819665Y65734000D02*
X20785380Y65802572D01*
X20785380Y65802572D02*
X20751094Y65836857D01*
D11*
X25174819Y55442857D02*
X25174819Y55347619D01*
X25174819Y55347619D02*
X25222438Y55252381D01*
X25222438Y55252381D02*
X25270057Y55204762D01*
X25270057Y55204762D02*
X25365295Y55157143D01*
X25365295Y55157143D02*
X25555771Y55109524D01*
X25555771Y55109524D02*
X25793866Y55109524D01*
X25793866Y55109524D02*
X25984342Y55157143D01*
X25984342Y55157143D02*
X26079580Y55204762D01*
X26079580Y55204762D02*
X26127200Y55252381D01*
X26127200Y55252381D02*
X26174819Y55347619D01*
X26174819Y55347619D02*
X26174819Y55442857D01*
X26174819Y55442857D02*
X26127200Y55538095D01*
X26127200Y55538095D02*
X26079580Y55585714D01*
X26079580Y55585714D02*
X25984342Y55633333D01*
X25984342Y55633333D02*
X25793866Y55680952D01*
X25793866Y55680952D02*
X25555771Y55680952D01*
X25555771Y55680952D02*
X25365295Y55633333D01*
X25365295Y55633333D02*
X25270057Y55585714D01*
X25270057Y55585714D02*
X25222438Y55538095D01*
X25222438Y55538095D02*
X25174819Y55442857D01*
X26079580Y54680952D02*
X26127200Y54633333D01*
X26127200Y54633333D02*
X26174819Y54680952D01*
X26174819Y54680952D02*
X26127200Y54728571D01*
X26127200Y54728571D02*
X26079580Y54680952D01*
X26079580Y54680952D02*
X26174819Y54680952D01*
X26174819Y53680953D02*
X26174819Y54252381D01*
X26174819Y53966667D02*
X25174819Y53966667D01*
X25174819Y53966667D02*
X25317676Y54061905D01*
X25317676Y54061905D02*
X25412914Y54157143D01*
X25412914Y54157143D02*
X25460533Y54252381D01*
X25508152Y52823810D02*
X26174819Y52823810D01*
X25508152Y53252381D02*
X26031961Y53252381D01*
X26031961Y53252381D02*
X26127200Y53204762D01*
X26127200Y53204762D02*
X26174819Y53109524D01*
X26174819Y53109524D02*
X26174819Y52966667D01*
X26174819Y52966667D02*
X26127200Y52871429D01*
X26127200Y52871429D02*
X26079580Y52823810D01*
X25651009Y52014286D02*
X25651009Y52347619D01*
X26174819Y52347619D02*
X25174819Y52347619D01*
X25174819Y52347619D02*
X25174819Y51871429D01*
D12*
X24433832Y53866667D02*
X24452880Y53885715D01*
X24452880Y53885715D02*
X24471927Y53942857D01*
X24471927Y53942857D02*
X24471927Y53980953D01*
X24471927Y53980953D02*
X24452880Y54038096D01*
X24452880Y54038096D02*
X24414784Y54076191D01*
X24414784Y54076191D02*
X24376689Y54095238D01*
X24376689Y54095238D02*
X24300499Y54114286D01*
X24300499Y54114286D02*
X24243356Y54114286D01*
X24243356Y54114286D02*
X24167165Y54095238D01*
X24167165Y54095238D02*
X24129070Y54076191D01*
X24129070Y54076191D02*
X24090975Y54038096D01*
X24090975Y54038096D02*
X24071927Y53980953D01*
X24071927Y53980953D02*
X24071927Y53942857D01*
X24071927Y53942857D02*
X24090975Y53885715D01*
X24090975Y53885715D02*
X24110022Y53866667D01*
X24243356Y53638096D02*
X24224308Y53676191D01*
X24224308Y53676191D02*
X24205260Y53695238D01*
X24205260Y53695238D02*
X24167165Y53714286D01*
X24167165Y53714286D02*
X24148118Y53714286D01*
X24148118Y53714286D02*
X24110022Y53695238D01*
X24110022Y53695238D02*
X24090975Y53676191D01*
X24090975Y53676191D02*
X24071927Y53638096D01*
X24071927Y53638096D02*
X24071927Y53561905D01*
X24071927Y53561905D02*
X24090975Y53523810D01*
X24090975Y53523810D02*
X24110022Y53504762D01*
X24110022Y53504762D02*
X24148118Y53485715D01*
X24148118Y53485715D02*
X24167165Y53485715D01*
X24167165Y53485715D02*
X24205260Y53504762D01*
X24205260Y53504762D02*
X24224308Y53523810D01*
X24224308Y53523810D02*
X24243356Y53561905D01*
X24243356Y53561905D02*
X24243356Y53638096D01*
X24243356Y53638096D02*
X24262403Y53676191D01*
X24262403Y53676191D02*
X24281451Y53695238D01*
X24281451Y53695238D02*
X24319546Y53714286D01*
X24319546Y53714286D02*
X24395737Y53714286D01*
X24395737Y53714286D02*
X24433832Y53695238D01*
X24433832Y53695238D02*
X24452880Y53676191D01*
X24452880Y53676191D02*
X24471927Y53638096D01*
X24471927Y53638096D02*
X24471927Y53561905D01*
X24471927Y53561905D02*
X24452880Y53523810D01*
X24452880Y53523810D02*
X24433832Y53504762D01*
X24433832Y53504762D02*
X24395737Y53485715D01*
X24395737Y53485715D02*
X24319546Y53485715D01*
X24319546Y53485715D02*
X24281451Y53504762D01*
X24281451Y53504762D02*
X24262403Y53523810D01*
X24262403Y53523810D02*
X24243356Y53561905D01*
D11*
X62066371Y68215248D02*
X62066371Y67548581D01*
X62304466Y68596200D02*
X62542561Y67881915D01*
X62542561Y67881915D02*
X61923514Y67881915D01*
X61542561Y67643820D02*
X61494942Y67596200D01*
X61494942Y67596200D02*
X61542561Y67548581D01*
X61542561Y67548581D02*
X61590180Y67596200D01*
X61590180Y67596200D02*
X61542561Y67643820D01*
X61542561Y67643820D02*
X61542561Y67548581D01*
X61161609Y68548581D02*
X60494943Y68548581D01*
X60494943Y68548581D02*
X60923514Y67548581D01*
X60113990Y67548581D02*
X60113990Y68548581D01*
X60018752Y67929534D02*
X59733038Y67548581D01*
X59733038Y68215248D02*
X60113990Y67834296D01*
D12*
X61394942Y66391473D02*
X61528275Y66581949D01*
X61623513Y66391473D02*
X61623513Y66791473D01*
X61623513Y66791473D02*
X61471132Y66791473D01*
X61471132Y66791473D02*
X61433037Y66772425D01*
X61433037Y66772425D02*
X61413990Y66753378D01*
X61413990Y66753378D02*
X61394942Y66715282D01*
X61394942Y66715282D02*
X61394942Y66658140D01*
X61394942Y66658140D02*
X61413990Y66620044D01*
X61413990Y66620044D02*
X61433037Y66600997D01*
X61433037Y66600997D02*
X61471132Y66581949D01*
X61471132Y66581949D02*
X61623513Y66581949D01*
X61013990Y66391473D02*
X61242561Y66391473D01*
X61128275Y66391473D02*
X61128275Y66791473D01*
X61128275Y66791473D02*
X61166371Y66734330D01*
X61166371Y66734330D02*
X61204466Y66696235D01*
X61204466Y66696235D02*
X61242561Y66677187D01*
X60766371Y66791473D02*
X60728276Y66791473D01*
X60728276Y66791473D02*
X60690180Y66772425D01*
X60690180Y66772425D02*
X60671133Y66753378D01*
X60671133Y66753378D02*
X60652085Y66715282D01*
X60652085Y66715282D02*
X60633038Y66639092D01*
X60633038Y66639092D02*
X60633038Y66543854D01*
X60633038Y66543854D02*
X60652085Y66467663D01*
X60652085Y66467663D02*
X60671133Y66429568D01*
X60671133Y66429568D02*
X60690180Y66410520D01*
X60690180Y66410520D02*
X60728276Y66391473D01*
X60728276Y66391473D02*
X60766371Y66391473D01*
X60766371Y66391473D02*
X60804466Y66410520D01*
X60804466Y66410520D02*
X60823514Y66429568D01*
X60823514Y66429568D02*
X60842561Y66467663D01*
X60842561Y66467663D02*
X60861609Y66543854D01*
X60861609Y66543854D02*
X60861609Y66639092D01*
X60861609Y66639092D02*
X60842561Y66715282D01*
X60842561Y66715282D02*
X60823514Y66753378D01*
X60823514Y66753378D02*
X60804466Y66772425D01*
X60804466Y66772425D02*
X60766371Y66791473D01*
D11*
X18236152Y44438772D02*
X18902819Y44438772D01*
X17855200Y44676867D02*
X18569485Y44914962D01*
X18569485Y44914962D02*
X18569485Y44295915D01*
X18807580Y43914962D02*
X18855200Y43867343D01*
X18855200Y43867343D02*
X18902819Y43914962D01*
X18902819Y43914962D02*
X18855200Y43962581D01*
X18855200Y43962581D02*
X18807580Y43914962D01*
X18807580Y43914962D02*
X18902819Y43914962D01*
X17902819Y43534010D02*
X17902819Y42867344D01*
X17902819Y42867344D02*
X18902819Y43295915D01*
X18902819Y42486391D02*
X17902819Y42486391D01*
X18521866Y42391153D02*
X18902819Y42105439D01*
X18236152Y42105439D02*
X18617104Y42486391D01*
D12*
X17199927Y43767343D02*
X17009451Y43900676D01*
X17199927Y43995914D02*
X16799927Y43995914D01*
X16799927Y43995914D02*
X16799927Y43843533D01*
X16799927Y43843533D02*
X16818975Y43805438D01*
X16818975Y43805438D02*
X16838022Y43786391D01*
X16838022Y43786391D02*
X16876118Y43767343D01*
X16876118Y43767343D02*
X16933260Y43767343D01*
X16933260Y43767343D02*
X16971356Y43786391D01*
X16971356Y43786391D02*
X16990403Y43805438D01*
X16990403Y43805438D02*
X17009451Y43843533D01*
X17009451Y43843533D02*
X17009451Y43995914D01*
X17199927Y43386391D02*
X17199927Y43614962D01*
X17199927Y43500676D02*
X16799927Y43500676D01*
X16799927Y43500676D02*
X16857070Y43538772D01*
X16857070Y43538772D02*
X16895165Y43576867D01*
X16895165Y43576867D02*
X16914213Y43614962D01*
X16838022Y43234010D02*
X16818975Y43214962D01*
X16818975Y43214962D02*
X16799927Y43176867D01*
X16799927Y43176867D02*
X16799927Y43081629D01*
X16799927Y43081629D02*
X16818975Y43043534D01*
X16818975Y43043534D02*
X16838022Y43024486D01*
X16838022Y43024486D02*
X16876118Y43005439D01*
X16876118Y43005439D02*
X16914213Y43005439D01*
X16914213Y43005439D02*
X16971356Y43024486D01*
X16971356Y43024486D02*
X17199927Y43253058D01*
X17199927Y43253058D02*
X17199927Y43005439D01*
D11*
X51698888Y15000D02*
X51556031Y-32619D01*
X51556031Y-32619D02*
X51317936Y-32619D01*
X51317936Y-32619D02*
X51222698Y15000D01*
X51222698Y15000D02*
X51175079Y62620D01*
X51175079Y62620D02*
X51127460Y157858D01*
X51127460Y157858D02*
X51127460Y253096D01*
X51127460Y253096D02*
X51175079Y348334D01*
X51175079Y348334D02*
X51222698Y395953D01*
X51222698Y395953D02*
X51317936Y443572D01*
X51317936Y443572D02*
X51508412Y491191D01*
X51508412Y491191D02*
X51603650Y538810D01*
X51603650Y538810D02*
X51651269Y586429D01*
X51651269Y586429D02*
X51698888Y681667D01*
X51698888Y681667D02*
X51698888Y776905D01*
X51698888Y776905D02*
X51651269Y872143D01*
X51651269Y872143D02*
X51603650Y919762D01*
X51603650Y919762D02*
X51508412Y967381D01*
X51508412Y967381D02*
X51270317Y967381D01*
X51270317Y967381D02*
X51127460Y919762D01*
X50698888Y-32619D02*
X50698888Y967381D01*
X50127460Y-32619D02*
X50556031Y538810D01*
X50127460Y967381D02*
X50698888Y395953D01*
X49270317Y967381D02*
X49460793Y967381D01*
X49460793Y967381D02*
X49556031Y919762D01*
X49556031Y919762D02*
X49603650Y872143D01*
X49603650Y872143D02*
X49698888Y729286D01*
X49698888Y729286D02*
X49746507Y538810D01*
X49746507Y538810D02*
X49746507Y157858D01*
X49746507Y157858D02*
X49698888Y62620D01*
X49698888Y62620D02*
X49651269Y15000D01*
X49651269Y15000D02*
X49556031Y-32619D01*
X49556031Y-32619D02*
X49365555Y-32619D01*
X49365555Y-32619D02*
X49270317Y15000D01*
X49270317Y15000D02*
X49222698Y62620D01*
X49222698Y62620D02*
X49175079Y157858D01*
X49175079Y157858D02*
X49175079Y395953D01*
X49175079Y395953D02*
X49222698Y491191D01*
X49222698Y491191D02*
X49270317Y538810D01*
X49270317Y538810D02*
X49365555Y586429D01*
X49365555Y586429D02*
X49556031Y586429D01*
X49556031Y586429D02*
X49651269Y538810D01*
X49651269Y538810D02*
X49698888Y491191D01*
X49698888Y491191D02*
X49746507Y395953D01*
X48603650Y538810D02*
X48698888Y586429D01*
X48698888Y586429D02*
X48746507Y634048D01*
X48746507Y634048D02*
X48794126Y729286D01*
X48794126Y729286D02*
X48794126Y776905D01*
X48794126Y776905D02*
X48746507Y872143D01*
X48746507Y872143D02*
X48698888Y919762D01*
X48698888Y919762D02*
X48603650Y967381D01*
X48603650Y967381D02*
X48413174Y967381D01*
X48413174Y967381D02*
X48317936Y919762D01*
X48317936Y919762D02*
X48270317Y872143D01*
X48270317Y872143D02*
X48222698Y776905D01*
X48222698Y776905D02*
X48222698Y729286D01*
X48222698Y729286D02*
X48270317Y634048D01*
X48270317Y634048D02*
X48317936Y586429D01*
X48317936Y586429D02*
X48413174Y538810D01*
X48413174Y538810D02*
X48603650Y538810D01*
X48603650Y538810D02*
X48698888Y491191D01*
X48698888Y491191D02*
X48746507Y443572D01*
X48746507Y443572D02*
X48794126Y348334D01*
X48794126Y348334D02*
X48794126Y157858D01*
X48794126Y157858D02*
X48746507Y62620D01*
X48746507Y62620D02*
X48698888Y15000D01*
X48698888Y15000D02*
X48603650Y-32619D01*
X48603650Y-32619D02*
X48413174Y-32619D01*
X48413174Y-32619D02*
X48317936Y15000D01*
X48317936Y15000D02*
X48270317Y62620D01*
X48270317Y62620D02*
X48222698Y157858D01*
X48222698Y157858D02*
X48222698Y348334D01*
X48222698Y348334D02*
X48270317Y443572D01*
X48270317Y443572D02*
X48317936Y491191D01*
X48317936Y491191D02*
X48413174Y538810D01*
X47270317Y-32619D02*
X47841745Y-32619D01*
X47556031Y-32619D02*
X47556031Y967381D01*
X47556031Y967381D02*
X47651269Y824524D01*
X47651269Y824524D02*
X47746507Y729286D01*
X47746507Y729286D02*
X47841745Y681667D01*
X46889364Y872143D02*
X46841745Y919762D01*
X46841745Y919762D02*
X46746507Y967381D01*
X46746507Y967381D02*
X46508412Y967381D01*
X46508412Y967381D02*
X46413174Y919762D01*
X46413174Y919762D02*
X46365555Y872143D01*
X46365555Y872143D02*
X46317936Y776905D01*
X46317936Y776905D02*
X46317936Y681667D01*
X46317936Y681667D02*
X46365555Y538810D01*
X46365555Y538810D02*
X46936983Y-32619D01*
X46936983Y-32619D02*
X46317936Y-32619D01*
X4664819Y27262857D02*
X4664819Y27167619D01*
X4664819Y27167619D02*
X4712438Y27072381D01*
X4712438Y27072381D02*
X4760057Y27024762D01*
X4760057Y27024762D02*
X4855295Y26977143D01*
X4855295Y26977143D02*
X5045771Y26929524D01*
X5045771Y26929524D02*
X5283866Y26929524D01*
X5283866Y26929524D02*
X5474342Y26977143D01*
X5474342Y26977143D02*
X5569580Y27024762D01*
X5569580Y27024762D02*
X5617200Y27072381D01*
X5617200Y27072381D02*
X5664819Y27167619D01*
X5664819Y27167619D02*
X5664819Y27262857D01*
X5664819Y27262857D02*
X5617200Y27358095D01*
X5617200Y27358095D02*
X5569580Y27405714D01*
X5569580Y27405714D02*
X5474342Y27453333D01*
X5474342Y27453333D02*
X5283866Y27500952D01*
X5283866Y27500952D02*
X5045771Y27500952D01*
X5045771Y27500952D02*
X4855295Y27453333D01*
X4855295Y27453333D02*
X4760057Y27405714D01*
X4760057Y27405714D02*
X4712438Y27358095D01*
X4712438Y27358095D02*
X4664819Y27262857D01*
X5569580Y26500952D02*
X5617200Y26453333D01*
X5617200Y26453333D02*
X5664819Y26500952D01*
X5664819Y26500952D02*
X5617200Y26548571D01*
X5617200Y26548571D02*
X5569580Y26500952D01*
X5569580Y26500952D02*
X5664819Y26500952D01*
X5664819Y25500953D02*
X5664819Y26072381D01*
X5664819Y25786667D02*
X4664819Y25786667D01*
X4664819Y25786667D02*
X4807676Y25881905D01*
X4807676Y25881905D02*
X4902914Y25977143D01*
X4902914Y25977143D02*
X4950533Y26072381D01*
X4998152Y24643810D02*
X5664819Y24643810D01*
X4998152Y25072381D02*
X5521961Y25072381D01*
X5521961Y25072381D02*
X5617200Y25024762D01*
X5617200Y25024762D02*
X5664819Y24929524D01*
X5664819Y24929524D02*
X5664819Y24786667D01*
X5664819Y24786667D02*
X5617200Y24691429D01*
X5617200Y24691429D02*
X5569580Y24643810D01*
X5141009Y23834286D02*
X5141009Y24167619D01*
X5664819Y24167619D02*
X4664819Y24167619D01*
X4664819Y24167619D02*
X4664819Y23691429D01*
D12*
X6783832Y25877143D02*
X6802880Y25896191D01*
X6802880Y25896191D02*
X6821927Y25953333D01*
X6821927Y25953333D02*
X6821927Y25991429D01*
X6821927Y25991429D02*
X6802880Y26048572D01*
X6802880Y26048572D02*
X6764784Y26086667D01*
X6764784Y26086667D02*
X6726689Y26105714D01*
X6726689Y26105714D02*
X6650499Y26124762D01*
X6650499Y26124762D02*
X6593356Y26124762D01*
X6593356Y26124762D02*
X6517165Y26105714D01*
X6517165Y26105714D02*
X6479070Y26086667D01*
X6479070Y26086667D02*
X6440975Y26048572D01*
X6440975Y26048572D02*
X6421927Y25991429D01*
X6421927Y25991429D02*
X6421927Y25953333D01*
X6421927Y25953333D02*
X6440975Y25896191D01*
X6440975Y25896191D02*
X6460022Y25877143D01*
X6460022Y25724762D02*
X6440975Y25705714D01*
X6440975Y25705714D02*
X6421927Y25667619D01*
X6421927Y25667619D02*
X6421927Y25572381D01*
X6421927Y25572381D02*
X6440975Y25534286D01*
X6440975Y25534286D02*
X6460022Y25515238D01*
X6460022Y25515238D02*
X6498118Y25496191D01*
X6498118Y25496191D02*
X6536213Y25496191D01*
X6536213Y25496191D02*
X6593356Y25515238D01*
X6593356Y25515238D02*
X6821927Y25743810D01*
X6821927Y25743810D02*
X6821927Y25496191D01*
X6421927Y25248572D02*
X6421927Y25210477D01*
X6421927Y25210477D02*
X6440975Y25172381D01*
X6440975Y25172381D02*
X6460022Y25153334D01*
X6460022Y25153334D02*
X6498118Y25134286D01*
X6498118Y25134286D02*
X6574308Y25115239D01*
X6574308Y25115239D02*
X6669546Y25115239D01*
X6669546Y25115239D02*
X6745737Y25134286D01*
X6745737Y25134286D02*
X6783832Y25153334D01*
X6783832Y25153334D02*
X6802880Y25172381D01*
X6802880Y25172381D02*
X6821927Y25210477D01*
X6821927Y25210477D02*
X6821927Y25248572D01*
X6821927Y25248572D02*
X6802880Y25286667D01*
X6802880Y25286667D02*
X6783832Y25305715D01*
X6783832Y25305715D02*
X6745737Y25324762D01*
X6745737Y25324762D02*
X6669546Y25343810D01*
X6669546Y25343810D02*
X6574308Y25343810D01*
X6574308Y25343810D02*
X6498118Y25324762D01*
X6498118Y25324762D02*
X6460022Y25305715D01*
X6460022Y25305715D02*
X6440975Y25286667D01*
X6440975Y25286667D02*
X6421927Y25248572D01*
D11*
X23654819Y55442857D02*
X23654819Y55347619D01*
X23654819Y55347619D02*
X23702438Y55252381D01*
X23702438Y55252381D02*
X23750057Y55204762D01*
X23750057Y55204762D02*
X23845295Y55157143D01*
X23845295Y55157143D02*
X24035771Y55109524D01*
X24035771Y55109524D02*
X24273866Y55109524D01*
X24273866Y55109524D02*
X24464342Y55157143D01*
X24464342Y55157143D02*
X24559580Y55204762D01*
X24559580Y55204762D02*
X24607200Y55252381D01*
X24607200Y55252381D02*
X24654819Y55347619D01*
X24654819Y55347619D02*
X24654819Y55442857D01*
X24654819Y55442857D02*
X24607200Y55538095D01*
X24607200Y55538095D02*
X24559580Y55585714D01*
X24559580Y55585714D02*
X24464342Y55633333D01*
X24464342Y55633333D02*
X24273866Y55680952D01*
X24273866Y55680952D02*
X24035771Y55680952D01*
X24035771Y55680952D02*
X23845295Y55633333D01*
X23845295Y55633333D02*
X23750057Y55585714D01*
X23750057Y55585714D02*
X23702438Y55538095D01*
X23702438Y55538095D02*
X23654819Y55442857D01*
X24559580Y54680952D02*
X24607200Y54633333D01*
X24607200Y54633333D02*
X24654819Y54680952D01*
X24654819Y54680952D02*
X24607200Y54728571D01*
X24607200Y54728571D02*
X24559580Y54680952D01*
X24559580Y54680952D02*
X24654819Y54680952D01*
X24654819Y53680953D02*
X24654819Y54252381D01*
X24654819Y53966667D02*
X23654819Y53966667D01*
X23654819Y53966667D02*
X23797676Y54061905D01*
X23797676Y54061905D02*
X23892914Y54157143D01*
X23892914Y54157143D02*
X23940533Y54252381D01*
X23988152Y52823810D02*
X24654819Y52823810D01*
X23988152Y53252381D02*
X24511961Y53252381D01*
X24511961Y53252381D02*
X24607200Y53204762D01*
X24607200Y53204762D02*
X24654819Y53109524D01*
X24654819Y53109524D02*
X24654819Y52966667D01*
X24654819Y52966667D02*
X24607200Y52871429D01*
X24607200Y52871429D02*
X24559580Y52823810D01*
X24131009Y52014286D02*
X24131009Y52347619D01*
X24654819Y52347619D02*
X23654819Y52347619D01*
X23654819Y52347619D02*
X23654819Y51871429D01*
D12*
X22913832Y54057143D02*
X22932880Y54076191D01*
X22932880Y54076191D02*
X22951927Y54133333D01*
X22951927Y54133333D02*
X22951927Y54171429D01*
X22951927Y54171429D02*
X22932880Y54228572D01*
X22932880Y54228572D02*
X22894784Y54266667D01*
X22894784Y54266667D02*
X22856689Y54285714D01*
X22856689Y54285714D02*
X22780499Y54304762D01*
X22780499Y54304762D02*
X22723356Y54304762D01*
X22723356Y54304762D02*
X22647165Y54285714D01*
X22647165Y54285714D02*
X22609070Y54266667D01*
X22609070Y54266667D02*
X22570975Y54228572D01*
X22570975Y54228572D02*
X22551927Y54171429D01*
X22551927Y54171429D02*
X22551927Y54133333D01*
X22551927Y54133333D02*
X22570975Y54076191D01*
X22570975Y54076191D02*
X22590022Y54057143D01*
X22951927Y53676191D02*
X22951927Y53904762D01*
X22951927Y53790476D02*
X22551927Y53790476D01*
X22551927Y53790476D02*
X22609070Y53828572D01*
X22609070Y53828572D02*
X22647165Y53866667D01*
X22647165Y53866667D02*
X22666213Y53904762D01*
X22551927Y53428572D02*
X22551927Y53390477D01*
X22551927Y53390477D02*
X22570975Y53352381D01*
X22570975Y53352381D02*
X22590022Y53333334D01*
X22590022Y53333334D02*
X22628118Y53314286D01*
X22628118Y53314286D02*
X22704308Y53295239D01*
X22704308Y53295239D02*
X22799546Y53295239D01*
X22799546Y53295239D02*
X22875737Y53314286D01*
X22875737Y53314286D02*
X22913832Y53333334D01*
X22913832Y53333334D02*
X22932880Y53352381D01*
X22932880Y53352381D02*
X22951927Y53390477D01*
X22951927Y53390477D02*
X22951927Y53428572D01*
X22951927Y53428572D02*
X22932880Y53466667D01*
X22932880Y53466667D02*
X22913832Y53485715D01*
X22913832Y53485715D02*
X22875737Y53504762D01*
X22875737Y53504762D02*
X22799546Y53523810D01*
X22799546Y53523810D02*
X22704308Y53523810D01*
X22704308Y53523810D02*
X22628118Y53504762D01*
X22628118Y53504762D02*
X22590022Y53485715D01*
X22590022Y53485715D02*
X22570975Y53466667D01*
X22570975Y53466667D02*
X22551927Y53428572D01*
D11*
X69204819Y51012857D02*
X69204819Y50917619D01*
X69204819Y50917619D02*
X69252438Y50822381D01*
X69252438Y50822381D02*
X69300057Y50774762D01*
X69300057Y50774762D02*
X69395295Y50727143D01*
X69395295Y50727143D02*
X69585771Y50679524D01*
X69585771Y50679524D02*
X69823866Y50679524D01*
X69823866Y50679524D02*
X70014342Y50727143D01*
X70014342Y50727143D02*
X70109580Y50774762D01*
X70109580Y50774762D02*
X70157200Y50822381D01*
X70157200Y50822381D02*
X70204819Y50917619D01*
X70204819Y50917619D02*
X70204819Y51012857D01*
X70204819Y51012857D02*
X70157200Y51108095D01*
X70157200Y51108095D02*
X70109580Y51155714D01*
X70109580Y51155714D02*
X70014342Y51203333D01*
X70014342Y51203333D02*
X69823866Y51250952D01*
X69823866Y51250952D02*
X69585771Y51250952D01*
X69585771Y51250952D02*
X69395295Y51203333D01*
X69395295Y51203333D02*
X69300057Y51155714D01*
X69300057Y51155714D02*
X69252438Y51108095D01*
X69252438Y51108095D02*
X69204819Y51012857D01*
X70109580Y50250952D02*
X70157200Y50203333D01*
X70157200Y50203333D02*
X70204819Y50250952D01*
X70204819Y50250952D02*
X70157200Y50298571D01*
X70157200Y50298571D02*
X70109580Y50250952D01*
X70109580Y50250952D02*
X70204819Y50250952D01*
X70204819Y49250953D02*
X70204819Y49822381D01*
X70204819Y49536667D02*
X69204819Y49536667D01*
X69204819Y49536667D02*
X69347676Y49631905D01*
X69347676Y49631905D02*
X69442914Y49727143D01*
X69442914Y49727143D02*
X69490533Y49822381D01*
X69538152Y48393810D02*
X70204819Y48393810D01*
X69538152Y48822381D02*
X70061961Y48822381D01*
X70061961Y48822381D02*
X70157200Y48774762D01*
X70157200Y48774762D02*
X70204819Y48679524D01*
X70204819Y48679524D02*
X70204819Y48536667D01*
X70204819Y48536667D02*
X70157200Y48441429D01*
X70157200Y48441429D02*
X70109580Y48393810D01*
X69681009Y47584286D02*
X69681009Y47917619D01*
X70204819Y47917619D02*
X69204819Y47917619D01*
X69204819Y47917619D02*
X69204819Y47441429D01*
D12*
X68463832Y49627143D02*
X68482880Y49646191D01*
X68482880Y49646191D02*
X68501927Y49703333D01*
X68501927Y49703333D02*
X68501927Y49741429D01*
X68501927Y49741429D02*
X68482880Y49798572D01*
X68482880Y49798572D02*
X68444784Y49836667D01*
X68444784Y49836667D02*
X68406689Y49855714D01*
X68406689Y49855714D02*
X68330499Y49874762D01*
X68330499Y49874762D02*
X68273356Y49874762D01*
X68273356Y49874762D02*
X68197165Y49855714D01*
X68197165Y49855714D02*
X68159070Y49836667D01*
X68159070Y49836667D02*
X68120975Y49798572D01*
X68120975Y49798572D02*
X68101927Y49741429D01*
X68101927Y49741429D02*
X68101927Y49703333D01*
X68101927Y49703333D02*
X68120975Y49646191D01*
X68120975Y49646191D02*
X68140022Y49627143D01*
X68501927Y49246191D02*
X68501927Y49474762D01*
X68501927Y49360476D02*
X68101927Y49360476D01*
X68101927Y49360476D02*
X68159070Y49398572D01*
X68159070Y49398572D02*
X68197165Y49436667D01*
X68197165Y49436667D02*
X68216213Y49474762D01*
X68273356Y49017620D02*
X68254308Y49055715D01*
X68254308Y49055715D02*
X68235260Y49074762D01*
X68235260Y49074762D02*
X68197165Y49093810D01*
X68197165Y49093810D02*
X68178118Y49093810D01*
X68178118Y49093810D02*
X68140022Y49074762D01*
X68140022Y49074762D02*
X68120975Y49055715D01*
X68120975Y49055715D02*
X68101927Y49017620D01*
X68101927Y49017620D02*
X68101927Y48941429D01*
X68101927Y48941429D02*
X68120975Y48903334D01*
X68120975Y48903334D02*
X68140022Y48884286D01*
X68140022Y48884286D02*
X68178118Y48865239D01*
X68178118Y48865239D02*
X68197165Y48865239D01*
X68197165Y48865239D02*
X68235260Y48884286D01*
X68235260Y48884286D02*
X68254308Y48903334D01*
X68254308Y48903334D02*
X68273356Y48941429D01*
X68273356Y48941429D02*
X68273356Y49017620D01*
X68273356Y49017620D02*
X68292403Y49055715D01*
X68292403Y49055715D02*
X68311451Y49074762D01*
X68311451Y49074762D02*
X68349546Y49093810D01*
X68349546Y49093810D02*
X68425737Y49093810D01*
X68425737Y49093810D02*
X68463832Y49074762D01*
X68463832Y49074762D02*
X68482880Y49055715D01*
X68482880Y49055715D02*
X68501927Y49017620D01*
X68501927Y49017620D02*
X68501927Y48941429D01*
X68501927Y48941429D02*
X68482880Y48903334D01*
X68482880Y48903334D02*
X68463832Y48884286D01*
X68463832Y48884286D02*
X68425737Y48865239D01*
X68425737Y48865239D02*
X68349546Y48865239D01*
X68349546Y48865239D02*
X68311451Y48884286D01*
X68311451Y48884286D02*
X68292403Y48903334D01*
X68292403Y48903334D02*
X68273356Y48941429D01*
D11*
X52868095Y75435181D02*
X53201428Y75911372D01*
X53439523Y75435181D02*
X53439523Y76435181D01*
X53439523Y76435181D02*
X53058571Y76435181D01*
X53058571Y76435181D02*
X52963333Y76387562D01*
X52963333Y76387562D02*
X52915714Y76339943D01*
X52915714Y76339943D02*
X52868095Y76244705D01*
X52868095Y76244705D02*
X52868095Y76101848D01*
X52868095Y76101848D02*
X52915714Y76006610D01*
X52915714Y76006610D02*
X52963333Y75958991D01*
X52963333Y75958991D02*
X53058571Y75911372D01*
X53058571Y75911372D02*
X53439523Y75911372D01*
X52058571Y75482800D02*
X52153809Y75435181D01*
X52153809Y75435181D02*
X52344285Y75435181D01*
X52344285Y75435181D02*
X52439523Y75482800D01*
X52439523Y75482800D02*
X52487142Y75578039D01*
X52487142Y75578039D02*
X52487142Y75958991D01*
X52487142Y75958991D02*
X52439523Y76054229D01*
X52439523Y76054229D02*
X52344285Y76101848D01*
X52344285Y76101848D02*
X52153809Y76101848D01*
X52153809Y76101848D02*
X52058571Y76054229D01*
X52058571Y76054229D02*
X52010952Y75958991D01*
X52010952Y75958991D02*
X52010952Y75863753D01*
X52010952Y75863753D02*
X52487142Y75768515D01*
X51629999Y75482800D02*
X51534761Y75435181D01*
X51534761Y75435181D02*
X51344285Y75435181D01*
X51344285Y75435181D02*
X51249047Y75482800D01*
X51249047Y75482800D02*
X51201428Y75578039D01*
X51201428Y75578039D02*
X51201428Y75625658D01*
X51201428Y75625658D02*
X51249047Y75720896D01*
X51249047Y75720896D02*
X51344285Y75768515D01*
X51344285Y75768515D02*
X51487142Y75768515D01*
X51487142Y75768515D02*
X51582380Y75816134D01*
X51582380Y75816134D02*
X51629999Y75911372D01*
X51629999Y75911372D02*
X51629999Y75958991D01*
X51629999Y75958991D02*
X51582380Y76054229D01*
X51582380Y76054229D02*
X51487142Y76101848D01*
X51487142Y76101848D02*
X51344285Y76101848D01*
X51344285Y76101848D02*
X51249047Y76054229D01*
X50391904Y75482800D02*
X50487142Y75435181D01*
X50487142Y75435181D02*
X50677618Y75435181D01*
X50677618Y75435181D02*
X50772856Y75482800D01*
X50772856Y75482800D02*
X50820475Y75578039D01*
X50820475Y75578039D02*
X50820475Y75958991D01*
X50820475Y75958991D02*
X50772856Y76054229D01*
X50772856Y76054229D02*
X50677618Y76101848D01*
X50677618Y76101848D02*
X50487142Y76101848D01*
X50487142Y76101848D02*
X50391904Y76054229D01*
X50391904Y76054229D02*
X50344285Y75958991D01*
X50344285Y75958991D02*
X50344285Y75863753D01*
X50344285Y75863753D02*
X50820475Y75768515D01*
X50058570Y76101848D02*
X49677618Y76101848D01*
X49915713Y76435181D02*
X49915713Y75578039D01*
X49915713Y75578039D02*
X49868094Y75482800D01*
X49868094Y75482800D02*
X49772856Y75435181D01*
X49772856Y75435181D02*
X49677618Y75435181D01*
X52963332Y69732800D02*
X52820475Y69685181D01*
X52820475Y69685181D02*
X52582380Y69685181D01*
X52582380Y69685181D02*
X52487142Y69732800D01*
X52487142Y69732800D02*
X52439523Y69780420D01*
X52439523Y69780420D02*
X52391904Y69875658D01*
X52391904Y69875658D02*
X52391904Y69970896D01*
X52391904Y69970896D02*
X52439523Y70066134D01*
X52439523Y70066134D02*
X52487142Y70113753D01*
X52487142Y70113753D02*
X52582380Y70161372D01*
X52582380Y70161372D02*
X52772856Y70208991D01*
X52772856Y70208991D02*
X52868094Y70256610D01*
X52868094Y70256610D02*
X52915713Y70304229D01*
X52915713Y70304229D02*
X52963332Y70399467D01*
X52963332Y70399467D02*
X52963332Y70494705D01*
X52963332Y70494705D02*
X52915713Y70589943D01*
X52915713Y70589943D02*
X52868094Y70637562D01*
X52868094Y70637562D02*
X52772856Y70685181D01*
X52772856Y70685181D02*
X52534761Y70685181D01*
X52534761Y70685181D02*
X52391904Y70637562D01*
X52058570Y70685181D02*
X51820475Y69685181D01*
X51820475Y69685181D02*
X51629999Y70399467D01*
X51629999Y70399467D02*
X51439523Y69685181D01*
X51439523Y69685181D02*
X51201428Y70685181D01*
X50915713Y70685181D02*
X50296666Y70685181D01*
X50296666Y70685181D02*
X50629999Y70304229D01*
X50629999Y70304229D02*
X50487142Y70304229D01*
X50487142Y70304229D02*
X50391904Y70256610D01*
X50391904Y70256610D02*
X50344285Y70208991D01*
X50344285Y70208991D02*
X50296666Y70113753D01*
X50296666Y70113753D02*
X50296666Y69875658D01*
X50296666Y69875658D02*
X50344285Y69780420D01*
X50344285Y69780420D02*
X50391904Y69732800D01*
X50391904Y69732800D02*
X50487142Y69685181D01*
X50487142Y69685181D02*
X50772856Y69685181D01*
X50772856Y69685181D02*
X50868094Y69732800D01*
X50868094Y69732800D02*
X50915713Y69780420D01*
X36644056Y45622581D02*
X36548818Y45622581D01*
X36548818Y45622581D02*
X36453580Y45574962D01*
X36453580Y45574962D02*
X36405961Y45527343D01*
X36405961Y45527343D02*
X36358342Y45432105D01*
X36358342Y45432105D02*
X36310723Y45241629D01*
X36310723Y45241629D02*
X36310723Y45003534D01*
X36310723Y45003534D02*
X36358342Y44813058D01*
X36358342Y44813058D02*
X36405961Y44717820D01*
X36405961Y44717820D02*
X36453580Y44670200D01*
X36453580Y44670200D02*
X36548818Y44622581D01*
X36548818Y44622581D02*
X36644056Y44622581D01*
X36644056Y44622581D02*
X36739294Y44670200D01*
X36739294Y44670200D02*
X36786913Y44717820D01*
X36786913Y44717820D02*
X36834532Y44813058D01*
X36834532Y44813058D02*
X36882151Y45003534D01*
X36882151Y45003534D02*
X36882151Y45241629D01*
X36882151Y45241629D02*
X36834532Y45432105D01*
X36834532Y45432105D02*
X36786913Y45527343D01*
X36786913Y45527343D02*
X36739294Y45574962D01*
X36739294Y45574962D02*
X36644056Y45622581D01*
X35882151Y44717820D02*
X35834532Y44670200D01*
X35834532Y44670200D02*
X35882151Y44622581D01*
X35882151Y44622581D02*
X35929770Y44670200D01*
X35929770Y44670200D02*
X35882151Y44717820D01*
X35882151Y44717820D02*
X35882151Y44622581D01*
X34882152Y44622581D02*
X35453580Y44622581D01*
X35167866Y44622581D02*
X35167866Y45622581D01*
X35167866Y45622581D02*
X35263104Y45479724D01*
X35263104Y45479724D02*
X35358342Y45384486D01*
X35358342Y45384486D02*
X35453580Y45336867D01*
X34025009Y45289248D02*
X34025009Y44622581D01*
X34453580Y45289248D02*
X34453580Y44765439D01*
X34453580Y44765439D02*
X34405961Y44670200D01*
X34405961Y44670200D02*
X34310723Y44622581D01*
X34310723Y44622581D02*
X34167866Y44622581D01*
X34167866Y44622581D02*
X34072628Y44670200D01*
X34072628Y44670200D02*
X34025009Y44717820D01*
X33215485Y45146391D02*
X33548818Y45146391D01*
X33548818Y44622581D02*
X33548818Y45622581D01*
X33548818Y45622581D02*
X33072628Y45622581D01*
D12*
X35258342Y46363568D02*
X35277390Y46344520D01*
X35277390Y46344520D02*
X35334532Y46325473D01*
X35334532Y46325473D02*
X35372628Y46325473D01*
X35372628Y46325473D02*
X35429771Y46344520D01*
X35429771Y46344520D02*
X35467866Y46382616D01*
X35467866Y46382616D02*
X35486913Y46420711D01*
X35486913Y46420711D02*
X35505961Y46496901D01*
X35505961Y46496901D02*
X35505961Y46554044D01*
X35505961Y46554044D02*
X35486913Y46630235D01*
X35486913Y46630235D02*
X35467866Y46668330D01*
X35467866Y46668330D02*
X35429771Y46706425D01*
X35429771Y46706425D02*
X35372628Y46725473D01*
X35372628Y46725473D02*
X35334532Y46725473D01*
X35334532Y46725473D02*
X35277390Y46706425D01*
X35277390Y46706425D02*
X35258342Y46687378D01*
X34877390Y46325473D02*
X35105961Y46325473D01*
X34991675Y46325473D02*
X34991675Y46725473D01*
X34991675Y46725473D02*
X35029771Y46668330D01*
X35029771Y46668330D02*
X35067866Y46630235D01*
X35067866Y46630235D02*
X35105961Y46611187D01*
X34496438Y46325473D02*
X34725009Y46325473D01*
X34610723Y46325473D02*
X34610723Y46725473D01*
X34610723Y46725473D02*
X34648819Y46668330D01*
X34648819Y46668330D02*
X34686914Y46630235D01*
X34686914Y46630235D02*
X34725009Y46611187D01*
D11*
X73424752Y65276591D02*
X73758085Y65276591D01*
X73758085Y64752781D02*
X73758085Y65752781D01*
X73758085Y65752781D02*
X73281895Y65752781D01*
X72900942Y64752781D02*
X72900942Y65419448D01*
X72900942Y65752781D02*
X72948561Y65705162D01*
X72948561Y65705162D02*
X72900942Y65657543D01*
X72900942Y65657543D02*
X72853323Y65705162D01*
X72853323Y65705162D02*
X72900942Y65752781D01*
X72900942Y65752781D02*
X72900942Y65657543D01*
X71996181Y64752781D02*
X71996181Y65752781D01*
X71996181Y64800400D02*
X72091419Y64752781D01*
X72091419Y64752781D02*
X72281895Y64752781D01*
X72281895Y64752781D02*
X72377133Y64800400D01*
X72377133Y64800400D02*
X72424752Y64848020D01*
X72424752Y64848020D02*
X72472371Y64943258D01*
X72472371Y64943258D02*
X72472371Y65228972D01*
X72472371Y65228972D02*
X72424752Y65324210D01*
X72424752Y65324210D02*
X72377133Y65371829D01*
X72377133Y65371829D02*
X72281895Y65419448D01*
X72281895Y65419448D02*
X72091419Y65419448D01*
X72091419Y65419448D02*
X71996181Y65371829D01*
X71091419Y65419448D02*
X71091419Y64752781D01*
X71519990Y65419448D02*
X71519990Y64895639D01*
X71519990Y64895639D02*
X71472371Y64800400D01*
X71472371Y64800400D02*
X71377133Y64752781D01*
X71377133Y64752781D02*
X71234276Y64752781D01*
X71234276Y64752781D02*
X71139038Y64800400D01*
X71139038Y64800400D02*
X71091419Y64848020D01*
X70186657Y64800400D02*
X70281895Y64752781D01*
X70281895Y64752781D02*
X70472371Y64752781D01*
X70472371Y64752781D02*
X70567609Y64800400D01*
X70567609Y64800400D02*
X70615228Y64848020D01*
X70615228Y64848020D02*
X70662847Y64943258D01*
X70662847Y64943258D02*
X70662847Y65228972D01*
X70662847Y65228972D02*
X70615228Y65324210D01*
X70615228Y65324210D02*
X70567609Y65371829D01*
X70567609Y65371829D02*
X70472371Y65419448D01*
X70472371Y65419448D02*
X70281895Y65419448D01*
X70281895Y65419448D02*
X70186657Y65371829D01*
X69758085Y64752781D02*
X69758085Y65419448D01*
X69758085Y65752781D02*
X69805704Y65705162D01*
X69805704Y65705162D02*
X69758085Y65657543D01*
X69758085Y65657543D02*
X69710466Y65705162D01*
X69710466Y65705162D02*
X69758085Y65752781D01*
X69758085Y65752781D02*
X69758085Y65657543D01*
X68853324Y64752781D02*
X68853324Y65276591D01*
X68853324Y65276591D02*
X68900943Y65371829D01*
X68900943Y65371829D02*
X68996181Y65419448D01*
X68996181Y65419448D02*
X69186657Y65419448D01*
X69186657Y65419448D02*
X69281895Y65371829D01*
X68853324Y64800400D02*
X68948562Y64752781D01*
X68948562Y64752781D02*
X69186657Y64752781D01*
X69186657Y64752781D02*
X69281895Y64800400D01*
X69281895Y64800400D02*
X69329514Y64895639D01*
X69329514Y64895639D02*
X69329514Y64990877D01*
X69329514Y64990877D02*
X69281895Y65086115D01*
X69281895Y65086115D02*
X69186657Y65133734D01*
X69186657Y65133734D02*
X68948562Y65133734D01*
X68948562Y65133734D02*
X68853324Y65181353D01*
X68234276Y64752781D02*
X68329514Y64800400D01*
X68329514Y64800400D02*
X68377133Y64895639D01*
X68377133Y64895639D02*
X68377133Y65752781D01*
D14*
X71579513Y67192356D02*
X71746180Y67192356D01*
X71746180Y66930451D02*
X71746180Y67430451D01*
X71746180Y67430451D02*
X71508085Y67430451D01*
X71317609Y66930451D02*
X71317609Y67430451D01*
X71079514Y66930451D02*
X71079514Y67430451D01*
X71079514Y67430451D02*
X70960466Y67430451D01*
X70960466Y67430451D02*
X70889038Y67406641D01*
X70889038Y67406641D02*
X70841419Y67359022D01*
X70841419Y67359022D02*
X70817609Y67311403D01*
X70817609Y67311403D02*
X70793800Y67216165D01*
X70793800Y67216165D02*
X70793800Y67144737D01*
X70793800Y67144737D02*
X70817609Y67049499D01*
X70817609Y67049499D02*
X70841419Y67001880D01*
X70841419Y67001880D02*
X70889038Y66954260D01*
X70889038Y66954260D02*
X70960466Y66930451D01*
X70960466Y66930451D02*
X71079514Y66930451D01*
X70317609Y66930451D02*
X70603323Y66930451D01*
X70460466Y66930451D02*
X70460466Y67430451D01*
X70460466Y67430451D02*
X70508085Y67359022D01*
X70508085Y67359022D02*
X70555704Y67311403D01*
X70555704Y67311403D02*
X70603323Y67287594D01*
D11*
X25313819Y38142848D02*
X25313819Y38714276D01*
X25313819Y38428562D02*
X24313819Y38428562D01*
X24313819Y38428562D02*
X24456676Y38523800D01*
X24456676Y38523800D02*
X24551914Y38619038D01*
X24551914Y38619038D02*
X24599533Y38714276D01*
X25313819Y37714276D02*
X24313819Y37714276D01*
X24932866Y37619038D02*
X25313819Y37333324D01*
X24647152Y37333324D02*
X25028104Y37714276D01*
D12*
X26470927Y38090467D02*
X26280451Y38223800D01*
X26470927Y38319038D02*
X26070927Y38319038D01*
X26070927Y38319038D02*
X26070927Y38166657D01*
X26070927Y38166657D02*
X26089975Y38128562D01*
X26089975Y38128562D02*
X26109022Y38109515D01*
X26109022Y38109515D02*
X26147118Y38090467D01*
X26147118Y38090467D02*
X26204260Y38090467D01*
X26204260Y38090467D02*
X26242356Y38109515D01*
X26242356Y38109515D02*
X26261403Y38128562D01*
X26261403Y38128562D02*
X26280451Y38166657D01*
X26280451Y38166657D02*
X26280451Y38319038D01*
X26470927Y37709515D02*
X26470927Y37938086D01*
X26470927Y37823800D02*
X26070927Y37823800D01*
X26070927Y37823800D02*
X26128070Y37861896D01*
X26128070Y37861896D02*
X26166165Y37899991D01*
X26166165Y37899991D02*
X26185213Y37938086D01*
D11*
X49779524Y75968991D02*
X49636667Y75921372D01*
X49636667Y75921372D02*
X49589048Y75873753D01*
X49589048Y75873753D02*
X49541429Y75778515D01*
X49541429Y75778515D02*
X49541429Y75635658D01*
X49541429Y75635658D02*
X49589048Y75540420D01*
X49589048Y75540420D02*
X49636667Y75492800D01*
X49636667Y75492800D02*
X49731905Y75445181D01*
X49731905Y75445181D02*
X50112857Y75445181D01*
X50112857Y75445181D02*
X50112857Y76445181D01*
X50112857Y76445181D02*
X49779524Y76445181D01*
X49779524Y76445181D02*
X49684286Y76397562D01*
X49684286Y76397562D02*
X49636667Y76349943D01*
X49636667Y76349943D02*
X49589048Y76254705D01*
X49589048Y76254705D02*
X49589048Y76159467D01*
X49589048Y76159467D02*
X49636667Y76064229D01*
X49636667Y76064229D02*
X49684286Y76016610D01*
X49684286Y76016610D02*
X49779524Y75968991D01*
X49779524Y75968991D02*
X50112857Y75968991D01*
X48970000Y75445181D02*
X49065238Y75492800D01*
X49065238Y75492800D02*
X49112857Y75540420D01*
X49112857Y75540420D02*
X49160476Y75635658D01*
X49160476Y75635658D02*
X49160476Y75921372D01*
X49160476Y75921372D02*
X49112857Y76016610D01*
X49112857Y76016610D02*
X49065238Y76064229D01*
X49065238Y76064229D02*
X48970000Y76111848D01*
X48970000Y76111848D02*
X48827143Y76111848D01*
X48827143Y76111848D02*
X48731905Y76064229D01*
X48731905Y76064229D02*
X48684286Y76016610D01*
X48684286Y76016610D02*
X48636667Y75921372D01*
X48636667Y75921372D02*
X48636667Y75635658D01*
X48636667Y75635658D02*
X48684286Y75540420D01*
X48684286Y75540420D02*
X48731905Y75492800D01*
X48731905Y75492800D02*
X48827143Y75445181D01*
X48827143Y75445181D02*
X48970000Y75445181D01*
X48065238Y75445181D02*
X48160476Y75492800D01*
X48160476Y75492800D02*
X48208095Y75540420D01*
X48208095Y75540420D02*
X48255714Y75635658D01*
X48255714Y75635658D02*
X48255714Y75921372D01*
X48255714Y75921372D02*
X48208095Y76016610D01*
X48208095Y76016610D02*
X48160476Y76064229D01*
X48160476Y76064229D02*
X48065238Y76111848D01*
X48065238Y76111848D02*
X47922381Y76111848D01*
X47922381Y76111848D02*
X47827143Y76064229D01*
X47827143Y76064229D02*
X47779524Y76016610D01*
X47779524Y76016610D02*
X47731905Y75921372D01*
X47731905Y75921372D02*
X47731905Y75635658D01*
X47731905Y75635658D02*
X47779524Y75540420D01*
X47779524Y75540420D02*
X47827143Y75492800D01*
X47827143Y75492800D02*
X47922381Y75445181D01*
X47922381Y75445181D02*
X48065238Y75445181D01*
X47446190Y76111848D02*
X47065238Y76111848D01*
X47303333Y76445181D02*
X47303333Y75588039D01*
X47303333Y75588039D02*
X47255714Y75492800D01*
X47255714Y75492800D02*
X47160476Y75445181D01*
X47160476Y75445181D02*
X47065238Y75445181D01*
X46017618Y75492800D02*
X45874761Y75445181D01*
X45874761Y75445181D02*
X45636666Y75445181D01*
X45636666Y75445181D02*
X45541428Y75492800D01*
X45541428Y75492800D02*
X45493809Y75540420D01*
X45493809Y75540420D02*
X45446190Y75635658D01*
X45446190Y75635658D02*
X45446190Y75730896D01*
X45446190Y75730896D02*
X45493809Y75826134D01*
X45493809Y75826134D02*
X45541428Y75873753D01*
X45541428Y75873753D02*
X45636666Y75921372D01*
X45636666Y75921372D02*
X45827142Y75968991D01*
X45827142Y75968991D02*
X45922380Y76016610D01*
X45922380Y76016610D02*
X45969999Y76064229D01*
X45969999Y76064229D02*
X46017618Y76159467D01*
X46017618Y76159467D02*
X46017618Y76254705D01*
X46017618Y76254705D02*
X45969999Y76349943D01*
X45969999Y76349943D02*
X45922380Y76397562D01*
X45922380Y76397562D02*
X45827142Y76445181D01*
X45827142Y76445181D02*
X45589047Y76445181D01*
X45589047Y76445181D02*
X45446190Y76397562D01*
X44636666Y75492800D02*
X44731904Y75445181D01*
X44731904Y75445181D02*
X44922380Y75445181D01*
X44922380Y75445181D02*
X45017618Y75492800D01*
X45017618Y75492800D02*
X45065237Y75588039D01*
X45065237Y75588039D02*
X45065237Y75968991D01*
X45065237Y75968991D02*
X45017618Y76064229D01*
X45017618Y76064229D02*
X44922380Y76111848D01*
X44922380Y76111848D02*
X44731904Y76111848D01*
X44731904Y76111848D02*
X44636666Y76064229D01*
X44636666Y76064229D02*
X44589047Y75968991D01*
X44589047Y75968991D02*
X44589047Y75873753D01*
X44589047Y75873753D02*
X45065237Y75778515D01*
X44017618Y75445181D02*
X44112856Y75492800D01*
X44112856Y75492800D02*
X44160475Y75588039D01*
X44160475Y75588039D02*
X44160475Y76445181D01*
X43255713Y75492800D02*
X43350951Y75445181D01*
X43350951Y75445181D02*
X43541427Y75445181D01*
X43541427Y75445181D02*
X43636665Y75492800D01*
X43636665Y75492800D02*
X43684284Y75588039D01*
X43684284Y75588039D02*
X43684284Y75968991D01*
X43684284Y75968991D02*
X43636665Y76064229D01*
X43636665Y76064229D02*
X43541427Y76111848D01*
X43541427Y76111848D02*
X43350951Y76111848D01*
X43350951Y76111848D02*
X43255713Y76064229D01*
X43255713Y76064229D02*
X43208094Y75968991D01*
X43208094Y75968991D02*
X43208094Y75873753D01*
X43208094Y75873753D02*
X43684284Y75778515D01*
X42350951Y75492800D02*
X42446189Y75445181D01*
X42446189Y75445181D02*
X42636665Y75445181D01*
X42636665Y75445181D02*
X42731903Y75492800D01*
X42731903Y75492800D02*
X42779522Y75540420D01*
X42779522Y75540420D02*
X42827141Y75635658D01*
X42827141Y75635658D02*
X42827141Y75921372D01*
X42827141Y75921372D02*
X42779522Y76016610D01*
X42779522Y76016610D02*
X42731903Y76064229D01*
X42731903Y76064229D02*
X42636665Y76111848D01*
X42636665Y76111848D02*
X42446189Y76111848D01*
X42446189Y76111848D02*
X42350951Y76064229D01*
X42065236Y76111848D02*
X41684284Y76111848D01*
X41922379Y76445181D02*
X41922379Y75588039D01*
X41922379Y75588039D02*
X41874760Y75492800D01*
X41874760Y75492800D02*
X41779522Y75445181D01*
X41779522Y75445181D02*
X41684284Y75445181D01*
X47303332Y69742800D02*
X47160475Y69695181D01*
X47160475Y69695181D02*
X46922380Y69695181D01*
X46922380Y69695181D02*
X46827142Y69742800D01*
X46827142Y69742800D02*
X46779523Y69790420D01*
X46779523Y69790420D02*
X46731904Y69885658D01*
X46731904Y69885658D02*
X46731904Y69980896D01*
X46731904Y69980896D02*
X46779523Y70076134D01*
X46779523Y70076134D02*
X46827142Y70123753D01*
X46827142Y70123753D02*
X46922380Y70171372D01*
X46922380Y70171372D02*
X47112856Y70218991D01*
X47112856Y70218991D02*
X47208094Y70266610D01*
X47208094Y70266610D02*
X47255713Y70314229D01*
X47255713Y70314229D02*
X47303332Y70409467D01*
X47303332Y70409467D02*
X47303332Y70504705D01*
X47303332Y70504705D02*
X47255713Y70599943D01*
X47255713Y70599943D02*
X47208094Y70647562D01*
X47208094Y70647562D02*
X47112856Y70695181D01*
X47112856Y70695181D02*
X46874761Y70695181D01*
X46874761Y70695181D02*
X46731904Y70647562D01*
X46398570Y70695181D02*
X46160475Y69695181D01*
X46160475Y69695181D02*
X45969999Y70409467D01*
X45969999Y70409467D02*
X45779523Y69695181D01*
X45779523Y69695181D02*
X45541428Y70695181D01*
X44636666Y69695181D02*
X45208094Y69695181D01*
X44922380Y69695181D02*
X44922380Y70695181D01*
X44922380Y70695181D02*
X45017618Y70552324D01*
X45017618Y70552324D02*
X45112856Y70457086D01*
X45112856Y70457086D02*
X45208094Y70409467D01*
X11541904Y51535181D02*
X10970476Y51535181D01*
X11256190Y50535181D02*
X11256190Y51535181D01*
X10637142Y50535181D02*
X10637142Y51535181D01*
X10637142Y51535181D02*
X10256190Y51535181D01*
X10256190Y51535181D02*
X10160952Y51487562D01*
X10160952Y51487562D02*
X10113333Y51439943D01*
X10113333Y51439943D02*
X10065714Y51344705D01*
X10065714Y51344705D02*
X10065714Y51201848D01*
X10065714Y51201848D02*
X10113333Y51106610D01*
X10113333Y51106610D02*
X10160952Y51058991D01*
X10160952Y51058991D02*
X10256190Y51011372D01*
X10256190Y51011372D02*
X10637142Y51011372D01*
X9208571Y51535181D02*
X9399047Y51535181D01*
X9399047Y51535181D02*
X9494285Y51487562D01*
X9494285Y51487562D02*
X9541904Y51439943D01*
X9541904Y51439943D02*
X9637142Y51297086D01*
X9637142Y51297086D02*
X9684761Y51106610D01*
X9684761Y51106610D02*
X9684761Y50725658D01*
X9684761Y50725658D02*
X9637142Y50630420D01*
X9637142Y50630420D02*
X9589523Y50582800D01*
X9589523Y50582800D02*
X9494285Y50535181D01*
X9494285Y50535181D02*
X9303809Y50535181D01*
X9303809Y50535181D02*
X9208571Y50582800D01*
X9208571Y50582800D02*
X9160952Y50630420D01*
X9160952Y50630420D02*
X9113333Y50725658D01*
X9113333Y50725658D02*
X9113333Y50963753D01*
X9113333Y50963753D02*
X9160952Y51058991D01*
X9160952Y51058991D02*
X9208571Y51106610D01*
X9208571Y51106610D02*
X9303809Y51154229D01*
X9303809Y51154229D02*
X9494285Y51154229D01*
X9494285Y51154229D02*
X9589523Y51106610D01*
X9589523Y51106610D02*
X9637142Y51058991D01*
X9637142Y51058991D02*
X9684761Y50963753D01*
X59378572Y65697681D02*
X59854762Y65697681D01*
X59854762Y65697681D02*
X59854762Y66697681D01*
X59045238Y66221491D02*
X58711905Y66221491D01*
X58569048Y65697681D02*
X59045238Y65697681D01*
X59045238Y65697681D02*
X59045238Y66697681D01*
X59045238Y66697681D02*
X58569048Y66697681D01*
X58140476Y65697681D02*
X58140476Y66697681D01*
X58140476Y66697681D02*
X57902381Y66697681D01*
X57902381Y66697681D02*
X57759524Y66650062D01*
X57759524Y66650062D02*
X57664286Y66554824D01*
X57664286Y66554824D02*
X57616667Y66459586D01*
X57616667Y66459586D02*
X57569048Y66269110D01*
X57569048Y66269110D02*
X57569048Y66126253D01*
X57569048Y66126253D02*
X57616667Y65935777D01*
X57616667Y65935777D02*
X57664286Y65840539D01*
X57664286Y65840539D02*
X57759524Y65745300D01*
X57759524Y65745300D02*
X57902381Y65697681D01*
X57902381Y65697681D02*
X58140476Y65697681D01*
X56378571Y65697681D02*
X56378571Y66697681D01*
X56378571Y66697681D02*
X55997619Y66697681D01*
X55997619Y66697681D02*
X55902381Y66650062D01*
X55902381Y66650062D02*
X55854762Y66602443D01*
X55854762Y66602443D02*
X55807143Y66507205D01*
X55807143Y66507205D02*
X55807143Y66364348D01*
X55807143Y66364348D02*
X55854762Y66269110D01*
X55854762Y66269110D02*
X55902381Y66221491D01*
X55902381Y66221491D02*
X55997619Y66173872D01*
X55997619Y66173872D02*
X56378571Y66173872D01*
X55235714Y65697681D02*
X55330952Y65745300D01*
X55330952Y65745300D02*
X55378571Y65792920D01*
X55378571Y65792920D02*
X55426190Y65888158D01*
X55426190Y65888158D02*
X55426190Y66173872D01*
X55426190Y66173872D02*
X55378571Y66269110D01*
X55378571Y66269110D02*
X55330952Y66316729D01*
X55330952Y66316729D02*
X55235714Y66364348D01*
X55235714Y66364348D02*
X55092857Y66364348D01*
X55092857Y66364348D02*
X54997619Y66316729D01*
X54997619Y66316729D02*
X54950000Y66269110D01*
X54950000Y66269110D02*
X54902381Y66173872D01*
X54902381Y66173872D02*
X54902381Y65888158D01*
X54902381Y65888158D02*
X54950000Y65792920D01*
X54950000Y65792920D02*
X54997619Y65745300D01*
X54997619Y65745300D02*
X55092857Y65697681D01*
X55092857Y65697681D02*
X55235714Y65697681D01*
X54569047Y66364348D02*
X54378571Y65697681D01*
X54378571Y65697681D02*
X54188095Y66173872D01*
X54188095Y66173872D02*
X53997619Y65697681D01*
X53997619Y65697681D02*
X53807143Y66364348D01*
X53045238Y65745300D02*
X53140476Y65697681D01*
X53140476Y65697681D02*
X53330952Y65697681D01*
X53330952Y65697681D02*
X53426190Y65745300D01*
X53426190Y65745300D02*
X53473809Y65840539D01*
X53473809Y65840539D02*
X53473809Y66221491D01*
X53473809Y66221491D02*
X53426190Y66316729D01*
X53426190Y66316729D02*
X53330952Y66364348D01*
X53330952Y66364348D02*
X53140476Y66364348D01*
X53140476Y66364348D02*
X53045238Y66316729D01*
X53045238Y66316729D02*
X52997619Y66221491D01*
X52997619Y66221491D02*
X52997619Y66126253D01*
X52997619Y66126253D02*
X53473809Y66031015D01*
X52569047Y65697681D02*
X52569047Y66364348D01*
X52569047Y66173872D02*
X52521428Y66269110D01*
X52521428Y66269110D02*
X52473809Y66316729D01*
X52473809Y66316729D02*
X52378571Y66364348D01*
X52378571Y66364348D02*
X52283333Y66364348D01*
X51235713Y65745300D02*
X51092856Y65697681D01*
X51092856Y65697681D02*
X50854761Y65697681D01*
X50854761Y65697681D02*
X50759523Y65745300D01*
X50759523Y65745300D02*
X50711904Y65792920D01*
X50711904Y65792920D02*
X50664285Y65888158D01*
X50664285Y65888158D02*
X50664285Y65983396D01*
X50664285Y65983396D02*
X50711904Y66078634D01*
X50711904Y66078634D02*
X50759523Y66126253D01*
X50759523Y66126253D02*
X50854761Y66173872D01*
X50854761Y66173872D02*
X51045237Y66221491D01*
X51045237Y66221491D02*
X51140475Y66269110D01*
X51140475Y66269110D02*
X51188094Y66316729D01*
X51188094Y66316729D02*
X51235713Y66411967D01*
X51235713Y66411967D02*
X51235713Y66507205D01*
X51235713Y66507205D02*
X51188094Y66602443D01*
X51188094Y66602443D02*
X51140475Y66650062D01*
X51140475Y66650062D02*
X51045237Y66697681D01*
X51045237Y66697681D02*
X50807142Y66697681D01*
X50807142Y66697681D02*
X50664285Y66650062D01*
X49854761Y65745300D02*
X49949999Y65697681D01*
X49949999Y65697681D02*
X50140475Y65697681D01*
X50140475Y65697681D02*
X50235713Y65745300D01*
X50235713Y65745300D02*
X50283332Y65840539D01*
X50283332Y65840539D02*
X50283332Y66221491D01*
X50283332Y66221491D02*
X50235713Y66316729D01*
X50235713Y66316729D02*
X50140475Y66364348D01*
X50140475Y66364348D02*
X49949999Y66364348D01*
X49949999Y66364348D02*
X49854761Y66316729D01*
X49854761Y66316729D02*
X49807142Y66221491D01*
X49807142Y66221491D02*
X49807142Y66126253D01*
X49807142Y66126253D02*
X50283332Y66031015D01*
X49235713Y65697681D02*
X49330951Y65745300D01*
X49330951Y65745300D02*
X49378570Y65840539D01*
X49378570Y65840539D02*
X49378570Y66697681D01*
X48473808Y65745300D02*
X48569046Y65697681D01*
X48569046Y65697681D02*
X48759522Y65697681D01*
X48759522Y65697681D02*
X48854760Y65745300D01*
X48854760Y65745300D02*
X48902379Y65840539D01*
X48902379Y65840539D02*
X48902379Y66221491D01*
X48902379Y66221491D02*
X48854760Y66316729D01*
X48854760Y66316729D02*
X48759522Y66364348D01*
X48759522Y66364348D02*
X48569046Y66364348D01*
X48569046Y66364348D02*
X48473808Y66316729D01*
X48473808Y66316729D02*
X48426189Y66221491D01*
X48426189Y66221491D02*
X48426189Y66126253D01*
X48426189Y66126253D02*
X48902379Y66031015D01*
X47569046Y65745300D02*
X47664284Y65697681D01*
X47664284Y65697681D02*
X47854760Y65697681D01*
X47854760Y65697681D02*
X47949998Y65745300D01*
X47949998Y65745300D02*
X47997617Y65792920D01*
X47997617Y65792920D02*
X48045236Y65888158D01*
X48045236Y65888158D02*
X48045236Y66173872D01*
X48045236Y66173872D02*
X47997617Y66269110D01*
X47997617Y66269110D02*
X47949998Y66316729D01*
X47949998Y66316729D02*
X47854760Y66364348D01*
X47854760Y66364348D02*
X47664284Y66364348D01*
X47664284Y66364348D02*
X47569046Y66316729D01*
X47283331Y66364348D02*
X46902379Y66364348D01*
X47140474Y66697681D02*
X47140474Y65840539D01*
X47140474Y65840539D02*
X47092855Y65745300D01*
X47092855Y65745300D02*
X46997617Y65697681D01*
X46997617Y65697681D02*
X46902379Y65697681D01*
X6394152Y65276591D02*
X6727485Y65276591D01*
X6727485Y64752781D02*
X6727485Y65752781D01*
X6727485Y65752781D02*
X6251295Y65752781D01*
X5870342Y64752781D02*
X5870342Y65419448D01*
X5870342Y65752781D02*
X5917961Y65705162D01*
X5917961Y65705162D02*
X5870342Y65657543D01*
X5870342Y65657543D02*
X5822723Y65705162D01*
X5822723Y65705162D02*
X5870342Y65752781D01*
X5870342Y65752781D02*
X5870342Y65657543D01*
X4965581Y64752781D02*
X4965581Y65752781D01*
X4965581Y64800400D02*
X5060819Y64752781D01*
X5060819Y64752781D02*
X5251295Y64752781D01*
X5251295Y64752781D02*
X5346533Y64800400D01*
X5346533Y64800400D02*
X5394152Y64848020D01*
X5394152Y64848020D02*
X5441771Y64943258D01*
X5441771Y64943258D02*
X5441771Y65228972D01*
X5441771Y65228972D02*
X5394152Y65324210D01*
X5394152Y65324210D02*
X5346533Y65371829D01*
X5346533Y65371829D02*
X5251295Y65419448D01*
X5251295Y65419448D02*
X5060819Y65419448D01*
X5060819Y65419448D02*
X4965581Y65371829D01*
X4060819Y65419448D02*
X4060819Y64752781D01*
X4489390Y65419448D02*
X4489390Y64895639D01*
X4489390Y64895639D02*
X4441771Y64800400D01*
X4441771Y64800400D02*
X4346533Y64752781D01*
X4346533Y64752781D02*
X4203676Y64752781D01*
X4203676Y64752781D02*
X4108438Y64800400D01*
X4108438Y64800400D02*
X4060819Y64848020D01*
X3156057Y64800400D02*
X3251295Y64752781D01*
X3251295Y64752781D02*
X3441771Y64752781D01*
X3441771Y64752781D02*
X3537009Y64800400D01*
X3537009Y64800400D02*
X3584628Y64848020D01*
X3584628Y64848020D02*
X3632247Y64943258D01*
X3632247Y64943258D02*
X3632247Y65228972D01*
X3632247Y65228972D02*
X3584628Y65324210D01*
X3584628Y65324210D02*
X3537009Y65371829D01*
X3537009Y65371829D02*
X3441771Y65419448D01*
X3441771Y65419448D02*
X3251295Y65419448D01*
X3251295Y65419448D02*
X3156057Y65371829D01*
X2727485Y64752781D02*
X2727485Y65419448D01*
X2727485Y65752781D02*
X2775104Y65705162D01*
X2775104Y65705162D02*
X2727485Y65657543D01*
X2727485Y65657543D02*
X2679866Y65705162D01*
X2679866Y65705162D02*
X2727485Y65752781D01*
X2727485Y65752781D02*
X2727485Y65657543D01*
X1822724Y64752781D02*
X1822724Y65276591D01*
X1822724Y65276591D02*
X1870343Y65371829D01*
X1870343Y65371829D02*
X1965581Y65419448D01*
X1965581Y65419448D02*
X2156057Y65419448D01*
X2156057Y65419448D02*
X2251295Y65371829D01*
X1822724Y64800400D02*
X1917962Y64752781D01*
X1917962Y64752781D02*
X2156057Y64752781D01*
X2156057Y64752781D02*
X2251295Y64800400D01*
X2251295Y64800400D02*
X2298914Y64895639D01*
X2298914Y64895639D02*
X2298914Y64990877D01*
X2298914Y64990877D02*
X2251295Y65086115D01*
X2251295Y65086115D02*
X2156057Y65133734D01*
X2156057Y65133734D02*
X1917962Y65133734D01*
X1917962Y65133734D02*
X1822724Y65181353D01*
X1203676Y64752781D02*
X1298914Y64800400D01*
X1298914Y64800400D02*
X1346533Y64895639D01*
X1346533Y64895639D02*
X1346533Y65752781D01*
D14*
X4548913Y67192356D02*
X4715580Y67192356D01*
X4715580Y66930451D02*
X4715580Y67430451D01*
X4715580Y67430451D02*
X4477485Y67430451D01*
X4287009Y66930451D02*
X4287009Y67430451D01*
X4048914Y66930451D02*
X4048914Y67430451D01*
X4048914Y67430451D02*
X3929866Y67430451D01*
X3929866Y67430451D02*
X3858438Y67406641D01*
X3858438Y67406641D02*
X3810819Y67359022D01*
X3810819Y67359022D02*
X3787009Y67311403D01*
X3787009Y67311403D02*
X3763200Y67216165D01*
X3763200Y67216165D02*
X3763200Y67144737D01*
X3763200Y67144737D02*
X3787009Y67049499D01*
X3787009Y67049499D02*
X3810819Y67001880D01*
X3810819Y67001880D02*
X3858438Y66954260D01*
X3858438Y66954260D02*
X3929866Y66930451D01*
X3929866Y66930451D02*
X4048914Y66930451D01*
X3334628Y67263784D02*
X3334628Y66930451D01*
X3453676Y67454260D02*
X3572723Y67097118D01*
X3572723Y67097118D02*
X3263200Y67097118D01*
D11*
X31844819Y68450953D02*
X31844819Y68927143D01*
X31844819Y68927143D02*
X32321009Y68974762D01*
X32321009Y68974762D02*
X32273390Y68927143D01*
X32273390Y68927143D02*
X32225771Y68831905D01*
X32225771Y68831905D02*
X32225771Y68593810D01*
X32225771Y68593810D02*
X32273390Y68498572D01*
X32273390Y68498572D02*
X32321009Y68450953D01*
X32321009Y68450953D02*
X32416247Y68403334D01*
X32416247Y68403334D02*
X32654342Y68403334D01*
X32654342Y68403334D02*
X32749580Y68450953D01*
X32749580Y68450953D02*
X32797200Y68498572D01*
X32797200Y68498572D02*
X32844819Y68593810D01*
X32844819Y68593810D02*
X32844819Y68831905D01*
X32844819Y68831905D02*
X32797200Y68927143D01*
X32797200Y68927143D02*
X32749580Y68974762D01*
X32749580Y67974762D02*
X32797200Y67927143D01*
X32797200Y67927143D02*
X32844819Y67974762D01*
X32844819Y67974762D02*
X32797200Y68022381D01*
X32797200Y68022381D02*
X32749580Y67974762D01*
X32749580Y67974762D02*
X32844819Y67974762D01*
X32844819Y66974763D02*
X32844819Y67546191D01*
X32844819Y67260477D02*
X31844819Y67260477D01*
X31844819Y67260477D02*
X31987676Y67355715D01*
X31987676Y67355715D02*
X32082914Y67450953D01*
X32082914Y67450953D02*
X32130533Y67546191D01*
X32844819Y66546191D02*
X31844819Y66546191D01*
X32463866Y66450953D02*
X32844819Y66165239D01*
X32178152Y66165239D02*
X32559104Y66546191D01*
D12*
X31141927Y67636667D02*
X30951451Y67770000D01*
X31141927Y67865238D02*
X30741927Y67865238D01*
X30741927Y67865238D02*
X30741927Y67712857D01*
X30741927Y67712857D02*
X30760975Y67674762D01*
X30760975Y67674762D02*
X30780022Y67655715D01*
X30780022Y67655715D02*
X30818118Y67636667D01*
X30818118Y67636667D02*
X30875260Y67636667D01*
X30875260Y67636667D02*
X30913356Y67655715D01*
X30913356Y67655715D02*
X30932403Y67674762D01*
X30932403Y67674762D02*
X30951451Y67712857D01*
X30951451Y67712857D02*
X30951451Y67865238D01*
X30780022Y67484286D02*
X30760975Y67465238D01*
X30760975Y67465238D02*
X30741927Y67427143D01*
X30741927Y67427143D02*
X30741927Y67331905D01*
X30741927Y67331905D02*
X30760975Y67293810D01*
X30760975Y67293810D02*
X30780022Y67274762D01*
X30780022Y67274762D02*
X30818118Y67255715D01*
X30818118Y67255715D02*
X30856213Y67255715D01*
X30856213Y67255715D02*
X30913356Y67274762D01*
X30913356Y67274762D02*
X31141927Y67503334D01*
X31141927Y67503334D02*
X31141927Y67255715D01*
D11*
X30337738Y42235181D02*
X30671071Y42711372D01*
X30909166Y42235181D02*
X30909166Y43235181D01*
X30909166Y43235181D02*
X30528214Y43235181D01*
X30528214Y43235181D02*
X30432976Y43187562D01*
X30432976Y43187562D02*
X30385357Y43139943D01*
X30385357Y43139943D02*
X30337738Y43044705D01*
X30337738Y43044705D02*
X30337738Y42901848D01*
X30337738Y42901848D02*
X30385357Y42806610D01*
X30385357Y42806610D02*
X30432976Y42758991D01*
X30432976Y42758991D02*
X30528214Y42711372D01*
X30528214Y42711372D02*
X30909166Y42711372D01*
X29909166Y42235181D02*
X29909166Y43235181D01*
X29909166Y43235181D02*
X29528214Y43235181D01*
X29528214Y43235181D02*
X29432976Y43187562D01*
X29432976Y43187562D02*
X29385357Y43139943D01*
X29385357Y43139943D02*
X29337738Y43044705D01*
X29337738Y43044705D02*
X29337738Y42901848D01*
X29337738Y42901848D02*
X29385357Y42806610D01*
X29385357Y42806610D02*
X29432976Y42758991D01*
X29432976Y42758991D02*
X29528214Y42711372D01*
X29528214Y42711372D02*
X29909166Y42711372D01*
X28956785Y43139943D02*
X28909166Y43187562D01*
X28909166Y43187562D02*
X28813928Y43235181D01*
X28813928Y43235181D02*
X28575833Y43235181D01*
X28575833Y43235181D02*
X28480595Y43187562D01*
X28480595Y43187562D02*
X28432976Y43139943D01*
X28432976Y43139943D02*
X28385357Y43044705D01*
X28385357Y43044705D02*
X28385357Y42949467D01*
X28385357Y42949467D02*
X28432976Y42806610D01*
X28432976Y42806610D02*
X29004404Y42235181D01*
X29004404Y42235181D02*
X28385357Y42235181D01*
X27766309Y43235181D02*
X27671071Y43235181D01*
X27671071Y43235181D02*
X27575833Y43187562D01*
X27575833Y43187562D02*
X27528214Y43139943D01*
X27528214Y43139943D02*
X27480595Y43044705D01*
X27480595Y43044705D02*
X27432976Y42854229D01*
X27432976Y42854229D02*
X27432976Y42616134D01*
X27432976Y42616134D02*
X27480595Y42425658D01*
X27480595Y42425658D02*
X27528214Y42330420D01*
X27528214Y42330420D02*
X27575833Y42282800D01*
X27575833Y42282800D02*
X27671071Y42235181D01*
X27671071Y42235181D02*
X27766309Y42235181D01*
X27766309Y42235181D02*
X27861547Y42282800D01*
X27861547Y42282800D02*
X27909166Y42330420D01*
X27909166Y42330420D02*
X27956785Y42425658D01*
X27956785Y42425658D02*
X28004404Y42616134D01*
X28004404Y42616134D02*
X28004404Y42854229D01*
X28004404Y42854229D02*
X27956785Y43044705D01*
X27956785Y43044705D02*
X27909166Y43139943D01*
X27909166Y43139943D02*
X27861547Y43187562D01*
X27861547Y43187562D02*
X27766309Y43235181D01*
X26575833Y42901848D02*
X26575833Y42235181D01*
X26813928Y43282800D02*
X27052023Y42568515D01*
X27052023Y42568515D02*
X26432976Y42568515D01*
X25861547Y43235181D02*
X25766309Y43235181D01*
X25766309Y43235181D02*
X25671071Y43187562D01*
X25671071Y43187562D02*
X25623452Y43139943D01*
X25623452Y43139943D02*
X25575833Y43044705D01*
X25575833Y43044705D02*
X25528214Y42854229D01*
X25528214Y42854229D02*
X25528214Y42616134D01*
X25528214Y42616134D02*
X25575833Y42425658D01*
X25575833Y42425658D02*
X25623452Y42330420D01*
X25623452Y42330420D02*
X25671071Y42282800D01*
X25671071Y42282800D02*
X25766309Y42235181D01*
X25766309Y42235181D02*
X25861547Y42235181D01*
X25861547Y42235181D02*
X25956785Y42282800D01*
X25956785Y42282800D02*
X26004404Y42330420D01*
X26004404Y42330420D02*
X26052023Y42425658D01*
X26052023Y42425658D02*
X26099642Y42616134D01*
X26099642Y42616134D02*
X26099642Y42854229D01*
X26099642Y42854229D02*
X26052023Y43044705D01*
X26052023Y43044705D02*
X26004404Y43139943D01*
X26004404Y43139943D02*
X25956785Y43187562D01*
X25956785Y43187562D02*
X25861547Y43235181D01*
X29004404Y48065181D02*
X29004404Y47255658D01*
X29004404Y47255658D02*
X28956785Y47160420D01*
X28956785Y47160420D02*
X28909166Y47112800D01*
X28909166Y47112800D02*
X28813928Y47065181D01*
X28813928Y47065181D02*
X28623452Y47065181D01*
X28623452Y47065181D02*
X28528214Y47112800D01*
X28528214Y47112800D02*
X28480595Y47160420D01*
X28480595Y47160420D02*
X28432976Y47255658D01*
X28432976Y47255658D02*
X28432976Y48065181D01*
X28004404Y47969943D02*
X27956785Y48017562D01*
X27956785Y48017562D02*
X27861547Y48065181D01*
X27861547Y48065181D02*
X27623452Y48065181D01*
X27623452Y48065181D02*
X27528214Y48017562D01*
X27528214Y48017562D02*
X27480595Y47969943D01*
X27480595Y47969943D02*
X27432976Y47874705D01*
X27432976Y47874705D02*
X27432976Y47779467D01*
X27432976Y47779467D02*
X27480595Y47636610D01*
X27480595Y47636610D02*
X28052023Y47065181D01*
X28052023Y47065181D02*
X27432976Y47065181D01*
X26619075Y15000D02*
X26476218Y-32619D01*
X26476218Y-32619D02*
X26238123Y-32619D01*
X26238123Y-32619D02*
X26142885Y15000D01*
X26142885Y15000D02*
X26095266Y62620D01*
X26095266Y62620D02*
X26047647Y157858D01*
X26047647Y157858D02*
X26047647Y253096D01*
X26047647Y253096D02*
X26095266Y348334D01*
X26095266Y348334D02*
X26142885Y395953D01*
X26142885Y395953D02*
X26238123Y443572D01*
X26238123Y443572D02*
X26428599Y491191D01*
X26428599Y491191D02*
X26523837Y538810D01*
X26523837Y538810D02*
X26571456Y586429D01*
X26571456Y586429D02*
X26619075Y681667D01*
X26619075Y681667D02*
X26619075Y776905D01*
X26619075Y776905D02*
X26571456Y872143D01*
X26571456Y872143D02*
X26523837Y919762D01*
X26523837Y919762D02*
X26428599Y967381D01*
X26428599Y967381D02*
X26190504Y967381D01*
X26190504Y967381D02*
X26047647Y919762D01*
X25619075Y-32619D02*
X25619075Y967381D01*
X25047647Y-32619D02*
X25476218Y538810D01*
X25047647Y967381D02*
X25619075Y395953D01*
X24190504Y967381D02*
X24380980Y967381D01*
X24380980Y967381D02*
X24476218Y919762D01*
X24476218Y919762D02*
X24523837Y872143D01*
X24523837Y872143D02*
X24619075Y729286D01*
X24619075Y729286D02*
X24666694Y538810D01*
X24666694Y538810D02*
X24666694Y157858D01*
X24666694Y157858D02*
X24619075Y62620D01*
X24619075Y62620D02*
X24571456Y15000D01*
X24571456Y15000D02*
X24476218Y-32619D01*
X24476218Y-32619D02*
X24285742Y-32619D01*
X24285742Y-32619D02*
X24190504Y15000D01*
X24190504Y15000D02*
X24142885Y62620D01*
X24142885Y62620D02*
X24095266Y157858D01*
X24095266Y157858D02*
X24095266Y395953D01*
X24095266Y395953D02*
X24142885Y491191D01*
X24142885Y491191D02*
X24190504Y538810D01*
X24190504Y538810D02*
X24285742Y586429D01*
X24285742Y586429D02*
X24476218Y586429D01*
X24476218Y586429D02*
X24571456Y538810D01*
X24571456Y538810D02*
X24619075Y491191D01*
X24619075Y491191D02*
X24666694Y395953D01*
X23523837Y538810D02*
X23619075Y586429D01*
X23619075Y586429D02*
X23666694Y634048D01*
X23666694Y634048D02*
X23714313Y729286D01*
X23714313Y729286D02*
X23714313Y776905D01*
X23714313Y776905D02*
X23666694Y872143D01*
X23666694Y872143D02*
X23619075Y919762D01*
X23619075Y919762D02*
X23523837Y967381D01*
X23523837Y967381D02*
X23333361Y967381D01*
X23333361Y967381D02*
X23238123Y919762D01*
X23238123Y919762D02*
X23190504Y872143D01*
X23190504Y872143D02*
X23142885Y776905D01*
X23142885Y776905D02*
X23142885Y729286D01*
X23142885Y729286D02*
X23190504Y634048D01*
X23190504Y634048D02*
X23238123Y586429D01*
X23238123Y586429D02*
X23333361Y538810D01*
X23333361Y538810D02*
X23523837Y538810D01*
X23523837Y538810D02*
X23619075Y491191D01*
X23619075Y491191D02*
X23666694Y443572D01*
X23666694Y443572D02*
X23714313Y348334D01*
X23714313Y348334D02*
X23714313Y157858D01*
X23714313Y157858D02*
X23666694Y62620D01*
X23666694Y62620D02*
X23619075Y15000D01*
X23619075Y15000D02*
X23523837Y-32619D01*
X23523837Y-32619D02*
X23333361Y-32619D01*
X23333361Y-32619D02*
X23238123Y15000D01*
X23238123Y15000D02*
X23190504Y62620D01*
X23190504Y62620D02*
X23142885Y157858D01*
X23142885Y157858D02*
X23142885Y348334D01*
X23142885Y348334D02*
X23190504Y443572D01*
X23190504Y443572D02*
X23238123Y491191D01*
X23238123Y491191D02*
X23333361Y538810D01*
X22190504Y-32619D02*
X22761932Y-32619D01*
X22476218Y-32619D02*
X22476218Y967381D01*
X22476218Y967381D02*
X22571456Y824524D01*
X22571456Y824524D02*
X22666694Y729286D01*
X22666694Y729286D02*
X22761932Y681667D01*
X21809551Y872143D02*
X21761932Y919762D01*
X21761932Y919762D02*
X21666694Y967381D01*
X21666694Y967381D02*
X21428599Y967381D01*
X21428599Y967381D02*
X21333361Y919762D01*
X21333361Y919762D02*
X21285742Y872143D01*
X21285742Y872143D02*
X21238123Y776905D01*
X21238123Y776905D02*
X21238123Y681667D01*
X21238123Y681667D02*
X21285742Y538810D01*
X21285742Y538810D02*
X21857170Y-32619D01*
X21857170Y-32619D02*
X21238123Y-32619D01*
X37892319Y55018571D02*
X38892319Y54780476D01*
X38892319Y54780476D02*
X38178033Y54590000D01*
X38178033Y54590000D02*
X38892319Y54399524D01*
X38892319Y54399524D02*
X37892319Y54161428D01*
X37987557Y53828095D02*
X37939938Y53780476D01*
X37939938Y53780476D02*
X37892319Y53685238D01*
X37892319Y53685238D02*
X37892319Y53447143D01*
X37892319Y53447143D02*
X37939938Y53351905D01*
X37939938Y53351905D02*
X37987557Y53304286D01*
X37987557Y53304286D02*
X38082795Y53256667D01*
X38082795Y53256667D02*
X38178033Y53256667D01*
X38178033Y53256667D02*
X38320890Y53304286D01*
X38320890Y53304286D02*
X38892319Y53875714D01*
X38892319Y53875714D02*
X38892319Y53256667D01*
X37892319Y52351905D02*
X37892319Y52828095D01*
X37892319Y52828095D02*
X38368509Y52875714D01*
X38368509Y52875714D02*
X38320890Y52828095D01*
X38320890Y52828095D02*
X38273271Y52732857D01*
X38273271Y52732857D02*
X38273271Y52494762D01*
X38273271Y52494762D02*
X38320890Y52399524D01*
X38320890Y52399524D02*
X38368509Y52351905D01*
X38368509Y52351905D02*
X38463747Y52304286D01*
X38463747Y52304286D02*
X38701842Y52304286D01*
X38701842Y52304286D02*
X38797080Y52351905D01*
X38797080Y52351905D02*
X38844700Y52399524D01*
X38844700Y52399524D02*
X38892319Y52494762D01*
X38892319Y52494762D02*
X38892319Y52732857D01*
X38892319Y52732857D02*
X38844700Y52828095D01*
X38844700Y52828095D02*
X38797080Y52875714D01*
X38987557Y51209048D02*
X38939938Y51304286D01*
X38939938Y51304286D02*
X38844700Y51399524D01*
X38844700Y51399524D02*
X38701842Y51542381D01*
X38701842Y51542381D02*
X38654223Y51637619D01*
X38654223Y51637619D02*
X38654223Y51732857D01*
X38892319Y51685238D02*
X38844700Y51780476D01*
X38844700Y51780476D02*
X38749461Y51875714D01*
X38749461Y51875714D02*
X38558985Y51923333D01*
X38558985Y51923333D02*
X38225652Y51923333D01*
X38225652Y51923333D02*
X38035176Y51875714D01*
X38035176Y51875714D02*
X37939938Y51780476D01*
X37939938Y51780476D02*
X37892319Y51685238D01*
X37892319Y51685238D02*
X37892319Y51494762D01*
X37892319Y51494762D02*
X37939938Y51399524D01*
X37939938Y51399524D02*
X38035176Y51304286D01*
X38035176Y51304286D02*
X38225652Y51256667D01*
X38225652Y51256667D02*
X38558985Y51256667D01*
X38558985Y51256667D02*
X38749461Y51304286D01*
X38749461Y51304286D02*
X38844700Y51399524D01*
X38844700Y51399524D02*
X38892319Y51494762D01*
X38892319Y51494762D02*
X38892319Y51685238D01*
X38892319Y50304286D02*
X38892319Y50875714D01*
X38892319Y50590000D02*
X37892319Y50590000D01*
X37892319Y50590000D02*
X38035176Y50685238D01*
X38035176Y50685238D02*
X38130414Y50780476D01*
X38130414Y50780476D02*
X38178033Y50875714D01*
X37987557Y49923333D02*
X37939938Y49875714D01*
X37939938Y49875714D02*
X37892319Y49780476D01*
X37892319Y49780476D02*
X37892319Y49542381D01*
X37892319Y49542381D02*
X37939938Y49447143D01*
X37939938Y49447143D02*
X37987557Y49399524D01*
X37987557Y49399524D02*
X38082795Y49351905D01*
X38082795Y49351905D02*
X38178033Y49351905D01*
X38178033Y49351905D02*
X38320890Y49399524D01*
X38320890Y49399524D02*
X38892319Y49970952D01*
X38892319Y49970952D02*
X38892319Y49351905D01*
X38320890Y48780476D02*
X38273271Y48875714D01*
X38273271Y48875714D02*
X38225652Y48923333D01*
X38225652Y48923333D02*
X38130414Y48970952D01*
X38130414Y48970952D02*
X38082795Y48970952D01*
X38082795Y48970952D02*
X37987557Y48923333D01*
X37987557Y48923333D02*
X37939938Y48875714D01*
X37939938Y48875714D02*
X37892319Y48780476D01*
X37892319Y48780476D02*
X37892319Y48590000D01*
X37892319Y48590000D02*
X37939938Y48494762D01*
X37939938Y48494762D02*
X37987557Y48447143D01*
X37987557Y48447143D02*
X38082795Y48399524D01*
X38082795Y48399524D02*
X38130414Y48399524D01*
X38130414Y48399524D02*
X38225652Y48447143D01*
X38225652Y48447143D02*
X38273271Y48494762D01*
X38273271Y48494762D02*
X38320890Y48590000D01*
X38320890Y48590000D02*
X38320890Y48780476D01*
X38320890Y48780476D02*
X38368509Y48875714D01*
X38368509Y48875714D02*
X38416128Y48923333D01*
X38416128Y48923333D02*
X38511366Y48970952D01*
X38511366Y48970952D02*
X38701842Y48970952D01*
X38701842Y48970952D02*
X38797080Y48923333D01*
X38797080Y48923333D02*
X38844700Y48875714D01*
X38844700Y48875714D02*
X38892319Y48780476D01*
X38892319Y48780476D02*
X38892319Y48590000D01*
X38892319Y48590000D02*
X38844700Y48494762D01*
X38844700Y48494762D02*
X38797080Y48447143D01*
X38797080Y48447143D02*
X38701842Y48399524D01*
X38701842Y48399524D02*
X38511366Y48399524D01*
X38511366Y48399524D02*
X38416128Y48447143D01*
X38416128Y48447143D02*
X38368509Y48494762D01*
X38368509Y48494762D02*
X38320890Y48590000D01*
X37892319Y47685238D02*
X38606604Y47685238D01*
X38606604Y47685238D02*
X38749461Y47732857D01*
X38749461Y47732857D02*
X38844700Y47828095D01*
X38844700Y47828095D02*
X38892319Y47970952D01*
X38892319Y47970952D02*
X38892319Y48066190D01*
X37892319Y47351904D02*
X38892319Y47018571D01*
X38892319Y47018571D02*
X37892319Y46685238D01*
X38844700Y46399523D02*
X38892319Y46256666D01*
X38892319Y46256666D02*
X38892319Y46018571D01*
X38892319Y46018571D02*
X38844700Y45923333D01*
X38844700Y45923333D02*
X38797080Y45875714D01*
X38797080Y45875714D02*
X38701842Y45828095D01*
X38701842Y45828095D02*
X38606604Y45828095D01*
X38606604Y45828095D02*
X38511366Y45875714D01*
X38511366Y45875714D02*
X38463747Y45923333D01*
X38463747Y45923333D02*
X38416128Y46018571D01*
X38416128Y46018571D02*
X38368509Y46209047D01*
X38368509Y46209047D02*
X38320890Y46304285D01*
X38320890Y46304285D02*
X38273271Y46351904D01*
X38273271Y46351904D02*
X38178033Y46399523D01*
X38178033Y46399523D02*
X38082795Y46399523D01*
X38082795Y46399523D02*
X37987557Y46351904D01*
X37987557Y46351904D02*
X37939938Y46304285D01*
X37939938Y46304285D02*
X37892319Y46209047D01*
X37892319Y46209047D02*
X37892319Y45970952D01*
X37892319Y45970952D02*
X37939938Y45828095D01*
X38892319Y45399523D02*
X37892319Y45399523D01*
X38892319Y44923333D02*
X37892319Y44923333D01*
X37892319Y44923333D02*
X38606604Y44590000D01*
X38606604Y44590000D02*
X37892319Y44256667D01*
X37892319Y44256667D02*
X38892319Y44256667D01*
X41492319Y50351905D02*
X42301842Y50351905D01*
X42301842Y50351905D02*
X42397080Y50304286D01*
X42397080Y50304286D02*
X42444700Y50256667D01*
X42444700Y50256667D02*
X42492319Y50161429D01*
X42492319Y50161429D02*
X42492319Y49970953D01*
X42492319Y49970953D02*
X42444700Y49875715D01*
X42444700Y49875715D02*
X42397080Y49828096D01*
X42397080Y49828096D02*
X42301842Y49780477D01*
X42301842Y49780477D02*
X41492319Y49780477D01*
X41825652Y48875715D02*
X42492319Y48875715D01*
X41444700Y49113810D02*
X42158985Y49351905D01*
X42158985Y49351905D02*
X42158985Y48732858D01*
X26649704Y43384124D02*
X26649704Y42907934D01*
X26935419Y43479362D02*
X25935419Y43146029D01*
X25935419Y43146029D02*
X26935419Y42812696D01*
X26411609Y42146029D02*
X26459228Y42003172D01*
X26459228Y42003172D02*
X26506847Y41955553D01*
X26506847Y41955553D02*
X26602085Y41907934D01*
X26602085Y41907934D02*
X26744942Y41907934D01*
X26744942Y41907934D02*
X26840180Y41955553D01*
X26840180Y41955553D02*
X26887800Y42003172D01*
X26887800Y42003172D02*
X26935419Y42098410D01*
X26935419Y42098410D02*
X26935419Y42479362D01*
X26935419Y42479362D02*
X25935419Y42479362D01*
X25935419Y42479362D02*
X25935419Y42146029D01*
X25935419Y42146029D02*
X25983038Y42050791D01*
X25983038Y42050791D02*
X26030657Y42003172D01*
X26030657Y42003172D02*
X26125895Y41955553D01*
X26125895Y41955553D02*
X26221133Y41955553D01*
X26221133Y41955553D02*
X26316371Y42003172D01*
X26316371Y42003172D02*
X26363990Y42050791D01*
X26363990Y42050791D02*
X26411609Y42146029D01*
X26411609Y42146029D02*
X26411609Y42479362D01*
X26935419Y41479362D02*
X25935419Y41479362D01*
X25935419Y41479362D02*
X26649704Y41146029D01*
X26649704Y41146029D02*
X25935419Y40812696D01*
X25935419Y40812696D02*
X26935419Y40812696D01*
X26363990Y40193648D02*
X26316371Y40288886D01*
X26316371Y40288886D02*
X26268752Y40336505D01*
X26268752Y40336505D02*
X26173514Y40384124D01*
X26173514Y40384124D02*
X26125895Y40384124D01*
X26125895Y40384124D02*
X26030657Y40336505D01*
X26030657Y40336505D02*
X25983038Y40288886D01*
X25983038Y40288886D02*
X25935419Y40193648D01*
X25935419Y40193648D02*
X25935419Y40003172D01*
X25935419Y40003172D02*
X25983038Y39907934D01*
X25983038Y39907934D02*
X26030657Y39860315D01*
X26030657Y39860315D02*
X26125895Y39812696D01*
X26125895Y39812696D02*
X26173514Y39812696D01*
X26173514Y39812696D02*
X26268752Y39860315D01*
X26268752Y39860315D02*
X26316371Y39907934D01*
X26316371Y39907934D02*
X26363990Y40003172D01*
X26363990Y40003172D02*
X26363990Y40193648D01*
X26363990Y40193648D02*
X26411609Y40288886D01*
X26411609Y40288886D02*
X26459228Y40336505D01*
X26459228Y40336505D02*
X26554466Y40384124D01*
X26554466Y40384124D02*
X26744942Y40384124D01*
X26744942Y40384124D02*
X26840180Y40336505D01*
X26840180Y40336505D02*
X26887800Y40288886D01*
X26887800Y40288886D02*
X26935419Y40193648D01*
X26935419Y40193648D02*
X26935419Y40003172D01*
X26935419Y40003172D02*
X26887800Y39907934D01*
X26887800Y39907934D02*
X26840180Y39860315D01*
X26840180Y39860315D02*
X26744942Y39812696D01*
X26744942Y39812696D02*
X26554466Y39812696D01*
X26554466Y39812696D02*
X26459228Y39860315D01*
X26459228Y39860315D02*
X26411609Y39907934D01*
X26411609Y39907934D02*
X26363990Y40003172D01*
X26554466Y39384124D02*
X26554466Y38622219D01*
X26030657Y38193648D02*
X25983038Y38146029D01*
X25983038Y38146029D02*
X25935419Y38050791D01*
X25935419Y38050791D02*
X25935419Y37812696D01*
X25935419Y37812696D02*
X25983038Y37717458D01*
X25983038Y37717458D02*
X26030657Y37669839D01*
X26030657Y37669839D02*
X26125895Y37622220D01*
X26125895Y37622220D02*
X26221133Y37622220D01*
X26221133Y37622220D02*
X26363990Y37669839D01*
X26363990Y37669839D02*
X26935419Y38241267D01*
X26935419Y38241267D02*
X26935419Y37622220D01*
X25935419Y37288886D02*
X25935419Y36622220D01*
X25935419Y36622220D02*
X26935419Y37050791D01*
X26030657Y36288886D02*
X25983038Y36241267D01*
X25983038Y36241267D02*
X25935419Y36146029D01*
X25935419Y36146029D02*
X25935419Y35907934D01*
X25935419Y35907934D02*
X25983038Y35812696D01*
X25983038Y35812696D02*
X26030657Y35765077D01*
X26030657Y35765077D02*
X26125895Y35717458D01*
X26125895Y35717458D02*
X26221133Y35717458D01*
X26221133Y35717458D02*
X26363990Y35765077D01*
X26363990Y35765077D02*
X26935419Y36336505D01*
X26935419Y36336505D02*
X26935419Y35717458D01*
X26554466Y35288886D02*
X26554466Y34526981D01*
X25935419Y34193648D02*
X25935419Y33622220D01*
X26935419Y33907934D02*
X25935419Y33907934D01*
X25935419Y33384124D02*
X25935419Y32765077D01*
X25935419Y32765077D02*
X26316371Y33098410D01*
X26316371Y33098410D02*
X26316371Y32955553D01*
X26316371Y32955553D02*
X26363990Y32860315D01*
X26363990Y32860315D02*
X26411609Y32812696D01*
X26411609Y32812696D02*
X26506847Y32765077D01*
X26506847Y32765077D02*
X26744942Y32765077D01*
X26744942Y32765077D02*
X26840180Y32812696D01*
X26840180Y32812696D02*
X26887800Y32860315D01*
X26887800Y32860315D02*
X26935419Y32955553D01*
X26935419Y32955553D02*
X26935419Y33241267D01*
X26935419Y33241267D02*
X26887800Y33336505D01*
X26887800Y33336505D02*
X26840180Y33384124D01*
D15*
X28913502Y38455552D02*
X29294455Y38455552D01*
X28494455Y38722219D02*
X28913502Y38455552D01*
X28913502Y38455552D02*
X28494455Y38188886D01*
X29294455Y37503172D02*
X29294455Y37960315D01*
X29294455Y37731743D02*
X28494455Y37731743D01*
X28494455Y37731743D02*
X28608740Y37807934D01*
X28608740Y37807934D02*
X28684931Y37884124D01*
X28684931Y37884124D02*
X28723026Y37960315D01*
D11*
X44894819Y68450953D02*
X44894819Y68927143D01*
X44894819Y68927143D02*
X45371009Y68974762D01*
X45371009Y68974762D02*
X45323390Y68927143D01*
X45323390Y68927143D02*
X45275771Y68831905D01*
X45275771Y68831905D02*
X45275771Y68593810D01*
X45275771Y68593810D02*
X45323390Y68498572D01*
X45323390Y68498572D02*
X45371009Y68450953D01*
X45371009Y68450953D02*
X45466247Y68403334D01*
X45466247Y68403334D02*
X45704342Y68403334D01*
X45704342Y68403334D02*
X45799580Y68450953D01*
X45799580Y68450953D02*
X45847200Y68498572D01*
X45847200Y68498572D02*
X45894819Y68593810D01*
X45894819Y68593810D02*
X45894819Y68831905D01*
X45894819Y68831905D02*
X45847200Y68927143D01*
X45847200Y68927143D02*
X45799580Y68974762D01*
X45799580Y67974762D02*
X45847200Y67927143D01*
X45847200Y67927143D02*
X45894819Y67974762D01*
X45894819Y67974762D02*
X45847200Y68022381D01*
X45847200Y68022381D02*
X45799580Y67974762D01*
X45799580Y67974762D02*
X45894819Y67974762D01*
X45894819Y66974763D02*
X45894819Y67546191D01*
X45894819Y67260477D02*
X44894819Y67260477D01*
X44894819Y67260477D02*
X45037676Y67355715D01*
X45037676Y67355715D02*
X45132914Y67450953D01*
X45132914Y67450953D02*
X45180533Y67546191D01*
X45894819Y66546191D02*
X44894819Y66546191D01*
X45513866Y66450953D02*
X45894819Y66165239D01*
X45228152Y66165239D02*
X45609104Y66546191D01*
D12*
X44191927Y67636667D02*
X44001451Y67770000D01*
X44191927Y67865238D02*
X43791927Y67865238D01*
X43791927Y67865238D02*
X43791927Y67712857D01*
X43791927Y67712857D02*
X43810975Y67674762D01*
X43810975Y67674762D02*
X43830022Y67655715D01*
X43830022Y67655715D02*
X43868118Y67636667D01*
X43868118Y67636667D02*
X43925260Y67636667D01*
X43925260Y67636667D02*
X43963356Y67655715D01*
X43963356Y67655715D02*
X43982403Y67674762D01*
X43982403Y67674762D02*
X44001451Y67712857D01*
X44001451Y67712857D02*
X44001451Y67865238D01*
X43791927Y67503334D02*
X43791927Y67255715D01*
X43791927Y67255715D02*
X43944308Y67389048D01*
X43944308Y67389048D02*
X43944308Y67331905D01*
X43944308Y67331905D02*
X43963356Y67293810D01*
X43963356Y67293810D02*
X43982403Y67274762D01*
X43982403Y67274762D02*
X44020499Y67255715D01*
X44020499Y67255715D02*
X44115737Y67255715D01*
X44115737Y67255715D02*
X44153832Y67274762D01*
X44153832Y67274762D02*
X44172880Y67293810D01*
X44172880Y67293810D02*
X44191927Y67331905D01*
X44191927Y67331905D02*
X44191927Y67446191D01*
X44191927Y67446191D02*
X44172880Y67484286D01*
X44172880Y67484286D02*
X44153832Y67503334D01*
D11*
X29415237Y69112800D02*
X29272380Y69065181D01*
X29272380Y69065181D02*
X29034285Y69065181D01*
X29034285Y69065181D02*
X28939047Y69112800D01*
X28939047Y69112800D02*
X28891428Y69160420D01*
X28891428Y69160420D02*
X28843809Y69255658D01*
X28843809Y69255658D02*
X28843809Y69350896D01*
X28843809Y69350896D02*
X28891428Y69446134D01*
X28891428Y69446134D02*
X28939047Y69493753D01*
X28939047Y69493753D02*
X29034285Y69541372D01*
X29034285Y69541372D02*
X29224761Y69588991D01*
X29224761Y69588991D02*
X29319999Y69636610D01*
X29319999Y69636610D02*
X29367618Y69684229D01*
X29367618Y69684229D02*
X29415237Y69779467D01*
X29415237Y69779467D02*
X29415237Y69874705D01*
X29415237Y69874705D02*
X29367618Y69969943D01*
X29367618Y69969943D02*
X29319999Y70017562D01*
X29319999Y70017562D02*
X29224761Y70065181D01*
X29224761Y70065181D02*
X28986666Y70065181D01*
X28986666Y70065181D02*
X28843809Y70017562D01*
X28510475Y70065181D02*
X28272380Y69065181D01*
X28272380Y69065181D02*
X28081904Y69779467D01*
X28081904Y69779467D02*
X27891428Y69065181D01*
X27891428Y69065181D02*
X27653333Y70065181D01*
X27510476Y68969943D02*
X26748571Y68969943D01*
X26558094Y69112800D02*
X26415237Y69065181D01*
X26415237Y69065181D02*
X26177142Y69065181D01*
X26177142Y69065181D02*
X26081904Y69112800D01*
X26081904Y69112800D02*
X26034285Y69160420D01*
X26034285Y69160420D02*
X25986666Y69255658D01*
X25986666Y69255658D02*
X25986666Y69350896D01*
X25986666Y69350896D02*
X26034285Y69446134D01*
X26034285Y69446134D02*
X26081904Y69493753D01*
X26081904Y69493753D02*
X26177142Y69541372D01*
X26177142Y69541372D02*
X26367618Y69588991D01*
X26367618Y69588991D02*
X26462856Y69636610D01*
X26462856Y69636610D02*
X26510475Y69684229D01*
X26510475Y69684229D02*
X26558094Y69779467D01*
X26558094Y69779467D02*
X26558094Y69874705D01*
X26558094Y69874705D02*
X26510475Y69969943D01*
X26510475Y69969943D02*
X26462856Y70017562D01*
X26462856Y70017562D02*
X26367618Y70065181D01*
X26367618Y70065181D02*
X26129523Y70065181D01*
X26129523Y70065181D02*
X25986666Y70017562D01*
X25558094Y69065181D02*
X25558094Y70065181D01*
X25558094Y70065181D02*
X25177142Y70065181D01*
X25177142Y70065181D02*
X25081904Y70017562D01*
X25081904Y70017562D02*
X25034285Y69969943D01*
X25034285Y69969943D02*
X24986666Y69874705D01*
X24986666Y69874705D02*
X24986666Y69731848D01*
X24986666Y69731848D02*
X25034285Y69636610D01*
X25034285Y69636610D02*
X25081904Y69588991D01*
X25081904Y69588991D02*
X25177142Y69541372D01*
X25177142Y69541372D02*
X25558094Y69541372D01*
X24558094Y69065181D02*
X24558094Y70065181D01*
X24558094Y70065181D02*
X24319999Y70065181D01*
X24319999Y70065181D02*
X24177142Y70017562D01*
X24177142Y70017562D02*
X24081904Y69922324D01*
X24081904Y69922324D02*
X24034285Y69827086D01*
X24034285Y69827086D02*
X23986666Y69636610D01*
X23986666Y69636610D02*
X23986666Y69493753D01*
X23986666Y69493753D02*
X24034285Y69303277D01*
X24034285Y69303277D02*
X24081904Y69208039D01*
X24081904Y69208039D02*
X24177142Y69112800D01*
X24177142Y69112800D02*
X24319999Y69065181D01*
X24319999Y69065181D02*
X24558094Y69065181D01*
X23700951Y70065181D02*
X23129523Y70065181D01*
X23415237Y69065181D02*
X23415237Y70065181D01*
X27653332Y72012800D02*
X27510475Y71965181D01*
X27510475Y71965181D02*
X27272380Y71965181D01*
X27272380Y71965181D02*
X27177142Y72012800D01*
X27177142Y72012800D02*
X27129523Y72060420D01*
X27129523Y72060420D02*
X27081904Y72155658D01*
X27081904Y72155658D02*
X27081904Y72250896D01*
X27081904Y72250896D02*
X27129523Y72346134D01*
X27129523Y72346134D02*
X27177142Y72393753D01*
X27177142Y72393753D02*
X27272380Y72441372D01*
X27272380Y72441372D02*
X27462856Y72488991D01*
X27462856Y72488991D02*
X27558094Y72536610D01*
X27558094Y72536610D02*
X27605713Y72584229D01*
X27605713Y72584229D02*
X27653332Y72679467D01*
X27653332Y72679467D02*
X27653332Y72774705D01*
X27653332Y72774705D02*
X27605713Y72869943D01*
X27605713Y72869943D02*
X27558094Y72917562D01*
X27558094Y72917562D02*
X27462856Y72965181D01*
X27462856Y72965181D02*
X27224761Y72965181D01*
X27224761Y72965181D02*
X27081904Y72917562D01*
X26748570Y72965181D02*
X26510475Y71965181D01*
X26510475Y71965181D02*
X26319999Y72679467D01*
X26319999Y72679467D02*
X26129523Y71965181D01*
X26129523Y71965181D02*
X25891428Y72965181D01*
X25558094Y72869943D02*
X25510475Y72917562D01*
X25510475Y72917562D02*
X25415237Y72965181D01*
X25415237Y72965181D02*
X25177142Y72965181D01*
X25177142Y72965181D02*
X25081904Y72917562D01*
X25081904Y72917562D02*
X25034285Y72869943D01*
X25034285Y72869943D02*
X24986666Y72774705D01*
X24986666Y72774705D02*
X24986666Y72679467D01*
X24986666Y72679467D02*
X25034285Y72536610D01*
X25034285Y72536610D02*
X25605713Y71965181D01*
X25605713Y71965181D02*
X24986666Y71965181D01*
X73424752Y6145391D02*
X73758085Y6145391D01*
X73758085Y5621581D02*
X73758085Y6621581D01*
X73758085Y6621581D02*
X73281895Y6621581D01*
X72900942Y5621581D02*
X72900942Y6288248D01*
X72900942Y6621581D02*
X72948561Y6573962D01*
X72948561Y6573962D02*
X72900942Y6526343D01*
X72900942Y6526343D02*
X72853323Y6573962D01*
X72853323Y6573962D02*
X72900942Y6621581D01*
X72900942Y6621581D02*
X72900942Y6526343D01*
X71996181Y5621581D02*
X71996181Y6621581D01*
X71996181Y5669200D02*
X72091419Y5621581D01*
X72091419Y5621581D02*
X72281895Y5621581D01*
X72281895Y5621581D02*
X72377133Y5669200D01*
X72377133Y5669200D02*
X72424752Y5716820D01*
X72424752Y5716820D02*
X72472371Y5812058D01*
X72472371Y5812058D02*
X72472371Y6097772D01*
X72472371Y6097772D02*
X72424752Y6193010D01*
X72424752Y6193010D02*
X72377133Y6240629D01*
X72377133Y6240629D02*
X72281895Y6288248D01*
X72281895Y6288248D02*
X72091419Y6288248D01*
X72091419Y6288248D02*
X71996181Y6240629D01*
X71091419Y6288248D02*
X71091419Y5621581D01*
X71519990Y6288248D02*
X71519990Y5764439D01*
X71519990Y5764439D02*
X71472371Y5669200D01*
X71472371Y5669200D02*
X71377133Y5621581D01*
X71377133Y5621581D02*
X71234276Y5621581D01*
X71234276Y5621581D02*
X71139038Y5669200D01*
X71139038Y5669200D02*
X71091419Y5716820D01*
X70186657Y5669200D02*
X70281895Y5621581D01*
X70281895Y5621581D02*
X70472371Y5621581D01*
X70472371Y5621581D02*
X70567609Y5669200D01*
X70567609Y5669200D02*
X70615228Y5716820D01*
X70615228Y5716820D02*
X70662847Y5812058D01*
X70662847Y5812058D02*
X70662847Y6097772D01*
X70662847Y6097772D02*
X70615228Y6193010D01*
X70615228Y6193010D02*
X70567609Y6240629D01*
X70567609Y6240629D02*
X70472371Y6288248D01*
X70472371Y6288248D02*
X70281895Y6288248D01*
X70281895Y6288248D02*
X70186657Y6240629D01*
X69758085Y5621581D02*
X69758085Y6288248D01*
X69758085Y6621581D02*
X69805704Y6573962D01*
X69805704Y6573962D02*
X69758085Y6526343D01*
X69758085Y6526343D02*
X69710466Y6573962D01*
X69710466Y6573962D02*
X69758085Y6621581D01*
X69758085Y6621581D02*
X69758085Y6526343D01*
X68853324Y5621581D02*
X68853324Y6145391D01*
X68853324Y6145391D02*
X68900943Y6240629D01*
X68900943Y6240629D02*
X68996181Y6288248D01*
X68996181Y6288248D02*
X69186657Y6288248D01*
X69186657Y6288248D02*
X69281895Y6240629D01*
X68853324Y5669200D02*
X68948562Y5621581D01*
X68948562Y5621581D02*
X69186657Y5621581D01*
X69186657Y5621581D02*
X69281895Y5669200D01*
X69281895Y5669200D02*
X69329514Y5764439D01*
X69329514Y5764439D02*
X69329514Y5859677D01*
X69329514Y5859677D02*
X69281895Y5954915D01*
X69281895Y5954915D02*
X69186657Y6002534D01*
X69186657Y6002534D02*
X68948562Y6002534D01*
X68948562Y6002534D02*
X68853324Y6050153D01*
X68234276Y5621581D02*
X68329514Y5669200D01*
X68329514Y5669200D02*
X68377133Y5764439D01*
X68377133Y5764439D02*
X68377133Y6621581D01*
D14*
X71579513Y8061156D02*
X71746180Y8061156D01*
X71746180Y7799251D02*
X71746180Y8299251D01*
X71746180Y8299251D02*
X71508085Y8299251D01*
X71317609Y7799251D02*
X71317609Y8299251D01*
X71079514Y7799251D02*
X71079514Y8299251D01*
X71079514Y8299251D02*
X70960466Y8299251D01*
X70960466Y8299251D02*
X70889038Y8275441D01*
X70889038Y8275441D02*
X70841419Y8227822D01*
X70841419Y8227822D02*
X70817609Y8180203D01*
X70817609Y8180203D02*
X70793800Y8084965D01*
X70793800Y8084965D02*
X70793800Y8013537D01*
X70793800Y8013537D02*
X70817609Y7918299D01*
X70817609Y7918299D02*
X70841419Y7870680D01*
X70841419Y7870680D02*
X70889038Y7823060D01*
X70889038Y7823060D02*
X70960466Y7799251D01*
X70960466Y7799251D02*
X71079514Y7799251D01*
X70603323Y8251632D02*
X70579514Y8275441D01*
X70579514Y8275441D02*
X70531895Y8299251D01*
X70531895Y8299251D02*
X70412847Y8299251D01*
X70412847Y8299251D02*
X70365228Y8275441D01*
X70365228Y8275441D02*
X70341419Y8251632D01*
X70341419Y8251632D02*
X70317609Y8204013D01*
X70317609Y8204013D02*
X70317609Y8156394D01*
X70317609Y8156394D02*
X70341419Y8084965D01*
X70341419Y8084965D02*
X70627133Y7799251D01*
X70627133Y7799251D02*
X70317609Y7799251D01*
D11*
X51252856Y5585181D02*
X51157618Y5585181D01*
X51157618Y5585181D02*
X51062380Y5537562D01*
X51062380Y5537562D02*
X51014761Y5489943D01*
X51014761Y5489943D02*
X50967142Y5394705D01*
X50967142Y5394705D02*
X50919523Y5204229D01*
X50919523Y5204229D02*
X50919523Y4966134D01*
X50919523Y4966134D02*
X50967142Y4775658D01*
X50967142Y4775658D02*
X51014761Y4680420D01*
X51014761Y4680420D02*
X51062380Y4632800D01*
X51062380Y4632800D02*
X51157618Y4585181D01*
X51157618Y4585181D02*
X51252856Y4585181D01*
X51252856Y4585181D02*
X51348094Y4632800D01*
X51348094Y4632800D02*
X51395713Y4680420D01*
X51395713Y4680420D02*
X51443332Y4775658D01*
X51443332Y4775658D02*
X51490951Y4966134D01*
X51490951Y4966134D02*
X51490951Y5204229D01*
X51490951Y5204229D02*
X51443332Y5394705D01*
X51443332Y5394705D02*
X51395713Y5489943D01*
X51395713Y5489943D02*
X51348094Y5537562D01*
X51348094Y5537562D02*
X51252856Y5585181D01*
X50490951Y4680420D02*
X50443332Y4632800D01*
X50443332Y4632800D02*
X50490951Y4585181D01*
X50490951Y4585181D02*
X50538570Y4632800D01*
X50538570Y4632800D02*
X50490951Y4680420D01*
X50490951Y4680420D02*
X50490951Y4585181D01*
X49490952Y4585181D02*
X50062380Y4585181D01*
X49776666Y4585181D02*
X49776666Y5585181D01*
X49776666Y5585181D02*
X49871904Y5442324D01*
X49871904Y5442324D02*
X49967142Y5347086D01*
X49967142Y5347086D02*
X50062380Y5299467D01*
X48633809Y5251848D02*
X48633809Y4585181D01*
X49062380Y5251848D02*
X49062380Y4728039D01*
X49062380Y4728039D02*
X49014761Y4632800D01*
X49014761Y4632800D02*
X48919523Y4585181D01*
X48919523Y4585181D02*
X48776666Y4585181D01*
X48776666Y4585181D02*
X48681428Y4632800D01*
X48681428Y4632800D02*
X48633809Y4680420D01*
X47824285Y5108991D02*
X48157618Y5108991D01*
X48157618Y4585181D02*
X48157618Y5585181D01*
X48157618Y5585181D02*
X47681428Y5585181D01*
D12*
X49867142Y6326168D02*
X49886190Y6307120D01*
X49886190Y6307120D02*
X49943332Y6288073D01*
X49943332Y6288073D02*
X49981428Y6288073D01*
X49981428Y6288073D02*
X50038571Y6307120D01*
X50038571Y6307120D02*
X50076666Y6345216D01*
X50076666Y6345216D02*
X50095713Y6383311D01*
X50095713Y6383311D02*
X50114761Y6459501D01*
X50114761Y6459501D02*
X50114761Y6516644D01*
X50114761Y6516644D02*
X50095713Y6592835D01*
X50095713Y6592835D02*
X50076666Y6630930D01*
X50076666Y6630930D02*
X50038571Y6669025D01*
X50038571Y6669025D02*
X49981428Y6688073D01*
X49981428Y6688073D02*
X49943332Y6688073D01*
X49943332Y6688073D02*
X49886190Y6669025D01*
X49886190Y6669025D02*
X49867142Y6649978D01*
X49486190Y6288073D02*
X49714761Y6288073D01*
X49600475Y6288073D02*
X49600475Y6688073D01*
X49600475Y6688073D02*
X49638571Y6630930D01*
X49638571Y6630930D02*
X49676666Y6592835D01*
X49676666Y6592835D02*
X49714761Y6573787D01*
X49295714Y6288073D02*
X49219523Y6288073D01*
X49219523Y6288073D02*
X49181428Y6307120D01*
X49181428Y6307120D02*
X49162380Y6326168D01*
X49162380Y6326168D02*
X49124285Y6383311D01*
X49124285Y6383311D02*
X49105238Y6459501D01*
X49105238Y6459501D02*
X49105238Y6611882D01*
X49105238Y6611882D02*
X49124285Y6649978D01*
X49124285Y6649978D02*
X49143333Y6669025D01*
X49143333Y6669025D02*
X49181428Y6688073D01*
X49181428Y6688073D02*
X49257619Y6688073D01*
X49257619Y6688073D02*
X49295714Y6669025D01*
X49295714Y6669025D02*
X49314761Y6649978D01*
X49314761Y6649978D02*
X49333809Y6611882D01*
X49333809Y6611882D02*
X49333809Y6516644D01*
X49333809Y6516644D02*
X49314761Y6478549D01*
X49314761Y6478549D02*
X49295714Y6459501D01*
X49295714Y6459501D02*
X49257619Y6440454D01*
X49257619Y6440454D02*
X49181428Y6440454D01*
X49181428Y6440454D02*
X49143333Y6459501D01*
X49143333Y6459501D02*
X49124285Y6478549D01*
X49124285Y6478549D02*
X49105238Y6516644D01*
D11*
X11442438Y46903929D02*
X11394819Y46999167D01*
X11394819Y46999167D02*
X11394819Y47142024D01*
X11394819Y47142024D02*
X11442438Y47284881D01*
X11442438Y47284881D02*
X11537676Y47380119D01*
X11537676Y47380119D02*
X11632914Y47427738D01*
X11632914Y47427738D02*
X11823390Y47475357D01*
X11823390Y47475357D02*
X11966247Y47475357D01*
X11966247Y47475357D02*
X12156723Y47427738D01*
X12156723Y47427738D02*
X12251961Y47380119D01*
X12251961Y47380119D02*
X12347200Y47284881D01*
X12347200Y47284881D02*
X12394819Y47142024D01*
X12394819Y47142024D02*
X12394819Y47046786D01*
X12394819Y47046786D02*
X12347200Y46903929D01*
X12347200Y46903929D02*
X12299580Y46856310D01*
X12299580Y46856310D02*
X11966247Y46856310D01*
X11966247Y46856310D02*
X11966247Y47046786D01*
X12347200Y46475357D02*
X12394819Y46332500D01*
X12394819Y46332500D02*
X12394819Y46094405D01*
X12394819Y46094405D02*
X12347200Y45999167D01*
X12347200Y45999167D02*
X12299580Y45951548D01*
X12299580Y45951548D02*
X12204342Y45903929D01*
X12204342Y45903929D02*
X12109104Y45903929D01*
X12109104Y45903929D02*
X12013866Y45951548D01*
X12013866Y45951548D02*
X11966247Y45999167D01*
X11966247Y45999167D02*
X11918628Y46094405D01*
X11918628Y46094405D02*
X11871009Y46284881D01*
X11871009Y46284881D02*
X11823390Y46380119D01*
X11823390Y46380119D02*
X11775771Y46427738D01*
X11775771Y46427738D02*
X11680533Y46475357D01*
X11680533Y46475357D02*
X11585295Y46475357D01*
X11585295Y46475357D02*
X11490057Y46427738D01*
X11490057Y46427738D02*
X11442438Y46380119D01*
X11442438Y46380119D02*
X11394819Y46284881D01*
X11394819Y46284881D02*
X11394819Y46046786D01*
X11394819Y46046786D02*
X11442438Y45903929D01*
X12394819Y45475357D02*
X11394819Y45475357D01*
X11394819Y45475357D02*
X11394819Y45237262D01*
X11394819Y45237262D02*
X11442438Y45094405D01*
X11442438Y45094405D02*
X11537676Y44999167D01*
X11537676Y44999167D02*
X11632914Y44951548D01*
X11632914Y44951548D02*
X11823390Y44903929D01*
X11823390Y44903929D02*
X11966247Y44903929D01*
X11966247Y44903929D02*
X12156723Y44951548D01*
X12156723Y44951548D02*
X12251961Y44999167D01*
X12251961Y44999167D02*
X12347200Y45094405D01*
X12347200Y45094405D02*
X12394819Y45237262D01*
X12394819Y45237262D02*
X12394819Y45475357D01*
X12109104Y44522976D02*
X12109104Y44046786D01*
X12394819Y44618214D02*
X11394819Y44284881D01*
X11394819Y44284881D02*
X12394819Y43951548D01*
X11490057Y43665833D02*
X11442438Y43618214D01*
X11442438Y43618214D02*
X11394819Y43522976D01*
X11394819Y43522976D02*
X11394819Y43284881D01*
X11394819Y43284881D02*
X11442438Y43189643D01*
X11442438Y43189643D02*
X11490057Y43142024D01*
X11490057Y43142024D02*
X11585295Y43094405D01*
X11585295Y43094405D02*
X11680533Y43094405D01*
X11680533Y43094405D02*
X11823390Y43142024D01*
X11823390Y43142024D02*
X12394819Y43713452D01*
X12394819Y43713452D02*
X12394819Y43094405D01*
X12394819Y42142024D02*
X12394819Y42713452D01*
X12394819Y42427738D02*
X11394819Y42427738D01*
X11394819Y42427738D02*
X11537676Y42522976D01*
X11537676Y42522976D02*
X11632914Y42618214D01*
X11632914Y42618214D02*
X11680533Y42713452D01*
X11394819Y41808690D02*
X11394819Y41189643D01*
X11394819Y41189643D02*
X11775771Y41522976D01*
X11775771Y41522976D02*
X11775771Y41380119D01*
X11775771Y41380119D02*
X11823390Y41284881D01*
X11823390Y41284881D02*
X11871009Y41237262D01*
X11871009Y41237262D02*
X11966247Y41189643D01*
X11966247Y41189643D02*
X12204342Y41189643D01*
X12204342Y41189643D02*
X12299580Y41237262D01*
X12299580Y41237262D02*
X12347200Y41284881D01*
X12347200Y41284881D02*
X12394819Y41380119D01*
X12394819Y41380119D02*
X12394819Y41665833D01*
X12394819Y41665833D02*
X12347200Y41761071D01*
X12347200Y41761071D02*
X12299580Y41808690D01*
D14*
X13617149Y44713453D02*
X14021911Y44713453D01*
X14021911Y44713453D02*
X14069530Y44689643D01*
X14069530Y44689643D02*
X14093340Y44665834D01*
X14093340Y44665834D02*
X14117149Y44618215D01*
X14117149Y44618215D02*
X14117149Y44522977D01*
X14117149Y44522977D02*
X14093340Y44475358D01*
X14093340Y44475358D02*
X14069530Y44451548D01*
X14069530Y44451548D02*
X14021911Y44427739D01*
X14021911Y44427739D02*
X13617149Y44427739D01*
X14117149Y43927738D02*
X14117149Y44213452D01*
X14117149Y44070595D02*
X13617149Y44070595D01*
X13617149Y44070595D02*
X13688578Y44118214D01*
X13688578Y44118214D02*
X13736197Y44165833D01*
X13736197Y44165833D02*
X13760006Y44213452D01*
D11*
X29254819Y55442857D02*
X29254819Y55347619D01*
X29254819Y55347619D02*
X29302438Y55252381D01*
X29302438Y55252381D02*
X29350057Y55204762D01*
X29350057Y55204762D02*
X29445295Y55157143D01*
X29445295Y55157143D02*
X29635771Y55109524D01*
X29635771Y55109524D02*
X29873866Y55109524D01*
X29873866Y55109524D02*
X30064342Y55157143D01*
X30064342Y55157143D02*
X30159580Y55204762D01*
X30159580Y55204762D02*
X30207200Y55252381D01*
X30207200Y55252381D02*
X30254819Y55347619D01*
X30254819Y55347619D02*
X30254819Y55442857D01*
X30254819Y55442857D02*
X30207200Y55538095D01*
X30207200Y55538095D02*
X30159580Y55585714D01*
X30159580Y55585714D02*
X30064342Y55633333D01*
X30064342Y55633333D02*
X29873866Y55680952D01*
X29873866Y55680952D02*
X29635771Y55680952D01*
X29635771Y55680952D02*
X29445295Y55633333D01*
X29445295Y55633333D02*
X29350057Y55585714D01*
X29350057Y55585714D02*
X29302438Y55538095D01*
X29302438Y55538095D02*
X29254819Y55442857D01*
X30159580Y54680952D02*
X30207200Y54633333D01*
X30207200Y54633333D02*
X30254819Y54680952D01*
X30254819Y54680952D02*
X30207200Y54728571D01*
X30207200Y54728571D02*
X30159580Y54680952D01*
X30159580Y54680952D02*
X30254819Y54680952D01*
X30254819Y53680953D02*
X30254819Y54252381D01*
X30254819Y53966667D02*
X29254819Y53966667D01*
X29254819Y53966667D02*
X29397676Y54061905D01*
X29397676Y54061905D02*
X29492914Y54157143D01*
X29492914Y54157143D02*
X29540533Y54252381D01*
X29588152Y52823810D02*
X30254819Y52823810D01*
X29588152Y53252381D02*
X30111961Y53252381D01*
X30111961Y53252381D02*
X30207200Y53204762D01*
X30207200Y53204762D02*
X30254819Y53109524D01*
X30254819Y53109524D02*
X30254819Y52966667D01*
X30254819Y52966667D02*
X30207200Y52871429D01*
X30207200Y52871429D02*
X30159580Y52823810D01*
X29731009Y52014286D02*
X29731009Y52347619D01*
X30254819Y52347619D02*
X29254819Y52347619D01*
X29254819Y52347619D02*
X29254819Y51871429D01*
D12*
X28513832Y53866667D02*
X28532880Y53885715D01*
X28532880Y53885715D02*
X28551927Y53942857D01*
X28551927Y53942857D02*
X28551927Y53980953D01*
X28551927Y53980953D02*
X28532880Y54038096D01*
X28532880Y54038096D02*
X28494784Y54076191D01*
X28494784Y54076191D02*
X28456689Y54095238D01*
X28456689Y54095238D02*
X28380499Y54114286D01*
X28380499Y54114286D02*
X28323356Y54114286D01*
X28323356Y54114286D02*
X28247165Y54095238D01*
X28247165Y54095238D02*
X28209070Y54076191D01*
X28209070Y54076191D02*
X28170975Y54038096D01*
X28170975Y54038096D02*
X28151927Y53980953D01*
X28151927Y53980953D02*
X28151927Y53942857D01*
X28151927Y53942857D02*
X28170975Y53885715D01*
X28170975Y53885715D02*
X28190022Y53866667D01*
X28551927Y53676191D02*
X28551927Y53600000D01*
X28551927Y53600000D02*
X28532880Y53561905D01*
X28532880Y53561905D02*
X28513832Y53542857D01*
X28513832Y53542857D02*
X28456689Y53504762D01*
X28456689Y53504762D02*
X28380499Y53485715D01*
X28380499Y53485715D02*
X28228118Y53485715D01*
X28228118Y53485715D02*
X28190022Y53504762D01*
X28190022Y53504762D02*
X28170975Y53523810D01*
X28170975Y53523810D02*
X28151927Y53561905D01*
X28151927Y53561905D02*
X28151927Y53638096D01*
X28151927Y53638096D02*
X28170975Y53676191D01*
X28170975Y53676191D02*
X28190022Y53695238D01*
X28190022Y53695238D02*
X28228118Y53714286D01*
X28228118Y53714286D02*
X28323356Y53714286D01*
X28323356Y53714286D02*
X28361451Y53695238D01*
X28361451Y53695238D02*
X28380499Y53676191D01*
X28380499Y53676191D02*
X28399546Y53638096D01*
X28399546Y53638096D02*
X28399546Y53561905D01*
X28399546Y53561905D02*
X28380499Y53523810D01*
X28380499Y53523810D02*
X28361451Y53504762D01*
X28361451Y53504762D02*
X28323356Y53485715D01*
D11*
X22623256Y51327381D02*
X22528018Y51327381D01*
X22528018Y51327381D02*
X22432780Y51279762D01*
X22432780Y51279762D02*
X22385161Y51232143D01*
X22385161Y51232143D02*
X22337542Y51136905D01*
X22337542Y51136905D02*
X22289923Y50946429D01*
X22289923Y50946429D02*
X22289923Y50708334D01*
X22289923Y50708334D02*
X22337542Y50517858D01*
X22337542Y50517858D02*
X22385161Y50422620D01*
X22385161Y50422620D02*
X22432780Y50375000D01*
X22432780Y50375000D02*
X22528018Y50327381D01*
X22528018Y50327381D02*
X22623256Y50327381D01*
X22623256Y50327381D02*
X22718494Y50375000D01*
X22718494Y50375000D02*
X22766113Y50422620D01*
X22766113Y50422620D02*
X22813732Y50517858D01*
X22813732Y50517858D02*
X22861351Y50708334D01*
X22861351Y50708334D02*
X22861351Y50946429D01*
X22861351Y50946429D02*
X22813732Y51136905D01*
X22813732Y51136905D02*
X22766113Y51232143D01*
X22766113Y51232143D02*
X22718494Y51279762D01*
X22718494Y51279762D02*
X22623256Y51327381D01*
X21861351Y50422620D02*
X21813732Y50375000D01*
X21813732Y50375000D02*
X21861351Y50327381D01*
X21861351Y50327381D02*
X21908970Y50375000D01*
X21908970Y50375000D02*
X21861351Y50422620D01*
X21861351Y50422620D02*
X21861351Y50327381D01*
X20861352Y50327381D02*
X21432780Y50327381D01*
X21147066Y50327381D02*
X21147066Y51327381D01*
X21147066Y51327381D02*
X21242304Y51184524D01*
X21242304Y51184524D02*
X21337542Y51089286D01*
X21337542Y51089286D02*
X21432780Y51041667D01*
X20004209Y50994048D02*
X20004209Y50327381D01*
X20432780Y50994048D02*
X20432780Y50470239D01*
X20432780Y50470239D02*
X20385161Y50375000D01*
X20385161Y50375000D02*
X20289923Y50327381D01*
X20289923Y50327381D02*
X20147066Y50327381D01*
X20147066Y50327381D02*
X20051828Y50375000D01*
X20051828Y50375000D02*
X20004209Y50422620D01*
X19194685Y50851191D02*
X19528018Y50851191D01*
X19528018Y50327381D02*
X19528018Y51327381D01*
X19528018Y51327381D02*
X19051828Y51327381D01*
D12*
X21047066Y49208368D02*
X21066114Y49189320D01*
X21066114Y49189320D02*
X21123256Y49170273D01*
X21123256Y49170273D02*
X21161352Y49170273D01*
X21161352Y49170273D02*
X21218495Y49189320D01*
X21218495Y49189320D02*
X21256590Y49227416D01*
X21256590Y49227416D02*
X21275637Y49265511D01*
X21275637Y49265511D02*
X21294685Y49341701D01*
X21294685Y49341701D02*
X21294685Y49398844D01*
X21294685Y49398844D02*
X21275637Y49475035D01*
X21275637Y49475035D02*
X21256590Y49513130D01*
X21256590Y49513130D02*
X21218495Y49551225D01*
X21218495Y49551225D02*
X21161352Y49570273D01*
X21161352Y49570273D02*
X21123256Y49570273D01*
X21123256Y49570273D02*
X21066114Y49551225D01*
X21066114Y49551225D02*
X21047066Y49532178D01*
X20685161Y49570273D02*
X20875637Y49570273D01*
X20875637Y49570273D02*
X20894685Y49379797D01*
X20894685Y49379797D02*
X20875637Y49398844D01*
X20875637Y49398844D02*
X20837542Y49417892D01*
X20837542Y49417892D02*
X20742304Y49417892D01*
X20742304Y49417892D02*
X20704209Y49398844D01*
X20704209Y49398844D02*
X20685161Y49379797D01*
X20685161Y49379797D02*
X20666114Y49341701D01*
X20666114Y49341701D02*
X20666114Y49246463D01*
X20666114Y49246463D02*
X20685161Y49208368D01*
X20685161Y49208368D02*
X20704209Y49189320D01*
X20704209Y49189320D02*
X20742304Y49170273D01*
X20742304Y49170273D02*
X20837542Y49170273D01*
X20837542Y49170273D02*
X20875637Y49189320D01*
X20875637Y49189320D02*
X20894685Y49208368D01*
D11*
X12392856Y46995181D02*
X12297618Y46995181D01*
X12297618Y46995181D02*
X12202380Y46947562D01*
X12202380Y46947562D02*
X12154761Y46899943D01*
X12154761Y46899943D02*
X12107142Y46804705D01*
X12107142Y46804705D02*
X12059523Y46614229D01*
X12059523Y46614229D02*
X12059523Y46376134D01*
X12059523Y46376134D02*
X12107142Y46185658D01*
X12107142Y46185658D02*
X12154761Y46090420D01*
X12154761Y46090420D02*
X12202380Y46042800D01*
X12202380Y46042800D02*
X12297618Y45995181D01*
X12297618Y45995181D02*
X12392856Y45995181D01*
X12392856Y45995181D02*
X12488094Y46042800D01*
X12488094Y46042800D02*
X12535713Y46090420D01*
X12535713Y46090420D02*
X12583332Y46185658D01*
X12583332Y46185658D02*
X12630951Y46376134D01*
X12630951Y46376134D02*
X12630951Y46614229D01*
X12630951Y46614229D02*
X12583332Y46804705D01*
X12583332Y46804705D02*
X12535713Y46899943D01*
X12535713Y46899943D02*
X12488094Y46947562D01*
X12488094Y46947562D02*
X12392856Y46995181D01*
X11630951Y46090420D02*
X11583332Y46042800D01*
X11583332Y46042800D02*
X11630951Y45995181D01*
X11630951Y45995181D02*
X11678570Y46042800D01*
X11678570Y46042800D02*
X11630951Y46090420D01*
X11630951Y46090420D02*
X11630951Y45995181D01*
X10630952Y45995181D02*
X11202380Y45995181D01*
X10916666Y45995181D02*
X10916666Y46995181D01*
X10916666Y46995181D02*
X11011904Y46852324D01*
X11011904Y46852324D02*
X11107142Y46757086D01*
X11107142Y46757086D02*
X11202380Y46709467D01*
X9773809Y46661848D02*
X9773809Y45995181D01*
X10202380Y46661848D02*
X10202380Y46138039D01*
X10202380Y46138039D02*
X10154761Y46042800D01*
X10154761Y46042800D02*
X10059523Y45995181D01*
X10059523Y45995181D02*
X9916666Y45995181D01*
X9916666Y45995181D02*
X9821428Y46042800D01*
X9821428Y46042800D02*
X9773809Y46090420D01*
X8964285Y46518991D02*
X9297618Y46518991D01*
X9297618Y45995181D02*
X9297618Y46995181D01*
X9297618Y46995181D02*
X8821428Y46995181D01*
D12*
X10816666Y44876168D02*
X10835714Y44857120D01*
X10835714Y44857120D02*
X10892856Y44838073D01*
X10892856Y44838073D02*
X10930952Y44838073D01*
X10930952Y44838073D02*
X10988095Y44857120D01*
X10988095Y44857120D02*
X11026190Y44895216D01*
X11026190Y44895216D02*
X11045237Y44933311D01*
X11045237Y44933311D02*
X11064285Y45009501D01*
X11064285Y45009501D02*
X11064285Y45066644D01*
X11064285Y45066644D02*
X11045237Y45142835D01*
X11045237Y45142835D02*
X11026190Y45180930D01*
X11026190Y45180930D02*
X10988095Y45219025D01*
X10988095Y45219025D02*
X10930952Y45238073D01*
X10930952Y45238073D02*
X10892856Y45238073D01*
X10892856Y45238073D02*
X10835714Y45219025D01*
X10835714Y45219025D02*
X10816666Y45199978D01*
X10683333Y45238073D02*
X10435714Y45238073D01*
X10435714Y45238073D02*
X10569047Y45085692D01*
X10569047Y45085692D02*
X10511904Y45085692D01*
X10511904Y45085692D02*
X10473809Y45066644D01*
X10473809Y45066644D02*
X10454761Y45047597D01*
X10454761Y45047597D02*
X10435714Y45009501D01*
X10435714Y45009501D02*
X10435714Y44914263D01*
X10435714Y44914263D02*
X10454761Y44876168D01*
X10454761Y44876168D02*
X10473809Y44857120D01*
X10473809Y44857120D02*
X10511904Y44838073D01*
X10511904Y44838073D02*
X10626190Y44838073D01*
X10626190Y44838073D02*
X10664285Y44857120D01*
X10664285Y44857120D02*
X10683333Y44876168D01*
D11*
X30015628Y42089981D02*
X30587056Y42089981D01*
X30301342Y42089981D02*
X30301342Y43089981D01*
X30301342Y43089981D02*
X30396580Y42947124D01*
X30396580Y42947124D02*
X30491818Y42851886D01*
X30491818Y42851886D02*
X30587056Y42804267D01*
X29110866Y43089981D02*
X29587056Y43089981D01*
X29587056Y43089981D02*
X29634675Y42613791D01*
X29634675Y42613791D02*
X29587056Y42661410D01*
X29587056Y42661410D02*
X29491818Y42709029D01*
X29491818Y42709029D02*
X29253723Y42709029D01*
X29253723Y42709029D02*
X29158485Y42661410D01*
X29158485Y42661410D02*
X29110866Y42613791D01*
X29110866Y42613791D02*
X29063247Y42518553D01*
X29063247Y42518553D02*
X29063247Y42280458D01*
X29063247Y42280458D02*
X29110866Y42185220D01*
X29110866Y42185220D02*
X29158485Y42137600D01*
X29158485Y42137600D02*
X29253723Y42089981D01*
X29253723Y42089981D02*
X29491818Y42089981D01*
X29491818Y42089981D02*
X29587056Y42137600D01*
X29587056Y42137600D02*
X29634675Y42185220D01*
X28634675Y42756648D02*
X28634675Y41756648D01*
X28634675Y42709029D02*
X28539437Y42756648D01*
X28539437Y42756648D02*
X28348961Y42756648D01*
X28348961Y42756648D02*
X28253723Y42709029D01*
X28253723Y42709029D02*
X28206104Y42661410D01*
X28206104Y42661410D02*
X28158485Y42566172D01*
X28158485Y42566172D02*
X28158485Y42280458D01*
X28158485Y42280458D02*
X28206104Y42185220D01*
X28206104Y42185220D02*
X28253723Y42137600D01*
X28253723Y42137600D02*
X28348961Y42089981D01*
X28348961Y42089981D02*
X28539437Y42089981D01*
X28539437Y42089981D02*
X28634675Y42137600D01*
X27396580Y42613791D02*
X27729913Y42613791D01*
X27729913Y42089981D02*
X27729913Y43089981D01*
X27729913Y43089981D02*
X27253723Y43089981D01*
D12*
X29010866Y40970968D02*
X29029914Y40951920D01*
X29029914Y40951920D02*
X29087056Y40932873D01*
X29087056Y40932873D02*
X29125152Y40932873D01*
X29125152Y40932873D02*
X29182295Y40951920D01*
X29182295Y40951920D02*
X29220390Y40990016D01*
X29220390Y40990016D02*
X29239437Y41028111D01*
X29239437Y41028111D02*
X29258485Y41104301D01*
X29258485Y41104301D02*
X29258485Y41161444D01*
X29258485Y41161444D02*
X29239437Y41237635D01*
X29239437Y41237635D02*
X29220390Y41275730D01*
X29220390Y41275730D02*
X29182295Y41313825D01*
X29182295Y41313825D02*
X29125152Y41332873D01*
X29125152Y41332873D02*
X29087056Y41332873D01*
X29087056Y41332873D02*
X29029914Y41313825D01*
X29029914Y41313825D02*
X29010866Y41294778D01*
X28858485Y41294778D02*
X28839437Y41313825D01*
X28839437Y41313825D02*
X28801342Y41332873D01*
X28801342Y41332873D02*
X28706104Y41332873D01*
X28706104Y41332873D02*
X28668009Y41313825D01*
X28668009Y41313825D02*
X28648961Y41294778D01*
X28648961Y41294778D02*
X28629914Y41256682D01*
X28629914Y41256682D02*
X28629914Y41218587D01*
X28629914Y41218587D02*
X28648961Y41161444D01*
X28648961Y41161444D02*
X28877533Y40932873D01*
X28877533Y40932873D02*
X28629914Y40932873D01*
D11*
X6394152Y6145391D02*
X6727485Y6145391D01*
X6727485Y5621581D02*
X6727485Y6621581D01*
X6727485Y6621581D02*
X6251295Y6621581D01*
X5870342Y5621581D02*
X5870342Y6288248D01*
X5870342Y6621581D02*
X5917961Y6573962D01*
X5917961Y6573962D02*
X5870342Y6526343D01*
X5870342Y6526343D02*
X5822723Y6573962D01*
X5822723Y6573962D02*
X5870342Y6621581D01*
X5870342Y6621581D02*
X5870342Y6526343D01*
X4965581Y5621581D02*
X4965581Y6621581D01*
X4965581Y5669200D02*
X5060819Y5621581D01*
X5060819Y5621581D02*
X5251295Y5621581D01*
X5251295Y5621581D02*
X5346533Y5669200D01*
X5346533Y5669200D02*
X5394152Y5716820D01*
X5394152Y5716820D02*
X5441771Y5812058D01*
X5441771Y5812058D02*
X5441771Y6097772D01*
X5441771Y6097772D02*
X5394152Y6193010D01*
X5394152Y6193010D02*
X5346533Y6240629D01*
X5346533Y6240629D02*
X5251295Y6288248D01*
X5251295Y6288248D02*
X5060819Y6288248D01*
X5060819Y6288248D02*
X4965581Y6240629D01*
X4060819Y6288248D02*
X4060819Y5621581D01*
X4489390Y6288248D02*
X4489390Y5764439D01*
X4489390Y5764439D02*
X4441771Y5669200D01*
X4441771Y5669200D02*
X4346533Y5621581D01*
X4346533Y5621581D02*
X4203676Y5621581D01*
X4203676Y5621581D02*
X4108438Y5669200D01*
X4108438Y5669200D02*
X4060819Y5716820D01*
X3156057Y5669200D02*
X3251295Y5621581D01*
X3251295Y5621581D02*
X3441771Y5621581D01*
X3441771Y5621581D02*
X3537009Y5669200D01*
X3537009Y5669200D02*
X3584628Y5716820D01*
X3584628Y5716820D02*
X3632247Y5812058D01*
X3632247Y5812058D02*
X3632247Y6097772D01*
X3632247Y6097772D02*
X3584628Y6193010D01*
X3584628Y6193010D02*
X3537009Y6240629D01*
X3537009Y6240629D02*
X3441771Y6288248D01*
X3441771Y6288248D02*
X3251295Y6288248D01*
X3251295Y6288248D02*
X3156057Y6240629D01*
X2727485Y5621581D02*
X2727485Y6288248D01*
X2727485Y6621581D02*
X2775104Y6573962D01*
X2775104Y6573962D02*
X2727485Y6526343D01*
X2727485Y6526343D02*
X2679866Y6573962D01*
X2679866Y6573962D02*
X2727485Y6621581D01*
X2727485Y6621581D02*
X2727485Y6526343D01*
X1822724Y5621581D02*
X1822724Y6145391D01*
X1822724Y6145391D02*
X1870343Y6240629D01*
X1870343Y6240629D02*
X1965581Y6288248D01*
X1965581Y6288248D02*
X2156057Y6288248D01*
X2156057Y6288248D02*
X2251295Y6240629D01*
X1822724Y5669200D02*
X1917962Y5621581D01*
X1917962Y5621581D02*
X2156057Y5621581D01*
X2156057Y5621581D02*
X2251295Y5669200D01*
X2251295Y5669200D02*
X2298914Y5764439D01*
X2298914Y5764439D02*
X2298914Y5859677D01*
X2298914Y5859677D02*
X2251295Y5954915D01*
X2251295Y5954915D02*
X2156057Y6002534D01*
X2156057Y6002534D02*
X1917962Y6002534D01*
X1917962Y6002534D02*
X1822724Y6050153D01*
X1203676Y5621581D02*
X1298914Y5669200D01*
X1298914Y5669200D02*
X1346533Y5764439D01*
X1346533Y5764439D02*
X1346533Y6621581D01*
D14*
X4548913Y8061156D02*
X4715580Y8061156D01*
X4715580Y7799251D02*
X4715580Y8299251D01*
X4715580Y8299251D02*
X4477485Y8299251D01*
X4287009Y7799251D02*
X4287009Y8299251D01*
X4048914Y7799251D02*
X4048914Y8299251D01*
X4048914Y8299251D02*
X3929866Y8299251D01*
X3929866Y8299251D02*
X3858438Y8275441D01*
X3858438Y8275441D02*
X3810819Y8227822D01*
X3810819Y8227822D02*
X3787009Y8180203D01*
X3787009Y8180203D02*
X3763200Y8084965D01*
X3763200Y8084965D02*
X3763200Y8013537D01*
X3763200Y8013537D02*
X3787009Y7918299D01*
X3787009Y7918299D02*
X3810819Y7870680D01*
X3810819Y7870680D02*
X3858438Y7823060D01*
X3858438Y7823060D02*
X3929866Y7799251D01*
X3929866Y7799251D02*
X4048914Y7799251D01*
X3596533Y8299251D02*
X3287009Y8299251D01*
X3287009Y8299251D02*
X3453676Y8108775D01*
X3453676Y8108775D02*
X3382247Y8108775D01*
X3382247Y8108775D02*
X3334628Y8084965D01*
X3334628Y8084965D02*
X3310819Y8061156D01*
X3310819Y8061156D02*
X3287009Y8013537D01*
X3287009Y8013537D02*
X3287009Y7894489D01*
X3287009Y7894489D02*
X3310819Y7846870D01*
X3310819Y7846870D02*
X3334628Y7823060D01*
X3334628Y7823060D02*
X3382247Y7799251D01*
X3382247Y7799251D02*
X3525104Y7799251D01*
X3525104Y7799251D02*
X3572723Y7823060D01*
X3572723Y7823060D02*
X3596533Y7846870D01*
D11*
X9920819Y62686725D02*
X8920819Y62686725D01*
X8920819Y62686725D02*
X8920819Y62448630D01*
X8920819Y62448630D02*
X8968438Y62305773D01*
X8968438Y62305773D02*
X9063676Y62210535D01*
X9063676Y62210535D02*
X9158914Y62162916D01*
X9158914Y62162916D02*
X9349390Y62115297D01*
X9349390Y62115297D02*
X9492247Y62115297D01*
X9492247Y62115297D02*
X9682723Y62162916D01*
X9682723Y62162916D02*
X9777961Y62210535D01*
X9777961Y62210535D02*
X9873200Y62305773D01*
X9873200Y62305773D02*
X9920819Y62448630D01*
X9920819Y62448630D02*
X9920819Y62686725D01*
X10016057Y61924820D02*
X10016057Y61162916D01*
X9873200Y60972439D02*
X9920819Y60829582D01*
X9920819Y60829582D02*
X9920819Y60591487D01*
X9920819Y60591487D02*
X9873200Y60496249D01*
X9873200Y60496249D02*
X9825580Y60448630D01*
X9825580Y60448630D02*
X9730342Y60401011D01*
X9730342Y60401011D02*
X9635104Y60401011D01*
X9635104Y60401011D02*
X9539866Y60448630D01*
X9539866Y60448630D02*
X9492247Y60496249D01*
X9492247Y60496249D02*
X9444628Y60591487D01*
X9444628Y60591487D02*
X9397009Y60781963D01*
X9397009Y60781963D02*
X9349390Y60877201D01*
X9349390Y60877201D02*
X9301771Y60924820D01*
X9301771Y60924820D02*
X9206533Y60972439D01*
X9206533Y60972439D02*
X9111295Y60972439D01*
X9111295Y60972439D02*
X9016057Y60924820D01*
X9016057Y60924820D02*
X8968438Y60877201D01*
X8968438Y60877201D02*
X8920819Y60781963D01*
X8920819Y60781963D02*
X8920819Y60543868D01*
X8920819Y60543868D02*
X8968438Y60401011D01*
X9873200Y59543868D02*
X9920819Y59639106D01*
X9920819Y59639106D02*
X9920819Y59829582D01*
X9920819Y59829582D02*
X9873200Y59924820D01*
X9873200Y59924820D02*
X9825580Y59972439D01*
X9825580Y59972439D02*
X9730342Y60020058D01*
X9730342Y60020058D02*
X9444628Y60020058D01*
X9444628Y60020058D02*
X9349390Y59972439D01*
X9349390Y59972439D02*
X9301771Y59924820D01*
X9301771Y59924820D02*
X9254152Y59829582D01*
X9254152Y59829582D02*
X9254152Y59639106D01*
X9254152Y59639106D02*
X9301771Y59543868D01*
X9920819Y59115296D02*
X8920819Y59115296D01*
X9920819Y58686725D02*
X9397009Y58686725D01*
X9397009Y58686725D02*
X9301771Y58734344D01*
X9301771Y58734344D02*
X9254152Y58829582D01*
X9254152Y58829582D02*
X9254152Y58972439D01*
X9254152Y58972439D02*
X9301771Y59067677D01*
X9301771Y59067677D02*
X9349390Y59115296D01*
X9920819Y58067677D02*
X9873200Y58162915D01*
X9873200Y58162915D02*
X9825580Y58210534D01*
X9825580Y58210534D02*
X9730342Y58258153D01*
X9730342Y58258153D02*
X9444628Y58258153D01*
X9444628Y58258153D02*
X9349390Y58210534D01*
X9349390Y58210534D02*
X9301771Y58162915D01*
X9301771Y58162915D02*
X9254152Y58067677D01*
X9254152Y58067677D02*
X9254152Y57924820D01*
X9254152Y57924820D02*
X9301771Y57829582D01*
X9301771Y57829582D02*
X9349390Y57781963D01*
X9349390Y57781963D02*
X9444628Y57734344D01*
X9444628Y57734344D02*
X9730342Y57734344D01*
X9730342Y57734344D02*
X9825580Y57781963D01*
X9825580Y57781963D02*
X9873200Y57829582D01*
X9873200Y57829582D02*
X9920819Y57924820D01*
X9920819Y57924820D02*
X9920819Y58067677D01*
X9254152Y57448629D02*
X9254152Y57067677D01*
X8920819Y57305772D02*
X9777961Y57305772D01*
X9777961Y57305772D02*
X9873200Y57258153D01*
X9873200Y57258153D02*
X9920819Y57162915D01*
X9920819Y57162915D02*
X9920819Y57067677D01*
X9254152Y56877200D02*
X9254152Y56496248D01*
X8920819Y56734343D02*
X9777961Y56734343D01*
X9777961Y56734343D02*
X9873200Y56686724D01*
X9873200Y56686724D02*
X9920819Y56591486D01*
X9920819Y56591486D02*
X9920819Y56496248D01*
X9920819Y56162914D02*
X8920819Y56162914D01*
X9539866Y56067676D02*
X9920819Y55781962D01*
X9254152Y55781962D02*
X9635104Y56162914D01*
X9254152Y55448628D02*
X9920819Y55210533D01*
X9254152Y54972438D02*
X9920819Y55210533D01*
X9920819Y55210533D02*
X10158914Y55305771D01*
X10158914Y55305771D02*
X10206533Y55353390D01*
X10206533Y55353390D02*
X10254152Y55448628D01*
X5915819Y59742295D02*
X4915819Y59742295D01*
X4915819Y59742295D02*
X4915819Y59504200D01*
X4915819Y59504200D02*
X4963438Y59361343D01*
X4963438Y59361343D02*
X5058676Y59266105D01*
X5058676Y59266105D02*
X5153914Y59218486D01*
X5153914Y59218486D02*
X5344390Y59170867D01*
X5344390Y59170867D02*
X5487247Y59170867D01*
X5487247Y59170867D02*
X5677723Y59218486D01*
X5677723Y59218486D02*
X5772961Y59266105D01*
X5772961Y59266105D02*
X5868200Y59361343D01*
X5868200Y59361343D02*
X5915819Y59504200D01*
X5915819Y59504200D02*
X5915819Y59742295D01*
X4915819Y58837533D02*
X4915819Y58218486D01*
X4915819Y58218486D02*
X5296771Y58551819D01*
X5296771Y58551819D02*
X5296771Y58408962D01*
X5296771Y58408962D02*
X5344390Y58313724D01*
X5344390Y58313724D02*
X5392009Y58266105D01*
X5392009Y58266105D02*
X5487247Y58218486D01*
X5487247Y58218486D02*
X5725342Y58218486D01*
X5725342Y58218486D02*
X5820580Y58266105D01*
X5820580Y58266105D02*
X5868200Y58313724D01*
X5868200Y58313724D02*
X5915819Y58408962D01*
X5915819Y58408962D02*
X5915819Y58694676D01*
X5915819Y58694676D02*
X5868200Y58789914D01*
X5868200Y58789914D02*
X5820580Y58837533D01*
%TO.C,J1*%
D16*
X33030000Y76275000D02*
X41970000Y76275000D01*
X33030000Y68925000D02*
X33030000Y76275000D01*
X33030000Y68925000D02*
X41970000Y68925000D01*
X34300000Y69925000D02*
X33300000Y68925000D01*
X34300000Y69925000D02*
X35300000Y68925000D01*
X41970000Y68925000D02*
X41970000Y76275000D01*
%TO.C,C7*%
X25410000Y54600000D02*
X26210000Y54600000D01*
X26210000Y53000000D01*
X25410000Y53000000D01*
X25410000Y54600000D01*
%TO.C,R5*%
X28477500Y61150000D02*
X29302500Y61150000D01*
X29302500Y59550000D01*
X28477500Y59550000D01*
X28477500Y61150000D01*
%TO.C,R8*%
X47727500Y50400000D02*
X48552500Y50400000D01*
X48552500Y48800000D01*
X47727500Y48800000D01*
X47727500Y50400000D01*
%TO.C,R7*%
X49317500Y50400000D02*
X50142500Y50400000D01*
X50142500Y48800000D01*
X49317500Y48800000D01*
X49317500Y50400000D01*
%TO.C,R6*%
X52438400Y70059300D02*
X54038400Y70059300D01*
X54038400Y69234300D01*
X52438400Y69234300D01*
X52438400Y70059300D01*
%TO.C,R11*%
X60337800Y65461900D02*
X61937800Y65461900D01*
X61937800Y64636900D01*
X60337800Y64636900D01*
X60337800Y65461900D01*
%TO.C,D1*%
X34670000Y62977500D02*
X34670000Y61777500D01*
X37570000Y61777500D01*
X37570000Y63377500D01*
X35070000Y63377500D01*
X34670000Y62977500D01*
%TO.C,D2*%
X25473200Y66076400D02*
X25473200Y64276400D01*
X25473200Y64276400D02*
X28273200Y64276400D01*
X26123200Y65176400D02*
X26523200Y65176400D01*
X26523200Y65176400D02*
X26523200Y65726400D01*
X26523200Y65176400D02*
X26523200Y64626400D01*
X26523200Y65176400D02*
X27123200Y64776400D01*
X27123200Y65576400D02*
X26523200Y65176400D01*
X27123200Y65176400D02*
X27623200Y65176400D01*
X27123200Y64776400D02*
X27123200Y65576400D01*
X28273200Y66076400D02*
X25473200Y66076400D01*
X28273200Y64276400D02*
X28273200Y66076400D01*
%TO.C,C1*%
X28093400Y35469600D02*
X29693400Y35469600D01*
X29693400Y34669600D01*
X28093400Y34669600D01*
X28093400Y35469600D01*
%TO.C,R13*%
X16605500Y47345000D02*
X17430500Y47345000D01*
X17430500Y45745000D01*
X16605500Y45745000D01*
X16605500Y47345000D01*
%TO.C,C6*%
X22790200Y41287600D02*
X23590200Y41287600D01*
X23590200Y39687600D01*
X22790200Y39687600D01*
X22790200Y41287600D01*
%TO.C,C14*%
X16465600Y66763800D02*
X17265600Y66763800D01*
X17265600Y65163800D01*
X16465600Y65163800D01*
X16465600Y66763800D01*
%TO.C,R4*%
X26807500Y61150000D02*
X27632500Y61150000D01*
X27632500Y59550000D01*
X26807500Y59550000D01*
X26807500Y61150000D01*
%TO.C,R9*%
X19291400Y46665900D02*
X20891400Y46665900D01*
X20891400Y45840900D01*
X19291400Y45840900D01*
X19291400Y46665900D01*
%TO.C,C13*%
X23196600Y65062000D02*
X23996600Y65062000D01*
X23996600Y63462000D01*
X23196600Y63462000D01*
X23196600Y65062000D01*
%TO.C,C12*%
X46110000Y50410000D02*
X46910000Y50410000D01*
X46910000Y48810000D01*
X46110000Y48810000D01*
X46110000Y50410000D01*
%TO.C,C4*%
X24314200Y41287600D02*
X25114200Y41287600D01*
X25114200Y39687600D01*
X24314200Y39687600D01*
X24314200Y41287600D01*
%TO.C,U3*%
X20892300Y67424000D02*
X19692300Y67424000D01*
X19692300Y64524000D01*
X21292300Y64524000D01*
X21292300Y67024000D01*
X20892300Y67424000D01*
%TO.C,C8*%
X23890000Y54600000D02*
X24690000Y54600000D01*
X24690000Y53000000D01*
X23890000Y53000000D01*
X23890000Y54600000D01*
%TO.C,R10*%
X60337800Y66985900D02*
X61937800Y66985900D01*
X61937800Y66160900D01*
X60337800Y66160900D01*
X60337800Y66985900D01*
%TO.C,R12*%
X16605500Y44310200D02*
X17430500Y44310200D01*
X17430500Y42710200D01*
X16605500Y42710200D01*
X16605500Y44310200D01*
%TO.C,C20*%
X6240000Y26420000D02*
X7040000Y26420000D01*
X7040000Y24820000D01*
X6240000Y24820000D01*
X6240000Y26420000D01*
%TO.C,C10*%
X22370000Y54600000D02*
X23170000Y54600000D01*
X23170000Y53000000D01*
X22370000Y53000000D01*
X22370000Y54600000D01*
%TO.C,C18*%
X67920000Y50170000D02*
X68720000Y50170000D01*
X68720000Y48570000D01*
X67920000Y48570000D01*
X67920000Y50170000D01*
%TO.C,SW3*%
X49880000Y74090000D02*
X49880000Y71190000D01*
X49880000Y71190000D02*
X53380000Y71190000D01*
X50780000Y74740000D02*
X50780000Y74090000D01*
X50780000Y74740000D02*
X52480000Y74740000D01*
X52480000Y74740000D02*
X52480000Y74090000D01*
X53380000Y74090000D02*
X49880000Y74090000D01*
X53380000Y71190000D02*
X53380000Y74090000D01*
%TO.C,C11*%
X34201200Y46907400D02*
X35801200Y46907400D01*
X35801200Y46107400D01*
X34201200Y46107400D01*
X34201200Y46907400D01*
%TO.C,FID1*%
X72043800Y67157600D02*
G75*
G02*
X70043800Y67157600I-1000000J0D01*
G01*
X70043800Y67157600D02*
G75*
G02*
X72043800Y67157600I1000000J0D01*
G01*
%TO.C,R1*%
X25876500Y38823800D02*
X26701500Y38823800D01*
X26701500Y37223800D01*
X25876500Y37223800D01*
X25876500Y38823800D01*
%TO.C,SW1*%
X44220000Y74100000D02*
X44220000Y71200000D01*
X44220000Y71200000D02*
X47720000Y71200000D01*
X45120000Y74750000D02*
X45120000Y74100000D01*
X45120000Y74750000D02*
X46820000Y74750000D01*
X46820000Y74750000D02*
X46820000Y74100000D01*
X47720000Y74100000D02*
X44220000Y74100000D01*
X47720000Y71200000D02*
X47720000Y74100000D01*
%TO.C,FID4*%
X5013200Y67157600D02*
G75*
G02*
X3013200Y67157600I-1000000J0D01*
G01*
X3013200Y67157600D02*
G75*
G02*
X5013200Y67157600I1000000J0D01*
G01*
%TO.C,R2*%
X30547500Y68370000D02*
X31372500Y68370000D01*
X31372500Y66770000D01*
X30547500Y66770000D01*
X30547500Y68370000D01*
%TO.C,U2*%
X30742500Y51020000D02*
X24742500Y51020000D01*
X24742500Y44020000D01*
X31742500Y44020000D01*
X31742500Y50020000D01*
X30742500Y51020000D01*
%TO.C,U4*%
X44687500Y47940000D02*
X44687500Y52240000D01*
X39387500Y52240000D01*
X39387500Y46940000D01*
X43687500Y46940000D01*
X44687500Y47940000D01*
%TO.C,Y1*%
X30180600Y39674600D02*
X27680600Y39674600D01*
X27680600Y37099600D01*
X28305600Y36474600D01*
X30180600Y36474600D01*
X30180600Y39674600D01*
%TO.C,R3*%
X43597500Y68370000D02*
X44422500Y68370000D01*
X44422500Y66770000D01*
X43597500Y66770000D01*
X43597500Y68370000D01*
%TO.C,SW2*%
X21820000Y74220000D02*
X21820000Y74220000D01*
X21820000Y74220000D02*
X21820000Y74220000D01*
X21820000Y70620000D02*
X21820000Y74220000D01*
X21820000Y70620000D02*
X30820000Y70620000D01*
X21920000Y74220000D02*
X21820000Y74220000D01*
X23520000Y74520000D02*
X23520000Y74220000D01*
X23520000Y74220000D02*
X23520000Y74220000D01*
X24120000Y74520000D02*
X23520000Y74520000D01*
X24120000Y74220000D02*
X24120000Y74520000D01*
X24320000Y76220000D02*
X24320000Y74220000D01*
X24320000Y74220000D02*
X24320000Y74220000D01*
X24820000Y74220000D02*
X24820000Y74220000D01*
X25820000Y76220000D02*
X24320000Y76220000D01*
X25820000Y74220000D02*
X25820000Y76220000D01*
X26020000Y74520000D02*
X26020000Y74220000D01*
X26020000Y74220000D02*
X26020000Y74220000D01*
X26620000Y74520000D02*
X26020000Y74520000D01*
X26620000Y74220000D02*
X26620000Y74520000D01*
X28520000Y74520000D02*
X29120000Y74520000D01*
X28520000Y74220000D02*
X28520000Y74520000D01*
X29120000Y74520000D02*
X29120000Y74220000D01*
X29120000Y74220000D02*
X29120000Y74220000D01*
X30820000Y74220000D02*
X21920000Y74220000D01*
X30820000Y70620000D02*
X30820000Y74220000D01*
%TO.C,FID2*%
X72043800Y8026400D02*
G75*
G02*
X70043800Y8026400I-1000000J0D01*
G01*
X70043800Y8026400D02*
G75*
G02*
X72043800Y8026400I1000000J0D01*
G01*
%TO.C,C19*%
X48810000Y6870000D02*
X50410000Y6870000D01*
X50410000Y6070000D01*
X48810000Y6070000D01*
X48810000Y6870000D01*
%TO.C,U1*%
X14890000Y43832500D02*
X14890000Y45332500D01*
X12890000Y45332500D01*
X12890000Y43332500D01*
X14390000Y43332500D01*
X14890000Y43832500D01*
%TO.C,C9*%
X27970000Y54600000D02*
X28770000Y54600000D01*
X28770000Y53000000D01*
X27970000Y53000000D01*
X27970000Y54600000D01*
%TO.C,C5*%
X20180400Y49752200D02*
X21780400Y49752200D01*
X21780400Y48952200D01*
X20180400Y48952200D01*
X20180400Y49752200D01*
%TO.C,C3*%
X9950000Y45420000D02*
X11550000Y45420000D01*
X11550000Y44620000D01*
X9950000Y44620000D01*
X9950000Y45420000D01*
%TO.C,C2*%
X28144200Y41514800D02*
X29744200Y41514800D01*
X29744200Y40714800D01*
X28144200Y40714800D01*
X28144200Y41514800D01*
%TO.C,FID3*%
X5013200Y8026400D02*
G75*
G02*
X3013200Y8026400I-1000000J0D01*
G01*
X3013200Y8026400D02*
G75*
G02*
X5013200Y8026400I1000000J0D01*
G01*
%TO.C,D3*%
X6466000Y60277200D02*
X6466000Y57477200D01*
X6466000Y57477200D02*
X8266000Y57477200D01*
X6966000Y58627200D02*
X7766000Y58627200D01*
X7366000Y59627200D02*
X7366000Y59227200D01*
X7366000Y59227200D02*
X6816000Y59227200D01*
X7366000Y59227200D02*
X6966000Y58627200D01*
X7366000Y59227200D02*
X7916000Y59227200D01*
X7366000Y58627200D02*
X7366000Y58127200D01*
X7766000Y58627200D02*
X7366000Y59227200D01*
X8266000Y60277200D02*
X6466000Y60277200D01*
X8266000Y57477200D02*
X8266000Y60277200D01*
%TD*%
X37865000Y64672500D02*
X34375000Y60482500D01*
X37865000Y60482500D02*
X34375000Y64672500D01*
M02*
