%TF.GenerationSoftware,KiCad,Pcbnew,10.0.3*%
%TF.CreationDate,2026-06-23T01:27:28-06:00*%
%TF.ProjectId,mk9-badge,6d6b392d-6261-4646-9765-2e6b69636164,1.0*%
%TF.SameCoordinates,PX6012ba0PY6de6c40*%
%TF.FileFunction,Soldermask,Bot*%
%TF.FilePolarity,Negative*%
%FSLAX46Y46*%
G04 Gerber Fmt 4.6, Leading zero omitted, Abs format (unit mm)*
G04 Created by KiCad (PCBNEW 10.0.3) date 2026-06-23 01:27:28*
%MOMM*%
%LPD*%
G01*
G04 APERTURE LIST*
G04 Aperture macros list*
%AMRoundRect*
0 Rectangle with rounded corners*
0 $1 Rounding radius*
0 $2 $3 $4 $5 $6 $7 $8 $9 X,Y pos of 4 corners*
0 Add a 4 corners polygon primitive as box body*
4,1,4,$2,$3,$4,$5,$6,$7,$8,$9,$2,$3,0*
0 Add four circle primitives for the rounded corners*
1,1,$1+$1,$2,$3*
1,1,$1+$1,$4,$5*
1,1,$1+$1,$6,$7*
1,1,$1+$1,$8,$9*
0 Add four rect primitives between the rounded corners*
20,1,$1+$1,$2,$3,$4,$5,0*
20,1,$1+$1,$4,$5,$6,$7,0*
20,1,$1+$1,$6,$7,$8,$9,0*
20,1,$1+$1,$8,$9,$2,$3,0*%
%AMFreePoly0*
4,1,9,0.275000,-0.800000,-0.275000,-0.800000,-0.275000,-0.150000,-0.725000,-0.150000,-0.725000,0.400000,-0.275000,0.400000,-0.275000,0.800000,0.275000,0.800000,0.275000,-0.800000,0.275000,-0.800000,$1*%
%AMFreePoly1*
4,1,9,0.275000,0.400000,0.725000,0.400000,0.725000,-0.150000,0.275000,-0.150000,0.275000,-0.800000,-0.275000,-0.800000,-0.275000,0.800000,0.275000,0.800000,0.275000,0.400000,0.275000,0.400000,$1*%
%AMFreePoly2*
4,1,23,0.550000,-0.750000,0.000000,-0.750000,0.000000,-0.745722,-0.065263,-0.745722,-0.191342,-0.711940,-0.304381,-0.646677,-0.396677,-0.554381,-0.461940,-0.441342,-0.495722,-0.315263,-0.495722,-0.250000,-0.500000,-0.250000,-0.500000,0.250000,-0.495722,0.250000,-0.495722,0.315263,-0.461940,0.441342,-0.396677,0.554381,-0.304381,0.646677,-0.191342,0.711940,-0.065263,0.745722,0.000000,0.745722,
0.000000,0.750000,0.550000,0.750000,0.550000,-0.750000,0.550000,-0.750000,$1*%
%AMFreePoly3*
4,1,23,0.000000,0.745722,0.065263,0.745722,0.191342,0.711940,0.304381,0.646677,0.396677,0.554381,0.461940,0.441342,0.495722,0.315263,0.495722,0.250000,0.500000,0.250000,0.500000,-0.250000,0.495722,-0.250000,0.495722,-0.315263,0.461940,-0.441342,0.396677,-0.554381,0.304381,-0.646677,0.191342,-0.711940,0.065263,-0.745722,0.000000,-0.745722,0.000000,-0.750000,-0.550000,-0.750000,
-0.550000,0.750000,0.000000,0.750000,0.000000,0.745722,0.000000,0.745722,$1*%
G04 Aperture macros list end*
%ADD10C,0.650000*%
%ADD11RoundRect,0.150000X-0.150000X-0.500000X0.150000X-0.500000X0.150000X0.500000X-0.150000X0.500000X0*%
%ADD12RoundRect,0.075000X-0.075000X-0.575000X0.075000X-0.575000X0.075000X0.575000X-0.075000X0.575000X0*%
%ADD13O,1.000000X1.600000*%
%ADD14O,1.000000X2.100000*%
%ADD15C,2.286000*%
%ADD16O,1.700000X1.700000*%
%ADD17C,1.700000*%
%ADD18RoundRect,0.225000X-0.250000X0.225000X-0.250000X-0.225000X0.250000X-0.225000X0.250000X0.225000X0*%
%ADD19RoundRect,0.200000X-0.275000X0.200000X-0.275000X-0.200000X0.275000X-0.200000X0.275000X0.200000X0*%
%ADD20R,2.500000X2.500000*%
%ADD21RoundRect,0.200000X0.275000X-0.200000X0.275000X0.200000X-0.275000X0.200000X-0.275000X-0.200000X0*%
%ADD22RoundRect,0.200000X-0.200000X-0.275000X0.200000X-0.275000X0.200000X0.275000X-0.200000X0.275000X0*%
%ADD23FreePoly0,270.000000*%
%ADD24R,1.600000X0.700000*%
%ADD25R,1.600000X0.450000*%
%ADD26FreePoly1,270.000000*%
%ADD27RoundRect,0.150000X-0.150000X0.512500X-0.150000X-0.512500X0.150000X-0.512500X0.150000X0.512500X0*%
%ADD28RoundRect,0.250000X-0.300000X-0.300000X0.300000X-0.300000X0.300000X0.300000X-0.300000X0.300000X0*%
%ADD29RoundRect,0.225000X0.225000X0.250000X-0.225000X0.250000X-0.225000X-0.250000X0.225000X-0.250000X0*%
%ADD30RoundRect,0.225000X0.250000X-0.225000X0.250000X0.225000X-0.250000X0.225000X-0.250000X-0.225000X0*%
%ADD31FreePoly0,90.000000*%
%ADD32FreePoly1,90.000000*%
%ADD33RoundRect,0.150000X0.512500X0.150000X-0.512500X0.150000X-0.512500X-0.150000X0.512500X-0.150000X0*%
%ADD34FreePoly0,180.000000*%
%ADD35R,0.700000X1.600000*%
%ADD36R,0.450000X1.600000*%
%ADD37FreePoly1,180.000000*%
%ADD38C,0.700000*%
%ADD39RoundRect,0.250000X-0.450000X-0.275000X0.450000X-0.275000X0.450000X0.275000X-0.450000X0.275000X0*%
%ADD40C,2.000000*%
%ADD41FreePoly2,0.000000*%
%ADD42R,1.000000X1.500000*%
%ADD43FreePoly3,0.000000*%
%ADD44RoundRect,0.050000X0.387500X0.050000X-0.387500X0.050000X-0.387500X-0.050000X0.387500X-0.050000X0*%
%ADD45RoundRect,0.050000X0.050000X0.387500X-0.050000X0.387500X-0.050000X-0.387500X0.050000X-0.387500X0*%
%ADD46R,3.200000X3.200000*%
%ADD47RoundRect,0.162500X0.162500X-0.650000X0.162500X0.650000X-0.162500X0.650000X-0.162500X-0.650000X0*%
%ADD48RoundRect,0.250000X0.350000X-0.450000X0.350000X0.450000X-0.350000X0.450000X-0.350000X-0.450000X0*%
%ADD49C,0.900000*%
%ADD50R,1.250000X2.500000*%
%ADD51RoundRect,0.094250X0.094250X-0.106750X0.094250X0.106750X-0.094250X0.106750X-0.094250X-0.106750X0*%
%ADD52RoundRect,0.094250X0.106750X-0.094250X0.106750X0.094250X-0.106750X0.094250X-0.106750X-0.094250X0*%
%ADD53RoundRect,0.225000X-0.225000X-0.250000X0.225000X-0.250000X0.225000X0.250000X-0.225000X0.250000X0*%
%ADD54RoundRect,0.250000X-0.300000X0.300000X-0.300000X-0.300000X0.300000X-0.300000X0.300000X0.300000X0*%
G04 APERTURE END LIST*
%TO.C,JP1*%
G36*
X52700000Y65002500D02*
G01*
X54200000Y65002500D01*
X54200000Y63502500D01*
X52700000Y63502500D01*
X52700000Y65002500D01*
G37*
%TD*%
D10*
%TO.C,J1*%
X34610000Y69995000D03*
X40390000Y69995000D03*
D11*
X34300000Y68855000D03*
X35100000Y68855000D03*
D12*
X36250000Y68855000D03*
X37250000Y68855000D03*
X37750000Y68855000D03*
X38750000Y68855000D03*
D11*
X39900000Y68855000D03*
X40700000Y68855000D03*
X40700000Y68855000D03*
X39900000Y68855000D03*
D12*
X39250000Y68855000D03*
X38250000Y68855000D03*
X36750000Y68855000D03*
X35750000Y68855000D03*
D11*
X35100000Y68855000D03*
X34300000Y68855000D03*
D13*
X33180000Y73675000D03*
D14*
X33180000Y69495000D03*
D13*
X41820000Y73675000D03*
D14*
X41820000Y69495000D03*
%TD*%
D15*
%TO.C,SW10*%
X20990000Y23530000D03*
X14640000Y20990000D03*
%TD*%
%TO.C,SW8*%
X40040000Y42580000D03*
X33690000Y40040000D03*
%TD*%
%TO.C,SW4*%
X20990000Y61630000D03*
X14640000Y59090000D03*
%TD*%
D16*
%TO.C,X2*%
X58064400Y71780400D03*
X58064400Y69240400D03*
D17*
X60604400Y71780400D03*
D16*
X60604400Y69240400D03*
D17*
X63144400Y71780400D03*
D16*
X63144400Y69240400D03*
%TD*%
D15*
%TO.C,SW6*%
X59090000Y61630000D03*
X52740000Y59090000D03*
%TD*%
%TO.C,SW11*%
X40040000Y23530000D03*
X33690000Y20990000D03*
%TD*%
D16*
%TO.C,X1*%
X11980000Y71760000D03*
X11980000Y69220000D03*
D17*
X14520000Y71760000D03*
D16*
X14520000Y69220000D03*
D17*
X17060000Y71760000D03*
D16*
X17060000Y69220000D03*
%TD*%
D15*
%TO.C,SW12*%
X59090000Y23530000D03*
X52740000Y20990000D03*
%TD*%
%TO.C,SW7*%
X20990000Y42580000D03*
X14640000Y40040000D03*
%TD*%
%TO.C,SW9*%
X59090000Y42580000D03*
X52740000Y40040000D03*
%TD*%
%TO.C,SW5*%
X40040000Y61630000D03*
X33690000Y59090000D03*
%TD*%
D18*
%TO.C,C7*%
X25810000Y54575000D03*
X25810000Y53025000D03*
%TD*%
D19*
%TO.C,R5*%
X28890000Y61175000D03*
X28890000Y59525000D03*
%TD*%
D20*
%TO.C,TP5*%
X10280000Y53220000D03*
%TD*%
D21*
%TO.C,R8*%
X48140000Y48775000D03*
X48140000Y50425000D03*
%TD*%
D19*
%TO.C,R7*%
X49730000Y50425000D03*
X49730000Y48775000D03*
%TD*%
D22*
%TO.C,R6*%
X52413400Y69646800D03*
X54063400Y69646800D03*
%TD*%
%TO.C,R11*%
X60312800Y65049400D03*
X61962800Y65049400D03*
%TD*%
D23*
%TO.C,D22*%
X71060160Y51508938D03*
D24*
X71060160Y50383938D03*
D25*
X71060160Y49358938D03*
D26*
X71060160Y48358938D03*
%TD*%
D23*
%TO.C,D23*%
X71060160Y26517557D03*
D24*
X71060160Y25392557D03*
D25*
X71060160Y24367557D03*
D26*
X71060160Y23367557D03*
%TD*%
D27*
%TO.C,D1*%
X35170000Y63715000D03*
X37070000Y63715000D03*
X36120000Y61440000D03*
%TD*%
D28*
%TO.C,D2*%
X25473200Y65176400D03*
X28273200Y65176400D03*
%TD*%
D29*
%TO.C,C1*%
X29668400Y35069600D03*
X28118400Y35069600D03*
%TD*%
D21*
%TO.C,R13*%
X17018000Y45720000D03*
X17018000Y47370000D03*
%TD*%
D30*
%TO.C,C6*%
X23190200Y39712600D03*
X23190200Y41262600D03*
%TD*%
%TO.C,C14*%
X16865600Y65188800D03*
X16865600Y66738800D03*
%TD*%
D21*
%TO.C,R4*%
X27220000Y59525000D03*
X27220000Y61175000D03*
%TD*%
D22*
%TO.C,R9*%
X19266400Y46253400D03*
X20916400Y46253400D03*
%TD*%
D30*
%TO.C,C13*%
X23596600Y63487000D03*
X23596600Y65037000D03*
%TD*%
%TO.C,C12*%
X46510000Y48835000D03*
X46510000Y50385000D03*
%TD*%
D31*
%TO.C,D27*%
X3960160Y48381138D03*
D24*
X3960160Y49506138D03*
D25*
X3960160Y50531138D03*
D32*
X3960160Y51531138D03*
%TD*%
D30*
%TO.C,C4*%
X24714200Y39712600D03*
X24714200Y41262600D03*
%TD*%
D31*
%TO.C,D26*%
X3960160Y23386100D03*
D24*
X3960160Y24511100D03*
D25*
X3960160Y25536100D03*
D32*
X3960160Y26536100D03*
%TD*%
D33*
%TO.C,U3*%
X21629800Y66924000D03*
X21629800Y65974000D03*
X21629800Y65024000D03*
X19354800Y65024000D03*
X19354800Y66924000D03*
%TD*%
D18*
%TO.C,C8*%
X24290000Y54575000D03*
X24290000Y53025000D03*
%TD*%
D22*
%TO.C,R10*%
X60312800Y66573400D03*
X61962800Y66573400D03*
%TD*%
D19*
%TO.C,R12*%
X17018000Y44335200D03*
X17018000Y42685200D03*
%TD*%
D34*
%TO.C,D24*%
X51650013Y3940000D03*
D35*
X50525013Y3940000D03*
D36*
X49500013Y3940000D03*
D37*
X48500013Y3940000D03*
%TD*%
D30*
%TO.C,C20*%
X6640000Y24845000D03*
X6640000Y26395000D03*
%TD*%
D18*
%TO.C,C10*%
X22770000Y54575000D03*
X22770000Y53025000D03*
%TD*%
%TO.C,C18*%
X68320000Y50145000D03*
X68320000Y48595000D03*
%TD*%
D38*
%TO.C,SW3*%
X51630000Y73540000D03*
X51630000Y71740000D03*
D39*
X49830000Y71920000D03*
X53430000Y71920000D03*
X49830000Y73360000D03*
X53430000Y73360000D03*
%TD*%
D29*
%TO.C,C11*%
X35776200Y46507400D03*
X34226200Y46507400D03*
%TD*%
D40*
%TO.C,FID1*%
X71043800Y67157600D03*
%TD*%
D21*
%TO.C,R1*%
X26289000Y37198800D03*
X26289000Y38848800D03*
%TD*%
D38*
%TO.C,SW1*%
X45970000Y73550000D03*
X45970000Y71750000D03*
D39*
X44170000Y71930000D03*
X47770000Y71930000D03*
X44170000Y73370000D03*
X47770000Y73370000D03*
%TD*%
D20*
%TO.C,TP6*%
X10280000Y48840000D03*
%TD*%
D41*
%TO.C,JP1*%
X52150000Y64252500D03*
D42*
X53450000Y64252500D03*
D43*
X54750000Y64252500D03*
%TD*%
D40*
%TO.C,FID4*%
X4013200Y67157600D03*
%TD*%
D19*
%TO.C,R2*%
X30960000Y68395000D03*
X30960000Y66745000D03*
%TD*%
D44*
%TO.C,U2*%
X31680000Y50120000D03*
X31680000Y49720000D03*
X31680000Y49320000D03*
X31680000Y48920000D03*
X31680000Y48520000D03*
X31680000Y48120000D03*
X31680000Y47720000D03*
X31680000Y47320000D03*
X31680000Y46920000D03*
X31680000Y46520000D03*
X31680000Y46120000D03*
X31680000Y45720000D03*
X31680000Y45320000D03*
X31680000Y44920000D03*
D45*
X30842500Y44082500D03*
X30442500Y44082500D03*
X30042500Y44082500D03*
X29642500Y44082500D03*
X29242500Y44082500D03*
X28842500Y44082500D03*
X28442500Y44082500D03*
X28042500Y44082500D03*
X27642500Y44082500D03*
X27242500Y44082500D03*
X26842500Y44082500D03*
X26442500Y44082500D03*
X26042500Y44082500D03*
X25642500Y44082500D03*
D44*
X24805000Y44920000D03*
X24805000Y45320000D03*
X24805000Y45720000D03*
X24805000Y46120000D03*
X24805000Y46520000D03*
X24805000Y46920000D03*
X24805000Y47320000D03*
X24805000Y47720000D03*
X24805000Y48120000D03*
X24805000Y48520000D03*
X24805000Y48920000D03*
X24805000Y49320000D03*
X24805000Y49720000D03*
X24805000Y50120000D03*
D45*
X25642500Y50957500D03*
X26042500Y50957500D03*
X26442500Y50957500D03*
X26842500Y50957500D03*
X27242500Y50957500D03*
X27642500Y50957500D03*
X28042500Y50957500D03*
X28442500Y50957500D03*
X28842500Y50957500D03*
X29242500Y50957500D03*
X29642500Y50957500D03*
X30042500Y50957500D03*
X30442500Y50957500D03*
X30842500Y50957500D03*
D46*
X28242500Y47520000D03*
%TD*%
D34*
%TO.C,D25*%
X26570200Y3940000D03*
D35*
X25445200Y3940000D03*
D36*
X24420200Y3940000D03*
D37*
X23420200Y3940000D03*
%TD*%
D47*
%TO.C,U4*%
X43942500Y46002500D03*
X42672500Y46002500D03*
X41402500Y46002500D03*
X40132500Y46002500D03*
X40132500Y53177500D03*
X41402500Y53177500D03*
X42672500Y53177500D03*
X43942500Y53177500D03*
%TD*%
D48*
%TO.C,Y1*%
X28080600Y36974600D03*
X28080600Y39174600D03*
X29780600Y39174600D03*
X29780600Y36974600D03*
%TD*%
D19*
%TO.C,R3*%
X44010000Y68395000D03*
X44010000Y66745000D03*
%TD*%
D49*
%TO.C,SW2*%
X22920000Y72420000D03*
X29720000Y72420000D03*
D50*
X23820000Y69670000D03*
X26320000Y69670000D03*
X28820000Y69670000D03*
%TD*%
D40*
%TO.C,FID2*%
X71043800Y8026400D03*
%TD*%
D29*
%TO.C,C19*%
X50385000Y6470000D03*
X48835000Y6470000D03*
%TD*%
D51*
%TO.C,U1*%
X14640000Y43570000D03*
X14140000Y43570000D03*
X13640000Y43570000D03*
X13140000Y43570000D03*
D52*
X13127500Y44082500D03*
X13127500Y44582500D03*
D51*
X13140000Y45095000D03*
X13640000Y45095000D03*
X14140000Y45095000D03*
X14640000Y45095000D03*
D52*
X14652500Y44582500D03*
X14652500Y44082500D03*
%TD*%
D18*
%TO.C,C9*%
X28370000Y54575000D03*
X28370000Y53025000D03*
%TD*%
D53*
%TO.C,C5*%
X20205400Y49352200D03*
X21755400Y49352200D03*
%TD*%
%TO.C,C3*%
X9975000Y45020000D03*
X11525000Y45020000D03*
%TD*%
%TO.C,C2*%
X28169200Y41114800D03*
X29719200Y41114800D03*
%TD*%
D40*
%TO.C,FID3*%
X4013200Y8026400D03*
%TD*%
D54*
%TO.C,D3*%
X7366000Y60277200D03*
X7366000Y57477200D03*
%TD*%
M02*
